%TF.GenerationSoftware,KiCad,Pcbnew,5.1.6-c6e7f7d~86~ubuntu18.04.1*%
%TF.CreationDate,2020-05-27T04:41:55+02:00*%
%TF.ProjectId,LED-display_x4,4c45442d-6469-4737-906c-61795f78342e,1.0*%
%TF.SameCoordinates,PX463f660PY525bfc0*%
%TF.FileFunction,Legend,Bot*%
%TF.FilePolarity,Positive*%
%FSLAX46Y46*%
G04 Gerber Fmt 4.6, Leading zero omitted, Abs format (unit mm)*
G04 Created by KiCad (PCBNEW 5.1.6-c6e7f7d~86~ubuntu18.04.1) date 2020-05-27 04:41:55*
%MOMM*%
%LPD*%
G01*
G04 APERTURE LIST*
%ADD10C,0.120000*%
%ADD11C,0.150000*%
%ADD12C,2.300000*%
%ADD13O,1.800000X1.800000*%
%ADD14R,1.800000X1.800000*%
%ADD15C,1.217600*%
%ADD16R,1.217600X1.217600*%
G04 APERTURE END LIST*
D10*
%TO.C,J2*%
X31690000Y2370000D02*
X54670000Y2370000D01*
X54670000Y2370000D02*
X54670000Y-290000D01*
X54670000Y-290000D02*
X31690000Y-290000D01*
X31690000Y-290000D02*
X31690000Y2370000D01*
X32640000Y-290000D02*
X32640000Y-6290000D01*
X32640000Y-6290000D02*
X33400000Y-6290000D01*
X33400000Y-6290000D02*
X33400000Y-290000D01*
X32700000Y-290000D02*
X32700000Y-6290000D01*
X32820000Y-290000D02*
X32820000Y-6290000D01*
X32940000Y-290000D02*
X32940000Y-6290000D01*
X33060000Y-290000D02*
X33060000Y-6290000D01*
X33180000Y-290000D02*
X33180000Y-6290000D01*
X33300000Y-290000D02*
X33300000Y-6290000D01*
X32640000Y2767071D02*
X32640000Y2370000D01*
X33400000Y2767071D02*
X33400000Y2370000D01*
X32640000Y5240000D02*
X32640000Y4852929D01*
X33400000Y5240000D02*
X33400000Y4852929D01*
X34290000Y2370000D02*
X34290000Y-290000D01*
X35180000Y-290000D02*
X35180000Y-6290000D01*
X35180000Y-6290000D02*
X35940000Y-6290000D01*
X35940000Y-6290000D02*
X35940000Y-290000D01*
X35180000Y2767071D02*
X35180000Y2370000D01*
X35940000Y2767071D02*
X35940000Y2370000D01*
X35180000Y5307071D02*
X35180000Y4852929D01*
X35940000Y5307071D02*
X35940000Y4852929D01*
X36830000Y2370000D02*
X36830000Y-290000D01*
X37720000Y-290000D02*
X37720000Y-6290000D01*
X37720000Y-6290000D02*
X38480000Y-6290000D01*
X38480000Y-6290000D02*
X38480000Y-290000D01*
X37720000Y2767071D02*
X37720000Y2370000D01*
X38480000Y2767071D02*
X38480000Y2370000D01*
X37720000Y5307071D02*
X37720000Y4852929D01*
X38480000Y5307071D02*
X38480000Y4852929D01*
X39370000Y2370000D02*
X39370000Y-290000D01*
X40260000Y-290000D02*
X40260000Y-6290000D01*
X40260000Y-6290000D02*
X41020000Y-6290000D01*
X41020000Y-6290000D02*
X41020000Y-290000D01*
X40260000Y2767071D02*
X40260000Y2370000D01*
X41020000Y2767071D02*
X41020000Y2370000D01*
X40260000Y5307071D02*
X40260000Y4852929D01*
X41020000Y5307071D02*
X41020000Y4852929D01*
X41910000Y2370000D02*
X41910000Y-290000D01*
X42800000Y-290000D02*
X42800000Y-6290000D01*
X42800000Y-6290000D02*
X43560000Y-6290000D01*
X43560000Y-6290000D02*
X43560000Y-290000D01*
X42800000Y2767071D02*
X42800000Y2370000D01*
X43560000Y2767071D02*
X43560000Y2370000D01*
X42800000Y5307071D02*
X42800000Y4852929D01*
X43560000Y5307071D02*
X43560000Y4852929D01*
X44450000Y2370000D02*
X44450000Y-290000D01*
X45340000Y-290000D02*
X45340000Y-6290000D01*
X45340000Y-6290000D02*
X46100000Y-6290000D01*
X46100000Y-6290000D02*
X46100000Y-290000D01*
X45340000Y2767071D02*
X45340000Y2370000D01*
X46100000Y2767071D02*
X46100000Y2370000D01*
X45340000Y5307071D02*
X45340000Y4852929D01*
X46100000Y5307071D02*
X46100000Y4852929D01*
X46990000Y2370000D02*
X46990000Y-290000D01*
X47880000Y-290000D02*
X47880000Y-6290000D01*
X47880000Y-6290000D02*
X48640000Y-6290000D01*
X48640000Y-6290000D02*
X48640000Y-290000D01*
X47880000Y2767071D02*
X47880000Y2370000D01*
X48640000Y2767071D02*
X48640000Y2370000D01*
X47880000Y5307071D02*
X47880000Y4852929D01*
X48640000Y5307071D02*
X48640000Y4852929D01*
X49530000Y2370000D02*
X49530000Y-290000D01*
X50420000Y-290000D02*
X50420000Y-6290000D01*
X50420000Y-6290000D02*
X51180000Y-6290000D01*
X51180000Y-6290000D02*
X51180000Y-290000D01*
X50420000Y2767071D02*
X50420000Y2370000D01*
X51180000Y2767071D02*
X51180000Y2370000D01*
X50420000Y5307071D02*
X50420000Y4852929D01*
X51180000Y5307071D02*
X51180000Y4852929D01*
X52070000Y2370000D02*
X52070000Y-290000D01*
X52960000Y-290000D02*
X52960000Y-6290000D01*
X52960000Y-6290000D02*
X53720000Y-6290000D01*
X53720000Y-6290000D02*
X53720000Y-290000D01*
X52960000Y2767071D02*
X52960000Y2370000D01*
X53720000Y2767071D02*
X53720000Y2370000D01*
X52960000Y5307071D02*
X52960000Y4852929D01*
X53720000Y5307071D02*
X53720000Y4852929D01*
X33020000Y7620000D02*
X31750000Y7620000D01*
X31750000Y7620000D02*
X31750000Y6350000D01*
%TO.C,J1*%
X6290000Y2370000D02*
X29270000Y2370000D01*
X29270000Y2370000D02*
X29270000Y-290000D01*
X29270000Y-290000D02*
X6290000Y-290000D01*
X6290000Y-290000D02*
X6290000Y2370000D01*
X7240000Y-290000D02*
X7240000Y-6290000D01*
X7240000Y-6290000D02*
X8000000Y-6290000D01*
X8000000Y-6290000D02*
X8000000Y-290000D01*
X7300000Y-290000D02*
X7300000Y-6290000D01*
X7420000Y-290000D02*
X7420000Y-6290000D01*
X7540000Y-290000D02*
X7540000Y-6290000D01*
X7660000Y-290000D02*
X7660000Y-6290000D01*
X7780000Y-290000D02*
X7780000Y-6290000D01*
X7900000Y-290000D02*
X7900000Y-6290000D01*
X7240000Y2767071D02*
X7240000Y2370000D01*
X8000000Y2767071D02*
X8000000Y2370000D01*
X7240000Y5240000D02*
X7240000Y4852929D01*
X8000000Y5240000D02*
X8000000Y4852929D01*
X8890000Y2370000D02*
X8890000Y-290000D01*
X9780000Y-290000D02*
X9780000Y-6290000D01*
X9780000Y-6290000D02*
X10540000Y-6290000D01*
X10540000Y-6290000D02*
X10540000Y-290000D01*
X9780000Y2767071D02*
X9780000Y2370000D01*
X10540000Y2767071D02*
X10540000Y2370000D01*
X9780000Y5307071D02*
X9780000Y4852929D01*
X10540000Y5307071D02*
X10540000Y4852929D01*
X11430000Y2370000D02*
X11430000Y-290000D01*
X12320000Y-290000D02*
X12320000Y-6290000D01*
X12320000Y-6290000D02*
X13080000Y-6290000D01*
X13080000Y-6290000D02*
X13080000Y-290000D01*
X12320000Y2767071D02*
X12320000Y2370000D01*
X13080000Y2767071D02*
X13080000Y2370000D01*
X12320000Y5307071D02*
X12320000Y4852929D01*
X13080000Y5307071D02*
X13080000Y4852929D01*
X13970000Y2370000D02*
X13970000Y-290000D01*
X14860000Y-290000D02*
X14860000Y-6290000D01*
X14860000Y-6290000D02*
X15620000Y-6290000D01*
X15620000Y-6290000D02*
X15620000Y-290000D01*
X14860000Y2767071D02*
X14860000Y2370000D01*
X15620000Y2767071D02*
X15620000Y2370000D01*
X14860000Y5307071D02*
X14860000Y4852929D01*
X15620000Y5307071D02*
X15620000Y4852929D01*
X16510000Y2370000D02*
X16510000Y-290000D01*
X17400000Y-290000D02*
X17400000Y-6290000D01*
X17400000Y-6290000D02*
X18160000Y-6290000D01*
X18160000Y-6290000D02*
X18160000Y-290000D01*
X17400000Y2767071D02*
X17400000Y2370000D01*
X18160000Y2767071D02*
X18160000Y2370000D01*
X17400000Y5307071D02*
X17400000Y4852929D01*
X18160000Y5307071D02*
X18160000Y4852929D01*
X19050000Y2370000D02*
X19050000Y-290000D01*
X19940000Y-290000D02*
X19940000Y-6290000D01*
X19940000Y-6290000D02*
X20700000Y-6290000D01*
X20700000Y-6290000D02*
X20700000Y-290000D01*
X19940000Y2767071D02*
X19940000Y2370000D01*
X20700000Y2767071D02*
X20700000Y2370000D01*
X19940000Y5307071D02*
X19940000Y4852929D01*
X20700000Y5307071D02*
X20700000Y4852929D01*
X21590000Y2370000D02*
X21590000Y-290000D01*
X22480000Y-290000D02*
X22480000Y-6290000D01*
X22480000Y-6290000D02*
X23240000Y-6290000D01*
X23240000Y-6290000D02*
X23240000Y-290000D01*
X22480000Y2767071D02*
X22480000Y2370000D01*
X23240000Y2767071D02*
X23240000Y2370000D01*
X22480000Y5307071D02*
X22480000Y4852929D01*
X23240000Y5307071D02*
X23240000Y4852929D01*
X24130000Y2370000D02*
X24130000Y-290000D01*
X25020000Y-290000D02*
X25020000Y-6290000D01*
X25020000Y-6290000D02*
X25780000Y-6290000D01*
X25780000Y-6290000D02*
X25780000Y-290000D01*
X25020000Y2767071D02*
X25020000Y2370000D01*
X25780000Y2767071D02*
X25780000Y2370000D01*
X25020000Y5307071D02*
X25020000Y4852929D01*
X25780000Y5307071D02*
X25780000Y4852929D01*
X26670000Y2370000D02*
X26670000Y-290000D01*
X27560000Y-290000D02*
X27560000Y-6290000D01*
X27560000Y-6290000D02*
X28320000Y-6290000D01*
X28320000Y-6290000D02*
X28320000Y-290000D01*
X27560000Y2767071D02*
X27560000Y2370000D01*
X28320000Y2767071D02*
X28320000Y2370000D01*
X27560000Y5307071D02*
X27560000Y4852929D01*
X28320000Y5307071D02*
X28320000Y4852929D01*
X7620000Y7620000D02*
X6350000Y7620000D01*
X6350000Y7620000D02*
X6350000Y6350000D01*
%TO.C,J2*%
D11*
X30142380Y5413334D02*
X30856666Y5413334D01*
X30999523Y5460953D01*
X31094761Y5556191D01*
X31142380Y5699048D01*
X31142380Y5794286D01*
X30237619Y4984762D02*
X30190000Y4937143D01*
X30142380Y4841905D01*
X30142380Y4603810D01*
X30190000Y4508572D01*
X30237619Y4460953D01*
X30332857Y4413334D01*
X30428095Y4413334D01*
X30570952Y4460953D01*
X31142380Y5032381D01*
X31142380Y4413334D01*
%TO.C,J1*%
X4742380Y5413334D02*
X5456666Y5413334D01*
X5599523Y5460953D01*
X5694761Y5556191D01*
X5742380Y5699048D01*
X5742380Y5794286D01*
X5742380Y4413334D02*
X5742380Y4984762D01*
X5742380Y4699048D02*
X4742380Y4699048D01*
X4885238Y4794286D01*
X4980476Y4889524D01*
X5028095Y4984762D01*
%TD*%
%LPC*%
D12*
%TO.C,M4*%
X58420000Y26670000D03*
%TD*%
%TO.C,M3*%
X58420000Y2540000D03*
%TD*%
%TO.C,M2*%
X2540000Y2540000D03*
%TD*%
%TO.C,M1*%
X2540000Y26670000D03*
%TD*%
D13*
%TO.C,J2*%
X53340000Y3810000D03*
X53340000Y6350000D03*
X50800000Y3810000D03*
X50800000Y6350000D03*
X48260000Y3810000D03*
X48260000Y6350000D03*
X45720000Y3810000D03*
X45720000Y6350000D03*
X43180000Y3810000D03*
X43180000Y6350000D03*
X40640000Y3810000D03*
X40640000Y6350000D03*
X38100000Y3810000D03*
X38100000Y6350000D03*
X35560000Y3810000D03*
X35560000Y6350000D03*
X33020000Y3810000D03*
D14*
X33020000Y6350000D03*
%TD*%
D13*
%TO.C,J1*%
X27940000Y3810000D03*
X27940000Y6350000D03*
X25400000Y3810000D03*
X25400000Y6350000D03*
X22860000Y3810000D03*
X22860000Y6350000D03*
X20320000Y3810000D03*
X20320000Y6350000D03*
X17780000Y3810000D03*
X17780000Y6350000D03*
X15240000Y3810000D03*
X15240000Y6350000D03*
X12700000Y3810000D03*
X12700000Y6350000D03*
X10160000Y3810000D03*
X10160000Y6350000D03*
X7620000Y3810000D03*
D14*
X7620000Y6350000D03*
%TD*%
D15*
%TO.C,D1*%
X27940000Y25400000D03*
X25400000Y25400000D03*
X22860000Y25400000D03*
X20320000Y25400000D03*
X17780000Y25400000D03*
X15240000Y25400000D03*
X12700000Y25400000D03*
X10160000Y25400000D03*
X7620000Y25400000D03*
X27940000Y10160000D03*
X25400000Y10160000D03*
X22860000Y10160000D03*
X20320000Y10160000D03*
X17780000Y10160000D03*
X15240000Y10160000D03*
X12700000Y10160000D03*
X10160000Y10160000D03*
D16*
X7620000Y10160000D03*
%TD*%
D15*
%TO.C,D2*%
X53340000Y25400000D03*
X50800000Y25400000D03*
X48260000Y25400000D03*
X45720000Y25400000D03*
X43180000Y25400000D03*
X40640000Y25400000D03*
X38100000Y25400000D03*
X35560000Y25400000D03*
X33020000Y25400000D03*
X53340000Y10160000D03*
X50800000Y10160000D03*
X48260000Y10160000D03*
X45720000Y10160000D03*
X43180000Y10160000D03*
X40640000Y10160000D03*
X38100000Y10160000D03*
X35560000Y10160000D03*
D16*
X33020000Y10160000D03*
%TD*%
M02*
