%TF.GenerationSoftware,KiCad,Pcbnew,5.1.6-c6e7f7d~87~ubuntu18.04.1*%
%TF.CreationDate,2020-07-29T11:48:29+02:00*%
%TF.ProjectId,LED-display_x4,4c45442d-6469-4737-906c-61795f78342e,1.0*%
%TF.SameCoordinates,PX463f660PY525bfc0*%
%TF.FileFunction,Legend,Top*%
%TF.FilePolarity,Positive*%
%FSLAX46Y46*%
G04 Gerber Fmt 4.6, Leading zero omitted, Abs format (unit mm)*
G04 Created by KiCad (PCBNEW 5.1.6-c6e7f7d~87~ubuntu18.04.1) date 2020-07-29 11:48:29*
%MOMM*%
%LPD*%
G01*
G04 APERTURE LIST*
%ADD10C,0.120000*%
%ADD11C,0.150000*%
%ADD12C,1.370000*%
%ADD13R,1.370000X1.370000*%
%ADD14C,2.300000*%
%ADD15O,1.800000X1.800000*%
%ADD16R,1.800000X1.800000*%
G04 APERTURE END LIST*
D10*
%TO.C,D2*%
X30607000Y26290000D02*
X30607000Y9270000D01*
X30607000Y9270000D02*
X55753000Y9270000D01*
X55753000Y26290000D02*
X55753000Y9270000D01*
X30607000Y26290000D02*
X55753000Y26290000D01*
%TO.C,D1*%
X5207000Y26290000D02*
X5207000Y9270000D01*
X5207000Y9270000D02*
X30353000Y9270000D01*
X30353000Y26290000D02*
X30353000Y9270000D01*
X5207000Y26290000D02*
X30353000Y26290000D01*
%TO.C,D2*%
D11*
X42441904Y16827620D02*
X42441904Y17827620D01*
X42680000Y17827620D01*
X42822857Y17780000D01*
X42918095Y17684762D01*
X42965714Y17589524D01*
X43013333Y17399048D01*
X43013333Y17256191D01*
X42965714Y17065715D01*
X42918095Y16970477D01*
X42822857Y16875239D01*
X42680000Y16827620D01*
X42441904Y16827620D01*
X43394285Y17732381D02*
X43441904Y17780000D01*
X43537142Y17827620D01*
X43775238Y17827620D01*
X43870476Y17780000D01*
X43918095Y17732381D01*
X43965714Y17637143D01*
X43965714Y17541905D01*
X43918095Y17399048D01*
X43346666Y16827620D01*
X43965714Y16827620D01*
%TO.C,D1*%
X17041904Y16827620D02*
X17041904Y17827620D01*
X17280000Y17827620D01*
X17422857Y17780000D01*
X17518095Y17684762D01*
X17565714Y17589524D01*
X17613333Y17399048D01*
X17613333Y17256191D01*
X17565714Y17065715D01*
X17518095Y16970477D01*
X17422857Y16875239D01*
X17280000Y16827620D01*
X17041904Y16827620D01*
X18565714Y16827620D02*
X17994285Y16827620D01*
X18280000Y16827620D02*
X18280000Y17827620D01*
X18184761Y17684762D01*
X18089523Y17589524D01*
X17994285Y17541905D01*
%TO.C,M4*%
X57610476Y22407620D02*
X57610476Y23407620D01*
X57943809Y22693334D01*
X58277142Y23407620D01*
X58277142Y22407620D01*
X59181904Y23074286D02*
X59181904Y22407620D01*
X58943809Y23455239D02*
X58705714Y22740953D01*
X59324761Y22740953D01*
%TO.C,M3*%
X57610476Y5287620D02*
X57610476Y6287620D01*
X57943809Y5573334D01*
X58277142Y6287620D01*
X58277142Y5287620D01*
X58658095Y6287620D02*
X59277142Y6287620D01*
X58943809Y5906667D01*
X59086666Y5906667D01*
X59181904Y5859048D01*
X59229523Y5811429D01*
X59277142Y5716191D01*
X59277142Y5478096D01*
X59229523Y5382858D01*
X59181904Y5335239D01*
X59086666Y5287620D01*
X58800952Y5287620D01*
X58705714Y5335239D01*
X58658095Y5382858D01*
%TO.C,M2*%
X1730476Y5287620D02*
X1730476Y6287620D01*
X2063809Y5573334D01*
X2397142Y6287620D01*
X2397142Y5287620D01*
X2825714Y6192381D02*
X2873333Y6240000D01*
X2968571Y6287620D01*
X3206666Y6287620D01*
X3301904Y6240000D01*
X3349523Y6192381D01*
X3397142Y6097143D01*
X3397142Y6001905D01*
X3349523Y5859048D01*
X2778095Y5287620D01*
X3397142Y5287620D01*
%TO.C,M1*%
X1730476Y22407620D02*
X1730476Y23407620D01*
X2063809Y22693334D01*
X2397142Y23407620D01*
X2397142Y22407620D01*
X3397142Y22407620D02*
X2825714Y22407620D01*
X3111428Y22407620D02*
X3111428Y23407620D01*
X3016190Y23264762D01*
X2920952Y23169524D01*
X2825714Y23121905D01*
%TD*%
%LPC*%
D12*
%TO.C,D2*%
X53340000Y25400000D03*
X50800000Y25400000D03*
X48260000Y25400000D03*
X45720000Y25400000D03*
X43180000Y25400000D03*
X40640000Y25400000D03*
X38100000Y25400000D03*
X35560000Y25400000D03*
X33020000Y25400000D03*
X53340000Y10160000D03*
X50800000Y10160000D03*
X48260000Y10160000D03*
X45720000Y10160000D03*
X43180000Y10160000D03*
X40640000Y10160000D03*
X38100000Y10160000D03*
X35560000Y10160000D03*
D13*
X33020000Y10160000D03*
%TD*%
D12*
%TO.C,D1*%
X27940000Y25400000D03*
X25400000Y25400000D03*
X22860000Y25400000D03*
X20320000Y25400000D03*
X17780000Y25400000D03*
X15240000Y25400000D03*
X12700000Y25400000D03*
X10160000Y25400000D03*
X7620000Y25400000D03*
X27940000Y10160000D03*
X25400000Y10160000D03*
X22860000Y10160000D03*
X20320000Y10160000D03*
X17780000Y10160000D03*
X15240000Y10160000D03*
X12700000Y10160000D03*
X10160000Y10160000D03*
D13*
X7620000Y10160000D03*
%TD*%
D14*
%TO.C,M4*%
X58420000Y26670000D03*
%TD*%
%TO.C,M3*%
X58420000Y2540000D03*
%TD*%
%TO.C,M2*%
X2540000Y2540000D03*
%TD*%
%TO.C,M1*%
X2540000Y26670000D03*
%TD*%
D15*
%TO.C,J2*%
X53340000Y3810000D03*
X53340000Y6350000D03*
X50800000Y3810000D03*
X50800000Y6350000D03*
X48260000Y3810000D03*
X48260000Y6350000D03*
X45720000Y3810000D03*
X45720000Y6350000D03*
X43180000Y3810000D03*
X43180000Y6350000D03*
X40640000Y3810000D03*
X40640000Y6350000D03*
X38100000Y3810000D03*
X38100000Y6350000D03*
X35560000Y3810000D03*
X35560000Y6350000D03*
X33020000Y3810000D03*
D16*
X33020000Y6350000D03*
%TD*%
D15*
%TO.C,J1*%
X27940000Y3810000D03*
X27940000Y6350000D03*
X25400000Y3810000D03*
X25400000Y6350000D03*
X22860000Y3810000D03*
X22860000Y6350000D03*
X20320000Y3810000D03*
X20320000Y6350000D03*
X17780000Y3810000D03*
X17780000Y6350000D03*
X15240000Y3810000D03*
X15240000Y6350000D03*
X12700000Y3810000D03*
X12700000Y6350000D03*
X10160000Y3810000D03*
X10160000Y6350000D03*
X7620000Y3810000D03*
D16*
X7620000Y6350000D03*
%TD*%
M02*
