%TF.GenerationSoftware,KiCad,Pcbnew,5.1.6-c6e7f7d~87~ubuntu18.04.1*%
%TF.CreationDate,2020-07-29T10:58:19+02:00*%
%TF.ProjectId,LED-display_x4,4c45442d-6469-4737-906c-61795f78342e,1.0*%
%TF.SameCoordinates,PX463f660PY525bfc0*%
%TF.FileFunction,Soldermask,Bot*%
%TF.FilePolarity,Negative*%
%FSLAX46Y46*%
G04 Gerber Fmt 4.6, Leading zero omitted, Abs format (unit mm)*
G04 Created by KiCad (PCBNEW 5.1.6-c6e7f7d~87~ubuntu18.04.1) date 2020-07-29 10:58:19*
%MOMM*%
%LPD*%
G01*
G04 APERTURE LIST*
%ADD10C,1.300000*%
%ADD11R,1.300000X1.300000*%
%ADD12C,2.300000*%
%ADD13O,1.800000X1.800000*%
%ADD14R,1.800000X1.800000*%
G04 APERTURE END LIST*
D10*
%TO.C,D2*%
X53340000Y25400000D03*
X50800000Y25400000D03*
X48260000Y25400000D03*
X45720000Y25400000D03*
X43180000Y25400000D03*
X40640000Y25400000D03*
X38100000Y25400000D03*
X35560000Y25400000D03*
X33020000Y25400000D03*
X53340000Y10160000D03*
X50800000Y10160000D03*
X48260000Y10160000D03*
X45720000Y10160000D03*
X43180000Y10160000D03*
X40640000Y10160000D03*
X38100000Y10160000D03*
X35560000Y10160000D03*
D11*
X33020000Y10160000D03*
%TD*%
D10*
%TO.C,D1*%
X27940000Y25400000D03*
X25400000Y25400000D03*
X22860000Y25400000D03*
X20320000Y25400000D03*
X17780000Y25400000D03*
X15240000Y25400000D03*
X12700000Y25400000D03*
X10160000Y25400000D03*
X7620000Y25400000D03*
X27940000Y10160000D03*
X25400000Y10160000D03*
X22860000Y10160000D03*
X20320000Y10160000D03*
X17780000Y10160000D03*
X15240000Y10160000D03*
X12700000Y10160000D03*
X10160000Y10160000D03*
D11*
X7620000Y10160000D03*
%TD*%
D12*
%TO.C,M4*%
X58420000Y26670000D03*
%TD*%
%TO.C,M3*%
X58420000Y2540000D03*
%TD*%
%TO.C,M2*%
X2540000Y2540000D03*
%TD*%
%TO.C,M1*%
X2540000Y26670000D03*
%TD*%
D13*
%TO.C,J2*%
X53340000Y3810000D03*
X53340000Y6350000D03*
X50800000Y3810000D03*
X50800000Y6350000D03*
X48260000Y3810000D03*
X48260000Y6350000D03*
X45720000Y3810000D03*
X45720000Y6350000D03*
X43180000Y3810000D03*
X43180000Y6350000D03*
X40640000Y3810000D03*
X40640000Y6350000D03*
X38100000Y3810000D03*
X38100000Y6350000D03*
X35560000Y3810000D03*
X35560000Y6350000D03*
X33020000Y3810000D03*
D14*
X33020000Y6350000D03*
%TD*%
D13*
%TO.C,J1*%
X27940000Y3810000D03*
X27940000Y6350000D03*
X25400000Y3810000D03*
X25400000Y6350000D03*
X22860000Y3810000D03*
X22860000Y6350000D03*
X20320000Y3810000D03*
X20320000Y6350000D03*
X17780000Y3810000D03*
X17780000Y6350000D03*
X15240000Y3810000D03*
X15240000Y6350000D03*
X12700000Y3810000D03*
X12700000Y6350000D03*
X10160000Y3810000D03*
X10160000Y6350000D03*
X7620000Y3810000D03*
D14*
X7620000Y6350000D03*
%TD*%
M02*
