M48
; DRILL file {KiCad 5.1.6-c6e7f7d~86~ubuntu18.04.1} date Wed May 27 04:42:00 2020
; FORMAT={-:-/ absolute / inch / decimal}
; #@! TF.CreationDate,2020-05-27T04:42:00+02:00
; #@! TF.GenerationSoftware,Kicad,Pcbnew,5.1.6-c6e7f7d~86~ubuntu18.04.1
FMAT,2
INCH
T1C0.0200
T2C0.0394
T3C0.0866
%
G90
G05
T1
X1.3Y1.0
X1.3Y0.4
X1.4Y1.0
X1.4Y0.4
X1.5Y1.0
X1.5Y0.4
X1.6Y1.0
X1.6Y0.4
X1.7Y1.0
X1.7Y0.4
X1.8Y1.0
X1.8Y0.4
X1.9Y1.0
X1.9Y0.4
X2.0Y1.0
X2.0Y0.4
X2.1Y1.0
X2.1Y0.4
X0.3Y1.0
X0.3Y0.4
X0.4Y1.0
X0.4Y0.4
X0.5Y1.0
X0.5Y0.4
X0.6Y1.0
X0.6Y0.4
X0.7Y1.0
X0.7Y0.4
X0.8Y1.0
X0.8Y0.4
X0.9Y1.0
X0.9Y0.4
X1.0Y1.0
X1.0Y0.4
X1.1Y1.0
X1.1Y0.4
T2
X1.3Y0.25
X1.3Y0.15
X1.4Y0.25
X1.4Y0.15
X1.5Y0.25
X1.5Y0.15
X1.6Y0.25
X1.6Y0.15
X1.7Y0.25
X1.7Y0.15
X1.8Y0.25
X1.8Y0.15
X1.9Y0.25
X1.9Y0.15
X2.0Y0.25
X2.0Y0.15
X2.1Y0.25
X2.1Y0.15
X0.3Y0.25
X0.3Y0.15
X0.4Y0.25
X0.4Y0.15
X0.5Y0.25
X0.5Y0.15
X0.6Y0.25
X0.6Y0.15
X0.7Y0.25
X0.7Y0.15
X0.8Y0.25
X0.8Y0.15
X0.9Y0.25
X0.9Y0.15
X1.0Y0.25
X1.0Y0.15
X1.1Y0.25
X1.1Y0.15
T3
X2.3Y1.05
X0.1Y0.1
X0.1Y1.05
X2.3Y0.1
T0
M30
