M48
; DRILL file {KiCad 5.1.6-c6e7f7d~87~ubuntu18.04.1} date Fri Jul 31 15:45:05 2020
; FORMAT={-:-/ absolute / inch / decimal}
; #@! TF.CreationDate,2020-07-31T15:45:05+02:00
; #@! TF.GenerationSoftware,Kicad,Pcbnew,5.1.6-c6e7f7d~87~ubuntu18.04.1
FMAT,2
INCH
T1C0.0157
T2C0.0276
T3C0.0295
T4C0.0300
T5C0.0315
T6C0.0394
T7C0.0433
T8C0.0512
T9C0.0866
%
G90
G05
T1
X0.7904Y0.5805
X0.8298Y1.5308
T2
X0.7Y0.7
X0.7Y0.4
X0.525Y1.55
X0.525Y1.25
X1.85Y0.5
X2.15Y0.5
X1.025Y0.2
X1.025Y0.1
X2.9Y0.7
X3.2Y0.7
T3
X2.6Y1.3
X2.6Y1.25
X2.6Y1.2
X2.15Y0.3
X2.15Y0.25
X2.15Y0.2
T4
X0.15Y2.25
X0.15Y2.15
X0.15Y2.05
X0.15Y1.95
X0.15Y1.85
X0.15Y1.75
X0.15Y1.65
X0.15Y1.55
X0.15Y1.45
X0.15Y1.25
X0.15Y1.15
X0.15Y1.05
X0.15Y0.95
X0.15Y0.85
X0.15Y0.75
X0.15Y0.65
X0.15Y0.55
X0.15Y0.45
X0.25Y2.25
X0.25Y2.15
X0.25Y2.05
X0.25Y1.95
X0.25Y1.85
X0.25Y1.75
X0.25Y1.65
X0.25Y1.55
X0.25Y1.45
X0.25Y1.25
X0.25Y1.15
X0.25Y1.05
X0.25Y0.95
X0.25Y0.85
X0.25Y0.75
X0.25Y0.65
X0.25Y0.55
X0.25Y0.45
T5
X0.7Y1.75
X0.7Y1.5531
X2.6Y2.25
X2.6Y2.0531
X0.7Y1.05
X0.7Y0.8531
X0.7Y1.3969
X0.7Y1.2
X2.9Y1.325
X2.9Y1.1281
X1.975Y1.3969
X1.975Y1.2
X0.925Y2.3
X0.925Y2.2
X0.925Y2.1
X0.925Y2.0
X0.925Y1.9
X0.925Y1.8
X0.925Y1.7
X0.925Y1.6
X0.925Y1.5
X0.925Y1.4
X0.925Y1.3
X0.925Y1.2
X0.925Y1.1
X0.925Y1.0
X0.925Y0.9
X0.925Y0.8
X0.925Y0.7
X0.925Y0.6
X0.925Y0.5
X0.925Y0.4
X1.525Y2.3
X1.525Y2.2
X1.525Y2.1
X1.525Y2.0
X1.525Y1.9
X1.525Y1.8
X1.525Y1.7
X1.525Y1.6
X1.525Y1.5
X1.525Y1.4
X1.525Y1.3
X1.525Y1.2
X1.525Y1.1
X1.525Y1.0
X1.525Y0.9
X1.525Y0.8
X1.525Y0.7
X1.525Y0.6
X1.525Y0.5
X1.525Y0.4
X2.7Y0.8969
X2.7Y0.7
X0.7Y2.1
X0.7Y1.9031
X2.45Y2.25
X2.45Y1.95
X3.125Y1.25
X3.125Y1.1516
X2.3Y1.7
X2.3984Y1.7
X3.05Y0.55
X3.05Y0.25
X2.3Y2.25
X2.3Y1.95
X2.8Y0.55
X2.8Y0.25
X1.8Y2.25
X1.8Y2.15
X1.8Y2.05
X1.8Y1.95
X1.8Y1.85
X1.8Y1.75
X1.8Y1.65
X2.1Y2.25
X2.1Y2.15
X2.1Y2.05
X2.1Y1.95
X2.1Y1.85
X2.1Y1.75
X2.1Y1.65
X2.2Y1.2984
X2.2Y1.2
T6
X3.35Y1.0
X3.35Y0.9
X2.4Y0.4
X2.5Y0.7
X2.5Y0.2
X0.5Y0.2
X0.5Y0.1
X0.6Y0.2
X0.6Y0.1
X0.7Y0.2
X0.7Y0.1
X0.8Y0.2
X0.8Y0.1
X3.35Y1.8
X3.35Y1.7
T7
X1.0Y2.55
X1.4Y2.55
X2.1Y2.55
X2.5Y2.55
X0.45Y2.55
X0.85Y2.55
X1.55Y2.55
X1.95Y2.55
X2.6Y1.925
X2.6Y1.525
T8
X1.9Y0.25
X2.45Y1.0
T9
X3.35Y0.15
X0.2Y0.15
X3.35Y2.55
X0.2Y2.55
T0
M30
