M48
; DRILL file {KiCad 5.1.6-c6e7f7d~86~ubuntu18.04.1} date Tue Jun 30 16:43:33 2020
; FORMAT={-:-/ absolute / inch / decimal}
; #@! TF.CreationDate,2020-06-30T16:43:33+02:00
; #@! TF.GenerationSoftware,Kicad,Pcbnew,5.1.6-c6e7f7d~86~ubuntu18.04.1
FMAT,2
INCH
T1C0.0157
T2C0.0276
T3C0.0295
T4C0.0300
T5C0.0315
T6C0.0394
T7C0.0433
T8C0.0520
T9C0.0866
%
G90
G05
T1
X0.3674Y0.4508
X0.995Y1.15
T2
X1.65Y1.7
X1.65Y1.4
X1.85Y0.5
X2.15Y0.5
X2.9Y0.7
X3.2Y0.7
X1.5Y0.85
X1.5Y0.55
X1.05Y0.2
X1.05Y0.1
T3
X2.45Y1.3
X2.45Y1.25
X2.45Y1.2
X2.15Y0.35
X2.15Y0.3
X2.15Y0.25
T4
X0.15Y2.25
X0.15Y2.15
X0.15Y2.05
X0.15Y1.95
X0.15Y1.85
X0.15Y1.75
X0.15Y1.65
X0.15Y1.55
X0.15Y1.45
X0.15Y1.25
X0.15Y1.15
X0.15Y1.05
X0.15Y0.95
X0.15Y0.85
X0.15Y0.75
X0.15Y0.65
X0.15Y0.55
X0.15Y0.45
X0.25Y2.25
X0.25Y2.15
X0.25Y2.05
X0.25Y1.95
X0.25Y1.85
X0.25Y1.75
X0.25Y1.65
X0.25Y1.55
X0.25Y1.45
X0.25Y1.25
X0.25Y1.15
X0.25Y1.05
X0.25Y0.95
X0.25Y0.85
X0.25Y0.75
X0.25Y0.65
X0.25Y0.55
X0.25Y0.45
T5
X1.5Y1.9
X1.5Y1.7031
X2.85Y2.25
X2.85Y2.0531
X0.7Y2.3
X0.7Y2.2
X0.7Y2.1
X0.7Y2.0
X0.7Y1.9
X0.7Y1.8
X0.7Y1.7
X0.7Y1.6
X0.7Y1.5
X0.7Y1.4
X0.7Y1.3
X0.7Y1.2
X0.7Y1.1
X0.7Y1.0
X0.7Y0.9
X0.7Y0.8
X0.7Y0.7
X0.7Y0.6
X0.7Y0.5
X0.7Y0.4
X1.3Y2.3
X1.3Y2.2
X1.3Y2.1
X1.3Y2.0
X1.3Y1.9
X1.3Y1.8
X1.3Y1.7
X1.3Y1.6
X1.3Y1.5
X1.3Y1.4
X1.3Y1.3
X1.3Y1.2
X1.3Y1.1
X1.3Y1.0
X1.3Y0.9
X1.3Y0.8
X1.3Y0.7
X1.3Y0.6
X1.3Y0.5
X1.3Y0.4
X2.3Y2.25
X2.3Y1.95
X3.25Y2.15
X3.25Y2.0516
X2.7Y0.8969
X2.7Y0.7
X2.6Y2.25
X2.6Y2.0531
X1.8Y2.25
X1.8Y2.15
X1.8Y2.05
X1.8Y1.95
X1.8Y1.85
X1.8Y1.75
X1.8Y1.65
X2.1Y2.25
X2.1Y2.15
X2.1Y2.05
X2.1Y1.95
X2.1Y1.85
X2.1Y1.75
X2.1Y1.65
X1.5Y1.5469
X1.5Y1.35
X1.5Y1.2
X1.5Y1.0031
X1.8Y1.3969
X1.8Y1.2
X2.1Y1.2984
X2.1Y1.2
X2.3Y1.7
X2.3984Y1.7
X2.45Y2.25
X2.45Y1.95
X1.5Y2.25
X1.5Y2.0531
T6
X0.5Y0.2
X0.5Y0.1
X0.6Y0.2
X0.6Y0.1
X0.7Y0.2
X0.7Y0.1
X0.8Y0.2
X0.8Y0.1
X1.9Y0.25
X2.7Y1.1
X2.4Y0.4
X2.5Y0.7
X2.5Y0.2
T7
X1.0Y2.55
X1.4Y2.55
X0.45Y2.55
X0.85Y2.55
X1.55Y2.55
X1.95Y2.55
X2.1Y2.55
X2.5Y2.55
X2.6Y1.9
X2.6Y1.5
T8
X3.2Y1.0969
X3.2Y0.9
X3.2Y1.6969
X3.2Y1.5
T9
X3.35Y2.55
X0.2Y2.55
X0.2Y0.15
X3.35Y0.15
T0
M30
