%TF.GenerationSoftware,KiCad,Pcbnew,5.1.6-c6e7f7d~87~ubuntu18.04.1*%
%TF.CreationDate,2020-07-31T15:45:01+02:00*%
%TF.ProjectId,ICL7107,49434c37-3130-4372-9e6b-696361645f70,2.0*%
%TF.SameCoordinates,PX525bfc0PY7a53eb0*%
%TF.FileFunction,Copper,L1,Top*%
%TF.FilePolarity,Positive*%
%FSLAX46Y46*%
G04 Gerber Fmt 4.6, Leading zero omitted, Abs format (unit mm)*
G04 Created by KiCad (PCBNEW 5.1.6-c6e7f7d~87~ubuntu18.04.1) date 2020-07-31 15:45:01*
%MOMM*%
%LPD*%
G01*
G04 APERTURE LIST*
%TA.AperFunction,ComponentPad*%
%ADD10O,1.700000X1.700000*%
%TD*%
%TA.AperFunction,ComponentPad*%
%ADD11R,1.700000X1.700000*%
%TD*%
%TA.AperFunction,ComponentPad*%
%ADD12C,2.600000*%
%TD*%
%TA.AperFunction,ComponentPad*%
%ADD13O,1.600000X1.600000*%
%TD*%
%TA.AperFunction,ComponentPad*%
%ADD14R,1.600000X1.600000*%
%TD*%
%TA.AperFunction,ComponentPad*%
%ADD15C,1.524000*%
%TD*%
%TA.AperFunction,ComponentPad*%
%ADD16R,1.524000X1.524000*%
%TD*%
%TA.AperFunction,ComponentPad*%
%ADD17O,1.400000X1.400000*%
%TD*%
%TA.AperFunction,ComponentPad*%
%ADD18C,1.400000*%
%TD*%
%TA.AperFunction,ComponentPad*%
%ADD19C,1.600000*%
%TD*%
%TA.AperFunction,ComponentPad*%
%ADD20O,2.200000X2.200000*%
%TD*%
%TA.AperFunction,ComponentPad*%
%ADD21R,2.200000X2.200000*%
%TD*%
%TA.AperFunction,ComponentPad*%
%ADD22C,4.400000*%
%TD*%
%TA.AperFunction,ComponentPad*%
%ADD23C,1.800000*%
%TD*%
%TA.AperFunction,ComponentPad*%
%ADD24O,1.500000X1.050000*%
%TD*%
%TA.AperFunction,ComponentPad*%
%ADD25R,1.500000X1.050000*%
%TD*%
%TA.AperFunction,ViaPad*%
%ADD26C,0.800000*%
%TD*%
%TA.AperFunction,Conductor*%
%ADD27C,0.400000*%
%TD*%
G04 APERTURE END LIST*
D10*
%TO.P,J3,2*%
%TO.N,/IN+*%
X85090000Y22860000D03*
D11*
%TO.P,J3,1*%
%TO.N,GND*%
X85090000Y25400000D03*
%TD*%
D10*
%TO.P,J1,2*%
%TO.N,Net-(D4-Pad2)*%
X85090000Y43180000D03*
D11*
%TO.P,J1,1*%
%TO.N,GND*%
X85090000Y45720000D03*
%TD*%
D12*
%TO.P,TP2,1*%
%TO.N,GND*%
X62230000Y25400000D03*
%TD*%
%TO.P,TP1,1*%
%TO.N,Net-(RV1-Pad2)*%
X48260000Y6350000D03*
%TD*%
D13*
%TO.P,D2,2*%
%TO.N,/V-*%
X71120000Y6350000D03*
D14*
%TO.P,D2,1*%
%TO.N,Net-(C3-Pad1)*%
X71120000Y13970000D03*
%TD*%
D13*
%TO.P,D1,2*%
%TO.N,Net-(C3-Pad1)*%
X77470000Y13970000D03*
D14*
%TO.P,D1,1*%
%TO.N,/V+*%
X77470000Y6350000D03*
%TD*%
D15*
%TO.P,D3,36*%
%TO.N,Net-(D3-Pad36)*%
X3810000Y31750000D03*
%TO.P,D3,35*%
%TO.N,Net-(D3-Pad35)*%
X3810000Y29210000D03*
%TO.P,D3,34*%
%TO.N,Net-(D3-Pad34)*%
X3810000Y26670000D03*
%TO.P,D3,33*%
%TO.N,Net-(D3-Pad33)*%
X3810000Y24130000D03*
%TO.P,D3,32*%
%TO.N,Net-(D3-Pad13)*%
X3810000Y21590000D03*
%TO.P,D3,31*%
X3810000Y19050000D03*
%TO.P,D3,30*%
%TO.N,Net-(D3-Pad30)*%
X3810000Y16510000D03*
%TO.P,D3,29*%
%TO.N,Net-(D3-Pad29)*%
X3810000Y13970000D03*
%TO.P,D3,28*%
%TO.N,Net-(D3-Pad28)*%
X3810000Y11430000D03*
%TO.P,D3,27*%
%TO.N,/DP1*%
X6350000Y11430000D03*
%TO.P,D3,26*%
%TO.N,Net-(D3-Pad26)*%
X6350000Y13970000D03*
%TO.P,D3,25*%
%TO.N,Net-(D3-Pad25)*%
X6350000Y16510000D03*
%TO.P,D3,24*%
%TO.N,Net-(D3-Pad24)*%
X6350000Y19050000D03*
%TO.P,D3,23*%
%TO.N,Net-(D3-Pad23)*%
X6350000Y21590000D03*
%TO.P,D3,22*%
%TO.N,/DP2*%
X6350000Y24130000D03*
%TO.P,D3,21*%
%TO.N,Net-(D3-Pad21)*%
X6350000Y26670000D03*
%TO.P,D3,20*%
%TO.N,Net-(D3-Pad20)*%
X6350000Y29210000D03*
D16*
%TO.P,D3,19*%
%TO.N,Net-(D3-Pad19)*%
X6350000Y31750000D03*
D15*
%TO.P,D3,18*%
%TO.N,Net-(D3-Pad18)*%
X3810000Y57150000D03*
%TO.P,D3,17*%
%TO.N,Net-(D3-Pad17)*%
X3810000Y54610000D03*
%TO.P,D3,16*%
%TO.N,Net-(D3-Pad16)*%
X3810000Y52070000D03*
%TO.P,D3,15*%
%TO.N,Net-(D3-Pad15)*%
X3810000Y49530000D03*
%TO.P,D3,14*%
%TO.N,Net-(D3-Pad13)*%
X3810000Y46990000D03*
%TO.P,D3,13*%
X3810000Y44450000D03*
%TO.P,D3,12*%
%TO.N,Net-(D3-Pad12)*%
X3810000Y41910000D03*
%TO.P,D3,11*%
%TO.N,Net-(D3-Pad11)*%
X3810000Y39370000D03*
%TO.P,D3,10*%
%TO.N,Net-(D3-Pad10)*%
X3810000Y36830000D03*
%TO.P,D3,9*%
%TO.N,/DP3*%
X6350000Y36830000D03*
%TO.P,D3,8*%
%TO.N,Net-(D3-Pad8)*%
X6350000Y39370000D03*
%TO.P,D3,7*%
%TO.N,Net-(D3-Pad7)*%
X6350000Y41910000D03*
%TO.P,D3,6*%
%TO.N,Net-(D3-Pad6)*%
X6350000Y44450000D03*
%TO.P,D3,5*%
%TO.N,Net-(D3-Pad5)*%
X6350000Y46990000D03*
%TO.P,D3,4*%
%TO.N,/DP4*%
X6350000Y49530000D03*
%TO.P,D3,3*%
%TO.N,Net-(D3-Pad15)*%
X6350000Y52070000D03*
%TO.P,D3,2*%
%TO.N,Net-(D3-Pad2)*%
X6350000Y54610000D03*
D16*
%TO.P,D3,1*%
%TO.N,Net-(D3-Pad1)*%
X6350000Y57150000D03*
%TD*%
D17*
%TO.P,R5,2*%
%TO.N,Net-(J2-Pad2)*%
X26035000Y2540000D03*
D18*
%TO.P,R5,1*%
%TO.N,GND*%
X26035000Y5080000D03*
%TD*%
D19*
%TO.P,C1,1*%
%TO.N,/OSC3*%
X17780000Y26670000D03*
%TO.P,C1,2*%
%TO.N,Net-(C1-Pad2)*%
X17780000Y21670000D03*
%TD*%
%TO.P,C2,2*%
%TO.N,Net-(C2-Pad2)*%
X17780000Y39450000D03*
%TO.P,C2,1*%
%TO.N,Net-(C2-Pad1)*%
X17780000Y44450000D03*
%TD*%
%TO.P,C3,1*%
%TO.N,Net-(C3-Pad1)*%
X68580000Y17780000D03*
%TO.P,C3,2*%
%TO.N,GND*%
X68580000Y22780000D03*
%TD*%
%TO.P,C4,1*%
%TO.N,Net-(C4-Pad1)*%
X17780000Y53340000D03*
%TO.P,C4,2*%
%TO.N,Net-(C2-Pad2)*%
X17780000Y48340000D03*
%TD*%
%TO.P,C5,1*%
%TO.N,Net-(C5-Pad1)*%
X17780000Y30480000D03*
%TO.P,C5,2*%
%TO.N,Net-(C5-Pad2)*%
X17780000Y35480000D03*
%TD*%
D14*
%TO.P,C6,1*%
%TO.N,Net-(C6-Pad1)*%
X79375000Y31750000D03*
D19*
%TO.P,C6,2*%
%TO.N,GND*%
X79375000Y29250000D03*
%TD*%
%TO.P,C7,1*%
%TO.N,Net-(C6-Pad1)*%
X73660000Y33655000D03*
%TO.P,C7,2*%
%TO.N,GND*%
X73660000Y28655000D03*
%TD*%
D14*
%TO.P,C8,1*%
%TO.N,/V+*%
X55880000Y30480000D03*
D19*
%TO.P,C8,2*%
%TO.N,GND*%
X55880000Y32980000D03*
%TD*%
%TO.P,C9,2*%
%TO.N,GND*%
X50165000Y35480000D03*
%TO.P,C9,1*%
%TO.N,/V+*%
X50165000Y30480000D03*
%TD*%
%TO.P,C10,2*%
%TO.N,Net-(C10-Pad2)*%
X66040000Y52150000D03*
%TO.P,C10,1*%
%TO.N,Net-(C10-Pad1)*%
X66040000Y57150000D03*
%TD*%
%TO.P,C11,2*%
%TO.N,/negative voltage converter/V-*%
X60920000Y43180000D03*
D14*
%TO.P,C11,1*%
%TO.N,GND*%
X58420000Y43180000D03*
%TD*%
D20*
%TO.P,D4,2*%
%TO.N,Net-(D4-Pad2)*%
X66040000Y48895000D03*
D21*
%TO.P,D4,1*%
%TO.N,Net-(C6-Pad1)*%
X66040000Y38735000D03*
%TD*%
D20*
%TO.P,D5,2*%
%TO.N,Net-(D5-Pad2)*%
X21590000Y64770000D03*
D21*
%TO.P,D5,1*%
%TO.N,Net-(D3-Pad13)*%
X11430000Y64770000D03*
%TD*%
%TO.P,D6,1*%
%TO.N,Net-(D5-Pad2)*%
X25400000Y64770000D03*
D20*
%TO.P,D6,2*%
%TO.N,Net-(D6-Pad2)*%
X35560000Y64770000D03*
%TD*%
D21*
%TO.P,D7,1*%
%TO.N,Net-(D6-Pad2)*%
X39370000Y64770000D03*
D20*
%TO.P,D7,2*%
%TO.N,Net-(D7-Pad2)*%
X49530000Y64770000D03*
%TD*%
D21*
%TO.P,D8,1*%
%TO.N,Net-(D7-Pad2)*%
X53340000Y64770000D03*
D20*
%TO.P,D8,2*%
%TO.N,/V+*%
X63500000Y64770000D03*
%TD*%
D13*
%TO.P,D9,2*%
%TO.N,Net-(C10-Pad1)*%
X58420000Y57150000D03*
D14*
%TO.P,D9,1*%
%TO.N,GND*%
X58420000Y49530000D03*
%TD*%
%TO.P,D10,1*%
%TO.N,Net-(C10-Pad1)*%
X62230000Y57150000D03*
D13*
%TO.P,D10,2*%
%TO.N,/negative voltage converter/V-*%
X62230000Y49530000D03*
%TD*%
D11*
%TO.P,J2,1*%
%TO.N,/DP4*%
X20320000Y5080000D03*
D10*
%TO.P,J2,2*%
%TO.N,Net-(J2-Pad2)*%
X20320000Y2540000D03*
%TO.P,J2,3*%
%TO.N,/DP3*%
X17780000Y5080000D03*
%TO.P,J2,4*%
%TO.N,Net-(J2-Pad2)*%
X17780000Y2540000D03*
%TO.P,J2,5*%
%TO.N,/DP2*%
X15240000Y5080000D03*
%TO.P,J2,6*%
%TO.N,Net-(J2-Pad2)*%
X15240000Y2540000D03*
%TO.P,J2,7*%
%TO.N,/DP1*%
X12700000Y5080000D03*
%TO.P,J2,8*%
%TO.N,Net-(J2-Pad2)*%
X12700000Y2540000D03*
%TD*%
D22*
%TO.P,M1,1*%
%TO.N,Net-(M1-Pad1)*%
X5080000Y64770000D03*
%TD*%
%TO.P,M2,1*%
%TO.N,Net-(M2-Pad1)*%
X85090000Y64770000D03*
%TD*%
%TO.P,M3,1*%
%TO.N,Net-(M3-Pad1)*%
X85090000Y3810000D03*
%TD*%
%TO.P,M4,1*%
%TO.N,Net-(M4-Pad1)*%
X5080000Y3810000D03*
%TD*%
D18*
%TO.P,R2,1*%
%TO.N,/V+*%
X54610000Y12700000D03*
D17*
%TO.P,R2,2*%
%TO.N,Net-(R2-Pad2)*%
X46990000Y12700000D03*
%TD*%
D18*
%TO.P,R1,1*%
%TO.N,Net-(C3-Pad1)*%
X73660000Y17780000D03*
D17*
%TO.P,R1,2*%
%TO.N,/IN+*%
X81280000Y17780000D03*
%TD*%
D18*
%TO.P,R3,1*%
%TO.N,Net-(R3-Pad1)*%
X17780000Y17780000D03*
D17*
%TO.P,R3,2*%
%TO.N,Net-(C1-Pad2)*%
X17780000Y10160000D03*
%TD*%
%TO.P,R4,2*%
%TO.N,Net-(C2-Pad2)*%
X13335000Y39370000D03*
D18*
%TO.P,R4,1*%
%TO.N,Net-(R4-Pad1)*%
X13335000Y31750000D03*
%TD*%
D23*
%TO.P,RV1,1*%
%TO.N,GND*%
X63500000Y17780000D03*
%TO.P,RV1,2*%
%TO.N,Net-(RV1-Pad2)*%
X60960000Y10160000D03*
%TO.P,RV1,3*%
%TO.N,Net-(R2-Pad2)*%
X63500000Y5080000D03*
%TD*%
D24*
%TO.P,U1,2*%
%TO.N,Net-(R2-Pad2)*%
X54610000Y6350000D03*
%TO.P,U1,3*%
%TO.N,GND*%
X54610000Y7620000D03*
D25*
%TO.P,U1,1*%
%TO.N,N/C*%
X54610000Y5080000D03*
%TD*%
D14*
%TO.P,U2,1*%
%TO.N,/V+*%
X38735000Y10160000D03*
D13*
%TO.P,U2,21*%
%TO.N,GND*%
X23495000Y58420000D03*
%TO.P,U2,2*%
%TO.N,Net-(D3-Pad24)*%
X38735000Y12700000D03*
%TO.P,U2,22*%
%TO.N,Net-(D3-Pad7)*%
X23495000Y55880000D03*
%TO.P,U2,3*%
%TO.N,Net-(D3-Pad26)*%
X38735000Y15240000D03*
%TO.P,U2,23*%
%TO.N,Net-(D3-Pad11)*%
X23495000Y53340000D03*
%TO.P,U2,4*%
%TO.N,Net-(D3-Pad28)*%
X38735000Y17780000D03*
%TO.P,U2,24*%
%TO.N,Net-(D3-Pad8)*%
X23495000Y50800000D03*
%TO.P,U2,5*%
%TO.N,Net-(D3-Pad29)*%
X38735000Y20320000D03*
%TO.P,U2,25*%
%TO.N,Net-(D3-Pad35)*%
X23495000Y48260000D03*
%TO.P,U2,6*%
%TO.N,Net-(D3-Pad30)*%
X38735000Y22860000D03*
%TO.P,U2,26*%
%TO.N,/V-*%
X23495000Y45720000D03*
%TO.P,U2,7*%
%TO.N,Net-(D3-Pad25)*%
X38735000Y25400000D03*
%TO.P,U2,27*%
%TO.N,Net-(C4-Pad1)*%
X23495000Y43180000D03*
%TO.P,U2,8*%
%TO.N,Net-(D3-Pad23)*%
X38735000Y27940000D03*
%TO.P,U2,28*%
%TO.N,Net-(R4-Pad1)*%
X23495000Y40640000D03*
%TO.P,U2,9*%
%TO.N,Net-(D3-Pad20)*%
X38735000Y30480000D03*
%TO.P,U2,29*%
%TO.N,Net-(C2-Pad1)*%
X23495000Y38100000D03*
%TO.P,U2,10*%
%TO.N,Net-(D3-Pad21)*%
X38735000Y33020000D03*
%TO.P,U2,30*%
%TO.N,GND*%
X23495000Y35560000D03*
%TO.P,U2,11*%
%TO.N,Net-(D3-Pad33)*%
X38735000Y35560000D03*
%TO.P,U2,31*%
%TO.N,Net-(C3-Pad1)*%
X23495000Y33020000D03*
%TO.P,U2,12*%
%TO.N,Net-(D3-Pad34)*%
X38735000Y38100000D03*
%TO.P,U2,32*%
%TO.N,GND*%
X23495000Y30480000D03*
%TO.P,U2,13*%
%TO.N,Net-(D3-Pad36)*%
X38735000Y40640000D03*
%TO.P,U2,33*%
%TO.N,Net-(C5-Pad2)*%
X23495000Y27940000D03*
%TO.P,U2,14*%
%TO.N,Net-(D3-Pad19)*%
X38735000Y43180000D03*
%TO.P,U2,34*%
%TO.N,Net-(C5-Pad1)*%
X23495000Y25400000D03*
%TO.P,U2,15*%
%TO.N,Net-(D3-Pad6)*%
X38735000Y45720000D03*
%TO.P,U2,35*%
%TO.N,GND*%
X23495000Y22860000D03*
%TO.P,U2,16*%
%TO.N,Net-(D3-Pad10)*%
X38735000Y48260000D03*
%TO.P,U2,36*%
%TO.N,Net-(RV1-Pad2)*%
X23495000Y20320000D03*
%TO.P,U2,17*%
%TO.N,Net-(D3-Pad12)*%
X38735000Y50800000D03*
%TO.P,U2,37*%
%TO.N,Net-(U2-Pad37)*%
X23495000Y17780000D03*
%TO.P,U2,18*%
%TO.N,Net-(D3-Pad5)*%
X38735000Y53340000D03*
%TO.P,U2,38*%
%TO.N,/OSC3*%
X23495000Y15240000D03*
%TO.P,U2,19*%
%TO.N,Net-(D3-Pad15)*%
X38735000Y55880000D03*
%TO.P,U2,39*%
%TO.N,Net-(R3-Pad1)*%
X23495000Y12700000D03*
%TO.P,U2,20*%
%TO.N,Net-(D3-Pad17)*%
X38735000Y58420000D03*
%TO.P,U2,40*%
%TO.N,Net-(C1-Pad2)*%
X23495000Y10160000D03*
%TD*%
D25*
%TO.P,U3,1*%
%TO.N,Net-(C6-Pad1)*%
X66040000Y33020000D03*
D24*
%TO.P,U3,3*%
%TO.N,/V+*%
X66040000Y30480000D03*
%TO.P,U3,2*%
%TO.N,GND*%
X66040000Y31750000D03*
%TD*%
D14*
%TO.P,U4,1*%
%TO.N,Net-(U4-Pad1)*%
X45720000Y57150000D03*
D13*
%TO.P,U4,8*%
%TO.N,Net-(C10-Pad2)*%
X53340000Y41910000D03*
%TO.P,U4,2*%
X45720000Y54610000D03*
%TO.P,U4,9*%
%TO.N,Net-(U4-Pad1)*%
X53340000Y44450000D03*
%TO.P,U4,3*%
X45720000Y52070000D03*
%TO.P,U4,10*%
%TO.N,Net-(C10-Pad2)*%
X53340000Y46990000D03*
%TO.P,U4,4*%
X45720000Y49530000D03*
%TO.P,U4,11*%
%TO.N,Net-(U4-Pad1)*%
X53340000Y49530000D03*
%TO.P,U4,5*%
X45720000Y46990000D03*
%TO.P,U4,12*%
X53340000Y52070000D03*
%TO.P,U4,6*%
%TO.N,Net-(C10-Pad2)*%
X45720000Y44450000D03*
%TO.P,U4,13*%
%TO.N,/negative voltage converter/OSC3*%
X53340000Y54610000D03*
%TO.P,U4,7*%
%TO.N,GND*%
X45720000Y41910000D03*
%TO.P,U4,14*%
%TO.N,/negative voltage converter/V+*%
X53340000Y57150000D03*
%TD*%
D26*
%TO.N,Net-(D3-Pad26)*%
X20076600Y14744200D03*
%TO.N,Net-(D3-Pad19)*%
X21076400Y38881400D03*
%TD*%
D27*
%TO.N,Net-(C1-Pad2)*%
X23495000Y10160000D02*
X17780000Y10160000D01*
%TO.N,Net-(C3-Pad1)*%
X68580000Y17780000D02*
X65409700Y17780000D01*
X65409700Y17780000D02*
X51420000Y31769700D01*
X51420000Y31769700D02*
X27834800Y31769700D01*
X27834800Y31769700D02*
X26584500Y33020000D01*
X26584500Y33020000D02*
X24745300Y33020000D01*
X77470000Y13970000D02*
X77470000Y15220300D01*
X73660000Y17780000D02*
X76219700Y15220300D01*
X76219700Y15220300D02*
X77470000Y15220300D01*
X23495000Y33020000D02*
X24745300Y33020000D01*
%TO.N,Net-(C5-Pad1)*%
X23495000Y25400000D02*
X22244700Y25400000D01*
X22244700Y25400000D02*
X22244700Y26015300D01*
X22244700Y26015300D02*
X17780000Y30480000D01*
%TO.N,Net-(C6-Pad1)*%
X79375000Y31750000D02*
X78124700Y31750000D01*
X73660000Y33655000D02*
X76219700Y33655000D01*
X76219700Y33655000D02*
X78124700Y31750000D01*
X67240300Y33020000D02*
X67875300Y33655000D01*
X67875300Y33655000D02*
X73660000Y33655000D01*
X66040000Y33020000D02*
X67240300Y33020000D01*
%TO.N,GND*%
X54610000Y8185200D02*
X29140200Y8185200D01*
X29140200Y8185200D02*
X26035000Y5080000D01*
X54610000Y8185200D02*
X54610000Y8595300D01*
X54610000Y7620000D02*
X54610000Y8185200D01*
X62230000Y31750000D02*
X66040000Y31750000D01*
X55880000Y32980000D02*
X57110000Y31750000D01*
X57110000Y31750000D02*
X62230000Y31750000D01*
X62230000Y31750000D02*
X62230000Y25400000D01*
X79375000Y29250000D02*
X74255000Y29250000D01*
X74255000Y29250000D02*
X73660000Y28655000D01*
X45720000Y41910000D02*
X44469700Y41910000D01*
X44469700Y41910000D02*
X39409300Y36849600D01*
X39409300Y36849600D02*
X36694100Y36849600D01*
X36694100Y36849600D02*
X35404500Y35560000D01*
X35404500Y35560000D02*
X23495000Y35560000D01*
X50165000Y35480000D02*
X52665000Y32980000D01*
X52665000Y32980000D02*
X55880000Y32980000D01*
X54610000Y8595300D02*
X63500000Y17485300D01*
X63500000Y17485300D02*
X63500000Y17780000D01*
%TO.N,/V+*%
X38735000Y10160000D02*
X52070000Y10160000D01*
X52070000Y10160000D02*
X54610000Y12700000D01*
%TO.N,Net-(C10-Pad2)*%
X52089700Y46990000D02*
X52089700Y43892500D01*
X52089700Y43892500D02*
X52821900Y43160300D01*
X52821900Y43160300D02*
X53340000Y43160300D01*
X53340000Y41910000D02*
X53340000Y43160300D01*
X46970400Y46990000D02*
X52089700Y46990000D01*
X46970400Y46990000D02*
X46970400Y47547400D01*
X46970400Y47547400D02*
X46238100Y48279700D01*
X46238100Y48279700D02*
X45720000Y48279700D01*
X45720000Y45700300D02*
X46266300Y45700300D01*
X46266300Y45700300D02*
X46970400Y46404400D01*
X46970400Y46404400D02*
X46970400Y46990000D01*
X53340000Y46990000D02*
X52089700Y46990000D01*
X45720000Y49530000D02*
X45720000Y48279700D01*
X45720000Y44450000D02*
X45720000Y45700300D01*
X53802600Y46990000D02*
X54590300Y46990000D01*
X53802600Y46990000D02*
X53340000Y46990000D01*
X45720000Y54610000D02*
X45720000Y53359700D01*
X45720000Y49530000D02*
X45720000Y50780300D01*
X45720000Y50780300D02*
X45173000Y50780300D01*
X45173000Y50780300D02*
X44430400Y51522900D01*
X44430400Y51522900D02*
X44430400Y52588200D01*
X44430400Y52588200D02*
X45201900Y53359700D01*
X45201900Y53359700D02*
X45720000Y53359700D01*
X54590300Y46990000D02*
X54590300Y48005900D01*
X54590300Y48005900D02*
X58734400Y52150000D01*
X58734400Y52150000D02*
X66040000Y52150000D01*
%TO.N,Net-(C10-Pad1)*%
X62230000Y57150000D02*
X66040000Y57150000D01*
X58420000Y57150000D02*
X62230000Y57150000D01*
%TO.N,/negative voltage converter/V-*%
X62230000Y49530000D02*
X62230000Y48279700D01*
X62230000Y48279700D02*
X60920000Y46969700D01*
X60920000Y46969700D02*
X60920000Y43180000D01*
%TO.N,/DP3*%
X17780000Y5080000D02*
X14858200Y8001800D01*
X14858200Y8001800D02*
X5456300Y8001800D01*
X5456300Y8001800D02*
X1914000Y11544100D01*
X1914000Y11544100D02*
X1914000Y32394000D01*
X1914000Y32394000D02*
X6350000Y36830000D01*
%TO.N,Net-(D4-Pad2)*%
X85090000Y43180000D02*
X83789700Y43180000D01*
X66040000Y48895000D02*
X78074700Y48895000D01*
X78074700Y48895000D02*
X83789700Y43180000D01*
%TO.N,Net-(D5-Pad2)*%
X25400000Y64770000D02*
X21590000Y64770000D01*
%TO.N,Net-(R4-Pad1)*%
X23495000Y40640000D02*
X21171800Y40640000D01*
X21171800Y40640000D02*
X13335000Y32803200D01*
X13335000Y32803200D02*
X13335000Y31750000D01*
%TO.N,Net-(J2-Pad2)*%
X20320000Y2540000D02*
X26035000Y2540000D01*
X17780000Y2540000D02*
X20320000Y2540000D01*
X15240000Y2540000D02*
X17780000Y2540000D01*
X12700000Y2540000D02*
X15240000Y2540000D01*
%TO.N,Net-(D3-Pad36)*%
X38735000Y40640000D02*
X37484700Y40640000D01*
X3810000Y31750000D02*
X7628400Y35568400D01*
X7628400Y35568400D02*
X12130200Y35568400D01*
X12130200Y35568400D02*
X18452200Y41890400D01*
X18452200Y41890400D02*
X36234300Y41890400D01*
X36234300Y41890400D02*
X37484700Y40640000D01*
%TO.N,Net-(D3-Pad34)*%
X3810000Y26670000D02*
X3904100Y26670000D01*
X3904100Y26670000D02*
X5174100Y27940000D01*
X5174100Y27940000D02*
X11219900Y27940000D01*
X11219900Y27940000D02*
X16980800Y33700900D01*
X16980800Y33700900D02*
X18245300Y33700900D01*
X18245300Y33700900D02*
X21394100Y36849700D01*
X21394100Y36849700D02*
X35314900Y36849700D01*
X35314900Y36849700D02*
X36565200Y38100000D01*
X36565200Y38100000D02*
X37484700Y38100000D01*
X38735000Y38100000D02*
X37484700Y38100000D01*
%TO.N,Net-(D3-Pad33)*%
X38735000Y35560000D02*
X37484700Y35560000D01*
X37484700Y35560000D02*
X36234400Y34309700D01*
X36234400Y34309700D02*
X21734200Y34309700D01*
X21734200Y34309700D02*
X20379900Y32955400D01*
X20379900Y32955400D02*
X17283900Y32955400D01*
X17283900Y32955400D02*
X9728500Y25400000D01*
X9728500Y25400000D02*
X5080000Y25400000D01*
X5080000Y25400000D02*
X3810000Y24130000D01*
%TO.N,Net-(D3-Pad13)*%
X11430000Y64770000D02*
X11430000Y63219700D01*
X11430000Y63219700D02*
X10249100Y63219700D01*
X10249100Y63219700D02*
X5090400Y58061000D01*
X5090400Y58061000D02*
X5090400Y56715900D01*
X5090400Y56715900D02*
X4312200Y55937700D01*
X4312200Y55937700D02*
X3380200Y55937700D01*
X3380200Y55937700D02*
X2594600Y55152100D01*
X2594600Y55152100D02*
X2594600Y48205400D01*
X2594600Y48205400D02*
X3810000Y46990000D01*
%TO.N,Net-(D3-Pad30)*%
X37484700Y22860000D02*
X33694300Y19069600D01*
X33694300Y19069600D02*
X21266600Y19069600D01*
X21266600Y19069600D02*
X17437000Y15240000D01*
X17437000Y15240000D02*
X5080000Y15240000D01*
X5080000Y15240000D02*
X3810000Y16510000D01*
X38735000Y22860000D02*
X37484700Y22860000D01*
%TO.N,Net-(D3-Pad29)*%
X38735000Y20320000D02*
X37484700Y20320000D01*
X37484700Y20320000D02*
X33674700Y16510000D01*
X33674700Y16510000D02*
X22978400Y16510000D01*
X22978400Y16510000D02*
X21424500Y14956100D01*
X21424500Y14956100D02*
X21424500Y14879900D01*
X21424500Y14879900D02*
X19244600Y12700000D01*
X19244600Y12700000D02*
X5080000Y12700000D01*
X5080000Y12700000D02*
X3810000Y13970000D01*
%TO.N,Net-(D3-Pad28)*%
X3810000Y11430000D02*
X5035100Y10204900D01*
X5035100Y10204900D02*
X7860600Y10204900D01*
X7860600Y10204900D02*
X9705400Y12049700D01*
X9705400Y12049700D02*
X20423700Y12049700D01*
X20423700Y12049700D02*
X22344000Y13970000D01*
X22344000Y13970000D02*
X33674700Y13970000D01*
X33674700Y13970000D02*
X37484700Y17780000D01*
X38735000Y17780000D02*
X37484700Y17780000D01*
%TO.N,Net-(D3-Pad26)*%
X20076600Y14744200D02*
X19302400Y13970000D01*
X19302400Y13970000D02*
X6350000Y13970000D01*
%TO.N,Net-(D3-Pad25)*%
X38735000Y25400000D02*
X37484700Y25400000D01*
X37484700Y25400000D02*
X33694300Y21609600D01*
X33694300Y21609600D02*
X19982800Y21609600D01*
X19982800Y21609600D02*
X14883200Y16510000D01*
X14883200Y16510000D02*
X6350000Y16510000D01*
%TO.N,Net-(D3-Pad23)*%
X37484700Y27940000D02*
X33694400Y24149700D01*
X33694400Y24149700D02*
X13989700Y24149700D01*
X13989700Y24149700D02*
X11430000Y21590000D01*
X11430000Y21590000D02*
X6350000Y21590000D01*
X38735000Y27940000D02*
X37484700Y27940000D01*
%TO.N,Net-(D3-Pad20)*%
X6350000Y29210000D02*
X5524500Y29210000D01*
X5524500Y29210000D02*
X4312200Y27997700D01*
X4312200Y27997700D02*
X3374700Y27997700D01*
X3374700Y27997700D02*
X2564400Y27187400D01*
X2564400Y27187400D02*
X2564400Y23648100D01*
X2564400Y23648100D02*
X3352500Y22860000D01*
X3352500Y22860000D02*
X8108300Y22860000D01*
X8108300Y22860000D02*
X16998200Y31749900D01*
X16998200Y31749900D02*
X25785400Y31749900D01*
X25785400Y31749900D02*
X27055300Y30480000D01*
X27055300Y30480000D02*
X38735000Y30480000D01*
%TO.N,Net-(D3-Pad19)*%
X38735000Y43180000D02*
X38735000Y41929700D01*
X38735000Y41929700D02*
X39282000Y41929700D01*
X39282000Y41929700D02*
X40000900Y41210800D01*
X40000900Y41210800D02*
X40000900Y40134600D01*
X40000900Y40134600D02*
X39255900Y39389600D01*
X39255900Y39389600D02*
X21584600Y39389600D01*
X21584600Y39389600D02*
X21076400Y38881400D01*
%TO.N,Net-(D3-Pad17)*%
X38735000Y58420000D02*
X37484700Y58420000D01*
X37484700Y58420000D02*
X36234400Y57169700D01*
X36234400Y57169700D02*
X14667400Y57169700D01*
X14667400Y57169700D02*
X13435300Y55937600D01*
X13435300Y55937600D02*
X5684600Y55937600D01*
X5684600Y55937600D02*
X4357000Y54610000D01*
X4357000Y54610000D02*
X3810000Y54610000D01*
%TO.N,Net-(D3-Pad15)*%
X37484700Y55880000D02*
X33674700Y52070000D01*
X33674700Y52070000D02*
X6350000Y52070000D01*
X38735000Y55880000D02*
X37484700Y55880000D01*
%TO.N,Net-(D3-Pad12)*%
X38735000Y50800000D02*
X37484700Y50800000D01*
X37484700Y50800000D02*
X33674700Y46990000D01*
X33674700Y46990000D02*
X13292900Y46990000D01*
X13292900Y46990000D02*
X9482900Y43180000D01*
X9482900Y43180000D02*
X5080000Y43180000D01*
X5080000Y43180000D02*
X3810000Y41910000D01*
%TO.N,Net-(D3-Pad10)*%
X37484700Y48260000D02*
X33674700Y44450000D01*
X33674700Y44450000D02*
X20092300Y44450000D01*
X20092300Y44450000D02*
X13742300Y38100000D01*
X13742300Y38100000D02*
X5080000Y38100000D01*
X5080000Y38100000D02*
X3810000Y36830000D01*
X38735000Y48260000D02*
X37484700Y48260000D01*
%TO.N,Net-(D3-Pad5)*%
X37484700Y53340000D02*
X33674700Y49530000D01*
X33674700Y49530000D02*
X19611800Y49530000D01*
X19611800Y49530000D02*
X19536500Y49605300D01*
X19536500Y49605300D02*
X8965300Y49605300D01*
X8965300Y49605300D02*
X6350000Y46990000D01*
X38735000Y53340000D02*
X37484700Y53340000D01*
%TO.N,Net-(D6-Pad2)*%
X39370000Y64770000D02*
X35560000Y64770000D01*
%TO.N,Net-(D7-Pad2)*%
X53340000Y64770000D02*
X49530000Y64770000D01*
%TO.N,Net-(R2-Pad2)*%
X54610000Y6350000D02*
X62230000Y6350000D01*
X62230000Y6350000D02*
X63500000Y5080000D01*
%TD*%
M02*
