%TF.GenerationSoftware,KiCad,Pcbnew,5.1.6-c6e7f7d~86~ubuntu18.04.1*%
%TF.CreationDate,2020-06-02T01:44:03+02:00*%
%TF.ProjectId,ICL7107,49434c37-3130-4372-9e6b-696361645f70,1.0*%
%TF.SameCoordinates,PX525bfc0PY7a53eb0*%
%TF.FileFunction,Legend,Top*%
%TF.FilePolarity,Positive*%
%FSLAX46Y46*%
G04 Gerber Fmt 4.6, Leading zero omitted, Abs format (unit mm)*
G04 Created by KiCad (PCBNEW 5.1.6-c6e7f7d~86~ubuntu18.04.1) date 2020-06-02 01:44:03*
%MOMM*%
%LPD*%
G01*
G04 APERTURE LIST*
%ADD10C,0.010000*%
%ADD11C,0.120000*%
%ADD12C,0.150000*%
%ADD13C,1.624000*%
%ADD14R,1.624000X1.624000*%
%ADD15O,1.500000X1.500000*%
%ADD16C,1.500000*%
%ADD17C,1.700000*%
%ADD18R,1.700000X1.700000*%
%ADD19O,2.300000X2.300000*%
%ADD20R,2.300000X2.300000*%
%ADD21O,1.700000X1.700000*%
%ADD22R,4.060000X2.080000*%
%ADD23O,4.060000X2.080000*%
%ADD24R,1.800000X1.800000*%
%ADD25O,1.800000X1.800000*%
%ADD26C,4.500000*%
%ADD27C,1.900000*%
%ADD28C,2.100000*%
%ADD29O,1.600000X1.150000*%
%ADD30R,1.600000X1.150000*%
G04 APERTURE END LIST*
D10*
%TO.C,G1*%
G36*
X10478421Y41208328D02*
G01*
X10530933Y41294848D01*
X10594683Y41360501D01*
X10678631Y41413874D01*
X10707687Y41428120D01*
X10787062Y41465189D01*
X14628812Y41465189D01*
X14708187Y41428120D01*
X14799579Y41376683D01*
X14868204Y41315430D01*
X14923023Y41235771D01*
X14937453Y41208328D01*
X14986000Y41111178D01*
X14986000Y27468821D01*
X14937453Y27371671D01*
X14884941Y27285151D01*
X14821191Y27219498D01*
X14737243Y27166125D01*
X14708187Y27151879D01*
X14628812Y27114810D01*
X13538471Y27114810D01*
X13538471Y27291183D01*
X13733975Y27291350D01*
X13913267Y27291681D01*
X14074238Y27292171D01*
X14214781Y27292813D01*
X14332787Y27293603D01*
X14426147Y27294535D01*
X14492755Y27295603D01*
X14530501Y27296802D01*
X14536730Y27297277D01*
X14629836Y27322168D01*
X14707544Y27370571D01*
X14765002Y27438434D01*
X14795513Y27513324D01*
X14796376Y27532720D01*
X14797213Y27582824D01*
X14798022Y27662596D01*
X14798802Y27770994D01*
X14799551Y27906977D01*
X14800267Y28069503D01*
X14800949Y28257532D01*
X14801596Y28470022D01*
X14802206Y28705931D01*
X14802777Y28964220D01*
X14803308Y29243845D01*
X14803796Y29543766D01*
X14804242Y29862942D01*
X14804642Y30200332D01*
X14804995Y30554893D01*
X14805301Y30925586D01*
X14805556Y31311368D01*
X14805760Y31711198D01*
X14805912Y32124035D01*
X14806008Y32548838D01*
X14806049Y32984566D01*
X14806032Y33430177D01*
X14805956Y33884629D01*
X14805827Y34321750D01*
X14805627Y34874527D01*
X14805425Y35396445D01*
X14805217Y35888392D01*
X14805001Y36351258D01*
X14804771Y36785934D01*
X14804525Y37193309D01*
X14804258Y37574272D01*
X14803966Y37929714D01*
X14803646Y38260525D01*
X14803293Y38567593D01*
X14802904Y38851810D01*
X14802475Y39114064D01*
X14802001Y39355246D01*
X14801480Y39576245D01*
X14800908Y39777952D01*
X14800279Y39961255D01*
X14799591Y40127045D01*
X14798840Y40276211D01*
X14798022Y40409644D01*
X14797132Y40528233D01*
X14796167Y40632868D01*
X14795124Y40724439D01*
X14793998Y40803835D01*
X14792785Y40871947D01*
X14791482Y40929663D01*
X14790085Y40977875D01*
X14788589Y41017471D01*
X14786991Y41049342D01*
X14785288Y41074377D01*
X14783474Y41093466D01*
X14781547Y41107499D01*
X14779502Y41117366D01*
X14777336Y41123956D01*
X14776226Y41126265D01*
X14734482Y41182935D01*
X14679044Y41232950D01*
X14621519Y41266336D01*
X14607745Y41271035D01*
X14586645Y41272571D01*
X14535810Y41274048D01*
X14457258Y41275456D01*
X14353005Y41276781D01*
X14225065Y41278010D01*
X14075456Y41279132D01*
X13906194Y41280134D01*
X13719294Y41281003D01*
X13516773Y41281727D01*
X13300646Y41282293D01*
X13072930Y41282689D01*
X12835641Y41282902D01*
X12692062Y41282937D01*
X12407740Y41282914D01*
X12153447Y41282827D01*
X11927463Y41282654D01*
X11728066Y41282368D01*
X11553536Y41281947D01*
X11402152Y41281365D01*
X11272194Y41280599D01*
X11161940Y41279624D01*
X11069670Y41278415D01*
X10993662Y41276948D01*
X10932197Y41275200D01*
X10883554Y41273144D01*
X10846011Y41270758D01*
X10817847Y41268017D01*
X10797343Y41264897D01*
X10782778Y41261372D01*
X10772429Y41257419D01*
X10769109Y41255726D01*
X10712439Y41213982D01*
X10662424Y41158544D01*
X10629038Y41101019D01*
X10624339Y41087245D01*
X10623430Y41068276D01*
X10622559Y41018818D01*
X10621724Y40940131D01*
X10620926Y40833475D01*
X10620165Y40700112D01*
X10619441Y40541302D01*
X10618753Y40358305D01*
X10618103Y40152382D01*
X10617489Y39924793D01*
X10616911Y39676800D01*
X10616371Y39409662D01*
X10615867Y39124640D01*
X10615401Y38822995D01*
X10614971Y38505988D01*
X10614577Y38174878D01*
X10614221Y37830926D01*
X10613901Y37475394D01*
X10613619Y37109541D01*
X10613373Y36734628D01*
X10613163Y36351916D01*
X10612991Y35962664D01*
X10612855Y35568135D01*
X10612756Y35169588D01*
X10612694Y34768284D01*
X10612669Y34365483D01*
X10612681Y33962446D01*
X10612729Y33560434D01*
X10612814Y33160707D01*
X10612936Y32764525D01*
X10613094Y32373150D01*
X10613290Y31987841D01*
X10613522Y31609860D01*
X10613791Y31240467D01*
X10614097Y30880922D01*
X10614440Y30532486D01*
X10614819Y30196419D01*
X10615235Y29873983D01*
X10615688Y29566438D01*
X10616178Y29275043D01*
X10616705Y29001061D01*
X10617268Y28745750D01*
X10617868Y28510373D01*
X10618505Y28296189D01*
X10619179Y28104460D01*
X10619890Y27936444D01*
X10620637Y27793404D01*
X10621421Y27676600D01*
X10622242Y27587292D01*
X10623100Y27526741D01*
X10623994Y27496207D01*
X10624339Y27492754D01*
X10651810Y27436576D01*
X10698486Y27379487D01*
X10754393Y27333095D01*
X10769109Y27324273D01*
X10778452Y27320078D01*
X10791482Y27316322D01*
X10809946Y27312976D01*
X10835590Y27310008D01*
X10870162Y27307390D01*
X10915408Y27305091D01*
X10973076Y27303082D01*
X11044910Y27301332D01*
X11132660Y27299811D01*
X11238070Y27298490D01*
X11362889Y27297339D01*
X11508862Y27296327D01*
X11677737Y27295426D01*
X11871260Y27294604D01*
X12091179Y27293832D01*
X12339239Y27293079D01*
X12617188Y27292317D01*
X12636500Y27292266D01*
X12875769Y27291722D01*
X13107260Y27291363D01*
X13328864Y27291185D01*
X13538471Y27291183D01*
X13538471Y27114810D01*
X10787062Y27114810D01*
X10707687Y27151879D01*
X10616295Y27203316D01*
X10547670Y27264569D01*
X10492851Y27344228D01*
X10478421Y27371671D01*
X10429875Y27468821D01*
X10429875Y41111178D01*
X10478421Y41208328D01*
G37*
X10478421Y41208328D02*
X10530933Y41294848D01*
X10594683Y41360501D01*
X10678631Y41413874D01*
X10707687Y41428120D01*
X10787062Y41465189D01*
X14628812Y41465189D01*
X14708187Y41428120D01*
X14799579Y41376683D01*
X14868204Y41315430D01*
X14923023Y41235771D01*
X14937453Y41208328D01*
X14986000Y41111178D01*
X14986000Y27468821D01*
X14937453Y27371671D01*
X14884941Y27285151D01*
X14821191Y27219498D01*
X14737243Y27166125D01*
X14708187Y27151879D01*
X14628812Y27114810D01*
X13538471Y27114810D01*
X13538471Y27291183D01*
X13733975Y27291350D01*
X13913267Y27291681D01*
X14074238Y27292171D01*
X14214781Y27292813D01*
X14332787Y27293603D01*
X14426147Y27294535D01*
X14492755Y27295603D01*
X14530501Y27296802D01*
X14536730Y27297277D01*
X14629836Y27322168D01*
X14707544Y27370571D01*
X14765002Y27438434D01*
X14795513Y27513324D01*
X14796376Y27532720D01*
X14797213Y27582824D01*
X14798022Y27662596D01*
X14798802Y27770994D01*
X14799551Y27906977D01*
X14800267Y28069503D01*
X14800949Y28257532D01*
X14801596Y28470022D01*
X14802206Y28705931D01*
X14802777Y28964220D01*
X14803308Y29243845D01*
X14803796Y29543766D01*
X14804242Y29862942D01*
X14804642Y30200332D01*
X14804995Y30554893D01*
X14805301Y30925586D01*
X14805556Y31311368D01*
X14805760Y31711198D01*
X14805912Y32124035D01*
X14806008Y32548838D01*
X14806049Y32984566D01*
X14806032Y33430177D01*
X14805956Y33884629D01*
X14805827Y34321750D01*
X14805627Y34874527D01*
X14805425Y35396445D01*
X14805217Y35888392D01*
X14805001Y36351258D01*
X14804771Y36785934D01*
X14804525Y37193309D01*
X14804258Y37574272D01*
X14803966Y37929714D01*
X14803646Y38260525D01*
X14803293Y38567593D01*
X14802904Y38851810D01*
X14802475Y39114064D01*
X14802001Y39355246D01*
X14801480Y39576245D01*
X14800908Y39777952D01*
X14800279Y39961255D01*
X14799591Y40127045D01*
X14798840Y40276211D01*
X14798022Y40409644D01*
X14797132Y40528233D01*
X14796167Y40632868D01*
X14795124Y40724439D01*
X14793998Y40803835D01*
X14792785Y40871947D01*
X14791482Y40929663D01*
X14790085Y40977875D01*
X14788589Y41017471D01*
X14786991Y41049342D01*
X14785288Y41074377D01*
X14783474Y41093466D01*
X14781547Y41107499D01*
X14779502Y41117366D01*
X14777336Y41123956D01*
X14776226Y41126265D01*
X14734482Y41182935D01*
X14679044Y41232950D01*
X14621519Y41266336D01*
X14607745Y41271035D01*
X14586645Y41272571D01*
X14535810Y41274048D01*
X14457258Y41275456D01*
X14353005Y41276781D01*
X14225065Y41278010D01*
X14075456Y41279132D01*
X13906194Y41280134D01*
X13719294Y41281003D01*
X13516773Y41281727D01*
X13300646Y41282293D01*
X13072930Y41282689D01*
X12835641Y41282902D01*
X12692062Y41282937D01*
X12407740Y41282914D01*
X12153447Y41282827D01*
X11927463Y41282654D01*
X11728066Y41282368D01*
X11553536Y41281947D01*
X11402152Y41281365D01*
X11272194Y41280599D01*
X11161940Y41279624D01*
X11069670Y41278415D01*
X10993662Y41276948D01*
X10932197Y41275200D01*
X10883554Y41273144D01*
X10846011Y41270758D01*
X10817847Y41268017D01*
X10797343Y41264897D01*
X10782778Y41261372D01*
X10772429Y41257419D01*
X10769109Y41255726D01*
X10712439Y41213982D01*
X10662424Y41158544D01*
X10629038Y41101019D01*
X10624339Y41087245D01*
X10623430Y41068276D01*
X10622559Y41018818D01*
X10621724Y40940131D01*
X10620926Y40833475D01*
X10620165Y40700112D01*
X10619441Y40541302D01*
X10618753Y40358305D01*
X10618103Y40152382D01*
X10617489Y39924793D01*
X10616911Y39676800D01*
X10616371Y39409662D01*
X10615867Y39124640D01*
X10615401Y38822995D01*
X10614971Y38505988D01*
X10614577Y38174878D01*
X10614221Y37830926D01*
X10613901Y37475394D01*
X10613619Y37109541D01*
X10613373Y36734628D01*
X10613163Y36351916D01*
X10612991Y35962664D01*
X10612855Y35568135D01*
X10612756Y35169588D01*
X10612694Y34768284D01*
X10612669Y34365483D01*
X10612681Y33962446D01*
X10612729Y33560434D01*
X10612814Y33160707D01*
X10612936Y32764525D01*
X10613094Y32373150D01*
X10613290Y31987841D01*
X10613522Y31609860D01*
X10613791Y31240467D01*
X10614097Y30880922D01*
X10614440Y30532486D01*
X10614819Y30196419D01*
X10615235Y29873983D01*
X10615688Y29566438D01*
X10616178Y29275043D01*
X10616705Y29001061D01*
X10617268Y28745750D01*
X10617868Y28510373D01*
X10618505Y28296189D01*
X10619179Y28104460D01*
X10619890Y27936444D01*
X10620637Y27793404D01*
X10621421Y27676600D01*
X10622242Y27587292D01*
X10623100Y27526741D01*
X10623994Y27496207D01*
X10624339Y27492754D01*
X10651810Y27436576D01*
X10698486Y27379487D01*
X10754393Y27333095D01*
X10769109Y27324273D01*
X10778452Y27320078D01*
X10791482Y27316322D01*
X10809946Y27312976D01*
X10835590Y27310008D01*
X10870162Y27307390D01*
X10915408Y27305091D01*
X10973076Y27303082D01*
X11044910Y27301332D01*
X11132660Y27299811D01*
X11238070Y27298490D01*
X11362889Y27297339D01*
X11508862Y27296327D01*
X11677737Y27295426D01*
X11871260Y27294604D01*
X12091179Y27293832D01*
X12339239Y27293079D01*
X12617188Y27292317D01*
X12636500Y27292266D01*
X12875769Y27291722D01*
X13107260Y27291363D01*
X13328864Y27291185D01*
X13538471Y27291183D01*
X13538471Y27114810D01*
X10787062Y27114810D01*
X10707687Y27151879D01*
X10616295Y27203316D01*
X10547670Y27264569D01*
X10492851Y27344228D01*
X10478421Y27371671D01*
X10429875Y27468821D01*
X10429875Y41111178D01*
X10478421Y41208328D01*
G36*
X13534671Y27937327D02*
G01*
X13539536Y27992468D01*
X13549781Y28036181D01*
X13567151Y28078597D01*
X13573125Y28090812D01*
X13597792Y28136586D01*
X13619218Y28160945D01*
X13647058Y28171489D01*
X13680190Y28175064D01*
X13747567Y28179941D01*
X13696066Y28097093D01*
X13667959Y28047284D01*
X13651371Y28002016D01*
X13642667Y27948228D01*
X13639025Y27892254D01*
X13642805Y27787659D01*
X13666013Y27705041D01*
X13710498Y27639934D01*
X13760645Y27598775D01*
X13846055Y27558314D01*
X13945634Y27536653D01*
X14051082Y27533368D01*
X14154096Y27548033D01*
X14246375Y27580225D01*
X14317158Y27627226D01*
X14371569Y27697724D01*
X14403700Y27784364D01*
X14413185Y27880313D01*
X14399657Y27978736D01*
X14362748Y28072801D01*
X14342835Y28105511D01*
X14318938Y28142212D01*
X14304915Y28166623D01*
X14303375Y28170892D01*
X14317486Y28175398D01*
X14352789Y28177926D01*
X14367753Y28178125D01*
X14404396Y28176511D01*
X14427958Y28167058D01*
X14446802Y28142847D01*
X14469288Y28096959D01*
X14471392Y28092366D01*
X14500026Y28006611D01*
X14516617Y27907959D01*
X14519447Y27811004D01*
X14511796Y27749500D01*
X14474333Y27645231D01*
X14412704Y27553414D01*
X14332095Y27479810D01*
X14237690Y27430180D01*
X14218800Y27423988D01*
X14129847Y27406463D01*
X14028431Y27400398D01*
X13927079Y27405584D01*
X13838314Y27421810D01*
X13810482Y27430831D01*
X13716446Y27475932D01*
X13645156Y27533762D01*
X13588093Y27611499D01*
X13580655Y27624559D01*
X13558117Y27668117D01*
X13544139Y27706224D01*
X13536713Y27748927D01*
X13533829Y27806270D01*
X13533437Y27860625D01*
X13534671Y27937327D01*
G37*
X13534671Y27937327D02*
X13539536Y27992468D01*
X13549781Y28036181D01*
X13567151Y28078597D01*
X13573125Y28090812D01*
X13597792Y28136586D01*
X13619218Y28160945D01*
X13647058Y28171489D01*
X13680190Y28175064D01*
X13747567Y28179941D01*
X13696066Y28097093D01*
X13667959Y28047284D01*
X13651371Y28002016D01*
X13642667Y27948228D01*
X13639025Y27892254D01*
X13642805Y27787659D01*
X13666013Y27705041D01*
X13710498Y27639934D01*
X13760645Y27598775D01*
X13846055Y27558314D01*
X13945634Y27536653D01*
X14051082Y27533368D01*
X14154096Y27548033D01*
X14246375Y27580225D01*
X14317158Y27627226D01*
X14371569Y27697724D01*
X14403700Y27784364D01*
X14413185Y27880313D01*
X14399657Y27978736D01*
X14362748Y28072801D01*
X14342835Y28105511D01*
X14318938Y28142212D01*
X14304915Y28166623D01*
X14303375Y28170892D01*
X14317486Y28175398D01*
X14352789Y28177926D01*
X14367753Y28178125D01*
X14404396Y28176511D01*
X14427958Y28167058D01*
X14446802Y28142847D01*
X14469288Y28096959D01*
X14471392Y28092366D01*
X14500026Y28006611D01*
X14516617Y27907959D01*
X14519447Y27811004D01*
X14511796Y27749500D01*
X14474333Y27645231D01*
X14412704Y27553414D01*
X14332095Y27479810D01*
X14237690Y27430180D01*
X14218800Y27423988D01*
X14129847Y27406463D01*
X14028431Y27400398D01*
X13927079Y27405584D01*
X13838314Y27421810D01*
X13810482Y27430831D01*
X13716446Y27475932D01*
X13645156Y27533762D01*
X13588093Y27611499D01*
X13580655Y27624559D01*
X13558117Y27668117D01*
X13544139Y27706224D01*
X13536713Y27748927D01*
X13533829Y27806270D01*
X13533437Y27860625D01*
X13534671Y27937327D01*
G36*
X13540170Y29116002D02*
G01*
X13566906Y29207874D01*
X13569540Y29213968D01*
X13590929Y29258267D01*
X13610168Y29280606D01*
X13636982Y29288471D01*
X13667482Y29289375D01*
X13707594Y29287789D01*
X13730105Y29283824D01*
X13731875Y29282142D01*
X13723763Y29265801D01*
X13703332Y29233125D01*
X13692607Y29217045D01*
X13660060Y29157233D01*
X13642162Y29090993D01*
X13637092Y29009170D01*
X13639396Y28949639D01*
X13657378Y28853857D01*
X13699269Y28777730D01*
X13767392Y28717630D01*
X13800263Y28698438D01*
X13839612Y28680881D01*
X13882303Y28670122D01*
X13937696Y28664631D01*
X14015154Y28662876D01*
X14017625Y28662866D01*
X14094999Y28663879D01*
X14150696Y28668677D01*
X14194713Y28678892D01*
X14237051Y28696156D01*
X14244891Y28699954D01*
X14321225Y28753835D01*
X14375457Y28826501D01*
X14406718Y28913135D01*
X14414141Y29008915D01*
X14396856Y29109025D01*
X14353996Y29208643D01*
X14340545Y29230798D01*
X14301660Y29291284D01*
X14369986Y29286360D01*
X14411716Y29281049D01*
X14437992Y29267414D01*
X14459525Y29237443D01*
X14474794Y29207941D01*
X14500234Y29134661D01*
X14515820Y29044504D01*
X14520208Y28951185D01*
X14512052Y28868416D01*
X14509292Y28856265D01*
X14467449Y28748094D01*
X14400894Y28659288D01*
X14308690Y28588754D01*
X14256987Y28561953D01*
X14167758Y28533961D01*
X14061863Y28520724D01*
X13950910Y28522551D01*
X13846508Y28539757D01*
X13812176Y28549977D01*
X13720179Y28596560D01*
X13639176Y28666118D01*
X13576919Y28750913D01*
X13549672Y28812041D01*
X13530879Y28904442D01*
X13527936Y29010310D01*
X13540170Y29116002D01*
G37*
X13540170Y29116002D02*
X13566906Y29207874D01*
X13569540Y29213968D01*
X13590929Y29258267D01*
X13610168Y29280606D01*
X13636982Y29288471D01*
X13667482Y29289375D01*
X13707594Y29287789D01*
X13730105Y29283824D01*
X13731875Y29282142D01*
X13723763Y29265801D01*
X13703332Y29233125D01*
X13692607Y29217045D01*
X13660060Y29157233D01*
X13642162Y29090993D01*
X13637092Y29009170D01*
X13639396Y28949639D01*
X13657378Y28853857D01*
X13699269Y28777730D01*
X13767392Y28717630D01*
X13800263Y28698438D01*
X13839612Y28680881D01*
X13882303Y28670122D01*
X13937696Y28664631D01*
X14015154Y28662876D01*
X14017625Y28662866D01*
X14094999Y28663879D01*
X14150696Y28668677D01*
X14194713Y28678892D01*
X14237051Y28696156D01*
X14244891Y28699954D01*
X14321225Y28753835D01*
X14375457Y28826501D01*
X14406718Y28913135D01*
X14414141Y29008915D01*
X14396856Y29109025D01*
X14353996Y29208643D01*
X14340545Y29230798D01*
X14301660Y29291284D01*
X14369986Y29286360D01*
X14411716Y29281049D01*
X14437992Y29267414D01*
X14459525Y29237443D01*
X14474794Y29207941D01*
X14500234Y29134661D01*
X14515820Y29044504D01*
X14520208Y28951185D01*
X14512052Y28868416D01*
X14509292Y28856265D01*
X14467449Y28748094D01*
X14400894Y28659288D01*
X14308690Y28588754D01*
X14256987Y28561953D01*
X14167758Y28533961D01*
X14061863Y28520724D01*
X13950910Y28522551D01*
X13846508Y28539757D01*
X13812176Y28549977D01*
X13720179Y28596560D01*
X13639176Y28666118D01*
X13576919Y28750913D01*
X13549672Y28812041D01*
X13530879Y28904442D01*
X13527936Y29010310D01*
X13540170Y29116002D01*
G36*
X13529878Y33251177D02*
G01*
X13536938Y33332203D01*
X13545700Y33377187D01*
X13559585Y33423774D01*
X13574338Y33447894D01*
X13598594Y33457861D01*
X13633171Y33461422D01*
X13699249Y33466282D01*
X13674465Y33406966D01*
X13645607Y33315921D01*
X13632668Y33224162D01*
X13635290Y33138539D01*
X13653112Y33065900D01*
X13685775Y33013094D01*
X13695613Y33004266D01*
X13748315Y32978651D01*
X13806466Y32974126D01*
X13857956Y32990759D01*
X13873912Y33003287D01*
X13897267Y33038272D01*
X13917499Y33087484D01*
X13921737Y33102506D01*
X13946421Y33201073D01*
X13965834Y33274140D01*
X13982040Y33327098D01*
X13997101Y33365340D01*
X14013080Y33394257D01*
X14032040Y33419241D01*
X14050953Y33440247D01*
X14110596Y33504187D01*
X14369153Y33504187D01*
X14429634Y33439348D01*
X14478596Y33366150D01*
X14511191Y33273735D01*
X14525463Y33171176D01*
X14519457Y33067545D01*
X14514846Y33043812D01*
X14506605Y33010669D01*
X14493324Y32960785D01*
X14484494Y32928718D01*
X14470141Y32880907D01*
X14456268Y32856125D01*
X14434884Y32846804D01*
X14397995Y32845375D01*
X14396483Y32845375D01*
X14356001Y32847231D01*
X14340553Y32855125D01*
X14343523Y32872543D01*
X14343787Y32873156D01*
X14384745Y32986463D01*
X14406931Y33091245D01*
X14411113Y33184478D01*
X14398061Y33263140D01*
X14368542Y33324209D01*
X14323325Y33364663D01*
X14263179Y33381480D01*
X14215400Y33378110D01*
X14166466Y33359351D01*
X14128201Y33321105D01*
X14097900Y33259373D01*
X14072859Y33170152D01*
X14071890Y33165778D01*
X14040509Y33049503D01*
X14002689Y32962081D01*
X13956178Y32900890D01*
X13898722Y32863310D01*
X13828068Y32846721D01*
X13796434Y32845375D01*
X13705488Y32858339D01*
X13631883Y32897673D01*
X13578993Y32956779D01*
X13556564Y32994913D01*
X13542585Y33033061D01*
X13534598Y33081379D01*
X13530146Y33150024D01*
X13529719Y33160435D01*
X13529878Y33251177D01*
G37*
X13529878Y33251177D02*
X13536938Y33332203D01*
X13545700Y33377187D01*
X13559585Y33423774D01*
X13574338Y33447894D01*
X13598594Y33457861D01*
X13633171Y33461422D01*
X13699249Y33466282D01*
X13674465Y33406966D01*
X13645607Y33315921D01*
X13632668Y33224162D01*
X13635290Y33138539D01*
X13653112Y33065900D01*
X13685775Y33013094D01*
X13695613Y33004266D01*
X13748315Y32978651D01*
X13806466Y32974126D01*
X13857956Y32990759D01*
X13873912Y33003287D01*
X13897267Y33038272D01*
X13917499Y33087484D01*
X13921737Y33102506D01*
X13946421Y33201073D01*
X13965834Y33274140D01*
X13982040Y33327098D01*
X13997101Y33365340D01*
X14013080Y33394257D01*
X14032040Y33419241D01*
X14050953Y33440247D01*
X14110596Y33504187D01*
X14369153Y33504187D01*
X14429634Y33439348D01*
X14478596Y33366150D01*
X14511191Y33273735D01*
X14525463Y33171176D01*
X14519457Y33067545D01*
X14514846Y33043812D01*
X14506605Y33010669D01*
X14493324Y32960785D01*
X14484494Y32928718D01*
X14470141Y32880907D01*
X14456268Y32856125D01*
X14434884Y32846804D01*
X14397995Y32845375D01*
X14396483Y32845375D01*
X14356001Y32847231D01*
X14340553Y32855125D01*
X14343523Y32872543D01*
X14343787Y32873156D01*
X14384745Y32986463D01*
X14406931Y33091245D01*
X14411113Y33184478D01*
X14398061Y33263140D01*
X14368542Y33324209D01*
X14323325Y33364663D01*
X14263179Y33381480D01*
X14215400Y33378110D01*
X14166466Y33359351D01*
X14128201Y33321105D01*
X14097900Y33259373D01*
X14072859Y33170152D01*
X14071890Y33165778D01*
X14040509Y33049503D01*
X14002689Y32962081D01*
X13956178Y32900890D01*
X13898722Y32863310D01*
X13828068Y32846721D01*
X13796434Y32845375D01*
X13705488Y32858339D01*
X13631883Y32897673D01*
X13578993Y32956779D01*
X13556564Y32994913D01*
X13542585Y33033061D01*
X13534598Y33081379D01*
X13530146Y33150024D01*
X13529719Y33160435D01*
X13529878Y33251177D01*
G36*
X13534127Y38664985D02*
G01*
X13564090Y38744852D01*
X13620366Y38808780D01*
X13685472Y38850444D01*
X13788937Y38890661D01*
X13904651Y38914414D01*
X14025807Y38922148D01*
X14145594Y38914308D01*
X14257204Y38891340D01*
X14353827Y38853688D01*
X14428586Y38801863D01*
X14488269Y38724706D01*
X14518748Y38636135D01*
X14519441Y38538478D01*
X14507890Y38485070D01*
X14471377Y38414405D01*
X14407188Y38353850D01*
X14318500Y38306026D01*
X14270201Y38288978D01*
X14168070Y38267309D01*
X14091767Y38261227D01*
X14091767Y38388558D01*
X14207525Y38402178D01*
X14298818Y38430751D01*
X14364486Y38473768D01*
X14403367Y38530722D01*
X14414500Y38592105D01*
X14408749Y38644126D01*
X14386557Y38683110D01*
X14367338Y38702816D01*
X14322032Y38734097D01*
X14264704Y38759950D01*
X14244307Y38766146D01*
X14182384Y38776442D01*
X14100895Y38782610D01*
X14010418Y38784615D01*
X13921533Y38782425D01*
X13844819Y38776008D01*
X13798269Y38767529D01*
X13720537Y38734943D01*
X13665252Y38688359D01*
X13633276Y38632910D01*
X13625472Y38573729D01*
X13642702Y38515949D01*
X13685829Y38464704D01*
X13741702Y38430903D01*
X13807560Y38410344D01*
X13895548Y38395578D01*
X13952708Y38390398D01*
X14091767Y38388558D01*
X14091767Y38261227D01*
X14053063Y38258141D01*
X13935281Y38261103D01*
X13824827Y38275826D01*
X13731804Y38301938D01*
X13714301Y38309349D01*
X13628873Y38359585D01*
X13571368Y38421030D01*
X13538734Y38497908D01*
X13528862Y38566249D01*
X13534127Y38664985D01*
G37*
X13534127Y38664985D02*
X13564090Y38744852D01*
X13620366Y38808780D01*
X13685472Y38850444D01*
X13788937Y38890661D01*
X13904651Y38914414D01*
X14025807Y38922148D01*
X14145594Y38914308D01*
X14257204Y38891340D01*
X14353827Y38853688D01*
X14428586Y38801863D01*
X14488269Y38724706D01*
X14518748Y38636135D01*
X14519441Y38538478D01*
X14507890Y38485070D01*
X14471377Y38414405D01*
X14407188Y38353850D01*
X14318500Y38306026D01*
X14270201Y38288978D01*
X14168070Y38267309D01*
X14091767Y38261227D01*
X14091767Y38388558D01*
X14207525Y38402178D01*
X14298818Y38430751D01*
X14364486Y38473768D01*
X14403367Y38530722D01*
X14414500Y38592105D01*
X14408749Y38644126D01*
X14386557Y38683110D01*
X14367338Y38702816D01*
X14322032Y38734097D01*
X14264704Y38759950D01*
X14244307Y38766146D01*
X14182384Y38776442D01*
X14100895Y38782610D01*
X14010418Y38784615D01*
X13921533Y38782425D01*
X13844819Y38776008D01*
X13798269Y38767529D01*
X13720537Y38734943D01*
X13665252Y38688359D01*
X13633276Y38632910D01*
X13625472Y38573729D01*
X13642702Y38515949D01*
X13685829Y38464704D01*
X13741702Y38430903D01*
X13807560Y38410344D01*
X13895548Y38395578D01*
X13952708Y38390398D01*
X14091767Y38388558D01*
X14091767Y38261227D01*
X14053063Y38258141D01*
X13935281Y38261103D01*
X13824827Y38275826D01*
X13731804Y38301938D01*
X13714301Y38309349D01*
X13628873Y38359585D01*
X13571368Y38421030D01*
X13538734Y38497908D01*
X13528862Y38566249D01*
X13534127Y38664985D01*
G36*
X13533937Y40747557D02*
G01*
X13565471Y40828086D01*
X13624142Y40893233D01*
X13679129Y40929368D01*
X13777808Y40968784D01*
X13895343Y40992959D01*
X14022527Y41001500D01*
X14150153Y40994014D01*
X14269012Y40970110D01*
X14310866Y40956303D01*
X14401305Y40907376D01*
X14468067Y40839273D01*
X14509156Y40755954D01*
X14522578Y40661378D01*
X14507976Y40565025D01*
X14477728Y40506922D01*
X14425118Y40449984D01*
X14358787Y40402231D01*
X14305959Y40377525D01*
X14237508Y40360410D01*
X14148505Y40348321D01*
X14068715Y40343045D01*
X14068715Y40469689D01*
X14169951Y40478037D01*
X14257789Y40496500D01*
X14285860Y40506258D01*
X14334880Y40532165D01*
X14375469Y40564060D01*
X14383047Y40572545D01*
X14409050Y40628873D01*
X14412537Y40694161D01*
X14393541Y40755017D01*
X14382548Y40771587D01*
X14329628Y40814367D01*
X14248585Y40844732D01*
X14140661Y40862350D01*
X14025562Y40867051D01*
X13910691Y40863147D01*
X13821369Y40851325D01*
X13752104Y40830336D01*
X13697404Y40798933D01*
X13686138Y40789965D01*
X13642072Y40735025D01*
X13625686Y40672776D01*
X13636430Y40610437D01*
X13673752Y40555227D01*
X13705966Y40530170D01*
X13772706Y40501695D01*
X13861283Y40481881D01*
X13962889Y40471091D01*
X14068715Y40469689D01*
X14068715Y40343045D01*
X14049832Y40341796D01*
X13952369Y40341373D01*
X13866997Y40347593D01*
X13829609Y40353935D01*
X13717550Y40387699D01*
X13633366Y40434056D01*
X13574991Y40495031D01*
X13540360Y40572647D01*
X13528283Y40649318D01*
X13533937Y40747557D01*
G37*
X13533937Y40747557D02*
X13565471Y40828086D01*
X13624142Y40893233D01*
X13679129Y40929368D01*
X13777808Y40968784D01*
X13895343Y40992959D01*
X14022527Y41001500D01*
X14150153Y40994014D01*
X14269012Y40970110D01*
X14310866Y40956303D01*
X14401305Y40907376D01*
X14468067Y40839273D01*
X14509156Y40755954D01*
X14522578Y40661378D01*
X14507976Y40565025D01*
X14477728Y40506922D01*
X14425118Y40449984D01*
X14358787Y40402231D01*
X14305959Y40377525D01*
X14237508Y40360410D01*
X14148505Y40348321D01*
X14068715Y40343045D01*
X14068715Y40469689D01*
X14169951Y40478037D01*
X14257789Y40496500D01*
X14285860Y40506258D01*
X14334880Y40532165D01*
X14375469Y40564060D01*
X14383047Y40572545D01*
X14409050Y40628873D01*
X14412537Y40694161D01*
X14393541Y40755017D01*
X14382548Y40771587D01*
X14329628Y40814367D01*
X14248585Y40844732D01*
X14140661Y40862350D01*
X14025562Y40867051D01*
X13910691Y40863147D01*
X13821369Y40851325D01*
X13752104Y40830336D01*
X13697404Y40798933D01*
X13686138Y40789965D01*
X13642072Y40735025D01*
X13625686Y40672776D01*
X13636430Y40610437D01*
X13673752Y40555227D01*
X13705966Y40530170D01*
X13772706Y40501695D01*
X13861283Y40481881D01*
X13962889Y40471091D01*
X14068715Y40469689D01*
X14068715Y40343045D01*
X14049832Y40341796D01*
X13952369Y40341373D01*
X13866997Y40347593D01*
X13829609Y40353935D01*
X13717550Y40387699D01*
X13633366Y40434056D01*
X13574991Y40495031D01*
X13540360Y40572647D01*
X13528283Y40649318D01*
X13533937Y40747557D01*
G36*
X13543918Y30563343D02*
G01*
X13547631Y30673853D01*
X13554378Y30757626D01*
X13565962Y30819651D01*
X13584185Y30864919D01*
X13610850Y30898417D01*
X13647760Y30925136D01*
X13680957Y30942623D01*
X13757490Y30964947D01*
X13833015Y30961052D01*
X13900260Y30932994D01*
X13951953Y30882830D01*
X13963955Y30862577D01*
X13976116Y30841972D01*
X13987005Y30841747D01*
X14003596Y30864808D01*
X14014928Y30883808D01*
X14065081Y30947802D01*
X14127201Y30985832D01*
X14206566Y31000490D01*
X14251505Y31000033D01*
X14311799Y30994245D01*
X14352706Y30982324D01*
X14386538Y30959928D01*
X14400304Y30947577D01*
X14435129Y30910793D01*
X14460997Y30871557D01*
X14479436Y30824210D01*
X14491976Y30763095D01*
X14500144Y30682555D01*
X14505468Y30576932D01*
X14506222Y30555406D01*
X14514064Y30321250D01*
X14049375Y30321250D01*
X14049375Y30448250D01*
X14398625Y30448250D01*
X14398625Y30583697D01*
X14395576Y30664239D01*
X14387205Y30731680D01*
X14376156Y30772919D01*
X14340804Y30826777D01*
X14287777Y30856797D01*
X14220031Y30865329D01*
X14145055Y30854195D01*
X14090966Y30821696D01*
X14067003Y30787071D01*
X14059206Y30754382D01*
X14053174Y30699450D01*
X14049794Y30631768D01*
X14049375Y30598315D01*
X14049375Y30448250D01*
X14049375Y30321250D01*
X13652500Y30321250D01*
X13652500Y30448250D01*
X13938250Y30448250D01*
X13938250Y30572881D01*
X13936001Y30640192D01*
X13930073Y30701583D01*
X13921695Y30744803D01*
X13920705Y30747841D01*
X13895365Y30794318D01*
X13855363Y30820075D01*
X13793899Y30829094D01*
X13781695Y30829250D01*
X13731894Y30823354D01*
X13697532Y30801377D01*
X13685402Y30787421D01*
X13669404Y30762440D01*
X13659510Y30731824D01*
X13654357Y30687676D01*
X13652579Y30622097D01*
X13652500Y30596921D01*
X13652500Y30448250D01*
X13652500Y30321250D01*
X13538525Y30321250D01*
X13543918Y30563343D01*
G37*
X13543918Y30563343D02*
X13547631Y30673853D01*
X13554378Y30757626D01*
X13565962Y30819651D01*
X13584185Y30864919D01*
X13610850Y30898417D01*
X13647760Y30925136D01*
X13680957Y30942623D01*
X13757490Y30964947D01*
X13833015Y30961052D01*
X13900260Y30932994D01*
X13951953Y30882830D01*
X13963955Y30862577D01*
X13976116Y30841972D01*
X13987005Y30841747D01*
X14003596Y30864808D01*
X14014928Y30883808D01*
X14065081Y30947802D01*
X14127201Y30985832D01*
X14206566Y31000490D01*
X14251505Y31000033D01*
X14311799Y30994245D01*
X14352706Y30982324D01*
X14386538Y30959928D01*
X14400304Y30947577D01*
X14435129Y30910793D01*
X14460997Y30871557D01*
X14479436Y30824210D01*
X14491976Y30763095D01*
X14500144Y30682555D01*
X14505468Y30576932D01*
X14506222Y30555406D01*
X14514064Y30321250D01*
X14049375Y30321250D01*
X14049375Y30448250D01*
X14398625Y30448250D01*
X14398625Y30583697D01*
X14395576Y30664239D01*
X14387205Y30731680D01*
X14376156Y30772919D01*
X14340804Y30826777D01*
X14287777Y30856797D01*
X14220031Y30865329D01*
X14145055Y30854195D01*
X14090966Y30821696D01*
X14067003Y30787071D01*
X14059206Y30754382D01*
X14053174Y30699450D01*
X14049794Y30631768D01*
X14049375Y30598315D01*
X14049375Y30448250D01*
X14049375Y30321250D01*
X13652500Y30321250D01*
X13652500Y30448250D01*
X13938250Y30448250D01*
X13938250Y30572881D01*
X13936001Y30640192D01*
X13930073Y30701583D01*
X13921695Y30744803D01*
X13920705Y30747841D01*
X13895365Y30794318D01*
X13855363Y30820075D01*
X13793899Y30829094D01*
X13781695Y30829250D01*
X13731894Y30823354D01*
X13697532Y30801377D01*
X13685402Y30787421D01*
X13669404Y30762440D01*
X13659510Y30731824D01*
X13654357Y30687676D01*
X13652579Y30622097D01*
X13652500Y30596921D01*
X13652500Y30448250D01*
X13652500Y30321250D01*
X13538525Y30321250D01*
X13543918Y30563343D01*
G36*
X13731875Y31496000D02*
G01*
X13799519Y31542092D01*
X13856545Y31582423D01*
X13898270Y31613566D01*
X13920016Y31632095D01*
X13922071Y31635219D01*
X13909406Y31647618D01*
X13874801Y31673823D01*
X13822996Y31710431D01*
X13758731Y31754037D01*
X13731571Y31772035D01*
X13541375Y31897259D01*
X13541375Y32036258D01*
X13783468Y31873285D01*
X14025562Y31710312D01*
X14263687Y31702375D01*
X14501812Y31694437D01*
X14506536Y31638307D01*
X14506770Y31597853D01*
X14501140Y31572425D01*
X14499922Y31570838D01*
X14480780Y31566799D01*
X14435861Y31563394D01*
X14371135Y31560906D01*
X14292574Y31559617D01*
X14259589Y31559500D01*
X14030595Y31559500D01*
X13785985Y31392070D01*
X13541375Y31224641D01*
X13541375Y31368373D01*
X13731875Y31496000D01*
G37*
X13731875Y31496000D02*
X13799519Y31542092D01*
X13856545Y31582423D01*
X13898270Y31613566D01*
X13920016Y31632095D01*
X13922071Y31635219D01*
X13909406Y31647618D01*
X13874801Y31673823D01*
X13822996Y31710431D01*
X13758731Y31754037D01*
X13731571Y31772035D01*
X13541375Y31897259D01*
X13541375Y32036258D01*
X13783468Y31873285D01*
X14025562Y31710312D01*
X14263687Y31702375D01*
X14501812Y31694437D01*
X14506536Y31638307D01*
X14506770Y31597853D01*
X14501140Y31572425D01*
X14499922Y31570838D01*
X14480780Y31566799D01*
X14435861Y31563394D01*
X14371135Y31560906D01*
X14292574Y31559617D01*
X14259589Y31559500D01*
X14030595Y31559500D01*
X13785985Y31392070D01*
X13541375Y31224641D01*
X13541375Y31368373D01*
X13731875Y31496000D01*
G36*
X14013284Y34524330D02*
G01*
X14128996Y34567953D01*
X14235189Y34607716D01*
X14328225Y34642277D01*
X14404465Y34670296D01*
X14460270Y34690430D01*
X14492001Y34701340D01*
X14497843Y34702924D01*
X14505359Y34688730D01*
X14509481Y34653563D01*
X14509750Y34640390D01*
X14508212Y34604843D01*
X14498823Y34582716D01*
X14474422Y34566176D01*
X14427844Y34547388D01*
X14423084Y34545605D01*
X14367716Y34525743D01*
X14318451Y34509504D01*
X14296084Y34503056D01*
X14255750Y34492933D01*
X14255750Y34054500D01*
X14331156Y34026802D01*
X14406355Y33999101D01*
X14456825Y33979070D01*
X14487483Y33963021D01*
X14503249Y33947264D01*
X14509042Y33928112D01*
X14509779Y33901874D01*
X14509750Y33892865D01*
X14507697Y33851732D01*
X14499281Y33835337D01*
X14481968Y33836524D01*
X14460597Y33844287D01*
X14413463Y33861913D01*
X14344460Y33887929D01*
X14257482Y33920862D01*
X14156424Y33959240D01*
X14134254Y33967680D01*
X14134254Y34099500D01*
X14138439Y34114300D01*
X14141816Y34154410D01*
X14143998Y34213392D01*
X14144625Y34272479D01*
X14144625Y34445458D01*
X13926343Y34365361D01*
X13848194Y34336277D01*
X13780687Y34310388D01*
X13729455Y34289910D01*
X13700129Y34277064D01*
X13695725Y34274501D01*
X13706291Y34266528D01*
X13740541Y34250012D01*
X13792369Y34227390D01*
X13855669Y34201100D01*
X13924333Y34173577D01*
X13992254Y34147259D01*
X14053327Y34124584D01*
X14101445Y34107987D01*
X14130501Y34099905D01*
X14134254Y34099500D01*
X14134254Y33967680D01*
X14045180Y34001590D01*
X14001750Y34018150D01*
X13549312Y34190736D01*
X13544972Y34268149D01*
X13540631Y34345562D01*
X14013284Y34524330D01*
G37*
X14013284Y34524330D02*
X14128996Y34567953D01*
X14235189Y34607716D01*
X14328225Y34642277D01*
X14404465Y34670296D01*
X14460270Y34690430D01*
X14492001Y34701340D01*
X14497843Y34702924D01*
X14505359Y34688730D01*
X14509481Y34653563D01*
X14509750Y34640390D01*
X14508212Y34604843D01*
X14498823Y34582716D01*
X14474422Y34566176D01*
X14427844Y34547388D01*
X14423084Y34545605D01*
X14367716Y34525743D01*
X14318451Y34509504D01*
X14296084Y34503056D01*
X14255750Y34492933D01*
X14255750Y34054500D01*
X14331156Y34026802D01*
X14406355Y33999101D01*
X14456825Y33979070D01*
X14487483Y33963021D01*
X14503249Y33947264D01*
X14509042Y33928112D01*
X14509779Y33901874D01*
X14509750Y33892865D01*
X14507697Y33851732D01*
X14499281Y33835337D01*
X14481968Y33836524D01*
X14460597Y33844287D01*
X14413463Y33861913D01*
X14344460Y33887929D01*
X14257482Y33920862D01*
X14156424Y33959240D01*
X14134254Y33967680D01*
X14134254Y34099500D01*
X14138439Y34114300D01*
X14141816Y34154410D01*
X14143998Y34213392D01*
X14144625Y34272479D01*
X14144625Y34445458D01*
X13926343Y34365361D01*
X13848194Y34336277D01*
X13780687Y34310388D01*
X13729455Y34289910D01*
X13700129Y34277064D01*
X13695725Y34274501D01*
X13706291Y34266528D01*
X13740541Y34250012D01*
X13792369Y34227390D01*
X13855669Y34201100D01*
X13924333Y34173577D01*
X13992254Y34147259D01*
X14053327Y34124584D01*
X14101445Y34107987D01*
X14130501Y34099905D01*
X14134254Y34099500D01*
X14134254Y33967680D01*
X14045180Y34001590D01*
X14001750Y34018150D01*
X13549312Y34190736D01*
X13544972Y34268149D01*
X13540631Y34345562D01*
X14013284Y34524330D01*
G36*
X13545727Y37637706D02*
G01*
X13583406Y37716630D01*
X13638552Y37776880D01*
X13709439Y37815132D01*
X13794345Y37828062D01*
X13816638Y37827027D01*
X13861287Y37820481D01*
X13904440Y37806779D01*
X13950103Y37783196D01*
X14002283Y37747008D01*
X14064985Y37695491D01*
X14142214Y37625919D01*
X14220031Y37552691D01*
X14398625Y37382637D01*
X14398625Y37830125D01*
X14509750Y37830125D01*
X14509750Y37226875D01*
X14452386Y37226875D01*
X14430158Y37228666D01*
X14407618Y37236021D01*
X14380856Y37251911D01*
X14345961Y37279309D01*
X14299023Y37321186D01*
X14236133Y37380514D01*
X14183063Y37431566D01*
X14103127Y37506753D01*
X14029216Y37572473D01*
X13965814Y37624947D01*
X13917405Y37660393D01*
X13898592Y37671360D01*
X13821009Y37696556D01*
X13753537Y37691808D01*
X13695405Y37657000D01*
X13677269Y37637867D01*
X13645957Y37577194D01*
X13635738Y37498406D01*
X13646647Y37407148D01*
X13675259Y37317313D01*
X13713140Y37225189D01*
X13647579Y37230000D01*
X13610208Y37234194D01*
X13587729Y37244975D01*
X13572345Y37270081D01*
X13556253Y37317252D01*
X13554729Y37322125D01*
X13529664Y37437129D01*
X13527238Y37543431D01*
X13545727Y37637706D01*
G37*
X13545727Y37637706D02*
X13583406Y37716630D01*
X13638552Y37776880D01*
X13709439Y37815132D01*
X13794345Y37828062D01*
X13816638Y37827027D01*
X13861287Y37820481D01*
X13904440Y37806779D01*
X13950103Y37783196D01*
X14002283Y37747008D01*
X14064985Y37695491D01*
X14142214Y37625919D01*
X14220031Y37552691D01*
X14398625Y37382637D01*
X14398625Y37830125D01*
X14509750Y37830125D01*
X14509750Y37226875D01*
X14452386Y37226875D01*
X14430158Y37228666D01*
X14407618Y37236021D01*
X14380856Y37251911D01*
X14345961Y37279309D01*
X14299023Y37321186D01*
X14236133Y37380514D01*
X14183063Y37431566D01*
X14103127Y37506753D01*
X14029216Y37572473D01*
X13965814Y37624947D01*
X13917405Y37660393D01*
X13898592Y37671360D01*
X13821009Y37696556D01*
X13753537Y37691808D01*
X13695405Y37657000D01*
X13677269Y37637867D01*
X13645957Y37577194D01*
X13635738Y37498406D01*
X13646647Y37407148D01*
X13675259Y37317313D01*
X13713140Y37225189D01*
X13647579Y37230000D01*
X13610208Y37234194D01*
X13587729Y37244975D01*
X13572345Y37270081D01*
X13556253Y37317252D01*
X13554729Y37322125D01*
X13529664Y37437129D01*
X13527238Y37543431D01*
X13545727Y37637706D01*
G36*
X13540332Y39704518D02*
G01*
X13568822Y39781743D01*
X13577232Y39795684D01*
X13636395Y39858258D01*
X13711670Y39896721D01*
X13796952Y39909643D01*
X13886137Y39895596D01*
X13929858Y39878219D01*
X13962981Y39856808D01*
X14013402Y39817515D01*
X14075830Y39764772D01*
X14144976Y39703009D01*
X14196808Y39654628D01*
X14398625Y39462567D01*
X14398625Y39909750D01*
X14509750Y39909750D01*
X14509750Y39306500D01*
X14451789Y39306500D01*
X14429512Y39308193D01*
X14407218Y39315265D01*
X14381003Y39330707D01*
X14346966Y39357508D01*
X14301206Y39398658D01*
X14239820Y39457146D01*
X14182714Y39512692D01*
X14086252Y39604782D01*
X14007152Y39674938D01*
X13942087Y39725308D01*
X13887729Y39758044D01*
X13840753Y39775294D01*
X13797831Y39779209D01*
X13774593Y39776428D01*
X13710519Y39750282D01*
X13665715Y39701693D01*
X13641093Y39634122D01*
X13637566Y39551031D01*
X13656045Y39455882D01*
X13675556Y39400558D01*
X13714487Y39304748D01*
X13648340Y39309592D01*
X13611963Y39313444D01*
X13589602Y39323199D01*
X13574231Y39346207D01*
X13558821Y39389815D01*
X13552620Y39409687D01*
X13531645Y39509299D01*
X13527745Y39610640D01*
X13540332Y39704518D01*
G37*
X13540332Y39704518D02*
X13568822Y39781743D01*
X13577232Y39795684D01*
X13636395Y39858258D01*
X13711670Y39896721D01*
X13796952Y39909643D01*
X13886137Y39895596D01*
X13929858Y39878219D01*
X13962981Y39856808D01*
X14013402Y39817515D01*
X14075830Y39764772D01*
X14144976Y39703009D01*
X14196808Y39654628D01*
X14398625Y39462567D01*
X14398625Y39909750D01*
X14509750Y39909750D01*
X14509750Y39306500D01*
X14451789Y39306500D01*
X14429512Y39308193D01*
X14407218Y39315265D01*
X14381003Y39330707D01*
X14346966Y39357508D01*
X14301206Y39398658D01*
X14239820Y39457146D01*
X14182714Y39512692D01*
X14086252Y39604782D01*
X14007152Y39674938D01*
X13942087Y39725308D01*
X13887729Y39758044D01*
X13840753Y39775294D01*
X13797831Y39779209D01*
X13774593Y39776428D01*
X13710519Y39750282D01*
X13665715Y39701693D01*
X13641093Y39634122D01*
X13637566Y39551031D01*
X13656045Y39455882D01*
X13675556Y39400558D01*
X13714487Y39304748D01*
X13648340Y39309592D01*
X13611963Y39313444D01*
X13589602Y39323199D01*
X13574231Y39346207D01*
X13558821Y39389815D01*
X13552620Y39409687D01*
X13531645Y39509299D01*
X13527745Y39610640D01*
X13540332Y39704518D01*
G36*
X14192250Y29972000D02*
G01*
X14192250Y29620738D01*
X14140656Y29625712D01*
X14089062Y29630687D01*
X14084556Y29801343D01*
X14080050Y29972000D01*
X14192250Y29972000D01*
G37*
X14192250Y29972000D02*
X14192250Y29620738D01*
X14140656Y29625712D01*
X14089062Y29630687D01*
X14084556Y29801343D01*
X14080050Y29972000D01*
X14192250Y29972000D01*
G36*
X14089062Y32488187D02*
G01*
X14140656Y32493162D01*
X14192250Y32498136D01*
X14192250Y32146875D01*
X14080050Y32146875D01*
X14089062Y32488187D01*
G37*
X14089062Y32488187D02*
X14140656Y32493162D01*
X14192250Y32498136D01*
X14192250Y32146875D01*
X14080050Y32146875D01*
X14089062Y32488187D01*
G36*
X10907735Y32534999D02*
G01*
X10932149Y32685822D01*
X10975048Y32818596D01*
X11038125Y32938264D01*
X11123074Y33049768D01*
X11144089Y33072864D01*
X11264067Y33178388D01*
X11403200Y33258852D01*
X11561635Y33314307D01*
X11739519Y33344801D01*
X11937001Y33350387D01*
X11952946Y33349789D01*
X12048328Y33344123D01*
X12124109Y33334902D01*
X12192406Y33320055D01*
X12265335Y33297507D01*
X12272076Y33295190D01*
X12426466Y33227741D01*
X12560997Y33139930D01*
X12672756Y33034097D01*
X12758828Y32912583D01*
X12766818Y32897953D01*
X12790169Y32858218D01*
X12809055Y32833520D01*
X12815281Y32829500D01*
X12830788Y32839595D01*
X12865194Y32867353D01*
X12913996Y32908981D01*
X12972689Y32960683D01*
X12997870Y32983285D01*
X13061986Y33041089D01*
X13120402Y33093668D01*
X13167730Y33136180D01*
X13198582Y33163780D01*
X13204031Y33168615D01*
X13239750Y33200159D01*
X13239718Y32963235D01*
X13239687Y32726312D01*
X13067554Y32572533D01*
X12895420Y32418755D01*
X12885187Y32270908D01*
X12863535Y32098718D01*
X12822919Y31948791D01*
X12761471Y31816639D01*
X12677326Y31697771D01*
X12621883Y31637616D01*
X12511598Y31543244D01*
X12390149Y31471287D01*
X12253127Y31419970D01*
X12096126Y31387518D01*
X11969750Y31374932D01*
X11890375Y31375324D01*
X11890375Y31901294D01*
X12012071Y31902806D01*
X12108396Y31908777D01*
X12185576Y31920559D01*
X12249838Y31939505D01*
X12307408Y31966966D01*
X12364417Y32004225D01*
X12440980Y32078393D01*
X12495107Y32170578D01*
X12525626Y32275225D01*
X12531368Y32386775D01*
X12511163Y32499671D01*
X12483723Y32570802D01*
X12451871Y32626067D01*
X12413987Y32675953D01*
X12393595Y32696371D01*
X12299006Y32757954D01*
X12184926Y32802710D01*
X12057508Y32830725D01*
X11922907Y32842090D01*
X11787277Y32836893D01*
X11656773Y32815223D01*
X11537548Y32777169D01*
X11435758Y32722820D01*
X11384952Y32681796D01*
X11317480Y32598663D01*
X11275901Y32501468D01*
X11258952Y32399029D01*
X11264573Y32276553D01*
X11298745Y32166582D01*
X11359890Y32071610D01*
X11446428Y31994131D01*
X11550000Y31939287D01*
X11589724Y31924665D01*
X11627749Y31914368D01*
X11670863Y31907638D01*
X11725853Y31903719D01*
X11799507Y31901852D01*
X11890375Y31901294D01*
X11890375Y31375324D01*
X11783298Y31375855D01*
X11608613Y31402219D01*
X11448112Y31452851D01*
X11304213Y31526582D01*
X11179334Y31622241D01*
X11075893Y31738656D01*
X11014633Y31837360D01*
X10967799Y31935867D01*
X10934942Y32029441D01*
X10914050Y32127284D01*
X10903112Y32238598D01*
X10900111Y32361187D01*
X10907735Y32534999D01*
G37*
X10907735Y32534999D02*
X10932149Y32685822D01*
X10975048Y32818596D01*
X11038125Y32938264D01*
X11123074Y33049768D01*
X11144089Y33072864D01*
X11264067Y33178388D01*
X11403200Y33258852D01*
X11561635Y33314307D01*
X11739519Y33344801D01*
X11937001Y33350387D01*
X11952946Y33349789D01*
X12048328Y33344123D01*
X12124109Y33334902D01*
X12192406Y33320055D01*
X12265335Y33297507D01*
X12272076Y33295190D01*
X12426466Y33227741D01*
X12560997Y33139930D01*
X12672756Y33034097D01*
X12758828Y32912583D01*
X12766818Y32897953D01*
X12790169Y32858218D01*
X12809055Y32833520D01*
X12815281Y32829500D01*
X12830788Y32839595D01*
X12865194Y32867353D01*
X12913996Y32908981D01*
X12972689Y32960683D01*
X12997870Y32983285D01*
X13061986Y33041089D01*
X13120402Y33093668D01*
X13167730Y33136180D01*
X13198582Y33163780D01*
X13204031Y33168615D01*
X13239750Y33200159D01*
X13239718Y32963235D01*
X13239687Y32726312D01*
X13067554Y32572533D01*
X12895420Y32418755D01*
X12885187Y32270908D01*
X12863535Y32098718D01*
X12822919Y31948791D01*
X12761471Y31816639D01*
X12677326Y31697771D01*
X12621883Y31637616D01*
X12511598Y31543244D01*
X12390149Y31471287D01*
X12253127Y31419970D01*
X12096126Y31387518D01*
X11969750Y31374932D01*
X11890375Y31375324D01*
X11890375Y31901294D01*
X12012071Y31902806D01*
X12108396Y31908777D01*
X12185576Y31920559D01*
X12249838Y31939505D01*
X12307408Y31966966D01*
X12364417Y32004225D01*
X12440980Y32078393D01*
X12495107Y32170578D01*
X12525626Y32275225D01*
X12531368Y32386775D01*
X12511163Y32499671D01*
X12483723Y32570802D01*
X12451871Y32626067D01*
X12413987Y32675953D01*
X12393595Y32696371D01*
X12299006Y32757954D01*
X12184926Y32802710D01*
X12057508Y32830725D01*
X11922907Y32842090D01*
X11787277Y32836893D01*
X11656773Y32815223D01*
X11537548Y32777169D01*
X11435758Y32722820D01*
X11384952Y32681796D01*
X11317480Y32598663D01*
X11275901Y32501468D01*
X11258952Y32399029D01*
X11264573Y32276553D01*
X11298745Y32166582D01*
X11359890Y32071610D01*
X11446428Y31994131D01*
X11550000Y31939287D01*
X11589724Y31924665D01*
X11627749Y31914368D01*
X11670863Y31907638D01*
X11725853Y31903719D01*
X11799507Y31901852D01*
X11890375Y31901294D01*
X11890375Y31375324D01*
X11783298Y31375855D01*
X11608613Y31402219D01*
X11448112Y31452851D01*
X11304213Y31526582D01*
X11179334Y31622241D01*
X11075893Y31738656D01*
X11014633Y31837360D01*
X10967799Y31935867D01*
X10934942Y32029441D01*
X10914050Y32127284D01*
X10903112Y32238598D01*
X10900111Y32361187D01*
X10907735Y32534999D01*
G36*
X10902156Y38377612D02*
G01*
X10911285Y38483582D01*
X10926520Y38569532D01*
X10928274Y38576250D01*
X10987107Y38741306D01*
X11068042Y38883578D01*
X11171034Y39003030D01*
X11296037Y39099628D01*
X11443007Y39173335D01*
X11611897Y39224118D01*
X11802664Y39251941D01*
X11803062Y39251973D01*
X11988881Y39253268D01*
X12164666Y39227256D01*
X12327876Y39175111D01*
X12475967Y39098004D01*
X12606397Y38997110D01*
X12716624Y38873599D01*
X12758784Y38811234D01*
X12816422Y38717854D01*
X12873304Y38771065D01*
X12907239Y38802428D01*
X12957989Y38848864D01*
X13018782Y38904192D01*
X13082843Y38962235D01*
X13084968Y38964156D01*
X13239750Y39104034D01*
X13239750Y38626267D01*
X13067332Y38472172D01*
X12894915Y38318078D01*
X12885628Y38173320D01*
X12860817Y37988860D01*
X12811678Y37823275D01*
X12738895Y37677517D01*
X12643150Y37552542D01*
X12525127Y37449303D01*
X12385509Y37368754D01*
X12280543Y37328058D01*
X12157524Y37298383D01*
X12016124Y37280710D01*
X11961552Y37278832D01*
X11961552Y37787536D01*
X12091149Y37802708D01*
X12211929Y37833322D01*
X12318072Y37879299D01*
X12403759Y37940559D01*
X12423083Y37960206D01*
X12485162Y38051660D01*
X12522508Y38157457D01*
X12534158Y38270891D01*
X12519147Y38385255D01*
X12494518Y38457187D01*
X12450143Y38527430D01*
X12382788Y38595416D01*
X12300816Y38653816D01*
X12230398Y38688682D01*
X12189953Y38703496D01*
X12151069Y38713849D01*
X12106757Y38720537D01*
X12050024Y38724357D01*
X11973878Y38726107D01*
X11898312Y38726544D01*
X11803011Y38726283D01*
X11732254Y38724482D01*
X11678843Y38720326D01*
X11635580Y38713003D01*
X11595267Y38701700D01*
X11557000Y38687999D01*
X11445535Y38631100D01*
X11358836Y38555067D01*
X11298056Y38461679D01*
X11264351Y38352713D01*
X11258874Y38229948D01*
X11258952Y38228845D01*
X11279196Y38115130D01*
X11323460Y38019674D01*
X11384952Y37946078D01*
X11471358Y37882852D01*
X11578040Y37835464D01*
X11699178Y37803835D01*
X11828955Y37787885D01*
X11961552Y37787536D01*
X11961552Y37278832D01*
X11867576Y37275596D01*
X11723112Y37283597D01*
X11636375Y37296160D01*
X11469304Y37342575D01*
X11320183Y37414735D01*
X11190552Y37511206D01*
X11081950Y37630552D01*
X10995918Y37771338D01*
X10933996Y37932129D01*
X10927083Y37957125D01*
X10911595Y38041378D01*
X10902291Y38146330D01*
X10899151Y38261802D01*
X10902156Y38377612D01*
G37*
X10902156Y38377612D02*
X10911285Y38483582D01*
X10926520Y38569532D01*
X10928274Y38576250D01*
X10987107Y38741306D01*
X11068042Y38883578D01*
X11171034Y39003030D01*
X11296037Y39099628D01*
X11443007Y39173335D01*
X11611897Y39224118D01*
X11802664Y39251941D01*
X11803062Y39251973D01*
X11988881Y39253268D01*
X12164666Y39227256D01*
X12327876Y39175111D01*
X12475967Y39098004D01*
X12606397Y38997110D01*
X12716624Y38873599D01*
X12758784Y38811234D01*
X12816422Y38717854D01*
X12873304Y38771065D01*
X12907239Y38802428D01*
X12957989Y38848864D01*
X13018782Y38904192D01*
X13082843Y38962235D01*
X13084968Y38964156D01*
X13239750Y39104034D01*
X13239750Y38626267D01*
X13067332Y38472172D01*
X12894915Y38318078D01*
X12885628Y38173320D01*
X12860817Y37988860D01*
X12811678Y37823275D01*
X12738895Y37677517D01*
X12643150Y37552542D01*
X12525127Y37449303D01*
X12385509Y37368754D01*
X12280543Y37328058D01*
X12157524Y37298383D01*
X12016124Y37280710D01*
X11961552Y37278832D01*
X11961552Y37787536D01*
X12091149Y37802708D01*
X12211929Y37833322D01*
X12318072Y37879299D01*
X12403759Y37940559D01*
X12423083Y37960206D01*
X12485162Y38051660D01*
X12522508Y38157457D01*
X12534158Y38270891D01*
X12519147Y38385255D01*
X12494518Y38457187D01*
X12450143Y38527430D01*
X12382788Y38595416D01*
X12300816Y38653816D01*
X12230398Y38688682D01*
X12189953Y38703496D01*
X12151069Y38713849D01*
X12106757Y38720537D01*
X12050024Y38724357D01*
X11973878Y38726107D01*
X11898312Y38726544D01*
X11803011Y38726283D01*
X11732254Y38724482D01*
X11678843Y38720326D01*
X11635580Y38713003D01*
X11595267Y38701700D01*
X11557000Y38687999D01*
X11445535Y38631100D01*
X11358836Y38555067D01*
X11298056Y38461679D01*
X11264351Y38352713D01*
X11258874Y38229948D01*
X11258952Y38228845D01*
X11279196Y38115130D01*
X11323460Y38019674D01*
X11384952Y37946078D01*
X11471358Y37882852D01*
X11578040Y37835464D01*
X11699178Y37803835D01*
X11828955Y37787885D01*
X11961552Y37787536D01*
X11961552Y37278832D01*
X11867576Y37275596D01*
X11723112Y37283597D01*
X11636375Y37296160D01*
X11469304Y37342575D01*
X11320183Y37414735D01*
X11190552Y37511206D01*
X11081950Y37630552D01*
X10995918Y37771338D01*
X10933996Y37932129D01*
X10927083Y37957125D01*
X10911595Y38041378D01*
X10902291Y38146330D01*
X10899151Y38261802D01*
X10902156Y38377612D01*
G36*
X10905080Y30433232D02*
G01*
X10922727Y30592632D01*
X10950146Y30754002D01*
X10963696Y30817343D01*
X10988044Y30924500D01*
X11396032Y30924500D01*
X11350394Y30799449D01*
X11307497Y30662551D01*
X11277360Y30524893D01*
X11260428Y30392196D01*
X11257149Y30270180D01*
X11267971Y30164567D01*
X11293339Y30081077D01*
X11294125Y30079403D01*
X11335787Y30022448D01*
X11391336Y29988099D01*
X11453416Y29977141D01*
X11514672Y29990360D01*
X11567748Y30028542D01*
X11583410Y30048512D01*
X11604186Y30090312D01*
X11625657Y30150918D01*
X11643433Y30217797D01*
X11644584Y30223137D01*
X11681638Y30390502D01*
X11716415Y30529525D01*
X11750071Y30643426D01*
X11783762Y30735427D01*
X11818646Y30808747D01*
X11855879Y30866609D01*
X11889567Y30905375D01*
X11981756Y30975489D01*
X12092656Y31021618D01*
X12219278Y31042955D01*
X12358631Y31038689D01*
X12374782Y31036599D01*
X12511245Y31005215D01*
X12625592Y30951622D01*
X12718692Y30874980D01*
X12791415Y30774449D01*
X12844629Y30649189D01*
X12867840Y30560476D01*
X12875867Y30504341D01*
X12882087Y30425642D01*
X12886296Y30333527D01*
X12888289Y30237140D01*
X12887863Y30145628D01*
X12884813Y30068138D01*
X12879925Y30019625D01*
X12865574Y29941498D01*
X12845287Y29847261D01*
X12822333Y29751050D01*
X12799978Y29666998D01*
X12792755Y29642593D01*
X12762224Y29543375D01*
X12554788Y29543375D01*
X12466711Y29544076D01*
X12406655Y29546427D01*
X12370917Y29550795D01*
X12355793Y29557548D01*
X12355193Y29563218D01*
X12364451Y29585925D01*
X12382743Y29630268D01*
X12406896Y29688574D01*
X12420437Y29721180D01*
X12475237Y29869531D01*
X12509933Y30005795D01*
X12526809Y30140397D01*
X12529326Y30218062D01*
X12522597Y30338707D01*
X12501081Y30431999D01*
X12464113Y30499019D01*
X12411029Y30540852D01*
X12341164Y30558580D01*
X12319852Y30559375D01*
X12257057Y30552456D01*
X12214068Y30529887D01*
X12211037Y30527164D01*
X12189894Y30505872D01*
X12171901Y30482489D01*
X12155635Y30452930D01*
X12139672Y30413112D01*
X12122589Y30358948D01*
X12102963Y30286356D01*
X12079368Y30191250D01*
X12050383Y30069546D01*
X12047971Y30059312D01*
X12002035Y29903491D01*
X11943747Y29776321D01*
X11871873Y29676716D01*
X11785181Y29603589D01*
X11682438Y29555852D01*
X11562412Y29532417D01*
X11448562Y29530656D01*
X11312890Y29549049D01*
X11197903Y29590406D01*
X11101826Y29656097D01*
X11022888Y29747494D01*
X10959314Y29865967D01*
X10935728Y29927094D01*
X10912529Y30022733D01*
X10899806Y30142694D01*
X10897381Y30281390D01*
X10905080Y30433232D01*
G37*
X10905080Y30433232D02*
X10922727Y30592632D01*
X10950146Y30754002D01*
X10963696Y30817343D01*
X10988044Y30924500D01*
X11396032Y30924500D01*
X11350394Y30799449D01*
X11307497Y30662551D01*
X11277360Y30524893D01*
X11260428Y30392196D01*
X11257149Y30270180D01*
X11267971Y30164567D01*
X11293339Y30081077D01*
X11294125Y30079403D01*
X11335787Y30022448D01*
X11391336Y29988099D01*
X11453416Y29977141D01*
X11514672Y29990360D01*
X11567748Y30028542D01*
X11583410Y30048512D01*
X11604186Y30090312D01*
X11625657Y30150918D01*
X11643433Y30217797D01*
X11644584Y30223137D01*
X11681638Y30390502D01*
X11716415Y30529525D01*
X11750071Y30643426D01*
X11783762Y30735427D01*
X11818646Y30808747D01*
X11855879Y30866609D01*
X11889567Y30905375D01*
X11981756Y30975489D01*
X12092656Y31021618D01*
X12219278Y31042955D01*
X12358631Y31038689D01*
X12374782Y31036599D01*
X12511245Y31005215D01*
X12625592Y30951622D01*
X12718692Y30874980D01*
X12791415Y30774449D01*
X12844629Y30649189D01*
X12867840Y30560476D01*
X12875867Y30504341D01*
X12882087Y30425642D01*
X12886296Y30333527D01*
X12888289Y30237140D01*
X12887863Y30145628D01*
X12884813Y30068138D01*
X12879925Y30019625D01*
X12865574Y29941498D01*
X12845287Y29847261D01*
X12822333Y29751050D01*
X12799978Y29666998D01*
X12792755Y29642593D01*
X12762224Y29543375D01*
X12554788Y29543375D01*
X12466711Y29544076D01*
X12406655Y29546427D01*
X12370917Y29550795D01*
X12355793Y29557548D01*
X12355193Y29563218D01*
X12364451Y29585925D01*
X12382743Y29630268D01*
X12406896Y29688574D01*
X12420437Y29721180D01*
X12475237Y29869531D01*
X12509933Y30005795D01*
X12526809Y30140397D01*
X12529326Y30218062D01*
X12522597Y30338707D01*
X12501081Y30431999D01*
X12464113Y30499019D01*
X12411029Y30540852D01*
X12341164Y30558580D01*
X12319852Y30559375D01*
X12257057Y30552456D01*
X12214068Y30529887D01*
X12211037Y30527164D01*
X12189894Y30505872D01*
X12171901Y30482489D01*
X12155635Y30452930D01*
X12139672Y30413112D01*
X12122589Y30358948D01*
X12102963Y30286356D01*
X12079368Y30191250D01*
X12050383Y30069546D01*
X12047971Y30059312D01*
X12002035Y29903491D01*
X11943747Y29776321D01*
X11871873Y29676716D01*
X11785181Y29603589D01*
X11682438Y29555852D01*
X11562412Y29532417D01*
X11448562Y29530656D01*
X11312890Y29549049D01*
X11197903Y29590406D01*
X11101826Y29656097D01*
X11022888Y29747494D01*
X10959314Y29865967D01*
X10935728Y29927094D01*
X10912529Y30022733D01*
X10899806Y30142694D01*
X10897381Y30281390D01*
X10905080Y30433232D01*
G36*
X11893285Y27809031D02*
G01*
X11897432Y27916795D01*
X11904197Y27998282D01*
X11915089Y28058942D01*
X11931615Y28104227D01*
X11955284Y28139591D01*
X11987603Y28170484D01*
X11994855Y28176306D01*
X12059835Y28210549D01*
X12132265Y28222100D01*
X12203639Y28212047D01*
X12265453Y28181478D01*
X12306406Y28136441D01*
X12339305Y28080680D01*
X12372809Y28139656D01*
X12424252Y28203593D01*
X12492125Y28241520D01*
X12578417Y28254397D01*
X12608932Y28253471D01*
X12691735Y28239325D01*
X12753613Y28206243D01*
X12802015Y28149526D01*
X12817973Y28121662D01*
X12831076Y28092691D01*
X12840547Y28059589D01*
X12847144Y28016303D01*
X12851628Y27956778D01*
X12854757Y27874957D01*
X12856206Y27816968D01*
X12861599Y27574875D01*
X12398375Y27574875D01*
X12398375Y27701875D01*
X12750515Y27701875D01*
X12745101Y27868237D01*
X12742089Y27943762D01*
X12737840Y27994762D01*
X12730722Y28028463D01*
X12719106Y28052088D01*
X12701365Y28072860D01*
X12698238Y28076013D01*
X12645784Y28108898D01*
X12582838Y28120275D01*
X12518399Y28111745D01*
X12461467Y28084906D01*
X12421038Y28041355D01*
X12413541Y28025448D01*
X12406642Y27991680D01*
X12401385Y27936204D01*
X12398607Y27869049D01*
X12398375Y27843716D01*
X12398375Y27701875D01*
X12398375Y27574875D01*
X12001500Y27574875D01*
X12001500Y27701875D01*
X12290225Y27701875D01*
X12284768Y27858996D01*
X12280940Y27936324D01*
X12274991Y27988788D01*
X12265631Y28023264D01*
X12251572Y28046626D01*
X12249070Y28049496D01*
X12209820Y28073018D01*
X12154251Y28083631D01*
X12095788Y28079535D01*
X12073648Y28073013D01*
X12038970Y28044402D01*
X12015743Y27988894D01*
X12003609Y27905323D01*
X12001500Y27837600D01*
X12001500Y27701875D01*
X12001500Y27574875D01*
X11886914Y27574875D01*
X11893285Y27809031D01*
G37*
X11893285Y27809031D02*
X11897432Y27916795D01*
X11904197Y27998282D01*
X11915089Y28058942D01*
X11931615Y28104227D01*
X11955284Y28139591D01*
X11987603Y28170484D01*
X11994855Y28176306D01*
X12059835Y28210549D01*
X12132265Y28222100D01*
X12203639Y28212047D01*
X12265453Y28181478D01*
X12306406Y28136441D01*
X12339305Y28080680D01*
X12372809Y28139656D01*
X12424252Y28203593D01*
X12492125Y28241520D01*
X12578417Y28254397D01*
X12608932Y28253471D01*
X12691735Y28239325D01*
X12753613Y28206243D01*
X12802015Y28149526D01*
X12817973Y28121662D01*
X12831076Y28092691D01*
X12840547Y28059589D01*
X12847144Y28016303D01*
X12851628Y27956778D01*
X12854757Y27874957D01*
X12856206Y27816968D01*
X12861599Y27574875D01*
X12398375Y27574875D01*
X12398375Y27701875D01*
X12750515Y27701875D01*
X12745101Y27868237D01*
X12742089Y27943762D01*
X12737840Y27994762D01*
X12730722Y28028463D01*
X12719106Y28052088D01*
X12701365Y28072860D01*
X12698238Y28076013D01*
X12645784Y28108898D01*
X12582838Y28120275D01*
X12518399Y28111745D01*
X12461467Y28084906D01*
X12421038Y28041355D01*
X12413541Y28025448D01*
X12406642Y27991680D01*
X12401385Y27936204D01*
X12398607Y27869049D01*
X12398375Y27843716D01*
X12398375Y27701875D01*
X12398375Y27574875D01*
X12001500Y27574875D01*
X12001500Y27701875D01*
X12290225Y27701875D01*
X12284768Y27858996D01*
X12280940Y27936324D01*
X12274991Y27988788D01*
X12265631Y28023264D01*
X12251572Y28046626D01*
X12249070Y28049496D01*
X12209820Y28073018D01*
X12154251Y28083631D01*
X12095788Y28079535D01*
X12073648Y28073013D01*
X12038970Y28044402D01*
X12015743Y27988894D01*
X12003609Y27905323D01*
X12001500Y27837600D01*
X12001500Y27701875D01*
X12001500Y27574875D01*
X11886914Y27574875D01*
X11893285Y27809031D01*
G36*
X11892191Y29059397D02*
G01*
X11896728Y29081424D01*
X11898536Y29083000D01*
X11913677Y29074597D01*
X11950937Y29051214D01*
X12006086Y29015582D01*
X12074895Y28970436D01*
X12153135Y28918509D01*
X12156428Y28916312D01*
X12406157Y28749625D01*
X12858750Y28749625D01*
X12858750Y28622625D01*
X12397354Y28622625D01*
X12153419Y28455937D01*
X12075938Y28403359D01*
X12007472Y28357594D01*
X11952305Y28321450D01*
X11914721Y28297733D01*
X11899016Y28289250D01*
X11893654Y28303331D01*
X11892510Y28338761D01*
X11893430Y28356718D01*
X11896021Y28383178D01*
X11902101Y28404671D01*
X11915706Y28425217D01*
X11940870Y28448837D01*
X11981628Y28479550D01*
X12042015Y28521377D01*
X12094224Y28556780D01*
X12290136Y28689372D01*
X12090255Y28822869D01*
X11890375Y28956366D01*
X11890375Y29019683D01*
X11892191Y29059397D01*
G37*
X11892191Y29059397D02*
X11896728Y29081424D01*
X11898536Y29083000D01*
X11913677Y29074597D01*
X11950937Y29051214D01*
X12006086Y29015582D01*
X12074895Y28970436D01*
X12153135Y28918509D01*
X12156428Y28916312D01*
X12406157Y28749625D01*
X12858750Y28749625D01*
X12858750Y28622625D01*
X12397354Y28622625D01*
X12153419Y28455937D01*
X12075938Y28403359D01*
X12007472Y28357594D01*
X11952305Y28321450D01*
X11914721Y28297733D01*
X11899016Y28289250D01*
X11893654Y28303331D01*
X11892510Y28338761D01*
X11893430Y28356718D01*
X11896021Y28383178D01*
X11902101Y28404671D01*
X11915706Y28425217D01*
X11940870Y28448837D01*
X11981628Y28479550D01*
X12042015Y28521377D01*
X12094224Y28556780D01*
X12290136Y28689372D01*
X12090255Y28822869D01*
X11890375Y28956366D01*
X11890375Y29019683D01*
X11892191Y29059397D01*
G36*
X11218967Y35115500D02*
G01*
X12034890Y34743404D01*
X12850812Y34371309D01*
X12855194Y34132217D01*
X12856049Y34049183D01*
X12855504Y33978675D01*
X12853701Y33926167D01*
X12850786Y33897131D01*
X12848916Y33893125D01*
X12832828Y33899506D01*
X12790576Y33917835D01*
X12724887Y33946890D01*
X12638488Y33985450D01*
X12534104Y34032292D01*
X12414463Y34086196D01*
X12282290Y34145939D01*
X12140313Y34210300D01*
X12083724Y34236002D01*
X11938267Y34302073D01*
X11801240Y34364262D01*
X11675420Y34421311D01*
X11563584Y34471964D01*
X11468511Y34514963D01*
X11392979Y34549053D01*
X11339764Y34572975D01*
X11311645Y34585473D01*
X11308158Y34586950D01*
X11301941Y34584239D01*
X11297025Y34568830D01*
X11293273Y34537770D01*
X11290548Y34488103D01*
X11288714Y34416877D01*
X11287633Y34321138D01*
X11287169Y34197930D01*
X11287125Y34132948D01*
X11287125Y33670875D01*
X10922000Y33670875D01*
X10922000Y35115500D01*
X11218967Y35115500D01*
G37*
X11218967Y35115500D02*
X12034890Y34743404D01*
X12850812Y34371309D01*
X12855194Y34132217D01*
X12856049Y34049183D01*
X12855504Y33978675D01*
X12853701Y33926167D01*
X12850786Y33897131D01*
X12848916Y33893125D01*
X12832828Y33899506D01*
X12790576Y33917835D01*
X12724887Y33946890D01*
X12638488Y33985450D01*
X12534104Y34032292D01*
X12414463Y34086196D01*
X12282290Y34145939D01*
X12140313Y34210300D01*
X12083724Y34236002D01*
X11938267Y34302073D01*
X11801240Y34364262D01*
X11675420Y34421311D01*
X11563584Y34471964D01*
X11468511Y34514963D01*
X11392979Y34549053D01*
X11339764Y34572975D01*
X11311645Y34585473D01*
X11308158Y34586950D01*
X11301941Y34584239D01*
X11297025Y34568830D01*
X11293273Y34537770D01*
X11290548Y34488103D01*
X11288714Y34416877D01*
X11287633Y34321138D01*
X11287169Y34197930D01*
X11287125Y34132948D01*
X11287125Y33670875D01*
X10922000Y33670875D01*
X10922000Y35115500D01*
X11218967Y35115500D01*
G36*
X11303000Y36909375D02*
G01*
X11303000Y36068000D01*
X11668125Y36068000D01*
X11668125Y36861750D01*
X12032695Y36861750D01*
X12036941Y36468843D01*
X12041187Y36075937D01*
X12259468Y36071520D01*
X12477750Y36067104D01*
X12477750Y36941125D01*
X12858750Y36941125D01*
X12858750Y35575875D01*
X10922000Y35575875D01*
X10922000Y36909375D01*
X11303000Y36909375D01*
G37*
X11303000Y36909375D02*
X11303000Y36068000D01*
X11668125Y36068000D01*
X11668125Y36861750D01*
X12032695Y36861750D01*
X12036941Y36468843D01*
X12041187Y36075937D01*
X12259468Y36071520D01*
X12477750Y36067104D01*
X12477750Y36941125D01*
X12858750Y36941125D01*
X12858750Y35575875D01*
X10922000Y35575875D01*
X10922000Y36909375D01*
X11303000Y36909375D01*
G36*
X11303000Y40973375D02*
G01*
X11303000Y40132000D01*
X11668125Y40132000D01*
X11668125Y40925750D01*
X12033250Y40925750D01*
X12033250Y40132000D01*
X12477750Y40132000D01*
X12477750Y41005125D01*
X12858750Y41005125D01*
X12858750Y39623754D01*
X11894343Y39627845D01*
X10929937Y39631937D01*
X10921655Y40973375D01*
X11303000Y40973375D01*
G37*
X11303000Y40973375D02*
X11303000Y40132000D01*
X11668125Y40132000D01*
X11668125Y40925750D01*
X12033250Y40925750D01*
X12033250Y40132000D01*
X12477750Y40132000D01*
X12477750Y41005125D01*
X12858750Y41005125D01*
X12858750Y39623754D01*
X11894343Y39627845D01*
X10929937Y39631937D01*
X10921655Y40973375D01*
X11303000Y40973375D01*
%TO.C,LOGO1*%
G36*
X45971900Y18998097D02*
G01*
X46083450Y18942478D01*
X46181908Y18840069D01*
X46209023Y18802136D01*
X46238562Y18752500D01*
X46257728Y18698588D01*
X46268693Y18626636D01*
X46273629Y18522878D01*
X46274713Y18385899D01*
X46269818Y18198185D01*
X46252804Y18057242D01*
X46220177Y17952092D01*
X46168442Y17871757D01*
X46094104Y17805259D01*
X46088642Y17801322D01*
X46015380Y17761047D01*
X45927160Y17741120D01*
X45814962Y17736207D01*
X45632567Y17736207D01*
X45632491Y17559143D01*
X45630793Y17460530D01*
X45620450Y17402686D01*
X45593422Y17367994D01*
X45541668Y17338836D01*
X45529239Y17332879D01*
X45471077Y17304961D01*
X45426044Y17287328D01*
X45392559Y17285806D01*
X45369038Y17306219D01*
X45353900Y17354393D01*
X45345563Y17436154D01*
X45342444Y17557328D01*
X45342960Y17723740D01*
X45345529Y17941215D01*
X45346332Y18006264D01*
X45349222Y18230498D01*
X45351812Y18377179D01*
X45632414Y18377179D01*
X45633991Y18252674D01*
X45641000Y18171213D01*
X45656858Y18117485D01*
X45684981Y18076177D01*
X45704075Y18056029D01*
X45782135Y17997079D01*
X45851247Y17992280D01*
X45922560Y18040962D01*
X45924368Y18042759D01*
X45953383Y18080382D01*
X45971033Y18131516D01*
X45979936Y18210262D01*
X45982709Y18330724D01*
X45982759Y18357412D01*
X45976058Y18523417D01*
X45954248Y18638495D01*
X45914765Y18708746D01*
X45855044Y18740271D01*
X45820528Y18743448D01*
X45738611Y18728540D01*
X45682421Y18679452D01*
X45648598Y18589638D01*
X45633780Y18452555D01*
X45632414Y18377179D01*
X45351812Y18377179D01*
X45352287Y18404048D01*
X45356247Y18534618D01*
X45361826Y18629913D01*
X45369746Y18697636D01*
X45380731Y18745493D01*
X45395501Y18781187D01*
X45414782Y18812422D01*
X45423049Y18824176D01*
X45532712Y18935203D01*
X45671365Y18998153D01*
X45831754Y19015703D01*
X45971900Y18998097D01*
G37*
X45971900Y18998097D02*
X46083450Y18942478D01*
X46181908Y18840069D01*
X46209023Y18802136D01*
X46238562Y18752500D01*
X46257728Y18698588D01*
X46268693Y18626636D01*
X46273629Y18522878D01*
X46274713Y18385899D01*
X46269818Y18198185D01*
X46252804Y18057242D01*
X46220177Y17952092D01*
X46168442Y17871757D01*
X46094104Y17805259D01*
X46088642Y17801322D01*
X46015380Y17761047D01*
X45927160Y17741120D01*
X45814962Y17736207D01*
X45632567Y17736207D01*
X45632491Y17559143D01*
X45630793Y17460530D01*
X45620450Y17402686D01*
X45593422Y17367994D01*
X45541668Y17338836D01*
X45529239Y17332879D01*
X45471077Y17304961D01*
X45426044Y17287328D01*
X45392559Y17285806D01*
X45369038Y17306219D01*
X45353900Y17354393D01*
X45345563Y17436154D01*
X45342444Y17557328D01*
X45342960Y17723740D01*
X45345529Y17941215D01*
X45346332Y18006264D01*
X45349222Y18230498D01*
X45351812Y18377179D01*
X45632414Y18377179D01*
X45633991Y18252674D01*
X45641000Y18171213D01*
X45656858Y18117485D01*
X45684981Y18076177D01*
X45704075Y18056029D01*
X45782135Y17997079D01*
X45851247Y17992280D01*
X45922560Y18040962D01*
X45924368Y18042759D01*
X45953383Y18080382D01*
X45971033Y18131516D01*
X45979936Y18210262D01*
X45982709Y18330724D01*
X45982759Y18357412D01*
X45976058Y18523417D01*
X45954248Y18638495D01*
X45914765Y18708746D01*
X45855044Y18740271D01*
X45820528Y18743448D01*
X45738611Y18728540D01*
X45682421Y18679452D01*
X45648598Y18589638D01*
X45633780Y18452555D01*
X45632414Y18377179D01*
X45351812Y18377179D01*
X45352287Y18404048D01*
X45356247Y18534618D01*
X45361826Y18629913D01*
X45369746Y18697636D01*
X45380731Y18745493D01*
X45395501Y18781187D01*
X45414782Y18812422D01*
X45423049Y18824176D01*
X45532712Y18935203D01*
X45671365Y18998153D01*
X45831754Y19015703D01*
X45971900Y18998097D01*
G36*
X48217429Y18982281D02*
G01*
X48311123Y18928086D01*
X48376264Y18874293D01*
X48423907Y18817934D01*
X48456728Y18749013D01*
X48477406Y18657532D01*
X48488620Y18533494D01*
X48493049Y18366902D01*
X48493563Y18247149D01*
X48493563Y17806341D01*
X48369483Y17750717D01*
X48245402Y17695093D01*
X48230805Y18177905D01*
X48224773Y18358221D01*
X48218445Y18489099D01*
X48210606Y18579489D01*
X48200037Y18638336D01*
X48185523Y18674587D01*
X48165848Y18697190D01*
X48159535Y18702083D01*
X48063888Y18740294D01*
X47967207Y18725173D01*
X47909655Y18685057D01*
X47886245Y18656630D01*
X47870039Y18619328D01*
X47859741Y18562777D01*
X47854049Y18476606D01*
X47851664Y18350442D01*
X47851264Y18218958D01*
X47851186Y18054001D01*
X47848361Y17937239D01*
X47838907Y17858490D01*
X47818940Y17807569D01*
X47784576Y17774294D01*
X47731932Y17748480D01*
X47661617Y17721656D01*
X47584820Y17692458D01*
X47593962Y18210654D01*
X47597643Y18397461D01*
X47601950Y18535510D01*
X47608123Y18634432D01*
X47617402Y18703855D01*
X47631027Y18753410D01*
X47650239Y18792727D01*
X47673402Y18827416D01*
X47785152Y18938230D01*
X47921513Y19002311D01*
X48069825Y19017661D01*
X48217429Y18982281D01*
G37*
X48217429Y18982281D02*
X48311123Y18928086D01*
X48376264Y18874293D01*
X48423907Y18817934D01*
X48456728Y18749013D01*
X48477406Y18657532D01*
X48488620Y18533494D01*
X48493049Y18366902D01*
X48493563Y18247149D01*
X48493563Y17806341D01*
X48369483Y17750717D01*
X48245402Y17695093D01*
X48230805Y18177905D01*
X48224773Y18358221D01*
X48218445Y18489099D01*
X48210606Y18579489D01*
X48200037Y18638336D01*
X48185523Y18674587D01*
X48165848Y18697190D01*
X48159535Y18702083D01*
X48063888Y18740294D01*
X47967207Y18725173D01*
X47909655Y18685057D01*
X47886245Y18656630D01*
X47870039Y18619328D01*
X47859741Y18562777D01*
X47854049Y18476606D01*
X47851664Y18350442D01*
X47851264Y18218958D01*
X47851186Y18054001D01*
X47848361Y17937239D01*
X47838907Y17858490D01*
X47818940Y17807569D01*
X47784576Y17774294D01*
X47731932Y17748480D01*
X47661617Y17721656D01*
X47584820Y17692458D01*
X47593962Y18210654D01*
X47597643Y18397461D01*
X47601950Y18535510D01*
X47608123Y18634432D01*
X47617402Y18703855D01*
X47631027Y18753410D01*
X47650239Y18792727D01*
X47673402Y18827416D01*
X47785152Y18938230D01*
X47921513Y19002311D01*
X48069825Y19017661D01*
X48217429Y18982281D01*
G36*
X44848221Y18993985D02*
G01*
X44985061Y18922032D01*
X45086051Y18806234D01*
X45121925Y18731787D01*
X45149839Y18620008D01*
X45164129Y18478773D01*
X45165484Y18324629D01*
X45154595Y18174121D01*
X45132153Y18043795D01*
X45098850Y17950197D01*
X45088615Y17934078D01*
X44967382Y17813751D01*
X44823387Y17741683D01*
X44667139Y17720592D01*
X44509148Y17753198D01*
X44465180Y17772747D01*
X44379556Y17832988D01*
X44304408Y17912865D01*
X44297306Y17922996D01*
X44268439Y17971819D01*
X44249357Y18024010D01*
X44238084Y18092715D01*
X44232645Y18191082D01*
X44231062Y18332256D01*
X44231035Y18363908D01*
X44231107Y18373981D01*
X44522989Y18373981D01*
X44524687Y18240744D01*
X44531372Y18152326D01*
X44545425Y18095215D01*
X44569229Y18055898D01*
X44581379Y18042759D01*
X44651236Y17992828D01*
X44719059Y17995105D01*
X44787635Y18038416D01*
X44828535Y18084654D01*
X44852758Y18152143D01*
X44866361Y18258567D01*
X44867294Y18270980D01*
X44869616Y18463853D01*
X44845350Y18607100D01*
X44794824Y18699840D01*
X44718368Y18741193D01*
X44691076Y18743448D01*
X44619411Y18732107D01*
X44570390Y18692816D01*
X44540418Y18617674D01*
X44525899Y18498778D01*
X44522989Y18373981D01*
X44231107Y18373981D01*
X44232122Y18514341D01*
X44236688Y18619451D01*
X44246688Y18692286D01*
X44264079Y18745892D01*
X44290816Y18793319D01*
X44296724Y18802136D01*
X44396032Y18920993D01*
X44504242Y18989992D01*
X44635981Y19017381D01*
X44680717Y19018719D01*
X44848221Y18993985D01*
G37*
X44848221Y18993985D02*
X44985061Y18922032D01*
X45086051Y18806234D01*
X45121925Y18731787D01*
X45149839Y18620008D01*
X45164129Y18478773D01*
X45165484Y18324629D01*
X45154595Y18174121D01*
X45132153Y18043795D01*
X45098850Y17950197D01*
X45088615Y17934078D01*
X44967382Y17813751D01*
X44823387Y17741683D01*
X44667139Y17720592D01*
X44509148Y17753198D01*
X44465180Y17772747D01*
X44379556Y17832988D01*
X44304408Y17912865D01*
X44297306Y17922996D01*
X44268439Y17971819D01*
X44249357Y18024010D01*
X44238084Y18092715D01*
X44232645Y18191082D01*
X44231062Y18332256D01*
X44231035Y18363908D01*
X44231107Y18373981D01*
X44522989Y18373981D01*
X44524687Y18240744D01*
X44531372Y18152326D01*
X44545425Y18095215D01*
X44569229Y18055898D01*
X44581379Y18042759D01*
X44651236Y17992828D01*
X44719059Y17995105D01*
X44787635Y18038416D01*
X44828535Y18084654D01*
X44852758Y18152143D01*
X44866361Y18258567D01*
X44867294Y18270980D01*
X44869616Y18463853D01*
X44845350Y18607100D01*
X44794824Y18699840D01*
X44718368Y18741193D01*
X44691076Y18743448D01*
X44619411Y18732107D01*
X44570390Y18692816D01*
X44540418Y18617674D01*
X44525899Y18498778D01*
X44522989Y18373981D01*
X44231107Y18373981D01*
X44232122Y18514341D01*
X44236688Y18619451D01*
X44246688Y18692286D01*
X44264079Y18745892D01*
X44290816Y18793319D01*
X44296724Y18802136D01*
X44396032Y18920993D01*
X44504242Y18989992D01*
X44635981Y19017381D01*
X44680717Y19018719D01*
X44848221Y18993985D01*
G36*
X47115552Y18975324D02*
G01*
X47230658Y18897889D01*
X47319611Y18786051D01*
X47372749Y18643735D01*
X47383497Y18538985D01*
X47382276Y18495274D01*
X47372056Y18461806D01*
X47343961Y18431821D01*
X47289116Y18398560D01*
X47198645Y18355262D01*
X47063672Y18295167D01*
X47062989Y18294866D01*
X46938751Y18237963D01*
X46836873Y18187435D01*
X46767767Y18148720D01*
X46741846Y18127260D01*
X46741839Y18127087D01*
X46764685Y18080356D01*
X46818109Y18028846D01*
X46879442Y17991739D01*
X46910515Y17984368D01*
X46995289Y18009862D01*
X47068293Y18073709D01*
X47103913Y18143906D01*
X47138180Y18195657D01*
X47205303Y18254591D01*
X47284208Y18305504D01*
X47353821Y18333191D01*
X47368377Y18334713D01*
X47384763Y18309679D01*
X47385750Y18245689D01*
X47373708Y18159407D01*
X47351007Y18067499D01*
X47320014Y17986631D01*
X47318448Y17983491D01*
X47225181Y17853266D01*
X47104304Y17764689D01*
X46967027Y17721214D01*
X46824560Y17726294D01*
X46688112Y17783384D01*
X46682045Y17787398D01*
X46574710Y17884674D01*
X46504132Y18011591D01*
X46465074Y18178474D01*
X46459832Y18225361D01*
X46450548Y18446671D01*
X46461678Y18549876D01*
X46741839Y18549876D01*
X46745479Y18485497D01*
X46765389Y18466709D01*
X46815026Y18480765D01*
X46893267Y18513991D01*
X46980726Y18555641D01*
X46982899Y18556744D01*
X47057030Y18595735D01*
X47086781Y18621756D01*
X47079445Y18649035D01*
X47048553Y18684879D01*
X46969960Y18736749D01*
X46885323Y18740561D01*
X46809403Y18702811D01*
X46756965Y18629999D01*
X46741839Y18549876D01*
X46461678Y18549876D01*
X46469644Y18623739D01*
X46518634Y18764171D01*
X46586836Y18862553D01*
X46709935Y18961970D01*
X46845528Y19011289D01*
X46983955Y19014432D01*
X47115552Y18975324D01*
G37*
X47115552Y18975324D02*
X47230658Y18897889D01*
X47319611Y18786051D01*
X47372749Y18643735D01*
X47383497Y18538985D01*
X47382276Y18495274D01*
X47372056Y18461806D01*
X47343961Y18431821D01*
X47289116Y18398560D01*
X47198645Y18355262D01*
X47063672Y18295167D01*
X47062989Y18294866D01*
X46938751Y18237963D01*
X46836873Y18187435D01*
X46767767Y18148720D01*
X46741846Y18127260D01*
X46741839Y18127087D01*
X46764685Y18080356D01*
X46818109Y18028846D01*
X46879442Y17991739D01*
X46910515Y17984368D01*
X46995289Y18009862D01*
X47068293Y18073709D01*
X47103913Y18143906D01*
X47138180Y18195657D01*
X47205303Y18254591D01*
X47284208Y18305504D01*
X47353821Y18333191D01*
X47368377Y18334713D01*
X47384763Y18309679D01*
X47385750Y18245689D01*
X47373708Y18159407D01*
X47351007Y18067499D01*
X47320014Y17986631D01*
X47318448Y17983491D01*
X47225181Y17853266D01*
X47104304Y17764689D01*
X46967027Y17721214D01*
X46824560Y17726294D01*
X46688112Y17783384D01*
X46682045Y17787398D01*
X46574710Y17884674D01*
X46504132Y18011591D01*
X46465074Y18178474D01*
X46459832Y18225361D01*
X46450548Y18446671D01*
X46461678Y18549876D01*
X46741839Y18549876D01*
X46745479Y18485497D01*
X46765389Y18466709D01*
X46815026Y18480765D01*
X46893267Y18513991D01*
X46980726Y18555641D01*
X46982899Y18556744D01*
X47057030Y18595735D01*
X47086781Y18621756D01*
X47079445Y18649035D01*
X47048553Y18684879D01*
X46969960Y18736749D01*
X46885323Y18740561D01*
X46809403Y18702811D01*
X46756965Y18629999D01*
X46741839Y18549876D01*
X46461678Y18549876D01*
X46469644Y18623739D01*
X46518634Y18764171D01*
X46586836Y18862553D01*
X46709935Y18961970D01*
X46845528Y19011289D01*
X46983955Y19014432D01*
X47115552Y18975324D01*
G36*
X49544598Y19136143D02*
G01*
X49553154Y19016812D01*
X49562981Y18946494D01*
X49576599Y18915821D01*
X49596527Y18915429D01*
X49602989Y18919090D01*
X49688940Y18945602D01*
X49800745Y18944054D01*
X49914414Y18916801D01*
X49985510Y18881545D01*
X50058405Y18825222D01*
X50111693Y18761481D01*
X50148275Y18680490D01*
X50171050Y18572414D01*
X50182919Y18427420D01*
X50186782Y18235674D01*
X50186851Y18198891D01*
X50186897Y17785712D01*
X50094954Y17753661D01*
X50029652Y17731856D01*
X49993824Y17721703D01*
X49992770Y17721609D01*
X49989242Y17749140D01*
X49986239Y17825077D01*
X49983990Y17939435D01*
X49982724Y18082231D01*
X49982529Y18169049D01*
X49982123Y18340227D01*
X49980032Y18462912D01*
X49974947Y18547000D01*
X49965560Y18602386D01*
X49950561Y18638968D01*
X49928642Y18666641D01*
X49914957Y18679968D01*
X49820949Y18733672D01*
X49718364Y18737693D01*
X49625290Y18692275D01*
X49608078Y18675877D01*
X49582832Y18645043D01*
X49565320Y18608469D01*
X49554142Y18555585D01*
X49547896Y18475823D01*
X49545182Y18358615D01*
X49544598Y18197009D01*
X49544598Y17785712D01*
X49452655Y17753661D01*
X49387353Y17731856D01*
X49351525Y17721703D01*
X49350471Y17721609D01*
X49347775Y17749552D01*
X49345345Y17828370D01*
X49343278Y17950547D01*
X49341671Y18108568D01*
X49340623Y18294917D01*
X49340231Y18502080D01*
X49340230Y18511294D01*
X49340230Y19300980D01*
X49435115Y19341003D01*
X49530000Y19381027D01*
X49544598Y19136143D01*
G37*
X49544598Y19136143D02*
X49553154Y19016812D01*
X49562981Y18946494D01*
X49576599Y18915821D01*
X49596527Y18915429D01*
X49602989Y18919090D01*
X49688940Y18945602D01*
X49800745Y18944054D01*
X49914414Y18916801D01*
X49985510Y18881545D01*
X50058405Y18825222D01*
X50111693Y18761481D01*
X50148275Y18680490D01*
X50171050Y18572414D01*
X50182919Y18427420D01*
X50186782Y18235674D01*
X50186851Y18198891D01*
X50186897Y17785712D01*
X50094954Y17753661D01*
X50029652Y17731856D01*
X49993824Y17721703D01*
X49992770Y17721609D01*
X49989242Y17749140D01*
X49986239Y17825077D01*
X49983990Y17939435D01*
X49982724Y18082231D01*
X49982529Y18169049D01*
X49982123Y18340227D01*
X49980032Y18462912D01*
X49974947Y18547000D01*
X49965560Y18602386D01*
X49950561Y18638968D01*
X49928642Y18666641D01*
X49914957Y18679968D01*
X49820949Y18733672D01*
X49718364Y18737693D01*
X49625290Y18692275D01*
X49608078Y18675877D01*
X49582832Y18645043D01*
X49565320Y18608469D01*
X49554142Y18555585D01*
X49547896Y18475823D01*
X49545182Y18358615D01*
X49544598Y18197009D01*
X49544598Y17785712D01*
X49452655Y17753661D01*
X49387353Y17731856D01*
X49351525Y17721703D01*
X49350471Y17721609D01*
X49347775Y17749552D01*
X49345345Y17828370D01*
X49343278Y17950547D01*
X49341671Y18108568D01*
X49340623Y18294917D01*
X49340231Y18502080D01*
X49340230Y18511294D01*
X49340230Y19300980D01*
X49435115Y19341003D01*
X49530000Y19381027D01*
X49544598Y19136143D01*
G36*
X50879944Y18935640D02*
G01*
X50994343Y18893158D01*
X50995652Y18892342D01*
X51066403Y18840270D01*
X51118636Y18779416D01*
X51155371Y18700113D01*
X51179634Y18592691D01*
X51194445Y18447483D01*
X51202829Y18254821D01*
X51203564Y18227372D01*
X51214120Y17813479D01*
X51125291Y17767544D01*
X51061018Y17736502D01*
X51022210Y17721794D01*
X51020415Y17721609D01*
X51013700Y17748750D01*
X51008365Y17821959D01*
X51005083Y17928919D01*
X51004368Y18015531D01*
X51004351Y18155838D01*
X50997937Y18243949D01*
X50975580Y18285975D01*
X50927732Y18288025D01*
X50844849Y18256210D01*
X50719713Y18197728D01*
X50627697Y18149155D01*
X50580371Y18107014D01*
X50566458Y18061084D01*
X50566437Y18058811D01*
X50589395Y17979689D01*
X50657370Y17936945D01*
X50761398Y17930754D01*
X50836330Y17931828D01*
X50875839Y17910247D01*
X50900478Y17858409D01*
X50914659Y17792368D01*
X50894223Y17754896D01*
X50886528Y17749533D01*
X50814083Y17727994D01*
X50712633Y17724945D01*
X50608157Y17739222D01*
X50534125Y17765312D01*
X50431772Y17852215D01*
X50373591Y17973184D01*
X50362069Y18067692D01*
X50370862Y18152938D01*
X50402680Y18222524D01*
X50465684Y18284328D01*
X50568031Y18346228D01*
X50717882Y18416103D01*
X50727012Y18420052D01*
X50861997Y18482412D01*
X50945294Y18533554D01*
X50980997Y18579512D01*
X50973203Y18626317D01*
X50926007Y18680002D01*
X50911894Y18692356D01*
X50817359Y18740259D01*
X50719406Y18738242D01*
X50634097Y18691276D01*
X50577496Y18604331D01*
X50572237Y18587266D01*
X50521023Y18504496D01*
X50456037Y18464628D01*
X50362069Y18425118D01*
X50362069Y18527342D01*
X50390653Y18675928D01*
X50475495Y18812216D01*
X50519645Y18857809D01*
X50620005Y18916326D01*
X50747635Y18942816D01*
X50879944Y18935640D01*
G37*
X50879944Y18935640D02*
X50994343Y18893158D01*
X50995652Y18892342D01*
X51066403Y18840270D01*
X51118636Y18779416D01*
X51155371Y18700113D01*
X51179634Y18592691D01*
X51194445Y18447483D01*
X51202829Y18254821D01*
X51203564Y18227372D01*
X51214120Y17813479D01*
X51125291Y17767544D01*
X51061018Y17736502D01*
X51022210Y17721794D01*
X51020415Y17721609D01*
X51013700Y17748750D01*
X51008365Y17821959D01*
X51005083Y17928919D01*
X51004368Y18015531D01*
X51004351Y18155838D01*
X50997937Y18243949D01*
X50975580Y18285975D01*
X50927732Y18288025D01*
X50844849Y18256210D01*
X50719713Y18197728D01*
X50627697Y18149155D01*
X50580371Y18107014D01*
X50566458Y18061084D01*
X50566437Y18058811D01*
X50589395Y17979689D01*
X50657370Y17936945D01*
X50761398Y17930754D01*
X50836330Y17931828D01*
X50875839Y17910247D01*
X50900478Y17858409D01*
X50914659Y17792368D01*
X50894223Y17754896D01*
X50886528Y17749533D01*
X50814083Y17727994D01*
X50712633Y17724945D01*
X50608157Y17739222D01*
X50534125Y17765312D01*
X50431772Y17852215D01*
X50373591Y17973184D01*
X50362069Y18067692D01*
X50370862Y18152938D01*
X50402680Y18222524D01*
X50465684Y18284328D01*
X50568031Y18346228D01*
X50717882Y18416103D01*
X50727012Y18420052D01*
X50861997Y18482412D01*
X50945294Y18533554D01*
X50980997Y18579512D01*
X50973203Y18626317D01*
X50926007Y18680002D01*
X50911894Y18692356D01*
X50817359Y18740259D01*
X50719406Y18738242D01*
X50634097Y18691276D01*
X50577496Y18604331D01*
X50572237Y18587266D01*
X50521023Y18504496D01*
X50456037Y18464628D01*
X50362069Y18425118D01*
X50362069Y18527342D01*
X50390653Y18675928D01*
X50475495Y18812216D01*
X50519645Y18857809D01*
X50620005Y18916326D01*
X50747635Y18942816D01*
X50879944Y18935640D01*
G36*
X51865943Y18938080D02*
G01*
X51998565Y18889141D01*
X52106010Y18802581D01*
X52148032Y18741648D01*
X52193843Y18629839D01*
X52192891Y18548994D01*
X52144808Y18494622D01*
X52127017Y18485376D01*
X52050204Y18456550D01*
X52010976Y18463935D01*
X51997689Y18512342D01*
X51997012Y18539080D01*
X51972686Y18637452D01*
X51909281Y18706266D01*
X51821154Y18739502D01*
X51722663Y18731139D01*
X51642602Y18687704D01*
X51615561Y18662928D01*
X51596394Y18632871D01*
X51583446Y18587435D01*
X51575064Y18516524D01*
X51569593Y18410040D01*
X51565378Y18257888D01*
X51564287Y18209713D01*
X51560307Y18044905D01*
X51555781Y17928912D01*
X51548995Y17852167D01*
X51538231Y17805107D01*
X51521773Y17778165D01*
X51497906Y17761777D01*
X51482626Y17754537D01*
X51417733Y17729780D01*
X51379534Y17721609D01*
X51366912Y17748897D01*
X51359208Y17831397D01*
X51356380Y17970059D01*
X51358386Y18165838D01*
X51359011Y18196035D01*
X51363421Y18374651D01*
X51368635Y18505077D01*
X51376055Y18597508D01*
X51387082Y18662142D01*
X51403117Y18709175D01*
X51425561Y18748804D01*
X51437302Y18765785D01*
X51504619Y18840920D01*
X51579910Y18899362D01*
X51589128Y18904464D01*
X51724133Y18944740D01*
X51865943Y18938080D01*
G37*
X51865943Y18938080D02*
X51998565Y18889141D01*
X52106010Y18802581D01*
X52148032Y18741648D01*
X52193843Y18629839D01*
X52192891Y18548994D01*
X52144808Y18494622D01*
X52127017Y18485376D01*
X52050204Y18456550D01*
X52010976Y18463935D01*
X51997689Y18512342D01*
X51997012Y18539080D01*
X51972686Y18637452D01*
X51909281Y18706266D01*
X51821154Y18739502D01*
X51722663Y18731139D01*
X51642602Y18687704D01*
X51615561Y18662928D01*
X51596394Y18632871D01*
X51583446Y18587435D01*
X51575064Y18516524D01*
X51569593Y18410040D01*
X51565378Y18257888D01*
X51564287Y18209713D01*
X51560307Y18044905D01*
X51555781Y17928912D01*
X51548995Y17852167D01*
X51538231Y17805107D01*
X51521773Y17778165D01*
X51497906Y17761777D01*
X51482626Y17754537D01*
X51417733Y17729780D01*
X51379534Y17721609D01*
X51366912Y17748897D01*
X51359208Y17831397D01*
X51356380Y17970059D01*
X51358386Y18165838D01*
X51359011Y18196035D01*
X51363421Y18374651D01*
X51368635Y18505077D01*
X51376055Y18597508D01*
X51387082Y18662142D01*
X51403117Y18709175D01*
X51425561Y18748804D01*
X51437302Y18765785D01*
X51504619Y18840920D01*
X51579910Y18899362D01*
X51589128Y18904464D01*
X51724133Y18944740D01*
X51865943Y18938080D01*
G36*
X53193914Y18705545D02*
G01*
X53193543Y18487339D01*
X53192108Y18319481D01*
X53189002Y18193930D01*
X53183622Y18102645D01*
X53175362Y18037585D01*
X53163616Y17990709D01*
X53147781Y17953976D01*
X53135790Y17933009D01*
X53036490Y17819306D01*
X52910588Y17748035D01*
X52771291Y17722462D01*
X52631805Y17745850D01*
X52548743Y17787881D01*
X52461545Y17860589D01*
X52402117Y17949388D01*
X52366261Y18065680D01*
X52349781Y18220865D01*
X52347447Y18334713D01*
X52347761Y18342894D01*
X52551724Y18342894D01*
X52552970Y18212343D01*
X52558678Y18125920D01*
X52571804Y18069382D01*
X52595306Y18028486D01*
X52623386Y17997638D01*
X52717688Y17938095D01*
X52818940Y17933008D01*
X52914636Y17982721D01*
X52922084Y17989457D01*
X52953874Y18024498D01*
X52973808Y18066189D01*
X52984600Y18128238D01*
X52988965Y18224356D01*
X52989655Y18330621D01*
X52988159Y18464120D01*
X52981964Y18553178D01*
X52968514Y18611707D01*
X52945251Y18653618D01*
X52926175Y18675877D01*
X52837563Y18732015D01*
X52735508Y18738765D01*
X52638095Y18695886D01*
X52619296Y18679968D01*
X52587293Y18644618D01*
X52567318Y18602498D01*
X52556593Y18539749D01*
X52552339Y18442513D01*
X52551724Y18342894D01*
X52347761Y18342894D01*
X52354504Y18518053D01*
X52378472Y18655805D01*
X52423548Y18759368D01*
X52493928Y18840144D01*
X52548743Y18881545D01*
X52648376Y18926272D01*
X52763855Y18947033D01*
X52871199Y18941475D01*
X52931264Y18919057D01*
X52954835Y18912677D01*
X52970477Y18936465D01*
X52981395Y19000212D01*
X52989655Y19097313D01*
X52998699Y19205459D01*
X53011261Y19270525D01*
X53034119Y19307732D01*
X53074051Y19332301D01*
X53099138Y19343181D01*
X53194023Y19382928D01*
X53193914Y18705545D01*
G37*
X53193914Y18705545D02*
X53193543Y18487339D01*
X53192108Y18319481D01*
X53189002Y18193930D01*
X53183622Y18102645D01*
X53175362Y18037585D01*
X53163616Y17990709D01*
X53147781Y17953976D01*
X53135790Y17933009D01*
X53036490Y17819306D01*
X52910588Y17748035D01*
X52771291Y17722462D01*
X52631805Y17745850D01*
X52548743Y17787881D01*
X52461545Y17860589D01*
X52402117Y17949388D01*
X52366261Y18065680D01*
X52349781Y18220865D01*
X52347447Y18334713D01*
X52347761Y18342894D01*
X52551724Y18342894D01*
X52552970Y18212343D01*
X52558678Y18125920D01*
X52571804Y18069382D01*
X52595306Y18028486D01*
X52623386Y17997638D01*
X52717688Y17938095D01*
X52818940Y17933008D01*
X52914636Y17982721D01*
X52922084Y17989457D01*
X52953874Y18024498D01*
X52973808Y18066189D01*
X52984600Y18128238D01*
X52988965Y18224356D01*
X52989655Y18330621D01*
X52988159Y18464120D01*
X52981964Y18553178D01*
X52968514Y18611707D01*
X52945251Y18653618D01*
X52926175Y18675877D01*
X52837563Y18732015D01*
X52735508Y18738765D01*
X52638095Y18695886D01*
X52619296Y18679968D01*
X52587293Y18644618D01*
X52567318Y18602498D01*
X52556593Y18539749D01*
X52552339Y18442513D01*
X52551724Y18342894D01*
X52347761Y18342894D01*
X52354504Y18518053D01*
X52378472Y18655805D01*
X52423548Y18759368D01*
X52493928Y18840144D01*
X52548743Y18881545D01*
X52648376Y18926272D01*
X52763855Y18947033D01*
X52871199Y18941475D01*
X52931264Y18919057D01*
X52954835Y18912677D01*
X52970477Y18936465D01*
X52981395Y19000212D01*
X52989655Y19097313D01*
X52998699Y19205459D01*
X53011261Y19270525D01*
X53034119Y19307732D01*
X53074051Y19332301D01*
X53099138Y19343181D01*
X53194023Y19382928D01*
X53193914Y18705545D01*
G36*
X54380124Y18920160D02*
G01*
X54384579Y18843347D01*
X54388071Y18726609D01*
X54390315Y18579179D01*
X54391035Y18424545D01*
X54391035Y17901273D01*
X54298645Y17808883D01*
X54234978Y17751953D01*
X54179089Y17728893D01*
X54102702Y17730353D01*
X54072380Y17734066D01*
X53977610Y17744874D01*
X53899222Y17751067D01*
X53880115Y17751639D01*
X53815699Y17747898D01*
X53723571Y17738506D01*
X53687850Y17734066D01*
X53600114Y17727199D01*
X53541153Y17742115D01*
X53482690Y17788165D01*
X53461585Y17808883D01*
X53369195Y17901273D01*
X53369195Y18880053D01*
X53443558Y18913934D01*
X53507590Y18939030D01*
X53545052Y18947816D01*
X53554657Y18920050D01*
X53563635Y18842470D01*
X53571386Y18723652D01*
X53577314Y18572172D01*
X53580173Y18444195D01*
X53588161Y17940575D01*
X53657848Y17930722D01*
X53721229Y17937611D01*
X53752286Y17959917D01*
X53760967Y18001621D01*
X53768378Y18090456D01*
X53773931Y18215166D01*
X53777036Y18364493D01*
X53777484Y18441339D01*
X53777931Y18883713D01*
X53869874Y18915765D01*
X53934949Y18937557D01*
X53970347Y18947719D01*
X53971368Y18947816D01*
X53974920Y18920191D01*
X53978823Y18843589D01*
X53982751Y18727421D01*
X53986376Y18581096D01*
X53988908Y18444195D01*
X53996897Y17940575D01*
X54172069Y17940575D01*
X54180107Y18400035D01*
X54188146Y18859495D01*
X54273543Y18903656D01*
X54336593Y18933981D01*
X54373910Y18947742D01*
X54374987Y18947816D01*
X54380124Y18920160D01*
G37*
X54380124Y18920160D02*
X54384579Y18843347D01*
X54388071Y18726609D01*
X54390315Y18579179D01*
X54391035Y18424545D01*
X54391035Y17901273D01*
X54298645Y17808883D01*
X54234978Y17751953D01*
X54179089Y17728893D01*
X54102702Y17730353D01*
X54072380Y17734066D01*
X53977610Y17744874D01*
X53899222Y17751067D01*
X53880115Y17751639D01*
X53815699Y17747898D01*
X53723571Y17738506D01*
X53687850Y17734066D01*
X53600114Y17727199D01*
X53541153Y17742115D01*
X53482690Y17788165D01*
X53461585Y17808883D01*
X53369195Y17901273D01*
X53369195Y18880053D01*
X53443558Y18913934D01*
X53507590Y18939030D01*
X53545052Y18947816D01*
X53554657Y18920050D01*
X53563635Y18842470D01*
X53571386Y18723652D01*
X53577314Y18572172D01*
X53580173Y18444195D01*
X53588161Y17940575D01*
X53657848Y17930722D01*
X53721229Y17937611D01*
X53752286Y17959917D01*
X53760967Y18001621D01*
X53768378Y18090456D01*
X53773931Y18215166D01*
X53777036Y18364493D01*
X53777484Y18441339D01*
X53777931Y18883713D01*
X53869874Y18915765D01*
X53934949Y18937557D01*
X53970347Y18947719D01*
X53971368Y18947816D01*
X53974920Y18920191D01*
X53978823Y18843589D01*
X53982751Y18727421D01*
X53986376Y18581096D01*
X53988908Y18444195D01*
X53996897Y17940575D01*
X54172069Y17940575D01*
X54180107Y18400035D01*
X54188146Y18859495D01*
X54273543Y18903656D01*
X54336593Y18933981D01*
X54373910Y18947742D01*
X54374987Y18947816D01*
X54380124Y18920160D01*
G36*
X55114406Y18924844D02*
G01*
X55198469Y18886607D01*
X55264450Y18840274D01*
X55312794Y18788468D01*
X55346172Y18721637D01*
X55367253Y18630231D01*
X55378707Y18504699D01*
X55383203Y18335492D01*
X55383678Y18224067D01*
X55383678Y17789373D01*
X55309316Y17755491D01*
X55250746Y17730728D01*
X55221730Y17721609D01*
X55216179Y17748743D01*
X55211775Y17821906D01*
X55209078Y17928737D01*
X55208506Y18013563D01*
X55206046Y18136113D01*
X55199412Y18233332D01*
X55189726Y18292866D01*
X55182032Y18305517D01*
X55130311Y18292598D01*
X55049117Y18259461D01*
X54955102Y18214539D01*
X54864917Y18166265D01*
X54795215Y18123072D01*
X54762648Y18093392D01*
X54762519Y18093071D01*
X54765320Y18038143D01*
X54790439Y17985708D01*
X54834541Y17943119D01*
X54898909Y17928874D01*
X54953921Y17930534D01*
X55031835Y17931755D01*
X55072732Y17913502D01*
X55097295Y17865274D01*
X55100392Y17856180D01*
X55111040Y17787402D01*
X55082565Y17745640D01*
X55008344Y17725737D01*
X54928168Y17722056D01*
X54783890Y17749342D01*
X54709203Y17788310D01*
X54616963Y17879852D01*
X54568043Y17992218D01*
X54563654Y18110949D01*
X54605001Y18221589D01*
X54667197Y18290920D01*
X54729294Y18329735D01*
X54826895Y18378875D01*
X54940632Y18428708D01*
X54959590Y18436323D01*
X55084521Y18491455D01*
X55156539Y18540046D01*
X55179700Y18588353D01*
X55158064Y18642630D01*
X55120920Y18685057D01*
X55033127Y18737298D01*
X54936530Y18741216D01*
X54847944Y18700959D01*
X54784186Y18620674D01*
X54775817Y18599960D01*
X54727096Y18523775D01*
X54655965Y18467215D01*
X54566207Y18420799D01*
X54566207Y18552416D01*
X54571490Y18632832D01*
X54594142Y18696214D01*
X54644367Y18763837D01*
X54692582Y18815924D01*
X54767554Y18889678D01*
X54825806Y18929298D01*
X54888372Y18945190D01*
X54959193Y18947816D01*
X55114406Y18924844D01*
G37*
X55114406Y18924844D02*
X55198469Y18886607D01*
X55264450Y18840274D01*
X55312794Y18788468D01*
X55346172Y18721637D01*
X55367253Y18630231D01*
X55378707Y18504699D01*
X55383203Y18335492D01*
X55383678Y18224067D01*
X55383678Y17789373D01*
X55309316Y17755491D01*
X55250746Y17730728D01*
X55221730Y17721609D01*
X55216179Y17748743D01*
X55211775Y17821906D01*
X55209078Y17928737D01*
X55208506Y18013563D01*
X55206046Y18136113D01*
X55199412Y18233332D01*
X55189726Y18292866D01*
X55182032Y18305517D01*
X55130311Y18292598D01*
X55049117Y18259461D01*
X54955102Y18214539D01*
X54864917Y18166265D01*
X54795215Y18123072D01*
X54762648Y18093392D01*
X54762519Y18093071D01*
X54765320Y18038143D01*
X54790439Y17985708D01*
X54834541Y17943119D01*
X54898909Y17928874D01*
X54953921Y17930534D01*
X55031835Y17931755D01*
X55072732Y17913502D01*
X55097295Y17865274D01*
X55100392Y17856180D01*
X55111040Y17787402D01*
X55082565Y17745640D01*
X55008344Y17725737D01*
X54928168Y17722056D01*
X54783890Y17749342D01*
X54709203Y17788310D01*
X54616963Y17879852D01*
X54568043Y17992218D01*
X54563654Y18110949D01*
X54605001Y18221589D01*
X54667197Y18290920D01*
X54729294Y18329735D01*
X54826895Y18378875D01*
X54940632Y18428708D01*
X54959590Y18436323D01*
X55084521Y18491455D01*
X55156539Y18540046D01*
X55179700Y18588353D01*
X55158064Y18642630D01*
X55120920Y18685057D01*
X55033127Y18737298D01*
X54936530Y18741216D01*
X54847944Y18700959D01*
X54784186Y18620674D01*
X54775817Y18599960D01*
X54727096Y18523775D01*
X54655965Y18467215D01*
X54566207Y18420799D01*
X54566207Y18552416D01*
X54571490Y18632832D01*
X54594142Y18696214D01*
X54644367Y18763837D01*
X54692582Y18815924D01*
X54767554Y18889678D01*
X54825806Y18929298D01*
X54888372Y18945190D01*
X54959193Y18947816D01*
X55114406Y18924844D01*
G36*
X56135690Y18919982D02*
G01*
X56170585Y18904731D01*
X56253877Y18838765D01*
X56325103Y18743382D01*
X56369153Y18641594D01*
X56376322Y18591413D01*
X56352285Y18521353D01*
X56299561Y18484283D01*
X56243031Y18461836D01*
X56217146Y18457700D01*
X56204542Y18487717D01*
X56179654Y18553039D01*
X56168735Y18582555D01*
X56107508Y18684652D01*
X56018861Y18735577D01*
X55905193Y18734011D01*
X55896774Y18732006D01*
X55836088Y18703233D01*
X55791474Y18647141D01*
X55761002Y18556837D01*
X55742744Y18425429D01*
X55734771Y18246026D01*
X55734023Y18150567D01*
X55733652Y18000087D01*
X55731223Y17897505D01*
X55724760Y17832328D01*
X55712288Y17794062D01*
X55691833Y17772215D01*
X55661419Y17756293D01*
X55659661Y17755491D01*
X55601091Y17730728D01*
X55572075Y17721609D01*
X55567616Y17749178D01*
X55563799Y17825380D01*
X55560899Y17940459D01*
X55559191Y18084659D01*
X55558851Y18190186D01*
X55560588Y18394387D01*
X55567382Y18549303D01*
X55581607Y18663976D01*
X55605638Y18747449D01*
X55641848Y18808764D01*
X55692612Y18856966D01*
X55742739Y18890607D01*
X55863275Y18935381D01*
X56003557Y18945479D01*
X56135690Y18919982D01*
G37*
X56135690Y18919982D02*
X56170585Y18904731D01*
X56253877Y18838765D01*
X56325103Y18743382D01*
X56369153Y18641594D01*
X56376322Y18591413D01*
X56352285Y18521353D01*
X56299561Y18484283D01*
X56243031Y18461836D01*
X56217146Y18457700D01*
X56204542Y18487717D01*
X56179654Y18553039D01*
X56168735Y18582555D01*
X56107508Y18684652D01*
X56018861Y18735577D01*
X55905193Y18734011D01*
X55896774Y18732006D01*
X55836088Y18703233D01*
X55791474Y18647141D01*
X55761002Y18556837D01*
X55742744Y18425429D01*
X55734771Y18246026D01*
X55734023Y18150567D01*
X55733652Y18000087D01*
X55731223Y17897505D01*
X55724760Y17832328D01*
X55712288Y17794062D01*
X55691833Y17772215D01*
X55661419Y17756293D01*
X55659661Y17755491D01*
X55601091Y17730728D01*
X55572075Y17721609D01*
X55567616Y17749178D01*
X55563799Y17825380D01*
X55560899Y17940459D01*
X55559191Y18084659D01*
X55558851Y18190186D01*
X55560588Y18394387D01*
X55567382Y18549303D01*
X55581607Y18663976D01*
X55605638Y18747449D01*
X55641848Y18808764D01*
X55692612Y18856966D01*
X55742739Y18890607D01*
X55863275Y18935381D01*
X56003557Y18945479D01*
X56135690Y18919982D01*
G36*
X57143439Y18903460D02*
G01*
X57258950Y18827966D01*
X57314664Y18760383D01*
X57358804Y18637745D01*
X57362309Y18540702D01*
X57354368Y18410944D01*
X57055115Y18279961D01*
X56909611Y18213042D01*
X56814537Y18159210D01*
X56765101Y18112584D01*
X56756511Y18067280D01*
X56783972Y18017418D01*
X56814253Y17984368D01*
X56902363Y17931367D01*
X56998196Y17927653D01*
X57086212Y17968959D01*
X57150869Y18051017D01*
X57162433Y18079992D01*
X57217825Y18170491D01*
X57281553Y18209060D01*
X57368966Y18242054D01*
X57368966Y18116966D01*
X57361238Y18031844D01*
X57330966Y17960062D01*
X57267518Y17877644D01*
X57258088Y17866934D01*
X57187513Y17793609D01*
X57126847Y17754258D01*
X57050950Y17736155D01*
X56988030Y17730226D01*
X56875487Y17728749D01*
X56795370Y17747465D01*
X56745390Y17775253D01*
X56666838Y17836359D01*
X56612463Y17902446D01*
X56578052Y17985559D01*
X56559388Y18097746D01*
X56552256Y18251054D01*
X56551687Y18328864D01*
X56553622Y18422147D01*
X56729899Y18422147D01*
X56731944Y18372104D01*
X56737039Y18363908D01*
X56770666Y18375042D01*
X56843030Y18404507D01*
X56939747Y18446399D01*
X56959973Y18455403D01*
X57082203Y18517558D01*
X57149547Y18572185D01*
X57164348Y18623351D01*
X57128947Y18675124D01*
X57099711Y18698000D01*
X56994216Y18743750D01*
X56895476Y18736192D01*
X56812812Y18680349D01*
X56755548Y18581247D01*
X56737188Y18502586D01*
X56729899Y18422147D01*
X56553622Y18422147D01*
X56555459Y18510649D01*
X56569359Y18645147D01*
X56596894Y18743084D01*
X56641572Y18815189D01*
X56706901Y18872187D01*
X56735383Y18890607D01*
X56864763Y18938578D01*
X57006412Y18941597D01*
X57143439Y18903460D01*
G37*
X57143439Y18903460D02*
X57258950Y18827966D01*
X57314664Y18760383D01*
X57358804Y18637745D01*
X57362309Y18540702D01*
X57354368Y18410944D01*
X57055115Y18279961D01*
X56909611Y18213042D01*
X56814537Y18159210D01*
X56765101Y18112584D01*
X56756511Y18067280D01*
X56783972Y18017418D01*
X56814253Y17984368D01*
X56902363Y17931367D01*
X56998196Y17927653D01*
X57086212Y17968959D01*
X57150869Y18051017D01*
X57162433Y18079992D01*
X57217825Y18170491D01*
X57281553Y18209060D01*
X57368966Y18242054D01*
X57368966Y18116966D01*
X57361238Y18031844D01*
X57330966Y17960062D01*
X57267518Y17877644D01*
X57258088Y17866934D01*
X57187513Y17793609D01*
X57126847Y17754258D01*
X57050950Y17736155D01*
X56988030Y17730226D01*
X56875487Y17728749D01*
X56795370Y17747465D01*
X56745390Y17775253D01*
X56666838Y17836359D01*
X56612463Y17902446D01*
X56578052Y17985559D01*
X56559388Y18097746D01*
X56552256Y18251054D01*
X56551687Y18328864D01*
X56553622Y18422147D01*
X56729899Y18422147D01*
X56731944Y18372104D01*
X56737039Y18363908D01*
X56770666Y18375042D01*
X56843030Y18404507D01*
X56939747Y18446399D01*
X56959973Y18455403D01*
X57082203Y18517558D01*
X57149547Y18572185D01*
X57164348Y18623351D01*
X57128947Y18675124D01*
X57099711Y18698000D01*
X56994216Y18743750D01*
X56895476Y18736192D01*
X56812812Y18680349D01*
X56755548Y18581247D01*
X56737188Y18502586D01*
X56729899Y18422147D01*
X56553622Y18422147D01*
X56555459Y18510649D01*
X56569359Y18645147D01*
X56596894Y18743084D01*
X56641572Y18815189D01*
X56706901Y18872187D01*
X56735383Y18890607D01*
X56864763Y18938578D01*
X57006412Y18941597D01*
X57143439Y18903460D01*
G36*
X51009014Y28407002D02*
G01*
X51167006Y28406137D01*
X51281347Y28403795D01*
X51359407Y28399238D01*
X51408554Y28391730D01*
X51436159Y28380534D01*
X51449592Y28364912D01*
X51456221Y28344127D01*
X51456865Y28341437D01*
X51466935Y28292887D01*
X51485575Y28197095D01*
X51510845Y28064257D01*
X51540807Y27904569D01*
X51573522Y27728226D01*
X51574664Y27722033D01*
X51607433Y27549218D01*
X51638093Y27396531D01*
X51664664Y27273129D01*
X51685167Y27188169D01*
X51697626Y27150810D01*
X51698220Y27150148D01*
X51734919Y27131905D01*
X51810586Y27101503D01*
X51908878Y27065507D01*
X51909425Y27065315D01*
X52033233Y27018778D01*
X52179196Y26959496D01*
X52316781Y26899891D01*
X52323293Y26896944D01*
X52547390Y26795235D01*
X53043619Y27134103D01*
X53195846Y27237408D01*
X53333741Y27329763D01*
X53449315Y27405916D01*
X53534579Y27460615D01*
X53581544Y27488607D01*
X53586004Y27490683D01*
X53620134Y27481440D01*
X53683881Y27436844D01*
X53779731Y27354791D01*
X53910169Y27233179D01*
X54043328Y27103795D01*
X54171694Y26976298D01*
X54286581Y26859954D01*
X54381073Y26761948D01*
X54448253Y26689464D01*
X54481206Y26649687D01*
X54482432Y26647639D01*
X54486074Y26620344D01*
X54472350Y26575766D01*
X54437869Y26507888D01*
X54379239Y26410689D01*
X54293070Y26278149D01*
X54178200Y26107524D01*
X54076254Y25957345D01*
X53985123Y25822650D01*
X53910073Y25711260D01*
X53856369Y25630995D01*
X53829280Y25589675D01*
X53827574Y25586870D01*
X53830882Y25547279D01*
X53855953Y25470331D01*
X53897798Y25370568D01*
X53912712Y25338709D01*
X53977786Y25196774D01*
X54047212Y25035727D01*
X54103609Y24896379D01*
X54144247Y24792956D01*
X54176526Y24714358D01*
X54195178Y24673280D01*
X54197497Y24670115D01*
X54231803Y24664872D01*
X54312669Y24650506D01*
X54429343Y24629063D01*
X54571075Y24602587D01*
X54727110Y24573123D01*
X54886698Y24542717D01*
X55039085Y24513412D01*
X55173521Y24487255D01*
X55279252Y24466290D01*
X55345526Y24452561D01*
X55361782Y24448680D01*
X55378573Y24439100D01*
X55391249Y24417464D01*
X55400378Y24376469D01*
X55406531Y24308811D01*
X55410280Y24207188D01*
X55412192Y24064297D01*
X55412840Y23872835D01*
X55412874Y23794355D01*
X55412874Y23156094D01*
X55259598Y23125840D01*
X55174322Y23109436D01*
X55047070Y23085491D01*
X54893315Y23056893D01*
X54728534Y23026533D01*
X54682989Y23018194D01*
X54530932Y22988630D01*
X54398468Y22959558D01*
X54296714Y22933671D01*
X54236788Y22913663D01*
X54226805Y22907699D01*
X54202293Y22865466D01*
X54167148Y22783630D01*
X54128173Y22678317D01*
X54120442Y22655632D01*
X54069360Y22514982D01*
X54005954Y22356286D01*
X53943904Y22213775D01*
X53943598Y22213114D01*
X53840267Y21989560D01*
X54519961Y20989768D01*
X54083621Y20552700D01*
X53951649Y20422619D01*
X53831279Y20307952D01*
X53729273Y20214819D01*
X53652391Y20149342D01*
X53607393Y20117643D01*
X53600938Y20115632D01*
X53563040Y20131471D01*
X53485708Y20175504D01*
X53377389Y20242510D01*
X53246532Y20327266D01*
X53105052Y20422184D01*
X52961461Y20519002D01*
X52833435Y20603249D01*
X52729105Y20669742D01*
X52656600Y20713298D01*
X52624158Y20728736D01*
X52584576Y20715672D01*
X52509519Y20681250D01*
X52414468Y20632620D01*
X52404392Y20627215D01*
X52276391Y20563020D01*
X52188618Y20531537D01*
X52134028Y20531202D01*
X52105575Y20560452D01*
X52105410Y20560862D01*
X52091188Y20595502D01*
X52057269Y20677731D01*
X52006284Y20801186D01*
X51940862Y20959502D01*
X51863634Y21146314D01*
X51777229Y21355258D01*
X51693551Y21557554D01*
X51601588Y21780800D01*
X51517150Y21987608D01*
X51442769Y22171638D01*
X51380974Y22326549D01*
X51334297Y22446004D01*
X51305268Y22523661D01*
X51296322Y22552644D01*
X51318756Y22585890D01*
X51377439Y22638877D01*
X51455689Y22697296D01*
X51678534Y22882048D01*
X51852718Y23093818D01*
X51976154Y23328144D01*
X52046754Y23580566D01*
X52062431Y23846623D01*
X52051036Y23969425D01*
X51988950Y24224207D01*
X51882023Y24449199D01*
X51736889Y24642183D01*
X51560178Y24800939D01*
X51358522Y24923250D01*
X51138554Y25006895D01*
X50906906Y25049656D01*
X50670209Y25049313D01*
X50435095Y25003648D01*
X50208196Y24910441D01*
X49996144Y24767473D01*
X49907636Y24686617D01*
X49737889Y24478993D01*
X49619699Y24252105D01*
X49552278Y24012567D01*
X49534840Y23766993D01*
X49566598Y23521997D01*
X49646765Y23284192D01*
X49774555Y23060193D01*
X49949180Y22856613D01*
X50144312Y22697296D01*
X50225591Y22636398D01*
X50283009Y22583985D01*
X50303678Y22552594D01*
X50292856Y22518361D01*
X50262077Y22436581D01*
X50213874Y22313593D01*
X50150778Y22155737D01*
X50075322Y21969351D01*
X49990038Y21760774D01*
X49906219Y21557504D01*
X49813745Y21334067D01*
X49728089Y21127016D01*
X49651882Y20942714D01*
X49587753Y20787525D01*
X49538332Y20667812D01*
X49506248Y20589939D01*
X49494359Y20560862D01*
X49466274Y20531323D01*
X49411949Y20531409D01*
X49324395Y20562674D01*
X49196619Y20626671D01*
X49195608Y20627215D01*
X49099402Y20676879D01*
X49021631Y20713055D01*
X48977777Y20728592D01*
X48975842Y20728736D01*
X48942829Y20712976D01*
X48869946Y20669150D01*
X48765322Y20602443D01*
X48637090Y20518036D01*
X48494948Y20422184D01*
X48350233Y20325133D01*
X48219804Y20240730D01*
X48112110Y20174199D01*
X48035598Y20130762D01*
X47999062Y20115632D01*
X47965418Y20135518D01*
X47897776Y20191097D01*
X47802893Y20276246D01*
X47687530Y20384847D01*
X47558445Y20510779D01*
X47516229Y20552851D01*
X47079739Y20990069D01*
X47411977Y21477660D01*
X47512946Y21627395D01*
X47601562Y21761780D01*
X47672854Y21873031D01*
X47721850Y21953361D01*
X47743578Y21994986D01*
X47744215Y21997947D01*
X47732760Y22037182D01*
X47701949Y22116105D01*
X47657116Y22221491D01*
X47625647Y22292046D01*
X47566808Y22427124D01*
X47511396Y22563591D01*
X47468436Y22678897D01*
X47456766Y22714023D01*
X47423611Y22807826D01*
X47391201Y22880306D01*
X47373399Y22907699D01*
X47334114Y22924464D01*
X47248374Y22948230D01*
X47127303Y22976303D01*
X46982027Y23005991D01*
X46917012Y23018194D01*
X46751913Y23048532D01*
X46593552Y23077907D01*
X46457404Y23103431D01*
X46358943Y23122215D01*
X46340402Y23125840D01*
X46187127Y23156094D01*
X46187127Y23794355D01*
X46187471Y24004230D01*
X46188884Y24163020D01*
X46191936Y24278027D01*
X46197197Y24356554D01*
X46205237Y24405904D01*
X46216627Y24433381D01*
X46231937Y24446287D01*
X46238218Y24448680D01*
X46276104Y24457167D01*
X46359805Y24474100D01*
X46478567Y24497434D01*
X46621639Y24525125D01*
X46778268Y24555127D01*
X46937703Y24585396D01*
X47089191Y24613885D01*
X47221981Y24638551D01*
X47325319Y24657349D01*
X47388455Y24668233D01*
X47402503Y24670115D01*
X47415230Y24695296D01*
X47443400Y24762378D01*
X47481748Y24858667D01*
X47496391Y24896379D01*
X47555452Y25042079D01*
X47625000Y25203049D01*
X47687288Y25338709D01*
X47733121Y25442439D01*
X47763613Y25527674D01*
X47773792Y25579874D01*
X47772169Y25586870D01*
X47750657Y25619898D01*
X47701535Y25693357D01*
X47630077Y25799423D01*
X47541555Y25930274D01*
X47441241Y26078088D01*
X47421406Y26107266D01*
X47305012Y26280137D01*
X47219452Y26411774D01*
X47161316Y26508239D01*
X47127192Y26575592D01*
X47113669Y26619894D01*
X47117336Y26647206D01*
X47117430Y26647380D01*
X47146293Y26683254D01*
X47210133Y26752609D01*
X47302031Y26848255D01*
X47415067Y26963001D01*
X47542321Y27089659D01*
X47556672Y27103795D01*
X47717043Y27259097D01*
X47840805Y27373130D01*
X47930445Y27447998D01*
X47988448Y27485804D01*
X48013996Y27490683D01*
X48051282Y27469397D01*
X48128657Y27420227D01*
X48238133Y27348425D01*
X48371720Y27259245D01*
X48521430Y27157937D01*
X48556382Y27134103D01*
X49052610Y26795235D01*
X49276707Y26896944D01*
X49412989Y26956217D01*
X49559276Y27015830D01*
X49685035Y27063360D01*
X49690575Y27065315D01*
X49788943Y27101323D01*
X49864771Y27131771D01*
X49901718Y27150095D01*
X49901780Y27150148D01*
X49913504Y27183271D01*
X49933432Y27264733D01*
X49959587Y27385375D01*
X49989990Y27536041D01*
X50022663Y27707572D01*
X50025336Y27722033D01*
X50058110Y27898765D01*
X50088198Y28059190D01*
X50113661Y28193112D01*
X50132559Y28290337D01*
X50142953Y28340668D01*
X50143135Y28341437D01*
X50149461Y28362847D01*
X50161761Y28379012D01*
X50187406Y28390669D01*
X50233765Y28398555D01*
X50308208Y28403407D01*
X50418105Y28405961D01*
X50570825Y28406955D01*
X50773738Y28407126D01*
X50800000Y28407126D01*
X51009014Y28407002D01*
G37*
X51009014Y28407002D02*
X51167006Y28406137D01*
X51281347Y28403795D01*
X51359407Y28399238D01*
X51408554Y28391730D01*
X51436159Y28380534D01*
X51449592Y28364912D01*
X51456221Y28344127D01*
X51456865Y28341437D01*
X51466935Y28292887D01*
X51485575Y28197095D01*
X51510845Y28064257D01*
X51540807Y27904569D01*
X51573522Y27728226D01*
X51574664Y27722033D01*
X51607433Y27549218D01*
X51638093Y27396531D01*
X51664664Y27273129D01*
X51685167Y27188169D01*
X51697626Y27150810D01*
X51698220Y27150148D01*
X51734919Y27131905D01*
X51810586Y27101503D01*
X51908878Y27065507D01*
X51909425Y27065315D01*
X52033233Y27018778D01*
X52179196Y26959496D01*
X52316781Y26899891D01*
X52323293Y26896944D01*
X52547390Y26795235D01*
X53043619Y27134103D01*
X53195846Y27237408D01*
X53333741Y27329763D01*
X53449315Y27405916D01*
X53534579Y27460615D01*
X53581544Y27488607D01*
X53586004Y27490683D01*
X53620134Y27481440D01*
X53683881Y27436844D01*
X53779731Y27354791D01*
X53910169Y27233179D01*
X54043328Y27103795D01*
X54171694Y26976298D01*
X54286581Y26859954D01*
X54381073Y26761948D01*
X54448253Y26689464D01*
X54481206Y26649687D01*
X54482432Y26647639D01*
X54486074Y26620344D01*
X54472350Y26575766D01*
X54437869Y26507888D01*
X54379239Y26410689D01*
X54293070Y26278149D01*
X54178200Y26107524D01*
X54076254Y25957345D01*
X53985123Y25822650D01*
X53910073Y25711260D01*
X53856369Y25630995D01*
X53829280Y25589675D01*
X53827574Y25586870D01*
X53830882Y25547279D01*
X53855953Y25470331D01*
X53897798Y25370568D01*
X53912712Y25338709D01*
X53977786Y25196774D01*
X54047212Y25035727D01*
X54103609Y24896379D01*
X54144247Y24792956D01*
X54176526Y24714358D01*
X54195178Y24673280D01*
X54197497Y24670115D01*
X54231803Y24664872D01*
X54312669Y24650506D01*
X54429343Y24629063D01*
X54571075Y24602587D01*
X54727110Y24573123D01*
X54886698Y24542717D01*
X55039085Y24513412D01*
X55173521Y24487255D01*
X55279252Y24466290D01*
X55345526Y24452561D01*
X55361782Y24448680D01*
X55378573Y24439100D01*
X55391249Y24417464D01*
X55400378Y24376469D01*
X55406531Y24308811D01*
X55410280Y24207188D01*
X55412192Y24064297D01*
X55412840Y23872835D01*
X55412874Y23794355D01*
X55412874Y23156094D01*
X55259598Y23125840D01*
X55174322Y23109436D01*
X55047070Y23085491D01*
X54893315Y23056893D01*
X54728534Y23026533D01*
X54682989Y23018194D01*
X54530932Y22988630D01*
X54398468Y22959558D01*
X54296714Y22933671D01*
X54236788Y22913663D01*
X54226805Y22907699D01*
X54202293Y22865466D01*
X54167148Y22783630D01*
X54128173Y22678317D01*
X54120442Y22655632D01*
X54069360Y22514982D01*
X54005954Y22356286D01*
X53943904Y22213775D01*
X53943598Y22213114D01*
X53840267Y21989560D01*
X54519961Y20989768D01*
X54083621Y20552700D01*
X53951649Y20422619D01*
X53831279Y20307952D01*
X53729273Y20214819D01*
X53652391Y20149342D01*
X53607393Y20117643D01*
X53600938Y20115632D01*
X53563040Y20131471D01*
X53485708Y20175504D01*
X53377389Y20242510D01*
X53246532Y20327266D01*
X53105052Y20422184D01*
X52961461Y20519002D01*
X52833435Y20603249D01*
X52729105Y20669742D01*
X52656600Y20713298D01*
X52624158Y20728736D01*
X52584576Y20715672D01*
X52509519Y20681250D01*
X52414468Y20632620D01*
X52404392Y20627215D01*
X52276391Y20563020D01*
X52188618Y20531537D01*
X52134028Y20531202D01*
X52105575Y20560452D01*
X52105410Y20560862D01*
X52091188Y20595502D01*
X52057269Y20677731D01*
X52006284Y20801186D01*
X51940862Y20959502D01*
X51863634Y21146314D01*
X51777229Y21355258D01*
X51693551Y21557554D01*
X51601588Y21780800D01*
X51517150Y21987608D01*
X51442769Y22171638D01*
X51380974Y22326549D01*
X51334297Y22446004D01*
X51305268Y22523661D01*
X51296322Y22552644D01*
X51318756Y22585890D01*
X51377439Y22638877D01*
X51455689Y22697296D01*
X51678534Y22882048D01*
X51852718Y23093818D01*
X51976154Y23328144D01*
X52046754Y23580566D01*
X52062431Y23846623D01*
X52051036Y23969425D01*
X51988950Y24224207D01*
X51882023Y24449199D01*
X51736889Y24642183D01*
X51560178Y24800939D01*
X51358522Y24923250D01*
X51138554Y25006895D01*
X50906906Y25049656D01*
X50670209Y25049313D01*
X50435095Y25003648D01*
X50208196Y24910441D01*
X49996144Y24767473D01*
X49907636Y24686617D01*
X49737889Y24478993D01*
X49619699Y24252105D01*
X49552278Y24012567D01*
X49534840Y23766993D01*
X49566598Y23521997D01*
X49646765Y23284192D01*
X49774555Y23060193D01*
X49949180Y22856613D01*
X50144312Y22697296D01*
X50225591Y22636398D01*
X50283009Y22583985D01*
X50303678Y22552594D01*
X50292856Y22518361D01*
X50262077Y22436581D01*
X50213874Y22313593D01*
X50150778Y22155737D01*
X50075322Y21969351D01*
X49990038Y21760774D01*
X49906219Y21557504D01*
X49813745Y21334067D01*
X49728089Y21127016D01*
X49651882Y20942714D01*
X49587753Y20787525D01*
X49538332Y20667812D01*
X49506248Y20589939D01*
X49494359Y20560862D01*
X49466274Y20531323D01*
X49411949Y20531409D01*
X49324395Y20562674D01*
X49196619Y20626671D01*
X49195608Y20627215D01*
X49099402Y20676879D01*
X49021631Y20713055D01*
X48977777Y20728592D01*
X48975842Y20728736D01*
X48942829Y20712976D01*
X48869946Y20669150D01*
X48765322Y20602443D01*
X48637090Y20518036D01*
X48494948Y20422184D01*
X48350233Y20325133D01*
X48219804Y20240730D01*
X48112110Y20174199D01*
X48035598Y20130762D01*
X47999062Y20115632D01*
X47965418Y20135518D01*
X47897776Y20191097D01*
X47802893Y20276246D01*
X47687530Y20384847D01*
X47558445Y20510779D01*
X47516229Y20552851D01*
X47079739Y20990069D01*
X47411977Y21477660D01*
X47512946Y21627395D01*
X47601562Y21761780D01*
X47672854Y21873031D01*
X47721850Y21953361D01*
X47743578Y21994986D01*
X47744215Y21997947D01*
X47732760Y22037182D01*
X47701949Y22116105D01*
X47657116Y22221491D01*
X47625647Y22292046D01*
X47566808Y22427124D01*
X47511396Y22563591D01*
X47468436Y22678897D01*
X47456766Y22714023D01*
X47423611Y22807826D01*
X47391201Y22880306D01*
X47373399Y22907699D01*
X47334114Y22924464D01*
X47248374Y22948230D01*
X47127303Y22976303D01*
X46982027Y23005991D01*
X46917012Y23018194D01*
X46751913Y23048532D01*
X46593552Y23077907D01*
X46457404Y23103431D01*
X46358943Y23122215D01*
X46340402Y23125840D01*
X46187127Y23156094D01*
X46187127Y23794355D01*
X46187471Y24004230D01*
X46188884Y24163020D01*
X46191936Y24278027D01*
X46197197Y24356554D01*
X46205237Y24405904D01*
X46216627Y24433381D01*
X46231937Y24446287D01*
X46238218Y24448680D01*
X46276104Y24457167D01*
X46359805Y24474100D01*
X46478567Y24497434D01*
X46621639Y24525125D01*
X46778268Y24555127D01*
X46937703Y24585396D01*
X47089191Y24613885D01*
X47221981Y24638551D01*
X47325319Y24657349D01*
X47388455Y24668233D01*
X47402503Y24670115D01*
X47415230Y24695296D01*
X47443400Y24762378D01*
X47481748Y24858667D01*
X47496391Y24896379D01*
X47555452Y25042079D01*
X47625000Y25203049D01*
X47687288Y25338709D01*
X47733121Y25442439D01*
X47763613Y25527674D01*
X47773792Y25579874D01*
X47772169Y25586870D01*
X47750657Y25619898D01*
X47701535Y25693357D01*
X47630077Y25799423D01*
X47541555Y25930274D01*
X47441241Y26078088D01*
X47421406Y26107266D01*
X47305012Y26280137D01*
X47219452Y26411774D01*
X47161316Y26508239D01*
X47127192Y26575592D01*
X47113669Y26619894D01*
X47117336Y26647206D01*
X47117430Y26647380D01*
X47146293Y26683254D01*
X47210133Y26752609D01*
X47302031Y26848255D01*
X47415067Y26963001D01*
X47542321Y27089659D01*
X47556672Y27103795D01*
X47717043Y27259097D01*
X47840805Y27373130D01*
X47930445Y27447998D01*
X47988448Y27485804D01*
X48013996Y27490683D01*
X48051282Y27469397D01*
X48128657Y27420227D01*
X48238133Y27348425D01*
X48371720Y27259245D01*
X48521430Y27157937D01*
X48556382Y27134103D01*
X49052610Y26795235D01*
X49276707Y26896944D01*
X49412989Y26956217D01*
X49559276Y27015830D01*
X49685035Y27063360D01*
X49690575Y27065315D01*
X49788943Y27101323D01*
X49864771Y27131771D01*
X49901718Y27150095D01*
X49901780Y27150148D01*
X49913504Y27183271D01*
X49933432Y27264733D01*
X49959587Y27385375D01*
X49989990Y27536041D01*
X50022663Y27707572D01*
X50025336Y27722033D01*
X50058110Y27898765D01*
X50088198Y28059190D01*
X50113661Y28193112D01*
X50132559Y28290337D01*
X50142953Y28340668D01*
X50143135Y28341437D01*
X50149461Y28362847D01*
X50161761Y28379012D01*
X50187406Y28390669D01*
X50233765Y28398555D01*
X50308208Y28403407D01*
X50418105Y28405961D01*
X50570825Y28406955D01*
X50773738Y28407126D01*
X50800000Y28407126D01*
X51009014Y28407002D01*
D11*
%TO.C,D1*%
X1270000Y64770000D02*
X2540000Y64770000D01*
X2540000Y64770000D02*
X2540000Y58420000D01*
X2540000Y58420000D02*
X7620000Y58420000D01*
X7620000Y58420000D02*
X7620000Y10160000D01*
X7620000Y10160000D02*
X2540000Y10160000D01*
X2540000Y10160000D02*
X2540000Y3810000D01*
X2540000Y3810000D02*
X1270000Y3810000D01*
X1270000Y3810000D02*
X1270000Y8890000D01*
X1270000Y8890000D02*
X1270000Y59690000D01*
X1270000Y59690000D02*
X1270000Y64770000D01*
%TO.C,R8*%
X20320000Y9810000D02*
X20320000Y10430000D01*
X21240000Y8890000D02*
G75*
G03*
X21240000Y8890000I-920000J0D01*
G01*
%TO.C,R7*%
X17780000Y9810000D02*
X17780000Y10430000D01*
X18700000Y8890000D02*
G75*
G03*
X18700000Y8890000I-920000J0D01*
G01*
%TO.C,R6*%
X15240000Y9810000D02*
X15240000Y10430000D01*
X16160000Y8890000D02*
G75*
G03*
X16160000Y8890000I-920000J0D01*
G01*
%TO.C,R5*%
X12700000Y9810000D02*
X12700000Y10430000D01*
X13620000Y8890000D02*
G75*
G03*
X13620000Y8890000I-920000J0D01*
G01*
%TO.C,C1*%
X21390000Y32790000D02*
X21390000Y28250000D01*
X19250000Y32790000D02*
X19250000Y28250000D01*
X21390000Y32790000D02*
X21375000Y32790000D01*
X19265000Y32790000D02*
X19250000Y32790000D01*
X21390000Y28250000D02*
X21375000Y28250000D01*
X19265000Y28250000D02*
X19250000Y28250000D01*
%TO.C,C2*%
X21690000Y44680000D02*
X18950000Y44680000D01*
X21690000Y51920000D02*
X18950000Y51920000D01*
X18950000Y51920000D02*
X18950000Y44680000D01*
X21690000Y51920000D02*
X21690000Y44680000D01*
%TO.C,C3*%
X67210000Y16660000D02*
X67210000Y23900000D01*
X69950000Y16660000D02*
X69950000Y23900000D01*
X67210000Y16660000D02*
X69950000Y16660000D01*
X67210000Y23900000D02*
X69950000Y23900000D01*
%TO.C,C4*%
X21690000Y60810000D02*
X21690000Y53570000D01*
X18950000Y60810000D02*
X18950000Y53570000D01*
X21690000Y60810000D02*
X18950000Y60810000D01*
X21690000Y53570000D02*
X18950000Y53570000D01*
%TO.C,C5*%
X18950000Y35710000D02*
X18950000Y42950000D01*
X21690000Y35710000D02*
X21690000Y42950000D01*
X18950000Y35710000D02*
X21690000Y35710000D01*
X18950000Y42950000D02*
X21690000Y42950000D01*
%TO.C,C6*%
X85170000Y53360000D02*
G75*
G03*
X85170000Y53360000I-2620000J0D01*
G01*
X85130000Y53360000D02*
X79970000Y53360000D01*
X85130000Y53320000D02*
X79970000Y53320000D01*
X85129000Y53280000D02*
X79971000Y53280000D01*
X85128000Y53240000D02*
X79972000Y53240000D01*
X85126000Y53200000D02*
X79974000Y53200000D01*
X85123000Y53160000D02*
X79977000Y53160000D01*
X85119000Y53120000D02*
X83590000Y53120000D01*
X81510000Y53120000D02*
X79981000Y53120000D01*
X85115000Y53080000D02*
X83590000Y53080000D01*
X81510000Y53080000D02*
X79985000Y53080000D01*
X85111000Y53040000D02*
X83590000Y53040000D01*
X81510000Y53040000D02*
X79989000Y53040000D01*
X85106000Y53000000D02*
X83590000Y53000000D01*
X81510000Y53000000D02*
X79994000Y53000000D01*
X85100000Y52960000D02*
X83590000Y52960000D01*
X81510000Y52960000D02*
X80000000Y52960000D01*
X85093000Y52920000D02*
X83590000Y52920000D01*
X81510000Y52920000D02*
X80007000Y52920000D01*
X85086000Y52880000D02*
X83590000Y52880000D01*
X81510000Y52880000D02*
X80014000Y52880000D01*
X85078000Y52840000D02*
X83590000Y52840000D01*
X81510000Y52840000D02*
X80022000Y52840000D01*
X85070000Y52800000D02*
X83590000Y52800000D01*
X81510000Y52800000D02*
X80030000Y52800000D01*
X85061000Y52760000D02*
X83590000Y52760000D01*
X81510000Y52760000D02*
X80039000Y52760000D01*
X85051000Y52720000D02*
X83590000Y52720000D01*
X81510000Y52720000D02*
X80049000Y52720000D01*
X85041000Y52680000D02*
X83590000Y52680000D01*
X81510000Y52680000D02*
X80059000Y52680000D01*
X85030000Y52639000D02*
X83590000Y52639000D01*
X81510000Y52639000D02*
X80070000Y52639000D01*
X85018000Y52599000D02*
X83590000Y52599000D01*
X81510000Y52599000D02*
X80082000Y52599000D01*
X85005000Y52559000D02*
X83590000Y52559000D01*
X81510000Y52559000D02*
X80095000Y52559000D01*
X84992000Y52519000D02*
X83590000Y52519000D01*
X81510000Y52519000D02*
X80108000Y52519000D01*
X84978000Y52479000D02*
X83590000Y52479000D01*
X81510000Y52479000D02*
X80122000Y52479000D01*
X84964000Y52439000D02*
X83590000Y52439000D01*
X81510000Y52439000D02*
X80136000Y52439000D01*
X84948000Y52399000D02*
X83590000Y52399000D01*
X81510000Y52399000D02*
X80152000Y52399000D01*
X84932000Y52359000D02*
X83590000Y52359000D01*
X81510000Y52359000D02*
X80168000Y52359000D01*
X84915000Y52319000D02*
X83590000Y52319000D01*
X81510000Y52319000D02*
X80185000Y52319000D01*
X84898000Y52279000D02*
X83590000Y52279000D01*
X81510000Y52279000D02*
X80202000Y52279000D01*
X84879000Y52239000D02*
X83590000Y52239000D01*
X81510000Y52239000D02*
X80221000Y52239000D01*
X84860000Y52199000D02*
X83590000Y52199000D01*
X81510000Y52199000D02*
X80240000Y52199000D01*
X84840000Y52159000D02*
X83590000Y52159000D01*
X81510000Y52159000D02*
X80260000Y52159000D01*
X84818000Y52119000D02*
X83590000Y52119000D01*
X81510000Y52119000D02*
X80282000Y52119000D01*
X84797000Y52079000D02*
X83590000Y52079000D01*
X81510000Y52079000D02*
X80303000Y52079000D01*
X84774000Y52039000D02*
X83590000Y52039000D01*
X81510000Y52039000D02*
X80326000Y52039000D01*
X84750000Y51999000D02*
X83590000Y51999000D01*
X81510000Y51999000D02*
X80350000Y51999000D01*
X84725000Y51959000D02*
X83590000Y51959000D01*
X81510000Y51959000D02*
X80375000Y51959000D01*
X84699000Y51919000D02*
X83590000Y51919000D01*
X81510000Y51919000D02*
X80401000Y51919000D01*
X84672000Y51879000D02*
X83590000Y51879000D01*
X81510000Y51879000D02*
X80428000Y51879000D01*
X84645000Y51839000D02*
X83590000Y51839000D01*
X81510000Y51839000D02*
X80455000Y51839000D01*
X84615000Y51799000D02*
X83590000Y51799000D01*
X81510000Y51799000D02*
X80485000Y51799000D01*
X84585000Y51759000D02*
X83590000Y51759000D01*
X81510000Y51759000D02*
X80515000Y51759000D01*
X84554000Y51719000D02*
X83590000Y51719000D01*
X81510000Y51719000D02*
X80546000Y51719000D01*
X84521000Y51679000D02*
X83590000Y51679000D01*
X81510000Y51679000D02*
X80579000Y51679000D01*
X84487000Y51639000D02*
X83590000Y51639000D01*
X81510000Y51639000D02*
X80613000Y51639000D01*
X84451000Y51599000D02*
X83590000Y51599000D01*
X81510000Y51599000D02*
X80649000Y51599000D01*
X84414000Y51559000D02*
X83590000Y51559000D01*
X81510000Y51559000D02*
X80686000Y51559000D01*
X84376000Y51519000D02*
X83590000Y51519000D01*
X81510000Y51519000D02*
X80724000Y51519000D01*
X84335000Y51479000D02*
X83590000Y51479000D01*
X81510000Y51479000D02*
X80765000Y51479000D01*
X84293000Y51439000D02*
X83590000Y51439000D01*
X81510000Y51439000D02*
X80807000Y51439000D01*
X84249000Y51399000D02*
X83590000Y51399000D01*
X81510000Y51399000D02*
X80851000Y51399000D01*
X84203000Y51359000D02*
X83590000Y51359000D01*
X81510000Y51359000D02*
X80897000Y51359000D01*
X84155000Y51319000D02*
X83590000Y51319000D01*
X81510000Y51319000D02*
X80945000Y51319000D01*
X84104000Y51279000D02*
X83590000Y51279000D01*
X81510000Y51279000D02*
X80996000Y51279000D01*
X84050000Y51239000D02*
X83590000Y51239000D01*
X81510000Y51239000D02*
X81050000Y51239000D01*
X83993000Y51199000D02*
X83590000Y51199000D01*
X81510000Y51199000D02*
X81107000Y51199000D01*
X83933000Y51159000D02*
X83590000Y51159000D01*
X81510000Y51159000D02*
X81167000Y51159000D01*
X83869000Y51119000D02*
X83590000Y51119000D01*
X81510000Y51119000D02*
X81231000Y51119000D01*
X83801000Y51079000D02*
X83590000Y51079000D01*
X81510000Y51079000D02*
X81299000Y51079000D01*
X83728000Y51039000D02*
X81372000Y51039000D01*
X83648000Y50999000D02*
X81452000Y50999000D01*
X83561000Y50959000D02*
X81539000Y50959000D01*
X83465000Y50919000D02*
X81635000Y50919000D01*
X83355000Y50879000D02*
X81745000Y50879000D01*
X83227000Y50839000D02*
X81873000Y50839000D01*
X83068000Y50799000D02*
X82032000Y50799000D01*
X82834000Y50759000D02*
X82266000Y50759000D01*
X84025000Y56164775D02*
X84025000Y55664775D01*
X84275000Y55914775D02*
X83775000Y55914775D01*
%TO.C,C7*%
X73760000Y58270000D02*
X73760000Y51030000D01*
X71020000Y58270000D02*
X71020000Y51030000D01*
X73760000Y58270000D02*
X71020000Y58270000D01*
X73760000Y51030000D02*
X71020000Y51030000D01*
%TO.C,C8*%
X55960000Y31730000D02*
G75*
G03*
X55960000Y31730000I-2620000J0D01*
G01*
X50760000Y31730000D02*
X55920000Y31730000D01*
X50760000Y31770000D02*
X55920000Y31770000D01*
X50761000Y31810000D02*
X55919000Y31810000D01*
X50762000Y31850000D02*
X55918000Y31850000D01*
X50764000Y31890000D02*
X55916000Y31890000D01*
X50767000Y31930000D02*
X55913000Y31930000D01*
X50771000Y31970000D02*
X52300000Y31970000D01*
X54380000Y31970000D02*
X55909000Y31970000D01*
X50775000Y32010000D02*
X52300000Y32010000D01*
X54380000Y32010000D02*
X55905000Y32010000D01*
X50779000Y32050000D02*
X52300000Y32050000D01*
X54380000Y32050000D02*
X55901000Y32050000D01*
X50784000Y32090000D02*
X52300000Y32090000D01*
X54380000Y32090000D02*
X55896000Y32090000D01*
X50790000Y32130000D02*
X52300000Y32130000D01*
X54380000Y32130000D02*
X55890000Y32130000D01*
X50797000Y32170000D02*
X52300000Y32170000D01*
X54380000Y32170000D02*
X55883000Y32170000D01*
X50804000Y32210000D02*
X52300000Y32210000D01*
X54380000Y32210000D02*
X55876000Y32210000D01*
X50812000Y32250000D02*
X52300000Y32250000D01*
X54380000Y32250000D02*
X55868000Y32250000D01*
X50820000Y32290000D02*
X52300000Y32290000D01*
X54380000Y32290000D02*
X55860000Y32290000D01*
X50829000Y32330000D02*
X52300000Y32330000D01*
X54380000Y32330000D02*
X55851000Y32330000D01*
X50839000Y32370000D02*
X52300000Y32370000D01*
X54380000Y32370000D02*
X55841000Y32370000D01*
X50849000Y32410000D02*
X52300000Y32410000D01*
X54380000Y32410000D02*
X55831000Y32410000D01*
X50860000Y32451000D02*
X52300000Y32451000D01*
X54380000Y32451000D02*
X55820000Y32451000D01*
X50872000Y32491000D02*
X52300000Y32491000D01*
X54380000Y32491000D02*
X55808000Y32491000D01*
X50885000Y32531000D02*
X52300000Y32531000D01*
X54380000Y32531000D02*
X55795000Y32531000D01*
X50898000Y32571000D02*
X52300000Y32571000D01*
X54380000Y32571000D02*
X55782000Y32571000D01*
X50912000Y32611000D02*
X52300000Y32611000D01*
X54380000Y32611000D02*
X55768000Y32611000D01*
X50926000Y32651000D02*
X52300000Y32651000D01*
X54380000Y32651000D02*
X55754000Y32651000D01*
X50942000Y32691000D02*
X52300000Y32691000D01*
X54380000Y32691000D02*
X55738000Y32691000D01*
X50958000Y32731000D02*
X52300000Y32731000D01*
X54380000Y32731000D02*
X55722000Y32731000D01*
X50975000Y32771000D02*
X52300000Y32771000D01*
X54380000Y32771000D02*
X55705000Y32771000D01*
X50992000Y32811000D02*
X52300000Y32811000D01*
X54380000Y32811000D02*
X55688000Y32811000D01*
X51011000Y32851000D02*
X52300000Y32851000D01*
X54380000Y32851000D02*
X55669000Y32851000D01*
X51030000Y32891000D02*
X52300000Y32891000D01*
X54380000Y32891000D02*
X55650000Y32891000D01*
X51050000Y32931000D02*
X52300000Y32931000D01*
X54380000Y32931000D02*
X55630000Y32931000D01*
X51072000Y32971000D02*
X52300000Y32971000D01*
X54380000Y32971000D02*
X55608000Y32971000D01*
X51093000Y33011000D02*
X52300000Y33011000D01*
X54380000Y33011000D02*
X55587000Y33011000D01*
X51116000Y33051000D02*
X52300000Y33051000D01*
X54380000Y33051000D02*
X55564000Y33051000D01*
X51140000Y33091000D02*
X52300000Y33091000D01*
X54380000Y33091000D02*
X55540000Y33091000D01*
X51165000Y33131000D02*
X52300000Y33131000D01*
X54380000Y33131000D02*
X55515000Y33131000D01*
X51191000Y33171000D02*
X52300000Y33171000D01*
X54380000Y33171000D02*
X55489000Y33171000D01*
X51218000Y33211000D02*
X52300000Y33211000D01*
X54380000Y33211000D02*
X55462000Y33211000D01*
X51245000Y33251000D02*
X52300000Y33251000D01*
X54380000Y33251000D02*
X55435000Y33251000D01*
X51275000Y33291000D02*
X52300000Y33291000D01*
X54380000Y33291000D02*
X55405000Y33291000D01*
X51305000Y33331000D02*
X52300000Y33331000D01*
X54380000Y33331000D02*
X55375000Y33331000D01*
X51336000Y33371000D02*
X52300000Y33371000D01*
X54380000Y33371000D02*
X55344000Y33371000D01*
X51369000Y33411000D02*
X52300000Y33411000D01*
X54380000Y33411000D02*
X55311000Y33411000D01*
X51403000Y33451000D02*
X52300000Y33451000D01*
X54380000Y33451000D02*
X55277000Y33451000D01*
X51439000Y33491000D02*
X52300000Y33491000D01*
X54380000Y33491000D02*
X55241000Y33491000D01*
X51476000Y33531000D02*
X52300000Y33531000D01*
X54380000Y33531000D02*
X55204000Y33531000D01*
X51514000Y33571000D02*
X52300000Y33571000D01*
X54380000Y33571000D02*
X55166000Y33571000D01*
X51555000Y33611000D02*
X52300000Y33611000D01*
X54380000Y33611000D02*
X55125000Y33611000D01*
X51597000Y33651000D02*
X52300000Y33651000D01*
X54380000Y33651000D02*
X55083000Y33651000D01*
X51641000Y33691000D02*
X52300000Y33691000D01*
X54380000Y33691000D02*
X55039000Y33691000D01*
X51687000Y33731000D02*
X52300000Y33731000D01*
X54380000Y33731000D02*
X54993000Y33731000D01*
X51735000Y33771000D02*
X52300000Y33771000D01*
X54380000Y33771000D02*
X54945000Y33771000D01*
X51786000Y33811000D02*
X52300000Y33811000D01*
X54380000Y33811000D02*
X54894000Y33811000D01*
X51840000Y33851000D02*
X52300000Y33851000D01*
X54380000Y33851000D02*
X54840000Y33851000D01*
X51897000Y33891000D02*
X52300000Y33891000D01*
X54380000Y33891000D02*
X54783000Y33891000D01*
X51957000Y33931000D02*
X52300000Y33931000D01*
X54380000Y33931000D02*
X54723000Y33931000D01*
X52021000Y33971000D02*
X52300000Y33971000D01*
X54380000Y33971000D02*
X54659000Y33971000D01*
X52089000Y34011000D02*
X52300000Y34011000D01*
X54380000Y34011000D02*
X54591000Y34011000D01*
X52162000Y34051000D02*
X54518000Y34051000D01*
X52242000Y34091000D02*
X54438000Y34091000D01*
X52329000Y34131000D02*
X54351000Y34131000D01*
X52425000Y34171000D02*
X54255000Y34171000D01*
X52535000Y34211000D02*
X54145000Y34211000D01*
X52663000Y34251000D02*
X54017000Y34251000D01*
X52822000Y34291000D02*
X53858000Y34291000D01*
X53056000Y34331000D02*
X53624000Y34331000D01*
X51865000Y28925225D02*
X51865000Y29425225D01*
X51615000Y29175225D02*
X52115000Y29175225D01*
%TO.C,C9*%
X44350000Y36600000D02*
X47090000Y36600000D01*
X44350000Y29360000D02*
X47090000Y29360000D01*
X47090000Y29360000D02*
X47090000Y36600000D01*
X44350000Y29360000D02*
X44350000Y36600000D01*
%TO.C,C10*%
X67410000Y51030000D02*
X64670000Y51030000D01*
X67410000Y58270000D02*
X64670000Y58270000D01*
X64670000Y58270000D02*
X64670000Y51030000D01*
X67410000Y58270000D02*
X67410000Y51030000D01*
%TO.C,C11*%
X57115225Y44905000D02*
X57115225Y44405000D01*
X56865225Y44655000D02*
X57365225Y44655000D01*
X62271000Y43464000D02*
X62271000Y42896000D01*
X62231000Y43698000D02*
X62231000Y42662000D01*
X62191000Y43857000D02*
X62191000Y42503000D01*
X62151000Y43985000D02*
X62151000Y42375000D01*
X62111000Y44095000D02*
X62111000Y42265000D01*
X62071000Y44191000D02*
X62071000Y42169000D01*
X62031000Y44278000D02*
X62031000Y42082000D01*
X61991000Y44358000D02*
X61991000Y42002000D01*
X61951000Y42140000D02*
X61951000Y41929000D01*
X61951000Y44431000D02*
X61951000Y44220000D01*
X61911000Y42140000D02*
X61911000Y41861000D01*
X61911000Y44499000D02*
X61911000Y44220000D01*
X61871000Y42140000D02*
X61871000Y41797000D01*
X61871000Y44563000D02*
X61871000Y44220000D01*
X61831000Y42140000D02*
X61831000Y41737000D01*
X61831000Y44623000D02*
X61831000Y44220000D01*
X61791000Y42140000D02*
X61791000Y41680000D01*
X61791000Y44680000D02*
X61791000Y44220000D01*
X61751000Y42140000D02*
X61751000Y41626000D01*
X61751000Y44734000D02*
X61751000Y44220000D01*
X61711000Y42140000D02*
X61711000Y41575000D01*
X61711000Y44785000D02*
X61711000Y44220000D01*
X61671000Y42140000D02*
X61671000Y41527000D01*
X61671000Y44833000D02*
X61671000Y44220000D01*
X61631000Y42140000D02*
X61631000Y41481000D01*
X61631000Y44879000D02*
X61631000Y44220000D01*
X61591000Y42140000D02*
X61591000Y41437000D01*
X61591000Y44923000D02*
X61591000Y44220000D01*
X61551000Y42140000D02*
X61551000Y41395000D01*
X61551000Y44965000D02*
X61551000Y44220000D01*
X61511000Y42140000D02*
X61511000Y41354000D01*
X61511000Y45006000D02*
X61511000Y44220000D01*
X61471000Y42140000D02*
X61471000Y41316000D01*
X61471000Y45044000D02*
X61471000Y44220000D01*
X61431000Y42140000D02*
X61431000Y41279000D01*
X61431000Y45081000D02*
X61431000Y44220000D01*
X61391000Y42140000D02*
X61391000Y41243000D01*
X61391000Y45117000D02*
X61391000Y44220000D01*
X61351000Y42140000D02*
X61351000Y41209000D01*
X61351000Y45151000D02*
X61351000Y44220000D01*
X61311000Y42140000D02*
X61311000Y41176000D01*
X61311000Y45184000D02*
X61311000Y44220000D01*
X61271000Y42140000D02*
X61271000Y41145000D01*
X61271000Y45215000D02*
X61271000Y44220000D01*
X61231000Y42140000D02*
X61231000Y41115000D01*
X61231000Y45245000D02*
X61231000Y44220000D01*
X61191000Y42140000D02*
X61191000Y41085000D01*
X61191000Y45275000D02*
X61191000Y44220000D01*
X61151000Y42140000D02*
X61151000Y41058000D01*
X61151000Y45302000D02*
X61151000Y44220000D01*
X61111000Y42140000D02*
X61111000Y41031000D01*
X61111000Y45329000D02*
X61111000Y44220000D01*
X61071000Y42140000D02*
X61071000Y41005000D01*
X61071000Y45355000D02*
X61071000Y44220000D01*
X61031000Y42140000D02*
X61031000Y40980000D01*
X61031000Y45380000D02*
X61031000Y44220000D01*
X60991000Y42140000D02*
X60991000Y40956000D01*
X60991000Y45404000D02*
X60991000Y44220000D01*
X60951000Y42140000D02*
X60951000Y40933000D01*
X60951000Y45427000D02*
X60951000Y44220000D01*
X60911000Y42140000D02*
X60911000Y40912000D01*
X60911000Y45448000D02*
X60911000Y44220000D01*
X60871000Y42140000D02*
X60871000Y40890000D01*
X60871000Y45470000D02*
X60871000Y44220000D01*
X60831000Y42140000D02*
X60831000Y40870000D01*
X60831000Y45490000D02*
X60831000Y44220000D01*
X60791000Y42140000D02*
X60791000Y40851000D01*
X60791000Y45509000D02*
X60791000Y44220000D01*
X60751000Y42140000D02*
X60751000Y40832000D01*
X60751000Y45528000D02*
X60751000Y44220000D01*
X60711000Y42140000D02*
X60711000Y40815000D01*
X60711000Y45545000D02*
X60711000Y44220000D01*
X60671000Y42140000D02*
X60671000Y40798000D01*
X60671000Y45562000D02*
X60671000Y44220000D01*
X60631000Y42140000D02*
X60631000Y40782000D01*
X60631000Y45578000D02*
X60631000Y44220000D01*
X60591000Y42140000D02*
X60591000Y40766000D01*
X60591000Y45594000D02*
X60591000Y44220000D01*
X60551000Y42140000D02*
X60551000Y40752000D01*
X60551000Y45608000D02*
X60551000Y44220000D01*
X60511000Y42140000D02*
X60511000Y40738000D01*
X60511000Y45622000D02*
X60511000Y44220000D01*
X60471000Y42140000D02*
X60471000Y40725000D01*
X60471000Y45635000D02*
X60471000Y44220000D01*
X60431000Y42140000D02*
X60431000Y40712000D01*
X60431000Y45648000D02*
X60431000Y44220000D01*
X60391000Y42140000D02*
X60391000Y40700000D01*
X60391000Y45660000D02*
X60391000Y44220000D01*
X60350000Y42140000D02*
X60350000Y40689000D01*
X60350000Y45671000D02*
X60350000Y44220000D01*
X60310000Y42140000D02*
X60310000Y40679000D01*
X60310000Y45681000D02*
X60310000Y44220000D01*
X60270000Y42140000D02*
X60270000Y40669000D01*
X60270000Y45691000D02*
X60270000Y44220000D01*
X60230000Y42140000D02*
X60230000Y40660000D01*
X60230000Y45700000D02*
X60230000Y44220000D01*
X60190000Y42140000D02*
X60190000Y40652000D01*
X60190000Y45708000D02*
X60190000Y44220000D01*
X60150000Y42140000D02*
X60150000Y40644000D01*
X60150000Y45716000D02*
X60150000Y44220000D01*
X60110000Y42140000D02*
X60110000Y40637000D01*
X60110000Y45723000D02*
X60110000Y44220000D01*
X60070000Y42140000D02*
X60070000Y40630000D01*
X60070000Y45730000D02*
X60070000Y44220000D01*
X60030000Y42140000D02*
X60030000Y40624000D01*
X60030000Y45736000D02*
X60030000Y44220000D01*
X59990000Y42140000D02*
X59990000Y40619000D01*
X59990000Y45741000D02*
X59990000Y44220000D01*
X59950000Y42140000D02*
X59950000Y40615000D01*
X59950000Y45745000D02*
X59950000Y44220000D01*
X59910000Y42140000D02*
X59910000Y40611000D01*
X59910000Y45749000D02*
X59910000Y44220000D01*
X59870000Y45753000D02*
X59870000Y40607000D01*
X59830000Y45756000D02*
X59830000Y40604000D01*
X59790000Y45758000D02*
X59790000Y40602000D01*
X59750000Y45759000D02*
X59750000Y40601000D01*
X59710000Y45760000D02*
X59710000Y40600000D01*
X59670000Y45760000D02*
X59670000Y40600000D01*
X62290000Y43180000D02*
G75*
G03*
X62290000Y43180000I-2620000J0D01*
G01*
%TO.C,D3*%
X67510000Y45120000D02*
X64570000Y45120000D01*
X67510000Y44880000D02*
X64570000Y44880000D01*
X67510000Y45000000D02*
X64570000Y45000000D01*
X66040000Y39440000D02*
X66040000Y40460000D01*
X66040000Y46920000D02*
X66040000Y45900000D01*
X67510000Y40460000D02*
X67510000Y45900000D01*
X64570000Y40460000D02*
X67510000Y40460000D01*
X64570000Y45900000D02*
X64570000Y40460000D01*
X67510000Y45900000D02*
X64570000Y45900000D01*
%TO.C,D4*%
X14570000Y66240000D02*
X14570000Y63300000D01*
X14810000Y66240000D02*
X14810000Y63300000D01*
X14690000Y66240000D02*
X14690000Y63300000D01*
X20250000Y64770000D02*
X19230000Y64770000D01*
X12770000Y64770000D02*
X13790000Y64770000D01*
X19230000Y66240000D02*
X13790000Y66240000D01*
X19230000Y63300000D02*
X19230000Y66240000D01*
X13790000Y63300000D02*
X19230000Y63300000D01*
X13790000Y66240000D02*
X13790000Y63300000D01*
%TO.C,D5*%
X27760000Y66240000D02*
X27760000Y63300000D01*
X27760000Y63300000D02*
X33200000Y63300000D01*
X33200000Y63300000D02*
X33200000Y66240000D01*
X33200000Y66240000D02*
X27760000Y66240000D01*
X26740000Y64770000D02*
X27760000Y64770000D01*
X34220000Y64770000D02*
X33200000Y64770000D01*
X28660000Y66240000D02*
X28660000Y63300000D01*
X28780000Y66240000D02*
X28780000Y63300000D01*
X28540000Y66240000D02*
X28540000Y63300000D01*
%TO.C,D6*%
X41730000Y66240000D02*
X41730000Y63300000D01*
X41730000Y63300000D02*
X47170000Y63300000D01*
X47170000Y63300000D02*
X47170000Y66240000D01*
X47170000Y66240000D02*
X41730000Y66240000D01*
X40710000Y64770000D02*
X41730000Y64770000D01*
X48190000Y64770000D02*
X47170000Y64770000D01*
X42630000Y66240000D02*
X42630000Y63300000D01*
X42750000Y66240000D02*
X42750000Y63300000D01*
X42510000Y66240000D02*
X42510000Y63300000D01*
%TO.C,D7*%
X55700000Y66240000D02*
X55700000Y63300000D01*
X55700000Y63300000D02*
X61140000Y63300000D01*
X61140000Y63300000D02*
X61140000Y66240000D01*
X61140000Y66240000D02*
X55700000Y66240000D01*
X54680000Y64770000D02*
X55700000Y64770000D01*
X62160000Y64770000D02*
X61140000Y64770000D01*
X56600000Y66240000D02*
X56600000Y63300000D01*
X56720000Y66240000D02*
X56720000Y63300000D01*
X56480000Y66240000D02*
X56480000Y63300000D01*
%TO.C,D2*%
X57300000Y51820000D02*
X59540000Y51820000D01*
X57300000Y52060000D02*
X59540000Y52060000D01*
X57300000Y51940000D02*
X59540000Y51940000D01*
X58420000Y56110000D02*
X58420000Y55460000D01*
X58420000Y50570000D02*
X58420000Y51220000D01*
X57300000Y55460000D02*
X57300000Y51220000D01*
X59540000Y55460000D02*
X57300000Y55460000D01*
X59540000Y51220000D02*
X59540000Y55460000D01*
X57300000Y51220000D02*
X59540000Y51220000D01*
%TO.C,D8*%
X63350000Y55460000D02*
X61110000Y55460000D01*
X61110000Y55460000D02*
X61110000Y51220000D01*
X61110000Y51220000D02*
X63350000Y51220000D01*
X63350000Y51220000D02*
X63350000Y55460000D01*
X62230000Y56110000D02*
X62230000Y55460000D01*
X62230000Y50570000D02*
X62230000Y51220000D01*
X63350000Y54740000D02*
X61110000Y54740000D01*
X63350000Y54620000D02*
X61110000Y54620000D01*
X63350000Y54860000D02*
X61110000Y54860000D01*
%TO.C,J1*%
X74980000Y35450000D02*
X87580000Y35450000D01*
X87580000Y35450000D02*
X87580000Y45800000D01*
X87580000Y45800000D02*
X86630000Y45800000D01*
X86630000Y45800000D02*
X86880000Y46300000D01*
X86880000Y46300000D02*
X84980000Y46300000D01*
X84980000Y46300000D02*
X84930000Y46300000D01*
X84930000Y46300000D02*
X85180000Y45800000D01*
X85180000Y45800000D02*
X79780000Y45800000D01*
X79780000Y45800000D02*
X80080000Y46300000D01*
X80080000Y46300000D02*
X74980000Y46300000D01*
X74980000Y46300000D02*
X74980000Y35450000D01*
%TO.C,J2*%
X11370000Y6410000D02*
X11370000Y1210000D01*
X19050000Y6410000D02*
X11370000Y6410000D01*
X21650000Y1210000D02*
X11370000Y1210000D01*
X19050000Y6410000D02*
X19050000Y3810000D01*
X19050000Y3810000D02*
X21650000Y3810000D01*
X21650000Y3810000D02*
X21650000Y1210000D01*
X20320000Y6410000D02*
X21650000Y6410000D01*
X21650000Y6410000D02*
X21650000Y5080000D01*
%TO.C,J3*%
X74980000Y31060000D02*
X74980000Y20210000D01*
X80080000Y31060000D02*
X74980000Y31060000D01*
X79780000Y30560000D02*
X80080000Y31060000D01*
X85180000Y30560000D02*
X79780000Y30560000D01*
X84930000Y31060000D02*
X85180000Y30560000D01*
X84980000Y31060000D02*
X84930000Y31060000D01*
X86880000Y31060000D02*
X84980000Y31060000D01*
X86630000Y30560000D02*
X86880000Y31060000D01*
X87580000Y30560000D02*
X86630000Y30560000D01*
X87580000Y20210000D02*
X87580000Y30560000D01*
X74980000Y20210000D02*
X87580000Y20210000D01*
%TO.C,R1*%
X52720000Y11780000D02*
X52720000Y13620000D01*
X52720000Y13620000D02*
X48880000Y13620000D01*
X48880000Y13620000D02*
X48880000Y11780000D01*
X48880000Y11780000D02*
X52720000Y11780000D01*
X53670000Y12700000D02*
X52720000Y12700000D01*
X47930000Y12700000D02*
X48880000Y12700000D01*
%TO.C,R2*%
X75550000Y18700000D02*
X75550000Y16860000D01*
X75550000Y16860000D02*
X79390000Y16860000D01*
X79390000Y16860000D02*
X79390000Y18700000D01*
X79390000Y18700000D02*
X75550000Y18700000D01*
X74600000Y17780000D02*
X75550000Y17780000D01*
X80340000Y17780000D02*
X79390000Y17780000D01*
%TO.C,R3*%
X21240000Y22240000D02*
X19400000Y22240000D01*
X19400000Y22240000D02*
X19400000Y18400000D01*
X19400000Y18400000D02*
X21240000Y18400000D01*
X21240000Y18400000D02*
X21240000Y22240000D01*
X20320000Y23190000D02*
X20320000Y22240000D01*
X20320000Y17450000D02*
X20320000Y18400000D01*
%TO.C,R4*%
X15240000Y46660000D02*
X15240000Y47610000D01*
X15240000Y52400000D02*
X15240000Y51450000D01*
X16160000Y47610000D02*
X16160000Y51450000D01*
X14320000Y47610000D02*
X16160000Y47610000D01*
X14320000Y51450000D02*
X14320000Y47610000D01*
X16160000Y51450000D02*
X14320000Y51450000D01*
%TO.C,RV1*%
X59710000Y1660000D02*
X59710000Y20900000D01*
X64750000Y1660000D02*
X64750000Y20900000D01*
X59710000Y1660000D02*
X64750000Y1660000D01*
X59710000Y20900000D02*
X64750000Y20900000D01*
X60930000Y140000D02*
X60930000Y1659000D01*
X63530000Y140000D02*
X63530000Y1659000D01*
X60930000Y140000D02*
X63530000Y140000D01*
X60930000Y1659000D02*
X63530000Y1659000D01*
X62230000Y140000D02*
X62230000Y899000D01*
%TO.C,TP1*%
X49511000Y6350000D02*
G75*
G03*
X49511000Y6350000I-1251000J0D01*
G01*
%TO.C,TP2*%
X69831000Y27940000D02*
G75*
G03*
X69831000Y27940000I-1251000J0D01*
G01*
%TO.C,U1*%
X52760000Y9420000D02*
X52760000Y5820000D01*
X52771522Y9458478D02*
G75*
G02*
X57210000Y7620000I1838478J-1838478D01*
G01*
X52771522Y5781522D02*
G75*
G03*
X57210000Y7620000I1838478J1838478D01*
G01*
%TO.C,U2*%
X34020000Y7560000D02*
X39480000Y7560000D01*
X39480000Y7560000D02*
X39480000Y58480000D01*
X39480000Y58480000D02*
X26560000Y58480000D01*
X26560000Y58480000D02*
X26560000Y7560000D01*
X26560000Y7560000D02*
X32020000Y7560000D01*
X41970000Y7500000D02*
X41970000Y58540000D01*
X41970000Y58540000D02*
X24070000Y58540000D01*
X24070000Y58540000D02*
X24070000Y7500000D01*
X24070000Y7500000D02*
X41970000Y7500000D01*
X32020000Y7560000D02*
G75*
G02*
X34020000Y7560000I1000000J0D01*
G01*
%TO.C,U3*%
X60380000Y33550000D02*
X60380000Y29950000D01*
X60391522Y29911522D02*
G75*
G03*
X64830000Y31750000I1838478J1838478D01*
G01*
X60391522Y33588478D02*
G75*
G02*
X64830000Y31750000I1838478J-1838478D01*
G01*
%TO.C,U4*%
X48530000Y58480000D02*
X46880000Y58480000D01*
X46880000Y58480000D02*
X46880000Y40580000D01*
X46880000Y40580000D02*
X52180000Y40580000D01*
X52180000Y40580000D02*
X52180000Y58480000D01*
X52180000Y58480000D02*
X50530000Y58480000D01*
X50530000Y58480000D02*
G75*
G02*
X48530000Y58480000I-1000000J0D01*
G01*
%TO.C,D1*%
D12*
X4341904Y33837620D02*
X4341904Y34837620D01*
X4580000Y34837620D01*
X4722857Y34790000D01*
X4818095Y34694762D01*
X4865714Y34599524D01*
X4913333Y34409048D01*
X4913333Y34266191D01*
X4865714Y34075715D01*
X4818095Y33980477D01*
X4722857Y33885239D01*
X4580000Y33837620D01*
X4341904Y33837620D01*
X5865714Y33837620D02*
X5294285Y33837620D01*
X5580000Y33837620D02*
X5580000Y34837620D01*
X5484761Y34694762D01*
X5389523Y34599524D01*
X5294285Y34551905D01*
%TO.C,R8*%
X18852380Y9993334D02*
X18376190Y9660000D01*
X18852380Y9421905D02*
X17852380Y9421905D01*
X17852380Y9802858D01*
X17900000Y9898096D01*
X17947619Y9945715D01*
X18042857Y9993334D01*
X18185714Y9993334D01*
X18280952Y9945715D01*
X18328571Y9898096D01*
X18376190Y9802858D01*
X18376190Y9421905D01*
X18280952Y10564762D02*
X18233333Y10469524D01*
X18185714Y10421905D01*
X18090476Y10374286D01*
X18042857Y10374286D01*
X17947619Y10421905D01*
X17900000Y10469524D01*
X17852380Y10564762D01*
X17852380Y10755239D01*
X17900000Y10850477D01*
X17947619Y10898096D01*
X18042857Y10945715D01*
X18090476Y10945715D01*
X18185714Y10898096D01*
X18233333Y10850477D01*
X18280952Y10755239D01*
X18280952Y10564762D01*
X18328571Y10469524D01*
X18376190Y10421905D01*
X18471428Y10374286D01*
X18661904Y10374286D01*
X18757142Y10421905D01*
X18804761Y10469524D01*
X18852380Y10564762D01*
X18852380Y10755239D01*
X18804761Y10850477D01*
X18757142Y10898096D01*
X18661904Y10945715D01*
X18471428Y10945715D01*
X18376190Y10898096D01*
X18328571Y10850477D01*
X18280952Y10755239D01*
%TO.C,R7*%
X16312380Y9993334D02*
X15836190Y9660000D01*
X16312380Y9421905D02*
X15312380Y9421905D01*
X15312380Y9802858D01*
X15360000Y9898096D01*
X15407619Y9945715D01*
X15502857Y9993334D01*
X15645714Y9993334D01*
X15740952Y9945715D01*
X15788571Y9898096D01*
X15836190Y9802858D01*
X15836190Y9421905D01*
X15312380Y10326667D02*
X15312380Y10993334D01*
X16312380Y10564762D01*
%TO.C,R6*%
X13772380Y9993334D02*
X13296190Y9660000D01*
X13772380Y9421905D02*
X12772380Y9421905D01*
X12772380Y9802858D01*
X12820000Y9898096D01*
X12867619Y9945715D01*
X12962857Y9993334D01*
X13105714Y9993334D01*
X13200952Y9945715D01*
X13248571Y9898096D01*
X13296190Y9802858D01*
X13296190Y9421905D01*
X12772380Y10850477D02*
X12772380Y10660000D01*
X12820000Y10564762D01*
X12867619Y10517143D01*
X13010476Y10421905D01*
X13200952Y10374286D01*
X13581904Y10374286D01*
X13677142Y10421905D01*
X13724761Y10469524D01*
X13772380Y10564762D01*
X13772380Y10755239D01*
X13724761Y10850477D01*
X13677142Y10898096D01*
X13581904Y10945715D01*
X13343809Y10945715D01*
X13248571Y10898096D01*
X13200952Y10850477D01*
X13153333Y10755239D01*
X13153333Y10564762D01*
X13200952Y10469524D01*
X13248571Y10421905D01*
X13343809Y10374286D01*
%TO.C,R5*%
X11232380Y9993334D02*
X10756190Y9660000D01*
X11232380Y9421905D02*
X10232380Y9421905D01*
X10232380Y9802858D01*
X10280000Y9898096D01*
X10327619Y9945715D01*
X10422857Y9993334D01*
X10565714Y9993334D01*
X10660952Y9945715D01*
X10708571Y9898096D01*
X10756190Y9802858D01*
X10756190Y9421905D01*
X10232380Y10898096D02*
X10232380Y10421905D01*
X10708571Y10374286D01*
X10660952Y10421905D01*
X10613333Y10517143D01*
X10613333Y10755239D01*
X10660952Y10850477D01*
X10708571Y10898096D01*
X10803809Y10945715D01*
X11041904Y10945715D01*
X11137142Y10898096D01*
X11184761Y10850477D01*
X11232380Y10755239D01*
X11232380Y10517143D01*
X11184761Y10421905D01*
X11137142Y10374286D01*
%TO.C,C1*%
X22877142Y30353334D02*
X22924761Y30305715D01*
X22972380Y30162858D01*
X22972380Y30067620D01*
X22924761Y29924762D01*
X22829523Y29829524D01*
X22734285Y29781905D01*
X22543809Y29734286D01*
X22400952Y29734286D01*
X22210476Y29781905D01*
X22115238Y29829524D01*
X22020000Y29924762D01*
X21972380Y30067620D01*
X21972380Y30162858D01*
X22020000Y30305715D01*
X22067619Y30353334D01*
X22972380Y31305715D02*
X22972380Y30734286D01*
X22972380Y31020000D02*
X21972380Y31020000D01*
X22115238Y30924762D01*
X22210476Y30829524D01*
X22258095Y30734286D01*
%TO.C,C2*%
X23177142Y48133334D02*
X23224761Y48085715D01*
X23272380Y47942858D01*
X23272380Y47847620D01*
X23224761Y47704762D01*
X23129523Y47609524D01*
X23034285Y47561905D01*
X22843809Y47514286D01*
X22700952Y47514286D01*
X22510476Y47561905D01*
X22415238Y47609524D01*
X22320000Y47704762D01*
X22272380Y47847620D01*
X22272380Y47942858D01*
X22320000Y48085715D01*
X22367619Y48133334D01*
X22367619Y48514286D02*
X22320000Y48561905D01*
X22272380Y48657143D01*
X22272380Y48895239D01*
X22320000Y48990477D01*
X22367619Y49038096D01*
X22462857Y49085715D01*
X22558095Y49085715D01*
X22700952Y49038096D01*
X23272380Y48466667D01*
X23272380Y49085715D01*
%TO.C,C3*%
X66437142Y20113334D02*
X66484761Y20065715D01*
X66532380Y19922858D01*
X66532380Y19827620D01*
X66484761Y19684762D01*
X66389523Y19589524D01*
X66294285Y19541905D01*
X66103809Y19494286D01*
X65960952Y19494286D01*
X65770476Y19541905D01*
X65675238Y19589524D01*
X65580000Y19684762D01*
X65532380Y19827620D01*
X65532380Y19922858D01*
X65580000Y20065715D01*
X65627619Y20113334D01*
X65532380Y20446667D02*
X65532380Y21065715D01*
X65913333Y20732381D01*
X65913333Y20875239D01*
X65960952Y20970477D01*
X66008571Y21018096D01*
X66103809Y21065715D01*
X66341904Y21065715D01*
X66437142Y21018096D01*
X66484761Y20970477D01*
X66532380Y20875239D01*
X66532380Y20589524D01*
X66484761Y20494286D01*
X66437142Y20446667D01*
%TO.C,C4*%
X23177142Y57023334D02*
X23224761Y56975715D01*
X23272380Y56832858D01*
X23272380Y56737620D01*
X23224761Y56594762D01*
X23129523Y56499524D01*
X23034285Y56451905D01*
X22843809Y56404286D01*
X22700952Y56404286D01*
X22510476Y56451905D01*
X22415238Y56499524D01*
X22320000Y56594762D01*
X22272380Y56737620D01*
X22272380Y56832858D01*
X22320000Y56975715D01*
X22367619Y57023334D01*
X22605714Y57880477D02*
X23272380Y57880477D01*
X22224761Y57642381D02*
X22939047Y57404286D01*
X22939047Y58023334D01*
%TO.C,C5*%
X18177142Y39163334D02*
X18224761Y39115715D01*
X18272380Y38972858D01*
X18272380Y38877620D01*
X18224761Y38734762D01*
X18129523Y38639524D01*
X18034285Y38591905D01*
X17843809Y38544286D01*
X17700952Y38544286D01*
X17510476Y38591905D01*
X17415238Y38639524D01*
X17320000Y38734762D01*
X17272380Y38877620D01*
X17272380Y38972858D01*
X17320000Y39115715D01*
X17367619Y39163334D01*
X17272380Y40068096D02*
X17272380Y39591905D01*
X17748571Y39544286D01*
X17700952Y39591905D01*
X17653333Y39687143D01*
X17653333Y39925239D01*
X17700952Y40020477D01*
X17748571Y40068096D01*
X17843809Y40115715D01*
X18081904Y40115715D01*
X18177142Y40068096D01*
X18224761Y40020477D01*
X18272380Y39925239D01*
X18272380Y39687143D01*
X18224761Y39591905D01*
X18177142Y39544286D01*
%TO.C,C6*%
X86657142Y53193334D02*
X86704761Y53145715D01*
X86752380Y53002858D01*
X86752380Y52907620D01*
X86704761Y52764762D01*
X86609523Y52669524D01*
X86514285Y52621905D01*
X86323809Y52574286D01*
X86180952Y52574286D01*
X85990476Y52621905D01*
X85895238Y52669524D01*
X85800000Y52764762D01*
X85752380Y52907620D01*
X85752380Y53002858D01*
X85800000Y53145715D01*
X85847619Y53193334D01*
X85752380Y54050477D02*
X85752380Y53860000D01*
X85800000Y53764762D01*
X85847619Y53717143D01*
X85990476Y53621905D01*
X86180952Y53574286D01*
X86561904Y53574286D01*
X86657142Y53621905D01*
X86704761Y53669524D01*
X86752380Y53764762D01*
X86752380Y53955239D01*
X86704761Y54050477D01*
X86657142Y54098096D01*
X86561904Y54145715D01*
X86323809Y54145715D01*
X86228571Y54098096D01*
X86180952Y54050477D01*
X86133333Y53955239D01*
X86133333Y53764762D01*
X86180952Y53669524D01*
X86228571Y53621905D01*
X86323809Y53574286D01*
%TO.C,C7*%
X75247142Y54483334D02*
X75294761Y54435715D01*
X75342380Y54292858D01*
X75342380Y54197620D01*
X75294761Y54054762D01*
X75199523Y53959524D01*
X75104285Y53911905D01*
X74913809Y53864286D01*
X74770952Y53864286D01*
X74580476Y53911905D01*
X74485238Y53959524D01*
X74390000Y54054762D01*
X74342380Y54197620D01*
X74342380Y54292858D01*
X74390000Y54435715D01*
X74437619Y54483334D01*
X74342380Y54816667D02*
X74342380Y55483334D01*
X75342380Y55054762D01*
%TO.C,C8*%
X49947142Y31563334D02*
X49994761Y31515715D01*
X50042380Y31372858D01*
X50042380Y31277620D01*
X49994761Y31134762D01*
X49899523Y31039524D01*
X49804285Y30991905D01*
X49613809Y30944286D01*
X49470952Y30944286D01*
X49280476Y30991905D01*
X49185238Y31039524D01*
X49090000Y31134762D01*
X49042380Y31277620D01*
X49042380Y31372858D01*
X49090000Y31515715D01*
X49137619Y31563334D01*
X49470952Y32134762D02*
X49423333Y32039524D01*
X49375714Y31991905D01*
X49280476Y31944286D01*
X49232857Y31944286D01*
X49137619Y31991905D01*
X49090000Y32039524D01*
X49042380Y32134762D01*
X49042380Y32325239D01*
X49090000Y32420477D01*
X49137619Y32468096D01*
X49232857Y32515715D01*
X49280476Y32515715D01*
X49375714Y32468096D01*
X49423333Y32420477D01*
X49470952Y32325239D01*
X49470952Y32134762D01*
X49518571Y32039524D01*
X49566190Y31991905D01*
X49661428Y31944286D01*
X49851904Y31944286D01*
X49947142Y31991905D01*
X49994761Y32039524D01*
X50042380Y32134762D01*
X50042380Y32325239D01*
X49994761Y32420477D01*
X49947142Y32468096D01*
X49851904Y32515715D01*
X49661428Y32515715D01*
X49566190Y32468096D01*
X49518571Y32420477D01*
X49470952Y32325239D01*
%TO.C,C9*%
X43577142Y32813334D02*
X43624761Y32765715D01*
X43672380Y32622858D01*
X43672380Y32527620D01*
X43624761Y32384762D01*
X43529523Y32289524D01*
X43434285Y32241905D01*
X43243809Y32194286D01*
X43100952Y32194286D01*
X42910476Y32241905D01*
X42815238Y32289524D01*
X42720000Y32384762D01*
X42672380Y32527620D01*
X42672380Y32622858D01*
X42720000Y32765715D01*
X42767619Y32813334D01*
X43672380Y33289524D02*
X43672380Y33480000D01*
X43624761Y33575239D01*
X43577142Y33622858D01*
X43434285Y33718096D01*
X43243809Y33765715D01*
X42862857Y33765715D01*
X42767619Y33718096D01*
X42720000Y33670477D01*
X42672380Y33575239D01*
X42672380Y33384762D01*
X42720000Y33289524D01*
X42767619Y33241905D01*
X42862857Y33194286D01*
X43100952Y33194286D01*
X43196190Y33241905D01*
X43243809Y33289524D01*
X43291428Y33384762D01*
X43291428Y33575239D01*
X43243809Y33670477D01*
X43196190Y33718096D01*
X43100952Y33765715D01*
%TO.C,C10*%
X68897142Y54007143D02*
X68944761Y53959524D01*
X68992380Y53816667D01*
X68992380Y53721429D01*
X68944761Y53578572D01*
X68849523Y53483334D01*
X68754285Y53435715D01*
X68563809Y53388096D01*
X68420952Y53388096D01*
X68230476Y53435715D01*
X68135238Y53483334D01*
X68040000Y53578572D01*
X67992380Y53721429D01*
X67992380Y53816667D01*
X68040000Y53959524D01*
X68087619Y54007143D01*
X68992380Y54959524D02*
X68992380Y54388096D01*
X68992380Y54673810D02*
X67992380Y54673810D01*
X68135238Y54578572D01*
X68230476Y54483334D01*
X68278095Y54388096D01*
X67992380Y55578572D02*
X67992380Y55673810D01*
X68040000Y55769048D01*
X68087619Y55816667D01*
X68182857Y55864286D01*
X68373333Y55911905D01*
X68611428Y55911905D01*
X68801904Y55864286D01*
X68897142Y55816667D01*
X68944761Y55769048D01*
X68992380Y55673810D01*
X68992380Y55578572D01*
X68944761Y55483334D01*
X68897142Y55435715D01*
X68801904Y55388096D01*
X68611428Y55340477D01*
X68373333Y55340477D01*
X68182857Y55388096D01*
X68087619Y55435715D01*
X68040000Y55483334D01*
X67992380Y55578572D01*
%TO.C,C11*%
X59027142Y46572858D02*
X58979523Y46525239D01*
X58836666Y46477620D01*
X58741428Y46477620D01*
X58598571Y46525239D01*
X58503333Y46620477D01*
X58455714Y46715715D01*
X58408095Y46906191D01*
X58408095Y47049048D01*
X58455714Y47239524D01*
X58503333Y47334762D01*
X58598571Y47430000D01*
X58741428Y47477620D01*
X58836666Y47477620D01*
X58979523Y47430000D01*
X59027142Y47382381D01*
X59979523Y46477620D02*
X59408095Y46477620D01*
X59693809Y46477620D02*
X59693809Y47477620D01*
X59598571Y47334762D01*
X59503333Y47239524D01*
X59408095Y47191905D01*
X60931904Y46477620D02*
X60360476Y46477620D01*
X60646190Y46477620D02*
X60646190Y47477620D01*
X60550952Y47334762D01*
X60455714Y47239524D01*
X60360476Y47191905D01*
%TO.C,D3*%
X68962380Y42441905D02*
X67962380Y42441905D01*
X67962380Y42680000D01*
X68010000Y42822858D01*
X68105238Y42918096D01*
X68200476Y42965715D01*
X68390952Y43013334D01*
X68533809Y43013334D01*
X68724285Y42965715D01*
X68819523Y42918096D01*
X68914761Y42822858D01*
X68962380Y42680000D01*
X68962380Y42441905D01*
X67962380Y43346667D02*
X67962380Y43965715D01*
X68343333Y43632381D01*
X68343333Y43775239D01*
X68390952Y43870477D01*
X68438571Y43918096D01*
X68533809Y43965715D01*
X68771904Y43965715D01*
X68867142Y43918096D01*
X68914761Y43870477D01*
X68962380Y43775239D01*
X68962380Y43489524D01*
X68914761Y43394286D01*
X68867142Y43346667D01*
X68592380Y47998096D02*
X67592380Y47998096D01*
X68592380Y48569524D02*
X68020952Y48140953D01*
X67592380Y48569524D02*
X68163809Y47998096D01*
%TO.C,D4*%
X15771904Y66787620D02*
X15771904Y67787620D01*
X16010000Y67787620D01*
X16152857Y67740000D01*
X16248095Y67644762D01*
X16295714Y67549524D01*
X16343333Y67359048D01*
X16343333Y67216191D01*
X16295714Y67025715D01*
X16248095Y66930477D01*
X16152857Y66835239D01*
X16010000Y66787620D01*
X15771904Y66787620D01*
X17200476Y67454286D02*
X17200476Y66787620D01*
X16962380Y67835239D02*
X16724285Y67120953D01*
X17343333Y67120953D01*
X11168095Y66417620D02*
X11168095Y67417620D01*
X11739523Y66417620D02*
X11310952Y66989048D01*
X11739523Y67417620D02*
X11168095Y66846191D01*
%TO.C,D5*%
X29741904Y66787620D02*
X29741904Y67787620D01*
X29980000Y67787620D01*
X30122857Y67740000D01*
X30218095Y67644762D01*
X30265714Y67549524D01*
X30313333Y67359048D01*
X30313333Y67216191D01*
X30265714Y67025715D01*
X30218095Y66930477D01*
X30122857Y66835239D01*
X29980000Y66787620D01*
X29741904Y66787620D01*
X31218095Y67787620D02*
X30741904Y67787620D01*
X30694285Y67311429D01*
X30741904Y67359048D01*
X30837142Y67406667D01*
X31075238Y67406667D01*
X31170476Y67359048D01*
X31218095Y67311429D01*
X31265714Y67216191D01*
X31265714Y66978096D01*
X31218095Y66882858D01*
X31170476Y66835239D01*
X31075238Y66787620D01*
X30837142Y66787620D01*
X30741904Y66835239D01*
X30694285Y66882858D01*
X25138095Y66417620D02*
X25138095Y67417620D01*
X25709523Y66417620D02*
X25280952Y66989048D01*
X25709523Y67417620D02*
X25138095Y66846191D01*
%TO.C,D6*%
X43711904Y66787620D02*
X43711904Y67787620D01*
X43950000Y67787620D01*
X44092857Y67740000D01*
X44188095Y67644762D01*
X44235714Y67549524D01*
X44283333Y67359048D01*
X44283333Y67216191D01*
X44235714Y67025715D01*
X44188095Y66930477D01*
X44092857Y66835239D01*
X43950000Y66787620D01*
X43711904Y66787620D01*
X45140476Y67787620D02*
X44950000Y67787620D01*
X44854761Y67740000D01*
X44807142Y67692381D01*
X44711904Y67549524D01*
X44664285Y67359048D01*
X44664285Y66978096D01*
X44711904Y66882858D01*
X44759523Y66835239D01*
X44854761Y66787620D01*
X45045238Y66787620D01*
X45140476Y66835239D01*
X45188095Y66882858D01*
X45235714Y66978096D01*
X45235714Y67216191D01*
X45188095Y67311429D01*
X45140476Y67359048D01*
X45045238Y67406667D01*
X44854761Y67406667D01*
X44759523Y67359048D01*
X44711904Y67311429D01*
X44664285Y67216191D01*
X39108095Y66417620D02*
X39108095Y67417620D01*
X39679523Y66417620D02*
X39250952Y66989048D01*
X39679523Y67417620D02*
X39108095Y66846191D01*
%TO.C,D7*%
X57681904Y66787620D02*
X57681904Y67787620D01*
X57920000Y67787620D01*
X58062857Y67740000D01*
X58158095Y67644762D01*
X58205714Y67549524D01*
X58253333Y67359048D01*
X58253333Y67216191D01*
X58205714Y67025715D01*
X58158095Y66930477D01*
X58062857Y66835239D01*
X57920000Y66787620D01*
X57681904Y66787620D01*
X58586666Y67787620D02*
X59253333Y67787620D01*
X58824761Y66787620D01*
X53078095Y66417620D02*
X53078095Y67417620D01*
X53649523Y66417620D02*
X53220952Y66989048D01*
X53649523Y67417620D02*
X53078095Y66846191D01*
%TO.C,D2*%
X56752380Y52601905D02*
X55752380Y52601905D01*
X55752380Y52840000D01*
X55800000Y52982858D01*
X55895238Y53078096D01*
X55990476Y53125715D01*
X56180952Y53173334D01*
X56323809Y53173334D01*
X56514285Y53125715D01*
X56609523Y53078096D01*
X56704761Y52982858D01*
X56752380Y52840000D01*
X56752380Y52601905D01*
X55847619Y53554286D02*
X55800000Y53601905D01*
X55752380Y53697143D01*
X55752380Y53935239D01*
X55800000Y54030477D01*
X55847619Y54078096D01*
X55942857Y54125715D01*
X56038095Y54125715D01*
X56180952Y54078096D01*
X56752380Y53506667D01*
X56752380Y54125715D01*
X57072380Y49268096D02*
X56072380Y49268096D01*
X57072380Y49839524D02*
X56500952Y49410953D01*
X56072380Y49839524D02*
X56643809Y49268096D01*
%TO.C,D8*%
X64802380Y52601905D02*
X63802380Y52601905D01*
X63802380Y52840000D01*
X63850000Y52982858D01*
X63945238Y53078096D01*
X64040476Y53125715D01*
X64230952Y53173334D01*
X64373809Y53173334D01*
X64564285Y53125715D01*
X64659523Y53078096D01*
X64754761Y52982858D01*
X64802380Y52840000D01*
X64802380Y52601905D01*
X64230952Y53744762D02*
X64183333Y53649524D01*
X64135714Y53601905D01*
X64040476Y53554286D01*
X63992857Y53554286D01*
X63897619Y53601905D01*
X63850000Y53649524D01*
X63802380Y53744762D01*
X63802380Y53935239D01*
X63850000Y54030477D01*
X63897619Y54078096D01*
X63992857Y54125715D01*
X64040476Y54125715D01*
X64135714Y54078096D01*
X64183333Y54030477D01*
X64230952Y53935239D01*
X64230952Y53744762D01*
X64278571Y53649524D01*
X64326190Y53601905D01*
X64421428Y53554286D01*
X64611904Y53554286D01*
X64707142Y53601905D01*
X64754761Y53649524D01*
X64802380Y53744762D01*
X64802380Y53935239D01*
X64754761Y54030477D01*
X64707142Y54078096D01*
X64611904Y54125715D01*
X64421428Y54125715D01*
X64326190Y54078096D01*
X64278571Y54030477D01*
X64230952Y53935239D01*
X64482380Y56888096D02*
X63482380Y56888096D01*
X64482380Y57459524D02*
X63910952Y57030953D01*
X63482380Y57459524D02*
X64053809Y56888096D01*
%TO.C,J1*%
X73742380Y35846667D02*
X74456666Y35846667D01*
X74599523Y35799048D01*
X74694761Y35703810D01*
X74742380Y35560953D01*
X74742380Y35465715D01*
X74742380Y36846667D02*
X74742380Y36275239D01*
X74742380Y36560953D02*
X73742380Y36560953D01*
X73885238Y36465715D01*
X73980476Y36370477D01*
X74028095Y36275239D01*
%TO.C,J2*%
X22102380Y3476667D02*
X22816666Y3476667D01*
X22959523Y3429048D01*
X23054761Y3333810D01*
X23102380Y3190953D01*
X23102380Y3095715D01*
X22197619Y3905239D02*
X22150000Y3952858D01*
X22102380Y4048096D01*
X22102380Y4286191D01*
X22150000Y4381429D01*
X22197619Y4429048D01*
X22292857Y4476667D01*
X22388095Y4476667D01*
X22530952Y4429048D01*
X23102380Y3857620D01*
X23102380Y4476667D01*
%TO.C,J3*%
X73742380Y20606667D02*
X74456666Y20606667D01*
X74599523Y20559048D01*
X74694761Y20463810D01*
X74742380Y20320953D01*
X74742380Y20225715D01*
X73742380Y20987620D02*
X73742380Y21606667D01*
X74123333Y21273334D01*
X74123333Y21416191D01*
X74170952Y21511429D01*
X74218571Y21559048D01*
X74313809Y21606667D01*
X74551904Y21606667D01*
X74647142Y21559048D01*
X74694761Y21511429D01*
X74742380Y21416191D01*
X74742380Y21130477D01*
X74694761Y21035239D01*
X74647142Y20987620D01*
%TO.C,M1*%
X4270476Y67517620D02*
X4270476Y68517620D01*
X4603809Y67803334D01*
X4937142Y68517620D01*
X4937142Y67517620D01*
X5937142Y67517620D02*
X5365714Y67517620D01*
X5651428Y67517620D02*
X5651428Y68517620D01*
X5556190Y68374762D01*
X5460952Y68279524D01*
X5365714Y68231905D01*
%TO.C,M2*%
X84280476Y67517620D02*
X84280476Y68517620D01*
X84613809Y67803334D01*
X84947142Y68517620D01*
X84947142Y67517620D01*
X85375714Y68422381D02*
X85423333Y68470000D01*
X85518571Y68517620D01*
X85756666Y68517620D01*
X85851904Y68470000D01*
X85899523Y68422381D01*
X85947142Y68327143D01*
X85947142Y68231905D01*
X85899523Y68089048D01*
X85328095Y67517620D01*
X85947142Y67517620D01*
%TO.C,M3*%
X84280476Y6557620D02*
X84280476Y7557620D01*
X84613809Y6843334D01*
X84947142Y7557620D01*
X84947142Y6557620D01*
X85328095Y7557620D02*
X85947142Y7557620D01*
X85613809Y7176667D01*
X85756666Y7176667D01*
X85851904Y7129048D01*
X85899523Y7081429D01*
X85947142Y6986191D01*
X85947142Y6748096D01*
X85899523Y6652858D01*
X85851904Y6605239D01*
X85756666Y6557620D01*
X85470952Y6557620D01*
X85375714Y6605239D01*
X85328095Y6652858D01*
%TO.C,M4*%
X4270476Y6557620D02*
X4270476Y7557620D01*
X4603809Y6843334D01*
X4937142Y7557620D01*
X4937142Y6557620D01*
X5841904Y7224286D02*
X5841904Y6557620D01*
X5603809Y7605239D02*
X5365714Y6890953D01*
X5984761Y6890953D01*
%TO.C,R1*%
X50633333Y10327620D02*
X50300000Y10803810D01*
X50061904Y10327620D02*
X50061904Y11327620D01*
X50442857Y11327620D01*
X50538095Y11280000D01*
X50585714Y11232381D01*
X50633333Y11137143D01*
X50633333Y10994286D01*
X50585714Y10899048D01*
X50538095Y10851429D01*
X50442857Y10803810D01*
X50061904Y10803810D01*
X51585714Y10327620D02*
X51014285Y10327620D01*
X51300000Y10327620D02*
X51300000Y11327620D01*
X51204761Y11184762D01*
X51109523Y11089524D01*
X51014285Y11041905D01*
%TO.C,R2*%
X77303333Y19247620D02*
X76970000Y19723810D01*
X76731904Y19247620D02*
X76731904Y20247620D01*
X77112857Y20247620D01*
X77208095Y20200000D01*
X77255714Y20152381D01*
X77303333Y20057143D01*
X77303333Y19914286D01*
X77255714Y19819048D01*
X77208095Y19771429D01*
X77112857Y19723810D01*
X76731904Y19723810D01*
X77684285Y20152381D02*
X77731904Y20200000D01*
X77827142Y20247620D01*
X78065238Y20247620D01*
X78160476Y20200000D01*
X78208095Y20152381D01*
X78255714Y20057143D01*
X78255714Y19961905D01*
X78208095Y19819048D01*
X77636666Y19247620D01*
X78255714Y19247620D01*
%TO.C,R3*%
X22692380Y20153334D02*
X22216190Y19820000D01*
X22692380Y19581905D02*
X21692380Y19581905D01*
X21692380Y19962858D01*
X21740000Y20058096D01*
X21787619Y20105715D01*
X21882857Y20153334D01*
X22025714Y20153334D01*
X22120952Y20105715D01*
X22168571Y20058096D01*
X22216190Y19962858D01*
X22216190Y19581905D01*
X21692380Y20486667D02*
X21692380Y21105715D01*
X22073333Y20772381D01*
X22073333Y20915239D01*
X22120952Y21010477D01*
X22168571Y21058096D01*
X22263809Y21105715D01*
X22501904Y21105715D01*
X22597142Y21058096D01*
X22644761Y21010477D01*
X22692380Y20915239D01*
X22692380Y20629524D01*
X22644761Y20534286D01*
X22597142Y20486667D01*
%TO.C,R4*%
X17612380Y49363334D02*
X17136190Y49030000D01*
X17612380Y48791905D02*
X16612380Y48791905D01*
X16612380Y49172858D01*
X16660000Y49268096D01*
X16707619Y49315715D01*
X16802857Y49363334D01*
X16945714Y49363334D01*
X17040952Y49315715D01*
X17088571Y49268096D01*
X17136190Y49172858D01*
X17136190Y48791905D01*
X16945714Y50220477D02*
X17612380Y50220477D01*
X16564761Y49982381D02*
X17279047Y49744286D01*
X17279047Y50363334D01*
%TO.C,RV1*%
X59032380Y9924762D02*
X58556190Y9591429D01*
X59032380Y9353334D02*
X58032380Y9353334D01*
X58032380Y9734286D01*
X58080000Y9829524D01*
X58127619Y9877143D01*
X58222857Y9924762D01*
X58365714Y9924762D01*
X58460952Y9877143D01*
X58508571Y9829524D01*
X58556190Y9734286D01*
X58556190Y9353334D01*
X58032380Y10210477D02*
X59032380Y10543810D01*
X58032380Y10877143D01*
X59032380Y11734286D02*
X59032380Y11162858D01*
X59032380Y11448572D02*
X58032380Y11448572D01*
X58175238Y11353334D01*
X58270476Y11258096D01*
X58318095Y11162858D01*
%TO.C,TP1*%
X45462380Y5088096D02*
X45462380Y5659524D01*
X46462380Y5373810D02*
X45462380Y5373810D01*
X46462380Y5992858D02*
X45462380Y5992858D01*
X45462380Y6373810D01*
X45510000Y6469048D01*
X45557619Y6516667D01*
X45652857Y6564286D01*
X45795714Y6564286D01*
X45890952Y6516667D01*
X45938571Y6469048D01*
X45986190Y6373810D01*
X45986190Y5992858D01*
X46462380Y7516667D02*
X46462380Y6945239D01*
X46462380Y7230953D02*
X45462380Y7230953D01*
X45605238Y7135715D01*
X45700476Y7040477D01*
X45748095Y6945239D01*
%TO.C,TP2*%
X67318095Y26237620D02*
X67889523Y26237620D01*
X67603809Y25237620D02*
X67603809Y26237620D01*
X68222857Y25237620D02*
X68222857Y26237620D01*
X68603809Y26237620D01*
X68699047Y26190000D01*
X68746666Y26142381D01*
X68794285Y26047143D01*
X68794285Y25904286D01*
X68746666Y25809048D01*
X68699047Y25761429D01*
X68603809Y25713810D01*
X68222857Y25713810D01*
X69175238Y26142381D02*
X69222857Y26190000D01*
X69318095Y26237620D01*
X69556190Y26237620D01*
X69651428Y26190000D01*
X69699047Y26142381D01*
X69746666Y26047143D01*
X69746666Y25951905D01*
X69699047Y25809048D01*
X69127619Y25237620D01*
X69746666Y25237620D01*
%TO.C,U1*%
X57622380Y6858096D02*
X58431904Y6858096D01*
X58527142Y6905715D01*
X58574761Y6953334D01*
X58622380Y7048572D01*
X58622380Y7239048D01*
X58574761Y7334286D01*
X58527142Y7381905D01*
X58431904Y7429524D01*
X57622380Y7429524D01*
X58622380Y8429524D02*
X58622380Y7858096D01*
X58622380Y8143810D02*
X57622380Y8143810D01*
X57765238Y8048572D01*
X57860476Y7953334D01*
X57908095Y7858096D01*
%TO.C,U2*%
X32258095Y7107620D02*
X32258095Y6298096D01*
X32305714Y6202858D01*
X32353333Y6155239D01*
X32448571Y6107620D01*
X32639047Y6107620D01*
X32734285Y6155239D01*
X32781904Y6202858D01*
X32829523Y6298096D01*
X32829523Y7107620D01*
X33258095Y7012381D02*
X33305714Y7060000D01*
X33400952Y7107620D01*
X33639047Y7107620D01*
X33734285Y7060000D01*
X33781904Y7012381D01*
X33829523Y6917143D01*
X33829523Y6821905D01*
X33781904Y6679048D01*
X33210476Y6107620D01*
X33829523Y6107620D01*
%TO.C,U3*%
X65242380Y30988096D02*
X66051904Y30988096D01*
X66147142Y31035715D01*
X66194761Y31083334D01*
X66242380Y31178572D01*
X66242380Y31369048D01*
X66194761Y31464286D01*
X66147142Y31511905D01*
X66051904Y31559524D01*
X65242380Y31559524D01*
X65242380Y31940477D02*
X65242380Y32559524D01*
X65623333Y32226191D01*
X65623333Y32369048D01*
X65670952Y32464286D01*
X65718571Y32511905D01*
X65813809Y32559524D01*
X66051904Y32559524D01*
X66147142Y32511905D01*
X66194761Y32464286D01*
X66242380Y32369048D01*
X66242380Y32083334D01*
X66194761Y31988096D01*
X66147142Y31940477D01*
%TO.C,U4*%
X48768095Y60027620D02*
X48768095Y59218096D01*
X48815714Y59122858D01*
X48863333Y59075239D01*
X48958571Y59027620D01*
X49149047Y59027620D01*
X49244285Y59075239D01*
X49291904Y59122858D01*
X49339523Y59218096D01*
X49339523Y60027620D01*
X50244285Y59694286D02*
X50244285Y59027620D01*
X50006190Y60075239D02*
X49768095Y59360953D01*
X50387142Y59360953D01*
%TD*%
%LPC*%
D13*
%TO.C,D1*%
X3810000Y31750000D03*
X3810000Y29210000D03*
X3810000Y26670000D03*
X3810000Y24130000D03*
X3810000Y21590000D03*
X3810000Y19050000D03*
X3810000Y16510000D03*
X3810000Y13970000D03*
X3810000Y11430000D03*
X6350000Y11430000D03*
X6350000Y13970000D03*
X6350000Y16510000D03*
X6350000Y19050000D03*
X6350000Y21590000D03*
X6350000Y24130000D03*
X6350000Y26670000D03*
X6350000Y29210000D03*
D14*
X6350000Y31750000D03*
D13*
X3810000Y57150000D03*
X3810000Y54610000D03*
X3810000Y52070000D03*
X3810000Y49530000D03*
X3810000Y46990000D03*
X3810000Y44450000D03*
X3810000Y41910000D03*
X3810000Y39370000D03*
X3810000Y36830000D03*
X6350000Y36830000D03*
X6350000Y39370000D03*
X6350000Y41910000D03*
X6350000Y44450000D03*
X6350000Y46990000D03*
X6350000Y49530000D03*
X6350000Y52070000D03*
X6350000Y54610000D03*
D14*
X6350000Y57150000D03*
%TD*%
D15*
%TO.C,R8*%
X20320000Y11430000D03*
D16*
X20320000Y8890000D03*
%TD*%
D15*
%TO.C,R7*%
X17780000Y11430000D03*
D16*
X17780000Y8890000D03*
%TD*%
D15*
%TO.C,R6*%
X15240000Y11430000D03*
D16*
X15240000Y8890000D03*
%TD*%
D15*
%TO.C,R5*%
X12700000Y11430000D03*
D16*
X12700000Y8890000D03*
%TD*%
D17*
%TO.C,C1*%
X20320000Y33020000D03*
X20320000Y28020000D03*
%TD*%
%TO.C,C2*%
X20320000Y45800000D03*
X20320000Y50800000D03*
%TD*%
%TO.C,C3*%
X68580000Y17780000D03*
X68580000Y22780000D03*
%TD*%
%TO.C,C4*%
X20320000Y59690000D03*
X20320000Y54690000D03*
%TD*%
%TO.C,C5*%
X20320000Y36830000D03*
X20320000Y41830000D03*
%TD*%
D18*
%TO.C,C6*%
X82550000Y54610000D03*
D17*
X82550000Y52110000D03*
%TD*%
%TO.C,C7*%
X72390000Y57150000D03*
X72390000Y52150000D03*
%TD*%
D18*
%TO.C,C8*%
X53340000Y30480000D03*
D17*
X53340000Y32980000D03*
%TD*%
%TO.C,C9*%
X45720000Y35480000D03*
X45720000Y30480000D03*
%TD*%
%TO.C,C10*%
X66040000Y52150000D03*
X66040000Y57150000D03*
%TD*%
%TO.C,C11*%
X60920000Y43180000D03*
D18*
X58420000Y43180000D03*
%TD*%
D19*
%TO.C,D3*%
X66040000Y38100000D03*
D20*
X66040000Y48260000D03*
%TD*%
D19*
%TO.C,D4*%
X21590000Y64770000D03*
D20*
X11430000Y64770000D03*
%TD*%
%TO.C,D5*%
X25400000Y64770000D03*
D19*
X35560000Y64770000D03*
%TD*%
D20*
%TO.C,D6*%
X39370000Y64770000D03*
D19*
X49530000Y64770000D03*
%TD*%
D20*
%TO.C,D7*%
X53340000Y64770000D03*
D19*
X63500000Y64770000D03*
%TD*%
D21*
%TO.C,D2*%
X58420000Y57150000D03*
D18*
X58420000Y49530000D03*
%TD*%
%TO.C,D8*%
X62230000Y57150000D03*
D21*
X62230000Y49530000D03*
%TD*%
D22*
%TO.C,J1*%
X81280000Y38100000D03*
D23*
X81280000Y43100000D03*
%TD*%
D24*
%TO.C,J2*%
X20320000Y5080000D03*
D25*
X20320000Y2540000D03*
X17780000Y5080000D03*
X17780000Y2540000D03*
X15240000Y5080000D03*
X15240000Y2540000D03*
X12700000Y5080000D03*
X12700000Y2540000D03*
%TD*%
D23*
%TO.C,J3*%
X81280000Y27860000D03*
D22*
X81280000Y22860000D03*
%TD*%
D26*
%TO.C,M1*%
X5080000Y64770000D03*
%TD*%
%TO.C,M2*%
X85090000Y64770000D03*
%TD*%
%TO.C,M3*%
X85090000Y3810000D03*
%TD*%
%TO.C,M4*%
X5080000Y3810000D03*
%TD*%
D16*
%TO.C,R1*%
X54610000Y12700000D03*
D15*
X46990000Y12700000D03*
%TD*%
D16*
%TO.C,R2*%
X73660000Y17780000D03*
D15*
X81280000Y17780000D03*
%TD*%
D16*
%TO.C,R3*%
X20320000Y24130000D03*
D15*
X20320000Y16510000D03*
%TD*%
%TO.C,R4*%
X15240000Y45720000D03*
D16*
X15240000Y53340000D03*
%TD*%
D27*
%TO.C,RV1*%
X63500000Y17780000D03*
X60960000Y10160000D03*
X63500000Y5080000D03*
%TD*%
D28*
%TO.C,TP1*%
X48260000Y6350000D03*
%TD*%
%TO.C,TP2*%
X68580000Y27940000D03*
%TD*%
D29*
%TO.C,U1*%
X54610000Y7620000D03*
X54610000Y6350000D03*
D30*
X54610000Y8890000D03*
%TD*%
D18*
%TO.C,U2*%
X40640000Y8890000D03*
D21*
X25400000Y57150000D03*
X40640000Y11430000D03*
X25400000Y54610000D03*
X40640000Y13970000D03*
X25400000Y52070000D03*
X40640000Y16510000D03*
X25400000Y49530000D03*
X40640000Y19050000D03*
X25400000Y46990000D03*
X40640000Y21590000D03*
X25400000Y44450000D03*
X40640000Y24130000D03*
X25400000Y41910000D03*
X40640000Y26670000D03*
X25400000Y39370000D03*
X40640000Y29210000D03*
X25400000Y36830000D03*
X40640000Y31750000D03*
X25400000Y34290000D03*
X40640000Y34290000D03*
X25400000Y31750000D03*
X40640000Y36830000D03*
X25400000Y29210000D03*
X40640000Y39370000D03*
X25400000Y26670000D03*
X40640000Y41910000D03*
X25400000Y24130000D03*
X40640000Y44450000D03*
X25400000Y21590000D03*
X40640000Y46990000D03*
X25400000Y19050000D03*
X40640000Y49530000D03*
X25400000Y16510000D03*
X40640000Y52070000D03*
X25400000Y13970000D03*
X40640000Y54610000D03*
X25400000Y11430000D03*
X40640000Y57150000D03*
X25400000Y8890000D03*
%TD*%
D30*
%TO.C,U3*%
X62230000Y33020000D03*
D29*
X62230000Y30480000D03*
X62230000Y31750000D03*
%TD*%
D18*
%TO.C,U4*%
X45720000Y57150000D03*
D21*
X53340000Y41910000D03*
X45720000Y54610000D03*
X53340000Y44450000D03*
X45720000Y52070000D03*
X53340000Y46990000D03*
X45720000Y49530000D03*
X53340000Y49530000D03*
X45720000Y46990000D03*
X53340000Y52070000D03*
X45720000Y44450000D03*
X53340000Y54610000D03*
X45720000Y41910000D03*
X53340000Y57150000D03*
%TD*%
M02*
