%TF.GenerationSoftware,KiCad,Pcbnew,5.1.6-c6e7f7d~86~ubuntu18.04.1*%
%TF.CreationDate,2020-06-02T01:44:03+02:00*%
%TF.ProjectId,ICL7107,49434c37-3130-4372-9e6b-696361645f70,1.0*%
%TF.SameCoordinates,PX525bfc0PY7a53eb0*%
%TF.FileFunction,Other,Fab,Top*%
%FSLAX46Y46*%
G04 Gerber Fmt 4.6, Leading zero omitted, Abs format (unit mm)*
G04 Created by KiCad (PCBNEW 5.1.6-c6e7f7d~86~ubuntu18.04.1) date 2020-06-02 01:44:03*
%MOMM*%
%LPD*%
G01*
G04 APERTURE LIST*
%ADD10C,0.100000*%
%ADD11C,0.120000*%
%ADD12C,0.150000*%
%ADD13C,0.129000*%
%ADD14C,0.108000*%
G04 APERTURE END LIST*
D10*
%TO.C,R8*%
X20320000Y8890000D02*
X20320000Y11430000D01*
X21120000Y8890000D02*
G75*
G03*
X21120000Y8890000I-800000J0D01*
G01*
%TO.C,R7*%
X17780000Y8890000D02*
X17780000Y11430000D01*
X18580000Y8890000D02*
G75*
G03*
X18580000Y8890000I-800000J0D01*
G01*
%TO.C,R6*%
X15240000Y8890000D02*
X15240000Y11430000D01*
X16040000Y8890000D02*
G75*
G03*
X16040000Y8890000I-800000J0D01*
G01*
%TO.C,R5*%
X12700000Y8890000D02*
X12700000Y11430000D01*
X13500000Y8890000D02*
G75*
G03*
X13500000Y8890000I-800000J0D01*
G01*
%TO.C,C1*%
X21270000Y32670000D02*
X19370000Y32670000D01*
X19370000Y32670000D02*
X19370000Y28370000D01*
X19370000Y28370000D02*
X21270000Y28370000D01*
X21270000Y28370000D02*
X21270000Y32670000D01*
%TO.C,C2*%
X21570000Y44800000D02*
X21570000Y51800000D01*
X19070000Y44800000D02*
X21570000Y44800000D01*
X19070000Y51800000D02*
X19070000Y44800000D01*
X21570000Y51800000D02*
X19070000Y51800000D01*
%TO.C,C3*%
X67330000Y16780000D02*
X69830000Y16780000D01*
X69830000Y16780000D02*
X69830000Y23780000D01*
X69830000Y23780000D02*
X67330000Y23780000D01*
X67330000Y23780000D02*
X67330000Y16780000D01*
%TO.C,C4*%
X21570000Y60690000D02*
X19070000Y60690000D01*
X19070000Y60690000D02*
X19070000Y53690000D01*
X19070000Y53690000D02*
X21570000Y53690000D01*
X21570000Y53690000D02*
X21570000Y60690000D01*
%TO.C,C5*%
X19070000Y35830000D02*
X21570000Y35830000D01*
X21570000Y35830000D02*
X21570000Y42830000D01*
X21570000Y42830000D02*
X19070000Y42830000D01*
X19070000Y42830000D02*
X19070000Y35830000D01*
%TO.C,C6*%
X85050000Y53360000D02*
G75*
G03*
X85050000Y53360000I-2500000J0D01*
G01*
X83637500Y55493605D02*
X83637500Y54993605D01*
X83887500Y55243605D02*
X83387500Y55243605D01*
%TO.C,C7*%
X73640000Y58150000D02*
X71140000Y58150000D01*
X71140000Y58150000D02*
X71140000Y51150000D01*
X71140000Y51150000D02*
X73640000Y51150000D01*
X73640000Y51150000D02*
X73640000Y58150000D01*
%TO.C,C8*%
X55840000Y31730000D02*
G75*
G03*
X55840000Y31730000I-2500000J0D01*
G01*
X52252500Y29596395D02*
X52252500Y30096395D01*
X52002500Y29846395D02*
X52502500Y29846395D01*
%TO.C,C9*%
X44470000Y36480000D02*
X44470000Y29480000D01*
X46970000Y36480000D02*
X44470000Y36480000D01*
X46970000Y29480000D02*
X46970000Y36480000D01*
X44470000Y29480000D02*
X46970000Y29480000D01*
%TO.C,C10*%
X67290000Y51150000D02*
X67290000Y58150000D01*
X64790000Y51150000D02*
X67290000Y51150000D01*
X64790000Y58150000D02*
X64790000Y51150000D01*
X67290000Y58150000D02*
X64790000Y58150000D01*
%TO.C,C11*%
X57786395Y44517500D02*
X57786395Y44017500D01*
X57536395Y44267500D02*
X58036395Y44267500D01*
X62170000Y43180000D02*
G75*
G03*
X62170000Y43180000I-2500000J0D01*
G01*
%TO.C,D3*%
X67390000Y45100000D02*
X64690000Y45100000D01*
X67390000Y44900000D02*
X64690000Y44900000D01*
X67390000Y45000000D02*
X64690000Y45000000D01*
X66040000Y38100000D02*
X66040000Y40580000D01*
X66040000Y48260000D02*
X66040000Y45780000D01*
X67390000Y40580000D02*
X67390000Y45780000D01*
X64690000Y40580000D02*
X67390000Y40580000D01*
X64690000Y45780000D02*
X64690000Y40580000D01*
X67390000Y45780000D02*
X64690000Y45780000D01*
%TO.C,D4*%
X14590000Y66120000D02*
X14590000Y63420000D01*
X14790000Y66120000D02*
X14790000Y63420000D01*
X14690000Y66120000D02*
X14690000Y63420000D01*
X21590000Y64770000D02*
X19110000Y64770000D01*
X11430000Y64770000D02*
X13910000Y64770000D01*
X19110000Y66120000D02*
X13910000Y66120000D01*
X19110000Y63420000D02*
X19110000Y66120000D01*
X13910000Y63420000D02*
X19110000Y63420000D01*
X13910000Y66120000D02*
X13910000Y63420000D01*
%TO.C,D5*%
X27880000Y66120000D02*
X27880000Y63420000D01*
X27880000Y63420000D02*
X33080000Y63420000D01*
X33080000Y63420000D02*
X33080000Y66120000D01*
X33080000Y66120000D02*
X27880000Y66120000D01*
X25400000Y64770000D02*
X27880000Y64770000D01*
X35560000Y64770000D02*
X33080000Y64770000D01*
X28660000Y66120000D02*
X28660000Y63420000D01*
X28760000Y66120000D02*
X28760000Y63420000D01*
X28560000Y66120000D02*
X28560000Y63420000D01*
%TO.C,D6*%
X41850000Y66120000D02*
X41850000Y63420000D01*
X41850000Y63420000D02*
X47050000Y63420000D01*
X47050000Y63420000D02*
X47050000Y66120000D01*
X47050000Y66120000D02*
X41850000Y66120000D01*
X39370000Y64770000D02*
X41850000Y64770000D01*
X49530000Y64770000D02*
X47050000Y64770000D01*
X42630000Y66120000D02*
X42630000Y63420000D01*
X42730000Y66120000D02*
X42730000Y63420000D01*
X42530000Y66120000D02*
X42530000Y63420000D01*
%TO.C,D7*%
X55820000Y66120000D02*
X55820000Y63420000D01*
X55820000Y63420000D02*
X61020000Y63420000D01*
X61020000Y63420000D02*
X61020000Y66120000D01*
X61020000Y66120000D02*
X55820000Y66120000D01*
X53340000Y64770000D02*
X55820000Y64770000D01*
X63500000Y64770000D02*
X61020000Y64770000D01*
X56600000Y66120000D02*
X56600000Y63420000D01*
X56700000Y66120000D02*
X56700000Y63420000D01*
X56500000Y66120000D02*
X56500000Y63420000D01*
%TO.C,D2*%
X57420000Y51840000D02*
X59420000Y51840000D01*
X57420000Y52040000D02*
X59420000Y52040000D01*
X57420000Y51940000D02*
X59420000Y51940000D01*
X58420000Y57150000D02*
X58420000Y55340000D01*
X58420000Y49530000D02*
X58420000Y51340000D01*
X57420000Y55340000D02*
X57420000Y51340000D01*
X59420000Y55340000D02*
X57420000Y55340000D01*
X59420000Y51340000D02*
X59420000Y55340000D01*
X57420000Y51340000D02*
X59420000Y51340000D01*
%TO.C,D8*%
X63230000Y55340000D02*
X61230000Y55340000D01*
X61230000Y55340000D02*
X61230000Y51340000D01*
X61230000Y51340000D02*
X63230000Y51340000D01*
X63230000Y51340000D02*
X63230000Y55340000D01*
X62230000Y57150000D02*
X62230000Y55340000D01*
X62230000Y49530000D02*
X62230000Y51340000D01*
X63230000Y54740000D02*
X61230000Y54740000D01*
X63230000Y54640000D02*
X61230000Y54640000D01*
X63230000Y54840000D02*
X61230000Y54840000D01*
%TO.C,J1*%
X83820000Y36840000D02*
X83820000Y39380000D01*
X83820000Y39380000D02*
X81030000Y39380000D01*
X81030000Y36840000D02*
X81030000Y39380000D01*
X83820000Y36840000D02*
X81030000Y36840000D01*
X83820000Y41840000D02*
X83820000Y44380000D01*
X83820000Y44380000D02*
X81030000Y44380000D01*
X81030000Y41840000D02*
X81030000Y44380000D01*
X83820000Y41840000D02*
X81030000Y41840000D01*
X75060000Y45710000D02*
X78110000Y45710000D01*
X75060000Y45710000D02*
X75060000Y35520000D01*
X75060000Y45710000D02*
X75060000Y46210000D01*
X75060000Y46210000D02*
X79880000Y46210000D01*
X79880000Y46210000D02*
X79630000Y45710000D01*
X86740000Y46210000D02*
X86490000Y45710000D01*
X86490000Y45710000D02*
X87500000Y45710000D01*
X85090000Y46210000D02*
X85340000Y45710000D01*
X85340000Y45710000D02*
X86490000Y45710000D01*
X85090000Y46210000D02*
X86740000Y46210000D01*
X87500000Y41080000D02*
X85600000Y41080000D01*
X81030000Y45150000D02*
X85600000Y45150000D01*
X87500000Y41080000D02*
X87500000Y45150000D01*
X87500000Y45150000D02*
X87500000Y45710000D01*
X87500000Y40140000D02*
X85600000Y40140000D01*
X87500000Y40140000D02*
X87500000Y41080000D01*
X81030000Y36080000D02*
X85600000Y36080000D01*
X87500000Y35520000D02*
X87500000Y36080000D01*
X87500000Y36080000D02*
X87500000Y40140000D01*
X85600000Y41080000D02*
X85600000Y45150000D01*
X85600000Y41080000D02*
X81030000Y41080000D01*
X85600000Y45150000D02*
X87500000Y45150000D01*
X85600000Y40140000D02*
X85600000Y36080000D01*
X85600000Y40140000D02*
X81030000Y40140000D01*
X85600000Y36080000D02*
X87500000Y36080000D01*
X84960000Y44770000D02*
X81790000Y44770000D01*
X84960000Y44770000D02*
X84960000Y41460000D01*
X84960000Y41460000D02*
X81790000Y41460000D01*
X84960000Y39760000D02*
X81790000Y39760000D01*
X84960000Y39760000D02*
X84960000Y36460000D01*
X84960000Y36460000D02*
X81790000Y36460000D01*
X81790000Y36460000D02*
X81790000Y36840000D01*
X81790000Y39760000D02*
X81790000Y39380000D01*
X81790000Y41460000D02*
X81790000Y41840000D01*
X81790000Y44770000D02*
X81790000Y44380000D01*
X87500000Y35520000D02*
X80640000Y35520000D01*
X80640000Y35520000D02*
X78110000Y35520000D01*
X79630000Y45710000D02*
X80640000Y45710000D01*
X80640000Y45710000D02*
X85340000Y45710000D01*
X78110000Y35520000D02*
X78110000Y45710000D01*
X78110000Y35520000D02*
X75060000Y35520000D01*
X78110000Y45710000D02*
X79630000Y45710000D01*
X77850000Y41080000D02*
X75310000Y41080000D01*
X75310000Y41080000D02*
X75310000Y45150000D01*
X75310000Y45150000D02*
X77850000Y45150000D01*
X77850000Y45150000D02*
X77850000Y41080000D01*
X77850000Y40140000D02*
X75310000Y40140000D01*
X77850000Y40140000D02*
X77850000Y36080000D01*
X77850000Y36080000D02*
X75310000Y36080000D01*
X75310000Y40140000D02*
X75310000Y36080000D01*
X76830000Y41490000D02*
X76200000Y44540000D01*
X76960000Y41620000D02*
X76330000Y44660000D01*
X76830000Y36480000D02*
X76200000Y39540000D01*
X76960000Y36610000D02*
X76330000Y39660000D01*
X81030000Y36080000D02*
X81030000Y36460000D01*
X81030000Y40140000D02*
X81030000Y39760000D01*
X81030000Y39760000D02*
X81030000Y36460000D01*
X80640000Y35520000D02*
X80640000Y36460000D01*
X80640000Y36460000D02*
X80640000Y39760000D01*
X80640000Y39760000D02*
X80640000Y41460000D01*
X80640000Y45710000D02*
X80640000Y44770000D01*
X80640000Y44770000D02*
X80640000Y41460000D01*
X81030000Y45150000D02*
X81030000Y44770000D01*
X81030000Y41080000D02*
X81030000Y41460000D01*
X81030000Y41460000D02*
X81030000Y44770000D01*
X77203995Y44585532D02*
G75*
G03*
X76230000Y44640000I-513995J-455532D01*
G01*
X77111737Y41647667D02*
G75*
G03*
X77160000Y44630000I-1901737J1522333D01*
G01*
X76218313Y44638239D02*
G75*
G03*
X76280000Y41490000I1351687J-1548239D01*
G01*
X76221301Y41537028D02*
G75*
G03*
X77150000Y41680000I408699J432972D01*
G01*
X77193996Y39585620D02*
G75*
G03*
X76230000Y39630000I-503996J-455620D01*
G01*
X77121418Y36640171D02*
G75*
G03*
X77160000Y39630000I-1911418J1519829D01*
G01*
X76208466Y39639976D02*
G75*
G03*
X76280000Y36480000I1361534J-1549976D01*
G01*
X76221301Y36537028D02*
G75*
G03*
X77150000Y36680000I408699J432972D01*
G01*
%TO.C,J2*%
X21590000Y5080000D02*
X21590000Y1270000D01*
X21590000Y1270000D02*
X11430000Y1270000D01*
X11430000Y1270000D02*
X11430000Y6350000D01*
X11430000Y6350000D02*
X20320000Y6350000D01*
X20320000Y6350000D02*
X21590000Y5080000D01*
%TO.C,J3*%
X81030000Y26220000D02*
X81030000Y29530000D01*
X81030000Y25840000D02*
X81030000Y26220000D01*
X81030000Y29910000D02*
X81030000Y29530000D01*
X80640000Y29530000D02*
X80640000Y26220000D01*
X80640000Y30470000D02*
X80640000Y29530000D01*
X80640000Y24520000D02*
X80640000Y26220000D01*
X80640000Y21220000D02*
X80640000Y24520000D01*
X80640000Y20280000D02*
X80640000Y21220000D01*
X81030000Y24520000D02*
X81030000Y21220000D01*
X81030000Y24900000D02*
X81030000Y24520000D01*
X81030000Y20840000D02*
X81030000Y21220000D01*
X76960000Y21370000D02*
X76330000Y24420000D01*
X76830000Y21240000D02*
X76200000Y24300000D01*
X76960000Y26380000D02*
X76330000Y29420000D01*
X76830000Y26250000D02*
X76200000Y29300000D01*
X75310000Y24900000D02*
X75310000Y20840000D01*
X77850000Y20840000D02*
X75310000Y20840000D01*
X77850000Y24900000D02*
X77850000Y20840000D01*
X77850000Y24900000D02*
X75310000Y24900000D01*
X77850000Y29910000D02*
X77850000Y25840000D01*
X75310000Y29910000D02*
X77850000Y29910000D01*
X75310000Y25840000D02*
X75310000Y29910000D01*
X77850000Y25840000D02*
X75310000Y25840000D01*
X78110000Y30470000D02*
X79630000Y30470000D01*
X78110000Y20280000D02*
X75060000Y20280000D01*
X78110000Y20280000D02*
X78110000Y30470000D01*
X80640000Y30470000D02*
X85340000Y30470000D01*
X79630000Y30470000D02*
X80640000Y30470000D01*
X80640000Y20280000D02*
X78110000Y20280000D01*
X87500000Y20280000D02*
X80640000Y20280000D01*
X81790000Y29530000D02*
X81790000Y29140000D01*
X81790000Y26220000D02*
X81790000Y26600000D01*
X81790000Y24520000D02*
X81790000Y24140000D01*
X81790000Y21220000D02*
X81790000Y21600000D01*
X84960000Y21220000D02*
X81790000Y21220000D01*
X84960000Y24520000D02*
X84960000Y21220000D01*
X84960000Y24520000D02*
X81790000Y24520000D01*
X84960000Y26220000D02*
X81790000Y26220000D01*
X84960000Y29530000D02*
X84960000Y26220000D01*
X84960000Y29530000D02*
X81790000Y29530000D01*
X85600000Y20840000D02*
X87500000Y20840000D01*
X85600000Y24900000D02*
X81030000Y24900000D01*
X85600000Y24900000D02*
X85600000Y20840000D01*
X85600000Y29910000D02*
X87500000Y29910000D01*
X85600000Y25840000D02*
X81030000Y25840000D01*
X85600000Y25840000D02*
X85600000Y29910000D01*
X87500000Y20840000D02*
X87500000Y24900000D01*
X87500000Y20280000D02*
X87500000Y20840000D01*
X81030000Y20840000D02*
X85600000Y20840000D01*
X87500000Y24900000D02*
X87500000Y25840000D01*
X87500000Y24900000D02*
X85600000Y24900000D01*
X87500000Y29910000D02*
X87500000Y30470000D01*
X87500000Y25840000D02*
X87500000Y29910000D01*
X81030000Y29910000D02*
X85600000Y29910000D01*
X87500000Y25840000D02*
X85600000Y25840000D01*
X85090000Y30970000D02*
X86740000Y30970000D01*
X85340000Y30470000D02*
X86490000Y30470000D01*
X85090000Y30970000D02*
X85340000Y30470000D01*
X86490000Y30470000D02*
X87500000Y30470000D01*
X86740000Y30970000D02*
X86490000Y30470000D01*
X79880000Y30970000D02*
X79630000Y30470000D01*
X75060000Y30970000D02*
X79880000Y30970000D01*
X75060000Y30470000D02*
X75060000Y30970000D01*
X75060000Y30470000D02*
X75060000Y20280000D01*
X75060000Y30470000D02*
X78110000Y30470000D01*
X83820000Y26600000D02*
X81030000Y26600000D01*
X81030000Y26600000D02*
X81030000Y29140000D01*
X83820000Y29140000D02*
X81030000Y29140000D01*
X83820000Y26600000D02*
X83820000Y29140000D01*
X83820000Y21600000D02*
X81030000Y21600000D01*
X81030000Y21600000D02*
X81030000Y24140000D01*
X83820000Y24140000D02*
X81030000Y24140000D01*
X83820000Y21600000D02*
X83820000Y24140000D01*
X76221301Y21297028D02*
G75*
G03*
X77150000Y21440000I408699J432972D01*
G01*
X76208466Y24399976D02*
G75*
G03*
X76280000Y21240000I1361534J-1549976D01*
G01*
X77121418Y21400171D02*
G75*
G03*
X77160000Y24390000I-1911418J1519829D01*
G01*
X77193996Y24345620D02*
G75*
G03*
X76230000Y24390000I-503996J-455620D01*
G01*
X76221301Y26297028D02*
G75*
G03*
X77150000Y26440000I408699J432972D01*
G01*
X76218313Y29398239D02*
G75*
G03*
X76280000Y26250000I1351687J-1548239D01*
G01*
X77111737Y26407667D02*
G75*
G03*
X77160000Y29390000I-1901737J1522333D01*
G01*
X77203995Y29345532D02*
G75*
G03*
X76230000Y29400000I-513995J-455532D01*
G01*
%TO.C,R1*%
X52600000Y11900000D02*
X52600000Y13500000D01*
X52600000Y13500000D02*
X49000000Y13500000D01*
X49000000Y13500000D02*
X49000000Y11900000D01*
X49000000Y11900000D02*
X52600000Y11900000D01*
X54610000Y12700000D02*
X52600000Y12700000D01*
X46990000Y12700000D02*
X49000000Y12700000D01*
%TO.C,R2*%
X75670000Y18580000D02*
X75670000Y16980000D01*
X75670000Y16980000D02*
X79270000Y16980000D01*
X79270000Y16980000D02*
X79270000Y18580000D01*
X79270000Y18580000D02*
X75670000Y18580000D01*
X73660000Y17780000D02*
X75670000Y17780000D01*
X81280000Y17780000D02*
X79270000Y17780000D01*
%TO.C,R3*%
X21120000Y22120000D02*
X19520000Y22120000D01*
X19520000Y22120000D02*
X19520000Y18520000D01*
X19520000Y18520000D02*
X21120000Y18520000D01*
X21120000Y18520000D02*
X21120000Y22120000D01*
X20320000Y24130000D02*
X20320000Y22120000D01*
X20320000Y16510000D02*
X20320000Y18520000D01*
%TO.C,R4*%
X15240000Y45720000D02*
X15240000Y47730000D01*
X15240000Y53340000D02*
X15240000Y51330000D01*
X16040000Y47730000D02*
X16040000Y51330000D01*
X14440000Y47730000D02*
X16040000Y47730000D01*
X14440000Y51330000D02*
X14440000Y47730000D01*
X16040000Y51330000D02*
X14440000Y51330000D01*
%TO.C,RV1*%
X59830000Y1780000D02*
X64630000Y1780000D01*
X64630000Y1780000D02*
X64630000Y20780000D01*
X64630000Y20780000D02*
X59830000Y20780000D01*
X59830000Y20780000D02*
X59830000Y1780000D01*
X61050000Y260000D02*
X63410000Y260000D01*
X63410000Y260000D02*
X63410000Y1780000D01*
X63410000Y1780000D02*
X61050000Y1780000D01*
X61050000Y1780000D02*
X61050000Y260000D01*
X62230000Y260000D02*
X62230000Y1020000D01*
D11*
%TO.C,TP1*%
X48760000Y6350000D02*
G75*
G03*
X48760000Y6350000I-500000J0D01*
G01*
X49260000Y6350000D02*
G75*
G03*
X49260000Y6350000I-1000000J0D01*
G01*
%TO.C,TP2*%
X69580000Y27940000D02*
G75*
G03*
X69580000Y27940000I-1000000J0D01*
G01*
X69080000Y27940000D02*
G75*
G03*
X69080000Y27940000I-500000J0D01*
G01*
D10*
%TO.C,U1*%
X52860000Y9390000D02*
X52860000Y5890000D01*
X52856375Y5866375D02*
G75*
G03*
X57090000Y7620000I1753625J1753625D01*
G01*
X52856375Y9373625D02*
G75*
G02*
X57090000Y7620000I1753625J-1753625D01*
G01*
%TO.C,U2*%
X39385000Y7620000D02*
X25655000Y7620000D01*
X25655000Y7620000D02*
X25655000Y58420000D01*
X25655000Y58420000D02*
X40385000Y58420000D01*
X40385000Y58420000D02*
X40385000Y8620000D01*
X40385000Y8620000D02*
X39385000Y7620000D01*
X41910000Y7560000D02*
X41910000Y58480000D01*
X41910000Y58480000D02*
X24130000Y58480000D01*
X24130000Y58480000D02*
X24130000Y7560000D01*
X24130000Y7560000D02*
X41910000Y7560000D01*
%TO.C,U3*%
X60480000Y33520000D02*
X60480000Y30020000D01*
X60476375Y33503625D02*
G75*
G02*
X64710000Y31750000I1753625J-1753625D01*
G01*
X60476375Y29996375D02*
G75*
G03*
X64710000Y31750000I1753625J1753625D01*
G01*
%TO.C,U4*%
X47355000Y58420000D02*
X52705000Y58420000D01*
X52705000Y58420000D02*
X52705000Y40640000D01*
X52705000Y40640000D02*
X46355000Y40640000D01*
X46355000Y40640000D02*
X46355000Y57420000D01*
X46355000Y57420000D02*
X47355000Y58420000D01*
%TD*%
%TO.C,D1*%
D12*
X-134286Y33837620D02*
X-610477Y33837620D01*
X-610477Y34837620D01*
X199047Y34361429D02*
X532380Y34361429D01*
X675238Y33837620D02*
X199047Y33837620D01*
X199047Y34837620D01*
X675238Y34837620D01*
X1103809Y33837620D02*
X1103809Y34837620D01*
X1341904Y34837620D01*
X1484761Y34790000D01*
X1580000Y34694762D01*
X1627619Y34599524D01*
X1675238Y34409048D01*
X1675238Y34266191D01*
X1627619Y34075715D01*
X1580000Y33980477D01*
X1484761Y33885239D01*
X1341904Y33837620D01*
X1103809Y33837620D01*
X2103809Y34218572D02*
X2865714Y34218572D01*
X3341904Y33837620D02*
X3341904Y34837620D01*
X3580000Y34837620D01*
X3722857Y34790000D01*
X3818095Y34694762D01*
X3865714Y34599524D01*
X3913333Y34409048D01*
X3913333Y34266191D01*
X3865714Y34075715D01*
X3818095Y33980477D01*
X3722857Y33885239D01*
X3580000Y33837620D01*
X3341904Y33837620D01*
X4341904Y33837620D02*
X4341904Y34504286D01*
X4341904Y34837620D02*
X4294285Y34790000D01*
X4341904Y34742381D01*
X4389523Y34790000D01*
X4341904Y34837620D01*
X4341904Y34742381D01*
X4770476Y33885239D02*
X4865714Y33837620D01*
X5056190Y33837620D01*
X5151428Y33885239D01*
X5199047Y33980477D01*
X5199047Y34028096D01*
X5151428Y34123334D01*
X5056190Y34170953D01*
X4913333Y34170953D01*
X4818095Y34218572D01*
X4770476Y34313810D01*
X4770476Y34361429D01*
X4818095Y34456667D01*
X4913333Y34504286D01*
X5056190Y34504286D01*
X5151428Y34456667D01*
X5627619Y34504286D02*
X5627619Y33504286D01*
X5627619Y34456667D02*
X5722857Y34504286D01*
X5913333Y34504286D01*
X6008571Y34456667D01*
X6056190Y34409048D01*
X6103809Y34313810D01*
X6103809Y34028096D01*
X6056190Y33932858D01*
X6008571Y33885239D01*
X5913333Y33837620D01*
X5722857Y33837620D01*
X5627619Y33885239D01*
X6675238Y33837620D02*
X6580000Y33885239D01*
X6532380Y33980477D01*
X6532380Y34837620D01*
X7484761Y33837620D02*
X7484761Y34361429D01*
X7437142Y34456667D01*
X7341904Y34504286D01*
X7151428Y34504286D01*
X7056190Y34456667D01*
X7484761Y33885239D02*
X7389523Y33837620D01*
X7151428Y33837620D01*
X7056190Y33885239D01*
X7008571Y33980477D01*
X7008571Y34075715D01*
X7056190Y34170953D01*
X7151428Y34218572D01*
X7389523Y34218572D01*
X7484761Y34266191D01*
X7865714Y34504286D02*
X8103809Y33837620D01*
X8341904Y34504286D02*
X8103809Y33837620D01*
X8008571Y33599524D01*
X7960952Y33551905D01*
X7865714Y33504286D01*
X8484761Y33742381D02*
X9246666Y33742381D01*
X9389523Y33837620D02*
X9913333Y34504286D01*
X9389523Y34504286D02*
X9913333Y33837620D01*
X10722857Y34504286D02*
X10722857Y33837620D01*
X10484761Y34885239D02*
X10246666Y34170953D01*
X10865714Y34170953D01*
%TO.C,R8*%
X22025714Y8898096D02*
X22692380Y8898096D01*
X21644761Y8660000D02*
X22359047Y8421905D01*
X22359047Y9040953D01*
X21692380Y9326667D02*
X21692380Y9993334D01*
X22692380Y9564762D01*
X21692380Y10564762D02*
X21692380Y10660000D01*
X21740000Y10755239D01*
X21787619Y10802858D01*
X21882857Y10850477D01*
X22073333Y10898096D01*
X22311428Y10898096D01*
X22501904Y10850477D01*
X22597142Y10802858D01*
X22644761Y10755239D01*
X22692380Y10660000D01*
X22692380Y10564762D01*
X22644761Y10469524D01*
X22597142Y10421905D01*
X22501904Y10374286D01*
X22311428Y10326667D01*
X22073333Y10326667D01*
X21882857Y10374286D01*
X21787619Y10421905D01*
X21740000Y10469524D01*
X21692380Y10564762D01*
X22692380Y11898096D02*
X22216190Y11564762D01*
X22692380Y11326667D02*
X21692380Y11326667D01*
X21692380Y11707620D01*
X21740000Y11802858D01*
X21787619Y11850477D01*
X21882857Y11898096D01*
X22025714Y11898096D01*
X22120952Y11850477D01*
X22168571Y11802858D01*
X22216190Y11707620D01*
X22216190Y11326667D01*
X18852380Y9993334D02*
X18376190Y9660000D01*
X18852380Y9421905D02*
X17852380Y9421905D01*
X17852380Y9802858D01*
X17900000Y9898096D01*
X17947619Y9945715D01*
X18042857Y9993334D01*
X18185714Y9993334D01*
X18280952Y9945715D01*
X18328571Y9898096D01*
X18376190Y9802858D01*
X18376190Y9421905D01*
X18280952Y10564762D02*
X18233333Y10469524D01*
X18185714Y10421905D01*
X18090476Y10374286D01*
X18042857Y10374286D01*
X17947619Y10421905D01*
X17900000Y10469524D01*
X17852380Y10564762D01*
X17852380Y10755239D01*
X17900000Y10850477D01*
X17947619Y10898096D01*
X18042857Y10945715D01*
X18090476Y10945715D01*
X18185714Y10898096D01*
X18233333Y10850477D01*
X18280952Y10755239D01*
X18280952Y10564762D01*
X18328571Y10469524D01*
X18376190Y10421905D01*
X18471428Y10374286D01*
X18661904Y10374286D01*
X18757142Y10421905D01*
X18804761Y10469524D01*
X18852380Y10564762D01*
X18852380Y10755239D01*
X18804761Y10850477D01*
X18757142Y10898096D01*
X18661904Y10945715D01*
X18471428Y10945715D01*
X18376190Y10898096D01*
X18328571Y10850477D01*
X18280952Y10755239D01*
%TO.C,R7*%
X19485714Y8898096D02*
X20152380Y8898096D01*
X19104761Y8660000D02*
X19819047Y8421905D01*
X19819047Y9040953D01*
X19152380Y9326667D02*
X19152380Y9993334D01*
X20152380Y9564762D01*
X19152380Y10564762D02*
X19152380Y10660000D01*
X19200000Y10755239D01*
X19247619Y10802858D01*
X19342857Y10850477D01*
X19533333Y10898096D01*
X19771428Y10898096D01*
X19961904Y10850477D01*
X20057142Y10802858D01*
X20104761Y10755239D01*
X20152380Y10660000D01*
X20152380Y10564762D01*
X20104761Y10469524D01*
X20057142Y10421905D01*
X19961904Y10374286D01*
X19771428Y10326667D01*
X19533333Y10326667D01*
X19342857Y10374286D01*
X19247619Y10421905D01*
X19200000Y10469524D01*
X19152380Y10564762D01*
X20152380Y11898096D02*
X19676190Y11564762D01*
X20152380Y11326667D02*
X19152380Y11326667D01*
X19152380Y11707620D01*
X19200000Y11802858D01*
X19247619Y11850477D01*
X19342857Y11898096D01*
X19485714Y11898096D01*
X19580952Y11850477D01*
X19628571Y11802858D01*
X19676190Y11707620D01*
X19676190Y11326667D01*
X16312380Y9993334D02*
X15836190Y9660000D01*
X16312380Y9421905D02*
X15312380Y9421905D01*
X15312380Y9802858D01*
X15360000Y9898096D01*
X15407619Y9945715D01*
X15502857Y9993334D01*
X15645714Y9993334D01*
X15740952Y9945715D01*
X15788571Y9898096D01*
X15836190Y9802858D01*
X15836190Y9421905D01*
X15312380Y10326667D02*
X15312380Y10993334D01*
X16312380Y10564762D01*
%TO.C,R6*%
X16945714Y8898096D02*
X17612380Y8898096D01*
X16564761Y8660000D02*
X17279047Y8421905D01*
X17279047Y9040953D01*
X16612380Y9326667D02*
X16612380Y9993334D01*
X17612380Y9564762D01*
X16612380Y10564762D02*
X16612380Y10660000D01*
X16660000Y10755239D01*
X16707619Y10802858D01*
X16802857Y10850477D01*
X16993333Y10898096D01*
X17231428Y10898096D01*
X17421904Y10850477D01*
X17517142Y10802858D01*
X17564761Y10755239D01*
X17612380Y10660000D01*
X17612380Y10564762D01*
X17564761Y10469524D01*
X17517142Y10421905D01*
X17421904Y10374286D01*
X17231428Y10326667D01*
X16993333Y10326667D01*
X16802857Y10374286D01*
X16707619Y10421905D01*
X16660000Y10469524D01*
X16612380Y10564762D01*
X17612380Y11898096D02*
X17136190Y11564762D01*
X17612380Y11326667D02*
X16612380Y11326667D01*
X16612380Y11707620D01*
X16660000Y11802858D01*
X16707619Y11850477D01*
X16802857Y11898096D01*
X16945714Y11898096D01*
X17040952Y11850477D01*
X17088571Y11802858D01*
X17136190Y11707620D01*
X17136190Y11326667D01*
X13772380Y9993334D02*
X13296190Y9660000D01*
X13772380Y9421905D02*
X12772380Y9421905D01*
X12772380Y9802858D01*
X12820000Y9898096D01*
X12867619Y9945715D01*
X12962857Y9993334D01*
X13105714Y9993334D01*
X13200952Y9945715D01*
X13248571Y9898096D01*
X13296190Y9802858D01*
X13296190Y9421905D01*
X12772380Y10850477D02*
X12772380Y10660000D01*
X12820000Y10564762D01*
X12867619Y10517143D01*
X13010476Y10421905D01*
X13200952Y10374286D01*
X13581904Y10374286D01*
X13677142Y10421905D01*
X13724761Y10469524D01*
X13772380Y10564762D01*
X13772380Y10755239D01*
X13724761Y10850477D01*
X13677142Y10898096D01*
X13581904Y10945715D01*
X13343809Y10945715D01*
X13248571Y10898096D01*
X13200952Y10850477D01*
X13153333Y10755239D01*
X13153333Y10564762D01*
X13200952Y10469524D01*
X13248571Y10421905D01*
X13343809Y10374286D01*
%TO.C,R5*%
X14405714Y8898096D02*
X15072380Y8898096D01*
X14024761Y8660000D02*
X14739047Y8421905D01*
X14739047Y9040953D01*
X14072380Y9326667D02*
X14072380Y9993334D01*
X15072380Y9564762D01*
X14072380Y10564762D02*
X14072380Y10660000D01*
X14120000Y10755239D01*
X14167619Y10802858D01*
X14262857Y10850477D01*
X14453333Y10898096D01*
X14691428Y10898096D01*
X14881904Y10850477D01*
X14977142Y10802858D01*
X15024761Y10755239D01*
X15072380Y10660000D01*
X15072380Y10564762D01*
X15024761Y10469524D01*
X14977142Y10421905D01*
X14881904Y10374286D01*
X14691428Y10326667D01*
X14453333Y10326667D01*
X14262857Y10374286D01*
X14167619Y10421905D01*
X14120000Y10469524D01*
X14072380Y10564762D01*
X15072380Y11898096D02*
X14596190Y11564762D01*
X15072380Y11326667D02*
X14072380Y11326667D01*
X14072380Y11707620D01*
X14120000Y11802858D01*
X14167619Y11850477D01*
X14262857Y11898096D01*
X14405714Y11898096D01*
X14500952Y11850477D01*
X14548571Y11802858D01*
X14596190Y11707620D01*
X14596190Y11326667D01*
X11232380Y9993334D02*
X10756190Y9660000D01*
X11232380Y9421905D02*
X10232380Y9421905D01*
X10232380Y9802858D01*
X10280000Y9898096D01*
X10327619Y9945715D01*
X10422857Y9993334D01*
X10565714Y9993334D01*
X10660952Y9945715D01*
X10708571Y9898096D01*
X10756190Y9802858D01*
X10756190Y9421905D01*
X10232380Y10898096D02*
X10232380Y10421905D01*
X10708571Y10374286D01*
X10660952Y10421905D01*
X10613333Y10517143D01*
X10613333Y10755239D01*
X10660952Y10850477D01*
X10708571Y10898096D01*
X10803809Y10945715D01*
X11041904Y10945715D01*
X11137142Y10898096D01*
X11184761Y10850477D01*
X11232380Y10755239D01*
X11232380Y10517143D01*
X11184761Y10421905D01*
X11137142Y10374286D01*
%TO.C,C1*%
X18572380Y29400953D02*
X18572380Y28829524D01*
X18572380Y29115239D02*
X17572380Y29115239D01*
X17715238Y29020000D01*
X17810476Y28924762D01*
X17858095Y28829524D01*
X17572380Y30020000D02*
X17572380Y30115239D01*
X17620000Y30210477D01*
X17667619Y30258096D01*
X17762857Y30305715D01*
X17953333Y30353334D01*
X18191428Y30353334D01*
X18381904Y30305715D01*
X18477142Y30258096D01*
X18524761Y30210477D01*
X18572380Y30115239D01*
X18572380Y30020000D01*
X18524761Y29924762D01*
X18477142Y29877143D01*
X18381904Y29829524D01*
X18191428Y29781905D01*
X17953333Y29781905D01*
X17762857Y29829524D01*
X17667619Y29877143D01*
X17620000Y29924762D01*
X17572380Y30020000D01*
X17572380Y30972381D02*
X17572380Y31067620D01*
X17620000Y31162858D01*
X17667619Y31210477D01*
X17762857Y31258096D01*
X17953333Y31305715D01*
X18191428Y31305715D01*
X18381904Y31258096D01*
X18477142Y31210477D01*
X18524761Y31162858D01*
X18572380Y31067620D01*
X18572380Y30972381D01*
X18524761Y30877143D01*
X18477142Y30829524D01*
X18381904Y30781905D01*
X18191428Y30734286D01*
X17953333Y30734286D01*
X17762857Y30781905D01*
X17667619Y30829524D01*
X17620000Y30877143D01*
X17572380Y30972381D01*
X17905714Y31734286D02*
X18905714Y31734286D01*
X17953333Y31734286D02*
X17905714Y31829524D01*
X17905714Y32020000D01*
X17953333Y32115239D01*
X18000952Y32162858D01*
X18096190Y32210477D01*
X18381904Y32210477D01*
X18477142Y32162858D01*
X18524761Y32115239D01*
X18572380Y32020000D01*
X18572380Y31829524D01*
X18524761Y31734286D01*
D13*
X20627142Y30376667D02*
X20668095Y30335715D01*
X20709047Y30212858D01*
X20709047Y30130953D01*
X20668095Y30008096D01*
X20586190Y29926191D01*
X20504285Y29885239D01*
X20340476Y29844286D01*
X20217619Y29844286D01*
X20053809Y29885239D01*
X19971904Y29926191D01*
X19890000Y30008096D01*
X19849047Y30130953D01*
X19849047Y30212858D01*
X19890000Y30335715D01*
X19930952Y30376667D01*
X20709047Y31195715D02*
X20709047Y30704286D01*
X20709047Y30950000D02*
X19849047Y30950000D01*
X19971904Y30868096D01*
X20053809Y30786191D01*
X20094761Y30704286D01*
%TO.C,C2*%
D12*
X17272380Y46609524D02*
X17272380Y46704762D01*
X17320000Y46800000D01*
X17367619Y46847620D01*
X17462857Y46895239D01*
X17653333Y46942858D01*
X17891428Y46942858D01*
X18081904Y46895239D01*
X18177142Y46847620D01*
X18224761Y46800000D01*
X18272380Y46704762D01*
X18272380Y46609524D01*
X18224761Y46514286D01*
X18177142Y46466667D01*
X18081904Y46419048D01*
X17891428Y46371429D01*
X17653333Y46371429D01*
X17462857Y46419048D01*
X17367619Y46466667D01*
X17320000Y46514286D01*
X17272380Y46609524D01*
X18177142Y47371429D02*
X18224761Y47419048D01*
X18272380Y47371429D01*
X18224761Y47323810D01*
X18177142Y47371429D01*
X18272380Y47371429D01*
X17605714Y48276191D02*
X18272380Y48276191D01*
X17224761Y48038096D02*
X17939047Y47800000D01*
X17939047Y48419048D01*
X17272380Y48704762D02*
X17272380Y49371429D01*
X18272380Y48942858D01*
X17605714Y50180953D02*
X18272380Y50180953D01*
X17605714Y49752381D02*
X18129523Y49752381D01*
X18224761Y49800000D01*
X18272380Y49895239D01*
X18272380Y50038096D01*
X18224761Y50133334D01*
X18177142Y50180953D01*
X20677142Y48133334D02*
X20724761Y48085715D01*
X20772380Y47942858D01*
X20772380Y47847620D01*
X20724761Y47704762D01*
X20629523Y47609524D01*
X20534285Y47561905D01*
X20343809Y47514286D01*
X20200952Y47514286D01*
X20010476Y47561905D01*
X19915238Y47609524D01*
X19820000Y47704762D01*
X19772380Y47847620D01*
X19772380Y47942858D01*
X19820000Y48085715D01*
X19867619Y48133334D01*
X19867619Y48514286D02*
X19820000Y48561905D01*
X19772380Y48657143D01*
X19772380Y48895239D01*
X19820000Y48990477D01*
X19867619Y49038096D01*
X19962857Y49085715D01*
X20058095Y49085715D01*
X20200952Y49038096D01*
X20772380Y48466667D01*
X20772380Y49085715D01*
%TO.C,C3*%
X70532380Y18589524D02*
X70532380Y18684762D01*
X70580000Y18780000D01*
X70627619Y18827620D01*
X70722857Y18875239D01*
X70913333Y18922858D01*
X71151428Y18922858D01*
X71341904Y18875239D01*
X71437142Y18827620D01*
X71484761Y18780000D01*
X71532380Y18684762D01*
X71532380Y18589524D01*
X71484761Y18494286D01*
X71437142Y18446667D01*
X71341904Y18399048D01*
X71151428Y18351429D01*
X70913333Y18351429D01*
X70722857Y18399048D01*
X70627619Y18446667D01*
X70580000Y18494286D01*
X70532380Y18589524D01*
X71437142Y19351429D02*
X71484761Y19399048D01*
X71532380Y19351429D01*
X71484761Y19303810D01*
X71437142Y19351429D01*
X71532380Y19351429D01*
X70865714Y20256191D02*
X71532380Y20256191D01*
X70484761Y20018096D02*
X71199047Y19780000D01*
X71199047Y20399048D01*
X70532380Y20684762D02*
X70532380Y21351429D01*
X71532380Y20922858D01*
X70865714Y22160953D02*
X71532380Y22160953D01*
X70865714Y21732381D02*
X71389523Y21732381D01*
X71484761Y21780000D01*
X71532380Y21875239D01*
X71532380Y22018096D01*
X71484761Y22113334D01*
X71437142Y22160953D01*
X68937142Y20113334D02*
X68984761Y20065715D01*
X69032380Y19922858D01*
X69032380Y19827620D01*
X68984761Y19684762D01*
X68889523Y19589524D01*
X68794285Y19541905D01*
X68603809Y19494286D01*
X68460952Y19494286D01*
X68270476Y19541905D01*
X68175238Y19589524D01*
X68080000Y19684762D01*
X68032380Y19827620D01*
X68032380Y19922858D01*
X68080000Y20065715D01*
X68127619Y20113334D01*
X68032380Y20446667D02*
X68032380Y21065715D01*
X68413333Y20732381D01*
X68413333Y20875239D01*
X68460952Y20970477D01*
X68508571Y21018096D01*
X68603809Y21065715D01*
X68841904Y21065715D01*
X68937142Y21018096D01*
X68984761Y20970477D01*
X69032380Y20875239D01*
X69032380Y20589524D01*
X68984761Y20494286D01*
X68937142Y20446667D01*
%TO.C,C4*%
X17272380Y55499524D02*
X17272380Y55594762D01*
X17320000Y55690000D01*
X17367619Y55737620D01*
X17462857Y55785239D01*
X17653333Y55832858D01*
X17891428Y55832858D01*
X18081904Y55785239D01*
X18177142Y55737620D01*
X18224761Y55690000D01*
X18272380Y55594762D01*
X18272380Y55499524D01*
X18224761Y55404286D01*
X18177142Y55356667D01*
X18081904Y55309048D01*
X17891428Y55261429D01*
X17653333Y55261429D01*
X17462857Y55309048D01*
X17367619Y55356667D01*
X17320000Y55404286D01*
X17272380Y55499524D01*
X18177142Y56261429D02*
X18224761Y56309048D01*
X18272380Y56261429D01*
X18224761Y56213810D01*
X18177142Y56261429D01*
X18272380Y56261429D01*
X17367619Y56690000D02*
X17320000Y56737620D01*
X17272380Y56832858D01*
X17272380Y57070953D01*
X17320000Y57166191D01*
X17367619Y57213810D01*
X17462857Y57261429D01*
X17558095Y57261429D01*
X17700952Y57213810D01*
X18272380Y56642381D01*
X18272380Y57261429D01*
X17367619Y57642381D02*
X17320000Y57690000D01*
X17272380Y57785239D01*
X17272380Y58023334D01*
X17320000Y58118572D01*
X17367619Y58166191D01*
X17462857Y58213810D01*
X17558095Y58213810D01*
X17700952Y58166191D01*
X18272380Y57594762D01*
X18272380Y58213810D01*
X17605714Y59070953D02*
X18272380Y59070953D01*
X17605714Y58642381D02*
X18129523Y58642381D01*
X18224761Y58690000D01*
X18272380Y58785239D01*
X18272380Y58928096D01*
X18224761Y59023334D01*
X18177142Y59070953D01*
X20677142Y57023334D02*
X20724761Y56975715D01*
X20772380Y56832858D01*
X20772380Y56737620D01*
X20724761Y56594762D01*
X20629523Y56499524D01*
X20534285Y56451905D01*
X20343809Y56404286D01*
X20200952Y56404286D01*
X20010476Y56451905D01*
X19915238Y56499524D01*
X19820000Y56594762D01*
X19772380Y56737620D01*
X19772380Y56832858D01*
X19820000Y56975715D01*
X19867619Y57023334D01*
X20105714Y57880477D02*
X20772380Y57880477D01*
X19724761Y57642381D02*
X20439047Y57404286D01*
X20439047Y58023334D01*
%TO.C,C5*%
X22272380Y38115715D02*
X22272380Y38210953D01*
X22320000Y38306191D01*
X22367619Y38353810D01*
X22462857Y38401429D01*
X22653333Y38449048D01*
X22891428Y38449048D01*
X23081904Y38401429D01*
X23177142Y38353810D01*
X23224761Y38306191D01*
X23272380Y38210953D01*
X23272380Y38115715D01*
X23224761Y38020477D01*
X23177142Y37972858D01*
X23081904Y37925239D01*
X22891428Y37877620D01*
X22653333Y37877620D01*
X22462857Y37925239D01*
X22367619Y37972858D01*
X22320000Y38020477D01*
X22272380Y38115715D01*
X23177142Y38877620D02*
X23224761Y38925239D01*
X23272380Y38877620D01*
X23224761Y38830000D01*
X23177142Y38877620D01*
X23272380Y38877620D01*
X23272380Y39877620D02*
X23272380Y39306191D01*
X23272380Y39591905D02*
X22272380Y39591905D01*
X22415238Y39496667D01*
X22510476Y39401429D01*
X22558095Y39306191D01*
X22605714Y40734762D02*
X23272380Y40734762D01*
X22605714Y40306191D02*
X23129523Y40306191D01*
X23224761Y40353810D01*
X23272380Y40449048D01*
X23272380Y40591905D01*
X23224761Y40687143D01*
X23177142Y40734762D01*
X20677142Y39163334D02*
X20724761Y39115715D01*
X20772380Y38972858D01*
X20772380Y38877620D01*
X20724761Y38734762D01*
X20629523Y38639524D01*
X20534285Y38591905D01*
X20343809Y38544286D01*
X20200952Y38544286D01*
X20010476Y38591905D01*
X19915238Y38639524D01*
X19820000Y38734762D01*
X19772380Y38877620D01*
X19772380Y38972858D01*
X19820000Y39115715D01*
X19867619Y39163334D01*
X19772380Y40068096D02*
X19772380Y39591905D01*
X20248571Y39544286D01*
X20200952Y39591905D01*
X20153333Y39687143D01*
X20153333Y39925239D01*
X20200952Y40020477D01*
X20248571Y40068096D01*
X20343809Y40115715D01*
X20581904Y40115715D01*
X20677142Y40068096D01*
X20724761Y40020477D01*
X20772380Y39925239D01*
X20772380Y39687143D01*
X20724761Y39591905D01*
X20677142Y39544286D01*
%TO.C,C6*%
X79252380Y52240953D02*
X79252380Y51669524D01*
X79252380Y51955239D02*
X78252380Y51955239D01*
X78395238Y51860000D01*
X78490476Y51764762D01*
X78538095Y51669524D01*
X78252380Y52860000D02*
X78252380Y52955239D01*
X78300000Y53050477D01*
X78347619Y53098096D01*
X78442857Y53145715D01*
X78633333Y53193334D01*
X78871428Y53193334D01*
X79061904Y53145715D01*
X79157142Y53098096D01*
X79204761Y53050477D01*
X79252380Y52955239D01*
X79252380Y52860000D01*
X79204761Y52764762D01*
X79157142Y52717143D01*
X79061904Y52669524D01*
X78871428Y52621905D01*
X78633333Y52621905D01*
X78442857Y52669524D01*
X78347619Y52717143D01*
X78300000Y52764762D01*
X78252380Y52860000D01*
X78252380Y53812381D02*
X78252380Y53907620D01*
X78300000Y54002858D01*
X78347619Y54050477D01*
X78442857Y54098096D01*
X78633333Y54145715D01*
X78871428Y54145715D01*
X79061904Y54098096D01*
X79157142Y54050477D01*
X79204761Y54002858D01*
X79252380Y53907620D01*
X79252380Y53812381D01*
X79204761Y53717143D01*
X79157142Y53669524D01*
X79061904Y53621905D01*
X78871428Y53574286D01*
X78633333Y53574286D01*
X78442857Y53621905D01*
X78347619Y53669524D01*
X78300000Y53717143D01*
X78252380Y53812381D01*
X78585714Y55002858D02*
X79252380Y55002858D01*
X78585714Y54574286D02*
X79109523Y54574286D01*
X79204761Y54621905D01*
X79252380Y54717143D01*
X79252380Y54860000D01*
X79204761Y54955239D01*
X79157142Y55002858D01*
X82907142Y53193334D02*
X82954761Y53145715D01*
X83002380Y53002858D01*
X83002380Y52907620D01*
X82954761Y52764762D01*
X82859523Y52669524D01*
X82764285Y52621905D01*
X82573809Y52574286D01*
X82430952Y52574286D01*
X82240476Y52621905D01*
X82145238Y52669524D01*
X82050000Y52764762D01*
X82002380Y52907620D01*
X82002380Y53002858D01*
X82050000Y53145715D01*
X82097619Y53193334D01*
X82002380Y54050477D02*
X82002380Y53860000D01*
X82050000Y53764762D01*
X82097619Y53717143D01*
X82240476Y53621905D01*
X82430952Y53574286D01*
X82811904Y53574286D01*
X82907142Y53621905D01*
X82954761Y53669524D01*
X83002380Y53764762D01*
X83002380Y53955239D01*
X82954761Y54050477D01*
X82907142Y54098096D01*
X82811904Y54145715D01*
X82573809Y54145715D01*
X82478571Y54098096D01*
X82430952Y54050477D01*
X82383333Y53955239D01*
X82383333Y53764762D01*
X82430952Y53669524D01*
X82478571Y53621905D01*
X82573809Y53574286D01*
%TO.C,C7*%
X70342380Y53530953D02*
X70342380Y52959524D01*
X70342380Y53245239D02*
X69342380Y53245239D01*
X69485238Y53150000D01*
X69580476Y53054762D01*
X69628095Y52959524D01*
X69342380Y54150000D02*
X69342380Y54245239D01*
X69390000Y54340477D01*
X69437619Y54388096D01*
X69532857Y54435715D01*
X69723333Y54483334D01*
X69961428Y54483334D01*
X70151904Y54435715D01*
X70247142Y54388096D01*
X70294761Y54340477D01*
X70342380Y54245239D01*
X70342380Y54150000D01*
X70294761Y54054762D01*
X70247142Y54007143D01*
X70151904Y53959524D01*
X69961428Y53911905D01*
X69723333Y53911905D01*
X69532857Y53959524D01*
X69437619Y54007143D01*
X69390000Y54054762D01*
X69342380Y54150000D01*
X69342380Y55102381D02*
X69342380Y55197620D01*
X69390000Y55292858D01*
X69437619Y55340477D01*
X69532857Y55388096D01*
X69723333Y55435715D01*
X69961428Y55435715D01*
X70151904Y55388096D01*
X70247142Y55340477D01*
X70294761Y55292858D01*
X70342380Y55197620D01*
X70342380Y55102381D01*
X70294761Y55007143D01*
X70247142Y54959524D01*
X70151904Y54911905D01*
X69961428Y54864286D01*
X69723333Y54864286D01*
X69532857Y54911905D01*
X69437619Y54959524D01*
X69390000Y55007143D01*
X69342380Y55102381D01*
X69675714Y55864286D02*
X70342380Y55864286D01*
X69770952Y55864286D02*
X69723333Y55911905D01*
X69675714Y56007143D01*
X69675714Y56150000D01*
X69723333Y56245239D01*
X69818571Y56292858D01*
X70342380Y56292858D01*
X72747142Y54483334D02*
X72794761Y54435715D01*
X72842380Y54292858D01*
X72842380Y54197620D01*
X72794761Y54054762D01*
X72699523Y53959524D01*
X72604285Y53911905D01*
X72413809Y53864286D01*
X72270952Y53864286D01*
X72080476Y53911905D01*
X71985238Y53959524D01*
X71890000Y54054762D01*
X71842380Y54197620D01*
X71842380Y54292858D01*
X71890000Y54435715D01*
X71937619Y54483334D01*
X71842380Y54816667D02*
X71842380Y55483334D01*
X72842380Y55054762D01*
%TO.C,C8*%
X57542380Y30610953D02*
X57542380Y30039524D01*
X57542380Y30325239D02*
X56542380Y30325239D01*
X56685238Y30230000D01*
X56780476Y30134762D01*
X56828095Y30039524D01*
X56542380Y31230000D02*
X56542380Y31325239D01*
X56590000Y31420477D01*
X56637619Y31468096D01*
X56732857Y31515715D01*
X56923333Y31563334D01*
X57161428Y31563334D01*
X57351904Y31515715D01*
X57447142Y31468096D01*
X57494761Y31420477D01*
X57542380Y31325239D01*
X57542380Y31230000D01*
X57494761Y31134762D01*
X57447142Y31087143D01*
X57351904Y31039524D01*
X57161428Y30991905D01*
X56923333Y30991905D01*
X56732857Y31039524D01*
X56637619Y31087143D01*
X56590000Y31134762D01*
X56542380Y31230000D01*
X56542380Y32182381D02*
X56542380Y32277620D01*
X56590000Y32372858D01*
X56637619Y32420477D01*
X56732857Y32468096D01*
X56923333Y32515715D01*
X57161428Y32515715D01*
X57351904Y32468096D01*
X57447142Y32420477D01*
X57494761Y32372858D01*
X57542380Y32277620D01*
X57542380Y32182381D01*
X57494761Y32087143D01*
X57447142Y32039524D01*
X57351904Y31991905D01*
X57161428Y31944286D01*
X56923333Y31944286D01*
X56732857Y31991905D01*
X56637619Y32039524D01*
X56590000Y32087143D01*
X56542380Y32182381D01*
X56875714Y33372858D02*
X57542380Y33372858D01*
X56875714Y32944286D02*
X57399523Y32944286D01*
X57494761Y32991905D01*
X57542380Y33087143D01*
X57542380Y33230000D01*
X57494761Y33325239D01*
X57447142Y33372858D01*
X53697142Y31563334D02*
X53744761Y31515715D01*
X53792380Y31372858D01*
X53792380Y31277620D01*
X53744761Y31134762D01*
X53649523Y31039524D01*
X53554285Y30991905D01*
X53363809Y30944286D01*
X53220952Y30944286D01*
X53030476Y30991905D01*
X52935238Y31039524D01*
X52840000Y31134762D01*
X52792380Y31277620D01*
X52792380Y31372858D01*
X52840000Y31515715D01*
X52887619Y31563334D01*
X53220952Y32134762D02*
X53173333Y32039524D01*
X53125714Y31991905D01*
X53030476Y31944286D01*
X52982857Y31944286D01*
X52887619Y31991905D01*
X52840000Y32039524D01*
X52792380Y32134762D01*
X52792380Y32325239D01*
X52840000Y32420477D01*
X52887619Y32468096D01*
X52982857Y32515715D01*
X53030476Y32515715D01*
X53125714Y32468096D01*
X53173333Y32420477D01*
X53220952Y32325239D01*
X53220952Y32134762D01*
X53268571Y32039524D01*
X53316190Y31991905D01*
X53411428Y31944286D01*
X53601904Y31944286D01*
X53697142Y31991905D01*
X53744761Y32039524D01*
X53792380Y32134762D01*
X53792380Y32325239D01*
X53744761Y32420477D01*
X53697142Y32468096D01*
X53601904Y32515715D01*
X53411428Y32515715D01*
X53316190Y32468096D01*
X53268571Y32420477D01*
X53220952Y32325239D01*
%TO.C,C9*%
X48672380Y31860953D02*
X48672380Y31289524D01*
X48672380Y31575239D02*
X47672380Y31575239D01*
X47815238Y31480000D01*
X47910476Y31384762D01*
X47958095Y31289524D01*
X47672380Y32480000D02*
X47672380Y32575239D01*
X47720000Y32670477D01*
X47767619Y32718096D01*
X47862857Y32765715D01*
X48053333Y32813334D01*
X48291428Y32813334D01*
X48481904Y32765715D01*
X48577142Y32718096D01*
X48624761Y32670477D01*
X48672380Y32575239D01*
X48672380Y32480000D01*
X48624761Y32384762D01*
X48577142Y32337143D01*
X48481904Y32289524D01*
X48291428Y32241905D01*
X48053333Y32241905D01*
X47862857Y32289524D01*
X47767619Y32337143D01*
X47720000Y32384762D01*
X47672380Y32480000D01*
X47672380Y33432381D02*
X47672380Y33527620D01*
X47720000Y33622858D01*
X47767619Y33670477D01*
X47862857Y33718096D01*
X48053333Y33765715D01*
X48291428Y33765715D01*
X48481904Y33718096D01*
X48577142Y33670477D01*
X48624761Y33622858D01*
X48672380Y33527620D01*
X48672380Y33432381D01*
X48624761Y33337143D01*
X48577142Y33289524D01*
X48481904Y33241905D01*
X48291428Y33194286D01*
X48053333Y33194286D01*
X47862857Y33241905D01*
X47767619Y33289524D01*
X47720000Y33337143D01*
X47672380Y33432381D01*
X48005714Y34194286D02*
X48672380Y34194286D01*
X48100952Y34194286D02*
X48053333Y34241905D01*
X48005714Y34337143D01*
X48005714Y34480000D01*
X48053333Y34575239D01*
X48148571Y34622858D01*
X48672380Y34622858D01*
X46077142Y32813334D02*
X46124761Y32765715D01*
X46172380Y32622858D01*
X46172380Y32527620D01*
X46124761Y32384762D01*
X46029523Y32289524D01*
X45934285Y32241905D01*
X45743809Y32194286D01*
X45600952Y32194286D01*
X45410476Y32241905D01*
X45315238Y32289524D01*
X45220000Y32384762D01*
X45172380Y32527620D01*
X45172380Y32622858D01*
X45220000Y32765715D01*
X45267619Y32813334D01*
X46172380Y33289524D02*
X46172380Y33480000D01*
X46124761Y33575239D01*
X46077142Y33622858D01*
X45934285Y33718096D01*
X45743809Y33765715D01*
X45362857Y33765715D01*
X45267619Y33718096D01*
X45220000Y33670477D01*
X45172380Y33575239D01*
X45172380Y33384762D01*
X45220000Y33289524D01*
X45267619Y33241905D01*
X45362857Y33194286D01*
X45600952Y33194286D01*
X45696190Y33241905D01*
X45743809Y33289524D01*
X45791428Y33384762D01*
X45791428Y33575239D01*
X45743809Y33670477D01*
X45696190Y33718096D01*
X45600952Y33765715D01*
%TO.C,C10*%
X62992380Y52959524D02*
X62992380Y53054762D01*
X63040000Y53150000D01*
X63087619Y53197620D01*
X63182857Y53245239D01*
X63373333Y53292858D01*
X63611428Y53292858D01*
X63801904Y53245239D01*
X63897142Y53197620D01*
X63944761Y53150000D01*
X63992380Y53054762D01*
X63992380Y52959524D01*
X63944761Y52864286D01*
X63897142Y52816667D01*
X63801904Y52769048D01*
X63611428Y52721429D01*
X63373333Y52721429D01*
X63182857Y52769048D01*
X63087619Y52816667D01*
X63040000Y52864286D01*
X62992380Y52959524D01*
X63897142Y53721429D02*
X63944761Y53769048D01*
X63992380Y53721429D01*
X63944761Y53673810D01*
X63897142Y53721429D01*
X63992380Y53721429D01*
X63325714Y54626191D02*
X63992380Y54626191D01*
X62944761Y54388096D02*
X63659047Y54150000D01*
X63659047Y54769048D01*
X62992380Y55054762D02*
X62992380Y55721429D01*
X63992380Y55292858D01*
X63325714Y56530953D02*
X63992380Y56530953D01*
X63325714Y56102381D02*
X63849523Y56102381D01*
X63944761Y56150000D01*
X63992380Y56245239D01*
X63992380Y56388096D01*
X63944761Y56483334D01*
X63897142Y56530953D01*
X66397142Y54007143D02*
X66444761Y53959524D01*
X66492380Y53816667D01*
X66492380Y53721429D01*
X66444761Y53578572D01*
X66349523Y53483334D01*
X66254285Y53435715D01*
X66063809Y53388096D01*
X65920952Y53388096D01*
X65730476Y53435715D01*
X65635238Y53483334D01*
X65540000Y53578572D01*
X65492380Y53721429D01*
X65492380Y53816667D01*
X65540000Y53959524D01*
X65587619Y54007143D01*
X66492380Y54959524D02*
X66492380Y54388096D01*
X66492380Y54673810D02*
X65492380Y54673810D01*
X65635238Y54578572D01*
X65730476Y54483334D01*
X65778095Y54388096D01*
X65492380Y55578572D02*
X65492380Y55673810D01*
X65540000Y55769048D01*
X65587619Y55816667D01*
X65682857Y55864286D01*
X65873333Y55911905D01*
X66111428Y55911905D01*
X66301904Y55864286D01*
X66397142Y55816667D01*
X66444761Y55769048D01*
X66492380Y55673810D01*
X66492380Y55578572D01*
X66444761Y55483334D01*
X66397142Y55435715D01*
X66301904Y55388096D01*
X66111428Y55340477D01*
X65873333Y55340477D01*
X65682857Y55388096D01*
X65587619Y55435715D01*
X65540000Y55483334D01*
X65492380Y55578572D01*
%TO.C,C11*%
X59027142Y38977620D02*
X58455714Y38977620D01*
X58741428Y38977620D02*
X58741428Y39977620D01*
X58646190Y39834762D01*
X58550952Y39739524D01*
X58455714Y39691905D01*
X59646190Y39977620D02*
X59741428Y39977620D01*
X59836666Y39930000D01*
X59884285Y39882381D01*
X59931904Y39787143D01*
X59979523Y39596667D01*
X59979523Y39358572D01*
X59931904Y39168096D01*
X59884285Y39072858D01*
X59836666Y39025239D01*
X59741428Y38977620D01*
X59646190Y38977620D01*
X59550952Y39025239D01*
X59503333Y39072858D01*
X59455714Y39168096D01*
X59408095Y39358572D01*
X59408095Y39596667D01*
X59455714Y39787143D01*
X59503333Y39882381D01*
X59550952Y39930000D01*
X59646190Y39977620D01*
X60836666Y39644286D02*
X60836666Y38977620D01*
X60408095Y39644286D02*
X60408095Y39120477D01*
X60455714Y39025239D01*
X60550952Y38977620D01*
X60693809Y38977620D01*
X60789047Y39025239D01*
X60836666Y39072858D01*
X59027142Y42822858D02*
X58979523Y42775239D01*
X58836666Y42727620D01*
X58741428Y42727620D01*
X58598571Y42775239D01*
X58503333Y42870477D01*
X58455714Y42965715D01*
X58408095Y43156191D01*
X58408095Y43299048D01*
X58455714Y43489524D01*
X58503333Y43584762D01*
X58598571Y43680000D01*
X58741428Y43727620D01*
X58836666Y43727620D01*
X58979523Y43680000D01*
X59027142Y43632381D01*
X59979523Y42727620D02*
X59408095Y42727620D01*
X59693809Y42727620D02*
X59693809Y43727620D01*
X59598571Y43584762D01*
X59503333Y43489524D01*
X59408095Y43441905D01*
X60931904Y42727620D02*
X60360476Y42727620D01*
X60646190Y42727620D02*
X60646190Y43727620D01*
X60550952Y43584762D01*
X60455714Y43489524D01*
X60360476Y43441905D01*
%TO.C,D3*%
X64022380Y41037143D02*
X64022380Y40465715D01*
X64022380Y40751429D02*
X63022380Y40751429D01*
X63165238Y40656191D01*
X63260476Y40560953D01*
X63308095Y40465715D01*
X64022380Y41465715D02*
X63022380Y41465715D01*
X64022380Y42037143D01*
X63022380Y42037143D01*
X63355714Y42941905D02*
X64022380Y42941905D01*
X62974761Y42703810D02*
X63689047Y42465715D01*
X63689047Y43084762D01*
X63022380Y43656191D02*
X63022380Y43751429D01*
X63070000Y43846667D01*
X63117619Y43894286D01*
X63212857Y43941905D01*
X63403333Y43989524D01*
X63641428Y43989524D01*
X63831904Y43941905D01*
X63927142Y43894286D01*
X63974761Y43846667D01*
X64022380Y43751429D01*
X64022380Y43656191D01*
X63974761Y43560953D01*
X63927142Y43513334D01*
X63831904Y43465715D01*
X63641428Y43418096D01*
X63403333Y43418096D01*
X63212857Y43465715D01*
X63117619Y43513334D01*
X63070000Y43560953D01*
X63022380Y43656191D01*
X63022380Y44608572D02*
X63022380Y44703810D01*
X63070000Y44799048D01*
X63117619Y44846667D01*
X63212857Y44894286D01*
X63403333Y44941905D01*
X63641428Y44941905D01*
X63831904Y44894286D01*
X63927142Y44846667D01*
X63974761Y44799048D01*
X64022380Y44703810D01*
X64022380Y44608572D01*
X63974761Y44513334D01*
X63927142Y44465715D01*
X63831904Y44418096D01*
X63641428Y44370477D01*
X63403333Y44370477D01*
X63212857Y44418096D01*
X63117619Y44465715D01*
X63070000Y44513334D01*
X63022380Y44608572D01*
X64022380Y45894286D02*
X64022380Y45322858D01*
X64022380Y45608572D02*
X63022380Y45608572D01*
X63165238Y45513334D01*
X63260476Y45418096D01*
X63308095Y45322858D01*
X68592380Y47998096D02*
X67592380Y47998096D01*
X68592380Y48569524D02*
X68020952Y48140953D01*
X67592380Y48569524D02*
X68163809Y47998096D01*
X66492380Y42051905D02*
X65492380Y42051905D01*
X65492380Y42290000D01*
X65540000Y42432858D01*
X65635238Y42528096D01*
X65730476Y42575715D01*
X65920952Y42623334D01*
X66063809Y42623334D01*
X66254285Y42575715D01*
X66349523Y42528096D01*
X66444761Y42432858D01*
X66492380Y42290000D01*
X66492380Y42051905D01*
X65492380Y42956667D02*
X65492380Y43575715D01*
X65873333Y43242381D01*
X65873333Y43385239D01*
X65920952Y43480477D01*
X65968571Y43528096D01*
X66063809Y43575715D01*
X66301904Y43575715D01*
X66397142Y43528096D01*
X66444761Y43480477D01*
X66492380Y43385239D01*
X66492380Y43099524D01*
X66444761Y43004286D01*
X66397142Y42956667D01*
%TO.C,D4*%
X14367142Y61847620D02*
X13795714Y61847620D01*
X14081428Y61847620D02*
X14081428Y62847620D01*
X13986190Y62704762D01*
X13890952Y62609524D01*
X13795714Y62561905D01*
X14795714Y61847620D02*
X14795714Y62847620D01*
X15367142Y61847620D01*
X15367142Y62847620D01*
X16271904Y62514286D02*
X16271904Y61847620D01*
X16033809Y62895239D02*
X15795714Y62180953D01*
X16414761Y62180953D01*
X16986190Y62847620D02*
X17081428Y62847620D01*
X17176666Y62800000D01*
X17224285Y62752381D01*
X17271904Y62657143D01*
X17319523Y62466667D01*
X17319523Y62228572D01*
X17271904Y62038096D01*
X17224285Y61942858D01*
X17176666Y61895239D01*
X17081428Y61847620D01*
X16986190Y61847620D01*
X16890952Y61895239D01*
X16843333Y61942858D01*
X16795714Y62038096D01*
X16748095Y62228572D01*
X16748095Y62466667D01*
X16795714Y62657143D01*
X16843333Y62752381D01*
X16890952Y62800000D01*
X16986190Y62847620D01*
X17938571Y62847620D02*
X18033809Y62847620D01*
X18129047Y62800000D01*
X18176666Y62752381D01*
X18224285Y62657143D01*
X18271904Y62466667D01*
X18271904Y62228572D01*
X18224285Y62038096D01*
X18176666Y61942858D01*
X18129047Y61895239D01*
X18033809Y61847620D01*
X17938571Y61847620D01*
X17843333Y61895239D01*
X17795714Y61942858D01*
X17748095Y62038096D01*
X17700476Y62228572D01*
X17700476Y62466667D01*
X17748095Y62657143D01*
X17795714Y62752381D01*
X17843333Y62800000D01*
X17938571Y62847620D01*
X19224285Y61847620D02*
X18652857Y61847620D01*
X18938571Y61847620D02*
X18938571Y62847620D01*
X18843333Y62704762D01*
X18748095Y62609524D01*
X18652857Y62561905D01*
X11168095Y66417620D02*
X11168095Y67417620D01*
X11739523Y66417620D02*
X11310952Y66989048D01*
X11739523Y67417620D02*
X11168095Y66846191D01*
X16161904Y64317620D02*
X16161904Y65317620D01*
X16400000Y65317620D01*
X16542857Y65270000D01*
X16638095Y65174762D01*
X16685714Y65079524D01*
X16733333Y64889048D01*
X16733333Y64746191D01*
X16685714Y64555715D01*
X16638095Y64460477D01*
X16542857Y64365239D01*
X16400000Y64317620D01*
X16161904Y64317620D01*
X17590476Y64984286D02*
X17590476Y64317620D01*
X17352380Y65365239D02*
X17114285Y64650953D01*
X17733333Y64650953D01*
%TO.C,D5*%
X28337142Y61847620D02*
X27765714Y61847620D01*
X28051428Y61847620D02*
X28051428Y62847620D01*
X27956190Y62704762D01*
X27860952Y62609524D01*
X27765714Y62561905D01*
X28765714Y61847620D02*
X28765714Y62847620D01*
X29337142Y61847620D01*
X29337142Y62847620D01*
X30241904Y62514286D02*
X30241904Y61847620D01*
X30003809Y62895239D02*
X29765714Y62180953D01*
X30384761Y62180953D01*
X30956190Y62847620D02*
X31051428Y62847620D01*
X31146666Y62800000D01*
X31194285Y62752381D01*
X31241904Y62657143D01*
X31289523Y62466667D01*
X31289523Y62228572D01*
X31241904Y62038096D01*
X31194285Y61942858D01*
X31146666Y61895239D01*
X31051428Y61847620D01*
X30956190Y61847620D01*
X30860952Y61895239D01*
X30813333Y61942858D01*
X30765714Y62038096D01*
X30718095Y62228572D01*
X30718095Y62466667D01*
X30765714Y62657143D01*
X30813333Y62752381D01*
X30860952Y62800000D01*
X30956190Y62847620D01*
X31908571Y62847620D02*
X32003809Y62847620D01*
X32099047Y62800000D01*
X32146666Y62752381D01*
X32194285Y62657143D01*
X32241904Y62466667D01*
X32241904Y62228572D01*
X32194285Y62038096D01*
X32146666Y61942858D01*
X32099047Y61895239D01*
X32003809Y61847620D01*
X31908571Y61847620D01*
X31813333Y61895239D01*
X31765714Y61942858D01*
X31718095Y62038096D01*
X31670476Y62228572D01*
X31670476Y62466667D01*
X31718095Y62657143D01*
X31765714Y62752381D01*
X31813333Y62800000D01*
X31908571Y62847620D01*
X33194285Y61847620D02*
X32622857Y61847620D01*
X32908571Y61847620D02*
X32908571Y62847620D01*
X32813333Y62704762D01*
X32718095Y62609524D01*
X32622857Y62561905D01*
X30131904Y64317620D02*
X30131904Y65317620D01*
X30370000Y65317620D01*
X30512857Y65270000D01*
X30608095Y65174762D01*
X30655714Y65079524D01*
X30703333Y64889048D01*
X30703333Y64746191D01*
X30655714Y64555715D01*
X30608095Y64460477D01*
X30512857Y64365239D01*
X30370000Y64317620D01*
X30131904Y64317620D01*
X31608095Y65317620D02*
X31131904Y65317620D01*
X31084285Y64841429D01*
X31131904Y64889048D01*
X31227142Y64936667D01*
X31465238Y64936667D01*
X31560476Y64889048D01*
X31608095Y64841429D01*
X31655714Y64746191D01*
X31655714Y64508096D01*
X31608095Y64412858D01*
X31560476Y64365239D01*
X31465238Y64317620D01*
X31227142Y64317620D01*
X31131904Y64365239D01*
X31084285Y64412858D01*
X25138095Y66417620D02*
X25138095Y67417620D01*
X25709523Y66417620D02*
X25280952Y66989048D01*
X25709523Y67417620D02*
X25138095Y66846191D01*
%TO.C,D6*%
X42307142Y61847620D02*
X41735714Y61847620D01*
X42021428Y61847620D02*
X42021428Y62847620D01*
X41926190Y62704762D01*
X41830952Y62609524D01*
X41735714Y62561905D01*
X42735714Y61847620D02*
X42735714Y62847620D01*
X43307142Y61847620D01*
X43307142Y62847620D01*
X44211904Y62514286D02*
X44211904Y61847620D01*
X43973809Y62895239D02*
X43735714Y62180953D01*
X44354761Y62180953D01*
X44926190Y62847620D02*
X45021428Y62847620D01*
X45116666Y62800000D01*
X45164285Y62752381D01*
X45211904Y62657143D01*
X45259523Y62466667D01*
X45259523Y62228572D01*
X45211904Y62038096D01*
X45164285Y61942858D01*
X45116666Y61895239D01*
X45021428Y61847620D01*
X44926190Y61847620D01*
X44830952Y61895239D01*
X44783333Y61942858D01*
X44735714Y62038096D01*
X44688095Y62228572D01*
X44688095Y62466667D01*
X44735714Y62657143D01*
X44783333Y62752381D01*
X44830952Y62800000D01*
X44926190Y62847620D01*
X45878571Y62847620D02*
X45973809Y62847620D01*
X46069047Y62800000D01*
X46116666Y62752381D01*
X46164285Y62657143D01*
X46211904Y62466667D01*
X46211904Y62228572D01*
X46164285Y62038096D01*
X46116666Y61942858D01*
X46069047Y61895239D01*
X45973809Y61847620D01*
X45878571Y61847620D01*
X45783333Y61895239D01*
X45735714Y61942858D01*
X45688095Y62038096D01*
X45640476Y62228572D01*
X45640476Y62466667D01*
X45688095Y62657143D01*
X45735714Y62752381D01*
X45783333Y62800000D01*
X45878571Y62847620D01*
X47164285Y61847620D02*
X46592857Y61847620D01*
X46878571Y61847620D02*
X46878571Y62847620D01*
X46783333Y62704762D01*
X46688095Y62609524D01*
X46592857Y62561905D01*
X44101904Y64317620D02*
X44101904Y65317620D01*
X44340000Y65317620D01*
X44482857Y65270000D01*
X44578095Y65174762D01*
X44625714Y65079524D01*
X44673333Y64889048D01*
X44673333Y64746191D01*
X44625714Y64555715D01*
X44578095Y64460477D01*
X44482857Y64365239D01*
X44340000Y64317620D01*
X44101904Y64317620D01*
X45530476Y65317620D02*
X45340000Y65317620D01*
X45244761Y65270000D01*
X45197142Y65222381D01*
X45101904Y65079524D01*
X45054285Y64889048D01*
X45054285Y64508096D01*
X45101904Y64412858D01*
X45149523Y64365239D01*
X45244761Y64317620D01*
X45435238Y64317620D01*
X45530476Y64365239D01*
X45578095Y64412858D01*
X45625714Y64508096D01*
X45625714Y64746191D01*
X45578095Y64841429D01*
X45530476Y64889048D01*
X45435238Y64936667D01*
X45244761Y64936667D01*
X45149523Y64889048D01*
X45101904Y64841429D01*
X45054285Y64746191D01*
X39108095Y66417620D02*
X39108095Y67417620D01*
X39679523Y66417620D02*
X39250952Y66989048D01*
X39679523Y67417620D02*
X39108095Y66846191D01*
%TO.C,D7*%
X56277142Y61847620D02*
X55705714Y61847620D01*
X55991428Y61847620D02*
X55991428Y62847620D01*
X55896190Y62704762D01*
X55800952Y62609524D01*
X55705714Y62561905D01*
X56705714Y61847620D02*
X56705714Y62847620D01*
X57277142Y61847620D01*
X57277142Y62847620D01*
X58181904Y62514286D02*
X58181904Y61847620D01*
X57943809Y62895239D02*
X57705714Y62180953D01*
X58324761Y62180953D01*
X58896190Y62847620D02*
X58991428Y62847620D01*
X59086666Y62800000D01*
X59134285Y62752381D01*
X59181904Y62657143D01*
X59229523Y62466667D01*
X59229523Y62228572D01*
X59181904Y62038096D01*
X59134285Y61942858D01*
X59086666Y61895239D01*
X58991428Y61847620D01*
X58896190Y61847620D01*
X58800952Y61895239D01*
X58753333Y61942858D01*
X58705714Y62038096D01*
X58658095Y62228572D01*
X58658095Y62466667D01*
X58705714Y62657143D01*
X58753333Y62752381D01*
X58800952Y62800000D01*
X58896190Y62847620D01*
X59848571Y62847620D02*
X59943809Y62847620D01*
X60039047Y62800000D01*
X60086666Y62752381D01*
X60134285Y62657143D01*
X60181904Y62466667D01*
X60181904Y62228572D01*
X60134285Y62038096D01*
X60086666Y61942858D01*
X60039047Y61895239D01*
X59943809Y61847620D01*
X59848571Y61847620D01*
X59753333Y61895239D01*
X59705714Y61942858D01*
X59658095Y62038096D01*
X59610476Y62228572D01*
X59610476Y62466667D01*
X59658095Y62657143D01*
X59705714Y62752381D01*
X59753333Y62800000D01*
X59848571Y62847620D01*
X61134285Y61847620D02*
X60562857Y61847620D01*
X60848571Y61847620D02*
X60848571Y62847620D01*
X60753333Y62704762D01*
X60658095Y62609524D01*
X60562857Y62561905D01*
X58071904Y64317620D02*
X58071904Y65317620D01*
X58310000Y65317620D01*
X58452857Y65270000D01*
X58548095Y65174762D01*
X58595714Y65079524D01*
X58643333Y64889048D01*
X58643333Y64746191D01*
X58595714Y64555715D01*
X58548095Y64460477D01*
X58452857Y64365239D01*
X58310000Y64317620D01*
X58071904Y64317620D01*
X58976666Y65317620D02*
X59643333Y65317620D01*
X59214761Y64317620D01*
X53078095Y66417620D02*
X53078095Y67417620D01*
X53649523Y66417620D02*
X53220952Y66989048D01*
X53649523Y67417620D02*
X53078095Y66846191D01*
%TO.C,D2*%
X60992380Y51673334D02*
X60992380Y51101905D01*
X60992380Y51387620D02*
X59992380Y51387620D01*
X60135238Y51292381D01*
X60230476Y51197143D01*
X60278095Y51101905D01*
X60992380Y52101905D02*
X59992380Y52101905D01*
X60992380Y52673334D01*
X59992380Y52673334D01*
X60992380Y53197143D02*
X60992380Y53387620D01*
X60944761Y53482858D01*
X60897142Y53530477D01*
X60754285Y53625715D01*
X60563809Y53673334D01*
X60182857Y53673334D01*
X60087619Y53625715D01*
X60040000Y53578096D01*
X59992380Y53482858D01*
X59992380Y53292381D01*
X60040000Y53197143D01*
X60087619Y53149524D01*
X60182857Y53101905D01*
X60420952Y53101905D01*
X60516190Y53149524D01*
X60563809Y53197143D01*
X60611428Y53292381D01*
X60611428Y53482858D01*
X60563809Y53578096D01*
X60516190Y53625715D01*
X60420952Y53673334D01*
X60992380Y54625715D02*
X60992380Y54054286D01*
X60992380Y54340000D02*
X59992380Y54340000D01*
X60135238Y54244762D01*
X60230476Y54149524D01*
X60278095Y54054286D01*
X60325714Y55482858D02*
X60992380Y55482858D01*
X59944761Y55244762D02*
X60659047Y55006667D01*
X60659047Y55625715D01*
X57072380Y49268096D02*
X56072380Y49268096D01*
X57072380Y49839524D02*
X56500952Y49410953D01*
X56072380Y49839524D02*
X56643809Y49268096D01*
D11*
X58781904Y53049524D02*
X57981904Y53049524D01*
X57981904Y53240000D01*
X58020000Y53354286D01*
X58096190Y53430477D01*
X58172380Y53468572D01*
X58324761Y53506667D01*
X58439047Y53506667D01*
X58591428Y53468572D01*
X58667619Y53430477D01*
X58743809Y53354286D01*
X58781904Y53240000D01*
X58781904Y53049524D01*
X58058095Y53811429D02*
X58020000Y53849524D01*
X57981904Y53925715D01*
X57981904Y54116191D01*
X58020000Y54192381D01*
X58058095Y54230477D01*
X58134285Y54268572D01*
X58210476Y54268572D01*
X58324761Y54230477D01*
X58781904Y53773334D01*
X58781904Y54268572D01*
%TO.C,D8*%
D12*
X60562380Y51673334D02*
X60562380Y51101905D01*
X60562380Y51387620D02*
X59562380Y51387620D01*
X59705238Y51292381D01*
X59800476Y51197143D01*
X59848095Y51101905D01*
X60562380Y52101905D02*
X59562380Y52101905D01*
X60562380Y52673334D01*
X59562380Y52673334D01*
X60562380Y53197143D02*
X60562380Y53387620D01*
X60514761Y53482858D01*
X60467142Y53530477D01*
X60324285Y53625715D01*
X60133809Y53673334D01*
X59752857Y53673334D01*
X59657619Y53625715D01*
X59610000Y53578096D01*
X59562380Y53482858D01*
X59562380Y53292381D01*
X59610000Y53197143D01*
X59657619Y53149524D01*
X59752857Y53101905D01*
X59990952Y53101905D01*
X60086190Y53149524D01*
X60133809Y53197143D01*
X60181428Y53292381D01*
X60181428Y53482858D01*
X60133809Y53578096D01*
X60086190Y53625715D01*
X59990952Y53673334D01*
X60562380Y54625715D02*
X60562380Y54054286D01*
X60562380Y54340000D02*
X59562380Y54340000D01*
X59705238Y54244762D01*
X59800476Y54149524D01*
X59848095Y54054286D01*
X59895714Y55482858D02*
X60562380Y55482858D01*
X59514761Y55244762D02*
X60229047Y55006667D01*
X60229047Y55625715D01*
D11*
X62591904Y52449524D02*
X61791904Y52449524D01*
X61791904Y52640000D01*
X61830000Y52754286D01*
X61906190Y52830477D01*
X61982380Y52868572D01*
X62134761Y52906667D01*
X62249047Y52906667D01*
X62401428Y52868572D01*
X62477619Y52830477D01*
X62553809Y52754286D01*
X62591904Y52640000D01*
X62591904Y52449524D01*
X62134761Y53363810D02*
X62096666Y53287620D01*
X62058571Y53249524D01*
X61982380Y53211429D01*
X61944285Y53211429D01*
X61868095Y53249524D01*
X61830000Y53287620D01*
X61791904Y53363810D01*
X61791904Y53516191D01*
X61830000Y53592381D01*
X61868095Y53630477D01*
X61944285Y53668572D01*
X61982380Y53668572D01*
X62058571Y53630477D01*
X62096666Y53592381D01*
X62134761Y53516191D01*
X62134761Y53363810D01*
X62172857Y53287620D01*
X62210952Y53249524D01*
X62287142Y53211429D01*
X62439523Y53211429D01*
X62515714Y53249524D01*
X62553809Y53287620D01*
X62591904Y53363810D01*
X62591904Y53516191D01*
X62553809Y53592381D01*
X62515714Y53630477D01*
X62439523Y53668572D01*
X62287142Y53668572D01*
X62210952Y53630477D01*
X62172857Y53592381D01*
X62134761Y53516191D01*
D12*
X64482380Y56888096D02*
X63482380Y56888096D01*
X64482380Y57459524D02*
X63910952Y57030953D01*
X63482380Y57459524D02*
X64053809Y56888096D01*
%TO.C,J1*%
X73731428Y36546667D02*
X73731428Y37308572D01*
X74112380Y36927620D02*
X73350476Y36927620D01*
X74112380Y37832381D02*
X74112380Y38022858D01*
X74064761Y38118096D01*
X74017142Y38165715D01*
X73874285Y38260953D01*
X73683809Y38308572D01*
X73302857Y38308572D01*
X73207619Y38260953D01*
X73160000Y38213334D01*
X73112380Y38118096D01*
X73112380Y37927620D01*
X73160000Y37832381D01*
X73207619Y37784762D01*
X73302857Y37737143D01*
X73540952Y37737143D01*
X73636190Y37784762D01*
X73683809Y37832381D01*
X73731428Y37927620D01*
X73731428Y38118096D01*
X73683809Y38213334D01*
X73636190Y38260953D01*
X73540952Y38308572D01*
X74017142Y38737143D02*
X74064761Y38784762D01*
X74112380Y38737143D01*
X74064761Y38689524D01*
X74017142Y38737143D01*
X74112380Y38737143D01*
X74017142Y39213334D02*
X74064761Y39260953D01*
X74112380Y39213334D01*
X74064761Y39165715D01*
X74017142Y39213334D01*
X74112380Y39213334D01*
X74017142Y39689524D02*
X74064761Y39737143D01*
X74112380Y39689524D01*
X74064761Y39641905D01*
X74017142Y39689524D01*
X74112380Y39689524D01*
X74112380Y40689524D02*
X74112380Y40118096D01*
X74112380Y40403810D02*
X73112380Y40403810D01*
X73255238Y40308572D01*
X73350476Y40213334D01*
X73398095Y40118096D01*
X73207619Y41070477D02*
X73160000Y41118096D01*
X73112380Y41213334D01*
X73112380Y41451429D01*
X73160000Y41546667D01*
X73207619Y41594286D01*
X73302857Y41641905D01*
X73398095Y41641905D01*
X73540952Y41594286D01*
X74112380Y41022858D01*
X74112380Y41641905D01*
X73112380Y41927620D02*
X74112380Y42260953D01*
X73112380Y42594286D01*
X74112380Y43689524D02*
X73112380Y43689524D01*
X73112380Y43927620D01*
X73160000Y44070477D01*
X73255238Y44165715D01*
X73350476Y44213334D01*
X73540952Y44260953D01*
X73683809Y44260953D01*
X73874285Y44213334D01*
X73969523Y44165715D01*
X74064761Y44070477D01*
X74112380Y43927620D01*
X74112380Y43689524D01*
X74017142Y45260953D02*
X74064761Y45213334D01*
X74112380Y45070477D01*
X74112380Y44975239D01*
X74064761Y44832381D01*
X73969523Y44737143D01*
X73874285Y44689524D01*
X73683809Y44641905D01*
X73540952Y44641905D01*
X73350476Y44689524D01*
X73255238Y44737143D01*
X73160000Y44832381D01*
X73112380Y44975239D01*
X73112380Y45070477D01*
X73160000Y45213334D01*
X73207619Y45260953D01*
X78732380Y40266667D02*
X79446666Y40266667D01*
X79589523Y40219048D01*
X79684761Y40123810D01*
X79732380Y39980953D01*
X79732380Y39885715D01*
X79732380Y41266667D02*
X79732380Y40695239D01*
X79732380Y40980953D02*
X78732380Y40980953D01*
X78875238Y40885715D01*
X78970476Y40790477D01*
X79018095Y40695239D01*
%TO.C,J2*%
X10822380Y643334D02*
X9822380Y643334D01*
X9822380Y881429D01*
X9870000Y1024286D01*
X9965238Y1119524D01*
X10060476Y1167143D01*
X10250952Y1214762D01*
X10393809Y1214762D01*
X10584285Y1167143D01*
X10679523Y1119524D01*
X10774761Y1024286D01*
X10822380Y881429D01*
X10822380Y643334D01*
X10822380Y1643334D02*
X9822380Y1643334D01*
X9822380Y2024286D01*
X9870000Y2119524D01*
X9917619Y2167143D01*
X10012857Y2214762D01*
X10155714Y2214762D01*
X10250952Y2167143D01*
X10298571Y2119524D01*
X10346190Y2024286D01*
X10346190Y1643334D01*
X10774761Y3833810D02*
X10822380Y3738572D01*
X10822380Y3548096D01*
X10774761Y3452858D01*
X10727142Y3405239D01*
X10631904Y3357620D01*
X10346190Y3357620D01*
X10250952Y3405239D01*
X10203333Y3452858D01*
X10155714Y3548096D01*
X10155714Y3738572D01*
X10203333Y3833810D01*
X10822380Y4405239D02*
X10774761Y4310000D01*
X10727142Y4262381D01*
X10631904Y4214762D01*
X10346190Y4214762D01*
X10250952Y4262381D01*
X10203333Y4310000D01*
X10155714Y4405239D01*
X10155714Y4548096D01*
X10203333Y4643334D01*
X10250952Y4690953D01*
X10346190Y4738572D01*
X10631904Y4738572D01*
X10727142Y4690953D01*
X10774761Y4643334D01*
X10822380Y4548096D01*
X10822380Y4405239D01*
X10155714Y5167143D02*
X10822380Y5167143D01*
X10250952Y5167143D02*
X10203333Y5214762D01*
X10155714Y5310000D01*
X10155714Y5452858D01*
X10203333Y5548096D01*
X10298571Y5595715D01*
X10822380Y5595715D01*
X10155714Y6071905D02*
X10822380Y6071905D01*
X10250952Y6071905D02*
X10203333Y6119524D01*
X10155714Y6214762D01*
X10155714Y6357620D01*
X10203333Y6452858D01*
X10298571Y6500477D01*
X10822380Y6500477D01*
X10727142Y6976667D02*
X10774761Y7024286D01*
X10822380Y6976667D01*
X10774761Y6929048D01*
X10727142Y6976667D01*
X10822380Y6976667D01*
X16176666Y4357620D02*
X16176666Y3643334D01*
X16129047Y3500477D01*
X16033809Y3405239D01*
X15890952Y3357620D01*
X15795714Y3357620D01*
X16605238Y4262381D02*
X16652857Y4310000D01*
X16748095Y4357620D01*
X16986190Y4357620D01*
X17081428Y4310000D01*
X17129047Y4262381D01*
X17176666Y4167143D01*
X17176666Y4071905D01*
X17129047Y3929048D01*
X16557619Y3357620D01*
X17176666Y3357620D01*
%TO.C,J3*%
X72842380Y21520953D02*
X72175714Y21520953D01*
X72270952Y21520953D02*
X72223333Y21568572D01*
X72175714Y21663810D01*
X72175714Y21806667D01*
X72223333Y21901905D01*
X72318571Y21949524D01*
X72842380Y21949524D01*
X72318571Y21949524D02*
X72223333Y21997143D01*
X72175714Y22092381D01*
X72175714Y22235239D01*
X72223333Y22330477D01*
X72318571Y22378096D01*
X72842380Y22378096D01*
X72794761Y23235239D02*
X72842380Y23140000D01*
X72842380Y22949524D01*
X72794761Y22854286D01*
X72699523Y22806667D01*
X72318571Y22806667D01*
X72223333Y22854286D01*
X72175714Y22949524D01*
X72175714Y23140000D01*
X72223333Y23235239D01*
X72318571Y23282858D01*
X72413809Y23282858D01*
X72509047Y22806667D01*
X72842380Y24140000D02*
X72318571Y24140000D01*
X72223333Y24092381D01*
X72175714Y23997143D01*
X72175714Y23806667D01*
X72223333Y23711429D01*
X72794761Y24140000D02*
X72842380Y24044762D01*
X72842380Y23806667D01*
X72794761Y23711429D01*
X72699523Y23663810D01*
X72604285Y23663810D01*
X72509047Y23711429D01*
X72461428Y23806667D01*
X72461428Y24044762D01*
X72413809Y24140000D01*
X72794761Y24568572D02*
X72842380Y24663810D01*
X72842380Y24854286D01*
X72794761Y24949524D01*
X72699523Y24997143D01*
X72651904Y24997143D01*
X72556666Y24949524D01*
X72509047Y24854286D01*
X72509047Y24711429D01*
X72461428Y24616191D01*
X72366190Y24568572D01*
X72318571Y24568572D01*
X72223333Y24616191D01*
X72175714Y24711429D01*
X72175714Y24854286D01*
X72223333Y24949524D01*
X72747142Y25425715D02*
X72794761Y25473334D01*
X72842380Y25425715D01*
X72794761Y25378096D01*
X72747142Y25425715D01*
X72842380Y25425715D01*
X72794761Y27092381D02*
X72842380Y26997143D01*
X72842380Y26806667D01*
X72794761Y26711429D01*
X72747142Y26663810D01*
X72651904Y26616191D01*
X72366190Y26616191D01*
X72270952Y26663810D01*
X72223333Y26711429D01*
X72175714Y26806667D01*
X72175714Y26997143D01*
X72223333Y27092381D01*
X72842380Y27663810D02*
X72794761Y27568572D01*
X72747142Y27520953D01*
X72651904Y27473334D01*
X72366190Y27473334D01*
X72270952Y27520953D01*
X72223333Y27568572D01*
X72175714Y27663810D01*
X72175714Y27806667D01*
X72223333Y27901905D01*
X72270952Y27949524D01*
X72366190Y27997143D01*
X72651904Y27997143D01*
X72747142Y27949524D01*
X72794761Y27901905D01*
X72842380Y27806667D01*
X72842380Y27663810D01*
X72175714Y28425715D02*
X72842380Y28425715D01*
X72270952Y28425715D02*
X72223333Y28473334D01*
X72175714Y28568572D01*
X72175714Y28711429D01*
X72223333Y28806667D01*
X72318571Y28854286D01*
X72842380Y28854286D01*
X72175714Y29330477D02*
X72842380Y29330477D01*
X72270952Y29330477D02*
X72223333Y29378096D01*
X72175714Y29473334D01*
X72175714Y29616191D01*
X72223333Y29711429D01*
X72318571Y29759048D01*
X72842380Y29759048D01*
X78732380Y25026667D02*
X79446666Y25026667D01*
X79589523Y24979048D01*
X79684761Y24883810D01*
X79732380Y24740953D01*
X79732380Y24645715D01*
X78732380Y25407620D02*
X78732380Y26026667D01*
X79113333Y25693334D01*
X79113333Y25836191D01*
X79160952Y25931429D01*
X79208571Y25979048D01*
X79303809Y26026667D01*
X79541904Y26026667D01*
X79637142Y25979048D01*
X79684761Y25931429D01*
X79732380Y25836191D01*
X79732380Y25550477D01*
X79684761Y25455239D01*
X79637142Y25407620D01*
%TO.C,M1*%
X3556190Y61117620D02*
X3556190Y62117620D01*
X3889523Y61403334D01*
X4222857Y62117620D01*
X4222857Y61117620D01*
X4651428Y62022381D02*
X4699047Y62070000D01*
X4794285Y62117620D01*
X5032380Y62117620D01*
X5127619Y62070000D01*
X5175238Y62022381D01*
X5222857Y61927143D01*
X5222857Y61831905D01*
X5175238Y61689048D01*
X4603809Y61117620D01*
X5222857Y61117620D01*
X5651428Y61212858D02*
X5699047Y61165239D01*
X5651428Y61117620D01*
X5603809Y61165239D01*
X5651428Y61212858D01*
X5651428Y61117620D01*
X6080000Y62022381D02*
X6127619Y62070000D01*
X6222857Y62117620D01*
X6460952Y62117620D01*
X6556190Y62070000D01*
X6603809Y62022381D01*
X6651428Y61927143D01*
X6651428Y61831905D01*
X6603809Y61689048D01*
X6032380Y61117620D01*
X6651428Y61117620D01*
X4570476Y64317620D02*
X4570476Y65317620D01*
X4903809Y64603334D01*
X5237142Y65317620D01*
X5237142Y64317620D01*
X6237142Y64317620D02*
X5665714Y64317620D01*
X5951428Y64317620D02*
X5951428Y65317620D01*
X5856190Y65174762D01*
X5760952Y65079524D01*
X5665714Y65031905D01*
%TO.C,M2*%
X83566190Y61117620D02*
X83566190Y62117620D01*
X83899523Y61403334D01*
X84232857Y62117620D01*
X84232857Y61117620D01*
X84661428Y62022381D02*
X84709047Y62070000D01*
X84804285Y62117620D01*
X85042380Y62117620D01*
X85137619Y62070000D01*
X85185238Y62022381D01*
X85232857Y61927143D01*
X85232857Y61831905D01*
X85185238Y61689048D01*
X84613809Y61117620D01*
X85232857Y61117620D01*
X85661428Y61212858D02*
X85709047Y61165239D01*
X85661428Y61117620D01*
X85613809Y61165239D01*
X85661428Y61212858D01*
X85661428Y61117620D01*
X86090000Y62022381D02*
X86137619Y62070000D01*
X86232857Y62117620D01*
X86470952Y62117620D01*
X86566190Y62070000D01*
X86613809Y62022381D01*
X86661428Y61927143D01*
X86661428Y61831905D01*
X86613809Y61689048D01*
X86042380Y61117620D01*
X86661428Y61117620D01*
X84580476Y64317620D02*
X84580476Y65317620D01*
X84913809Y64603334D01*
X85247142Y65317620D01*
X85247142Y64317620D01*
X85675714Y65222381D02*
X85723333Y65270000D01*
X85818571Y65317620D01*
X86056666Y65317620D01*
X86151904Y65270000D01*
X86199523Y65222381D01*
X86247142Y65127143D01*
X86247142Y65031905D01*
X86199523Y64889048D01*
X85628095Y64317620D01*
X86247142Y64317620D01*
%TO.C,M3*%
X83566190Y157620D02*
X83566190Y1157620D01*
X83899523Y443334D01*
X84232857Y1157620D01*
X84232857Y157620D01*
X84661428Y1062381D02*
X84709047Y1110000D01*
X84804285Y1157620D01*
X85042380Y1157620D01*
X85137619Y1110000D01*
X85185238Y1062381D01*
X85232857Y967143D01*
X85232857Y871905D01*
X85185238Y729048D01*
X84613809Y157620D01*
X85232857Y157620D01*
X85661428Y252858D02*
X85709047Y205239D01*
X85661428Y157620D01*
X85613809Y205239D01*
X85661428Y252858D01*
X85661428Y157620D01*
X86090000Y1062381D02*
X86137619Y1110000D01*
X86232857Y1157620D01*
X86470952Y1157620D01*
X86566190Y1110000D01*
X86613809Y1062381D01*
X86661428Y967143D01*
X86661428Y871905D01*
X86613809Y729048D01*
X86042380Y157620D01*
X86661428Y157620D01*
X84580476Y3357620D02*
X84580476Y4357620D01*
X84913809Y3643334D01*
X85247142Y4357620D01*
X85247142Y3357620D01*
X85628095Y4357620D02*
X86247142Y4357620D01*
X85913809Y3976667D01*
X86056666Y3976667D01*
X86151904Y3929048D01*
X86199523Y3881429D01*
X86247142Y3786191D01*
X86247142Y3548096D01*
X86199523Y3452858D01*
X86151904Y3405239D01*
X86056666Y3357620D01*
X85770952Y3357620D01*
X85675714Y3405239D01*
X85628095Y3452858D01*
%TO.C,M4*%
X3556190Y157620D02*
X3556190Y1157620D01*
X3889523Y443334D01*
X4222857Y1157620D01*
X4222857Y157620D01*
X4651428Y1062381D02*
X4699047Y1110000D01*
X4794285Y1157620D01*
X5032380Y1157620D01*
X5127619Y1110000D01*
X5175238Y1062381D01*
X5222857Y967143D01*
X5222857Y871905D01*
X5175238Y729048D01*
X4603809Y157620D01*
X5222857Y157620D01*
X5651428Y252858D02*
X5699047Y205239D01*
X5651428Y157620D01*
X5603809Y205239D01*
X5651428Y252858D01*
X5651428Y157620D01*
X6080000Y1062381D02*
X6127619Y1110000D01*
X6222857Y1157620D01*
X6460952Y1157620D01*
X6556190Y1110000D01*
X6603809Y1062381D01*
X6651428Y967143D01*
X6651428Y871905D01*
X6603809Y729048D01*
X6032380Y157620D01*
X6651428Y157620D01*
X4570476Y3357620D02*
X4570476Y4357620D01*
X4903809Y3643334D01*
X5237142Y4357620D01*
X5237142Y3357620D01*
X6141904Y4024286D02*
X6141904Y3357620D01*
X5903809Y4405239D02*
X5665714Y3690953D01*
X6284761Y3690953D01*
%TO.C,R1*%
X50109523Y15167620D02*
X49919047Y15167620D01*
X49823809Y15120000D01*
X49776190Y15072381D01*
X49680952Y14929524D01*
X49633333Y14739048D01*
X49633333Y14358096D01*
X49680952Y14262858D01*
X49728571Y14215239D01*
X49823809Y14167620D01*
X50014285Y14167620D01*
X50109523Y14215239D01*
X50157142Y14262858D01*
X50204761Y14358096D01*
X50204761Y14596191D01*
X50157142Y14691429D01*
X50109523Y14739048D01*
X50014285Y14786667D01*
X49823809Y14786667D01*
X49728571Y14739048D01*
X49680952Y14691429D01*
X49633333Y14596191D01*
X50633333Y14167620D02*
X50633333Y15167620D01*
X50728571Y14548572D02*
X51014285Y14167620D01*
X51014285Y14834286D02*
X50633333Y14453334D01*
X51585714Y14739048D02*
X51490476Y14786667D01*
X51442857Y14834286D01*
X51395238Y14929524D01*
X51395238Y14977143D01*
X51442857Y15072381D01*
X51490476Y15120000D01*
X51585714Y15167620D01*
X51776190Y15167620D01*
X51871428Y15120000D01*
X51919047Y15072381D01*
X51966666Y14977143D01*
X51966666Y14929524D01*
X51919047Y14834286D01*
X51871428Y14786667D01*
X51776190Y14739048D01*
X51585714Y14739048D01*
X51490476Y14691429D01*
X51442857Y14643810D01*
X51395238Y14548572D01*
X51395238Y14358096D01*
X51442857Y14262858D01*
X51490476Y14215239D01*
X51585714Y14167620D01*
X51776190Y14167620D01*
X51871428Y14215239D01*
X51919047Y14262858D01*
X51966666Y14358096D01*
X51966666Y14548572D01*
X51919047Y14643810D01*
X51871428Y14691429D01*
X51776190Y14739048D01*
D14*
X50680000Y12374286D02*
X50440000Y12717143D01*
X50268571Y12374286D02*
X50268571Y13094286D01*
X50542857Y13094286D01*
X50611428Y13060000D01*
X50645714Y13025715D01*
X50680000Y12957143D01*
X50680000Y12854286D01*
X50645714Y12785715D01*
X50611428Y12751429D01*
X50542857Y12717143D01*
X50268571Y12717143D01*
X51365714Y12374286D02*
X50954285Y12374286D01*
X51160000Y12374286D02*
X51160000Y13094286D01*
X51091428Y12991429D01*
X51022857Y12922858D01*
X50954285Y12888572D01*
%TO.C,R2*%
D12*
X77184285Y15407620D02*
X76612857Y15407620D01*
X76898571Y15407620D02*
X76898571Y16407620D01*
X76803333Y16264762D01*
X76708095Y16169524D01*
X76612857Y16121905D01*
X77612857Y15407620D02*
X77612857Y16407620D01*
X77946190Y15693334D01*
X78279523Y16407620D01*
X78279523Y15407620D01*
D14*
X77350000Y17454286D02*
X77110000Y17797143D01*
X76938571Y17454286D02*
X76938571Y18174286D01*
X77212857Y18174286D01*
X77281428Y18140000D01*
X77315714Y18105715D01*
X77350000Y18037143D01*
X77350000Y17934286D01*
X77315714Y17865715D01*
X77281428Y17831429D01*
X77212857Y17797143D01*
X76938571Y17797143D01*
X77624285Y18105715D02*
X77658571Y18140000D01*
X77727142Y18174286D01*
X77898571Y18174286D01*
X77967142Y18140000D01*
X78001428Y18105715D01*
X78035714Y18037143D01*
X78035714Y17968572D01*
X78001428Y17865715D01*
X77590000Y17454286D01*
X78035714Y17454286D01*
%TO.C,R3*%
D12*
X18852380Y19248572D02*
X18852380Y18677143D01*
X18852380Y18962858D02*
X17852380Y18962858D01*
X17995238Y18867620D01*
X18090476Y18772381D01*
X18138095Y18677143D01*
X17852380Y19867620D02*
X17852380Y19962858D01*
X17900000Y20058096D01*
X17947619Y20105715D01*
X18042857Y20153334D01*
X18233333Y20200953D01*
X18471428Y20200953D01*
X18661904Y20153334D01*
X18757142Y20105715D01*
X18804761Y20058096D01*
X18852380Y19962858D01*
X18852380Y19867620D01*
X18804761Y19772381D01*
X18757142Y19724762D01*
X18661904Y19677143D01*
X18471428Y19629524D01*
X18233333Y19629524D01*
X18042857Y19677143D01*
X17947619Y19724762D01*
X17900000Y19772381D01*
X17852380Y19867620D01*
X17852380Y20820000D02*
X17852380Y20915239D01*
X17900000Y21010477D01*
X17947619Y21058096D01*
X18042857Y21105715D01*
X18233333Y21153334D01*
X18471428Y21153334D01*
X18661904Y21105715D01*
X18757142Y21058096D01*
X18804761Y21010477D01*
X18852380Y20915239D01*
X18852380Y20820000D01*
X18804761Y20724762D01*
X18757142Y20677143D01*
X18661904Y20629524D01*
X18471428Y20581905D01*
X18233333Y20581905D01*
X18042857Y20629524D01*
X17947619Y20677143D01*
X17900000Y20724762D01*
X17852380Y20820000D01*
X18852380Y21581905D02*
X17852380Y21581905D01*
X18471428Y21677143D02*
X18852380Y21962858D01*
X18185714Y21962858D02*
X18566666Y21581905D01*
D14*
X20645714Y20200000D02*
X20302857Y19960000D01*
X20645714Y19788572D02*
X19925714Y19788572D01*
X19925714Y20062858D01*
X19960000Y20131429D01*
X19994285Y20165715D01*
X20062857Y20200000D01*
X20165714Y20200000D01*
X20234285Y20165715D01*
X20268571Y20131429D01*
X20302857Y20062858D01*
X20302857Y19788572D01*
X19925714Y20440000D02*
X19925714Y20885715D01*
X20200000Y20645715D01*
X20200000Y20748572D01*
X20234285Y20817143D01*
X20268571Y20851429D01*
X20337142Y20885715D01*
X20508571Y20885715D01*
X20577142Y20851429D01*
X20611428Y20817143D01*
X20645714Y20748572D01*
X20645714Y20542858D01*
X20611428Y20474286D01*
X20577142Y20440000D01*
%TO.C,R4*%
D12*
X13105714Y48839524D02*
X13772380Y48839524D01*
X12724761Y48601429D02*
X13439047Y48363334D01*
X13439047Y48982381D01*
X12772380Y49268096D02*
X12772380Y49934762D01*
X13772380Y49506191D01*
X13772380Y50315715D02*
X12772380Y50315715D01*
X13391428Y50410953D02*
X13772380Y50696667D01*
X13105714Y50696667D02*
X13486666Y50315715D01*
D14*
X15565714Y49410000D02*
X15222857Y49170000D01*
X15565714Y48998572D02*
X14845714Y48998572D01*
X14845714Y49272858D01*
X14880000Y49341429D01*
X14914285Y49375715D01*
X14982857Y49410000D01*
X15085714Y49410000D01*
X15154285Y49375715D01*
X15188571Y49341429D01*
X15222857Y49272858D01*
X15222857Y48998572D01*
X15085714Y50027143D02*
X15565714Y50027143D01*
X14811428Y49855715D02*
X15325714Y49684286D01*
X15325714Y50130000D01*
%TO.C,RV1*%
D12*
X65427619Y9353334D02*
X65380000Y9400953D01*
X65332380Y9496191D01*
X65332380Y9734286D01*
X65380000Y9829524D01*
X65427619Y9877143D01*
X65522857Y9924762D01*
X65618095Y9924762D01*
X65760952Y9877143D01*
X66332380Y9305715D01*
X66332380Y9924762D01*
X65332380Y10543810D02*
X65332380Y10639048D01*
X65380000Y10734286D01*
X65427619Y10781905D01*
X65522857Y10829524D01*
X65713333Y10877143D01*
X65951428Y10877143D01*
X66141904Y10829524D01*
X66237142Y10781905D01*
X66284761Y10734286D01*
X66332380Y10639048D01*
X66332380Y10543810D01*
X66284761Y10448572D01*
X66237142Y10400953D01*
X66141904Y10353334D01*
X65951428Y10305715D01*
X65713333Y10305715D01*
X65522857Y10353334D01*
X65427619Y10400953D01*
X65380000Y10448572D01*
X65332380Y10543810D01*
X66332380Y11305715D02*
X65332380Y11305715D01*
X65951428Y11400953D02*
X66332380Y11686667D01*
X65665714Y11686667D02*
X66046666Y11305715D01*
X62682380Y10684762D02*
X62206190Y10351429D01*
X62682380Y10113334D02*
X61682380Y10113334D01*
X61682380Y10494286D01*
X61730000Y10589524D01*
X61777619Y10637143D01*
X61872857Y10684762D01*
X62015714Y10684762D01*
X62110952Y10637143D01*
X62158571Y10589524D01*
X62206190Y10494286D01*
X62206190Y10113334D01*
X61682380Y10970477D02*
X62682380Y11303810D01*
X61682380Y11637143D01*
X62682380Y12494286D02*
X62682380Y11922858D01*
X62682380Y12208572D02*
X61682380Y12208572D01*
X61825238Y12113334D01*
X61920476Y12018096D01*
X61968095Y11922858D01*
%TO.C,TP1*%
X45462380Y5088096D02*
X45462380Y5659524D01*
X46462380Y5373810D02*
X45462380Y5373810D01*
X46462380Y5992858D02*
X45462380Y5992858D01*
X45462380Y6373810D01*
X45510000Y6469048D01*
X45557619Y6516667D01*
X45652857Y6564286D01*
X45795714Y6564286D01*
X45890952Y6516667D01*
X45938571Y6469048D01*
X45986190Y6373810D01*
X45986190Y5992858D01*
X46462380Y7516667D02*
X46462380Y6945239D01*
X46462380Y7230953D02*
X45462380Y7230953D01*
X45605238Y7135715D01*
X45700476Y7040477D01*
X45748095Y6945239D01*
%TO.C,TP2*%
X67318095Y26237620D02*
X67889523Y26237620D01*
X67603809Y25237620D02*
X67603809Y26237620D01*
X68222857Y25237620D02*
X68222857Y26237620D01*
X68603809Y26237620D01*
X68699047Y26190000D01*
X68746666Y26142381D01*
X68794285Y26047143D01*
X68794285Y25904286D01*
X68746666Y25809048D01*
X68699047Y25761429D01*
X68603809Y25713810D01*
X68222857Y25713810D01*
X69175238Y26142381D02*
X69222857Y26190000D01*
X69318095Y26237620D01*
X69556190Y26237620D01*
X69651428Y26190000D01*
X69699047Y26142381D01*
X69746666Y26047143D01*
X69746666Y25951905D01*
X69699047Y25809048D01*
X69127619Y25237620D01*
X69746666Y25237620D01*
%TO.C,U1*%
X52272380Y3643810D02*
X52272380Y3167620D01*
X51272380Y3167620D01*
X52272380Y3977143D02*
X51272380Y3977143D01*
X51986666Y4310477D01*
X51272380Y4643810D01*
X52272380Y4643810D01*
X51367619Y5072381D02*
X51320000Y5120000D01*
X51272380Y5215239D01*
X51272380Y5453334D01*
X51320000Y5548572D01*
X51367619Y5596191D01*
X51462857Y5643810D01*
X51558095Y5643810D01*
X51700952Y5596191D01*
X52272380Y5024762D01*
X52272380Y5643810D01*
X51700952Y6215239D02*
X51653333Y6120000D01*
X51605714Y6072381D01*
X51510476Y6024762D01*
X51462857Y6024762D01*
X51367619Y6072381D01*
X51320000Y6120000D01*
X51272380Y6215239D01*
X51272380Y6405715D01*
X51320000Y6500953D01*
X51367619Y6548572D01*
X51462857Y6596191D01*
X51510476Y6596191D01*
X51605714Y6548572D01*
X51653333Y6500953D01*
X51700952Y6405715D01*
X51700952Y6215239D01*
X51748571Y6120000D01*
X51796190Y6072381D01*
X51891428Y6024762D01*
X52081904Y6024762D01*
X52177142Y6072381D01*
X52224761Y6120000D01*
X52272380Y6215239D01*
X52272380Y6405715D01*
X52224761Y6500953D01*
X52177142Y6548572D01*
X52081904Y6596191D01*
X51891428Y6596191D01*
X51796190Y6548572D01*
X51748571Y6500953D01*
X51700952Y6405715D01*
X51272380Y7500953D02*
X51272380Y7024762D01*
X51748571Y6977143D01*
X51700952Y7024762D01*
X51653333Y7120000D01*
X51653333Y7358096D01*
X51700952Y7453334D01*
X51748571Y7500953D01*
X51843809Y7548572D01*
X52081904Y7548572D01*
X52177142Y7500953D01*
X52224761Y7453334D01*
X52272380Y7358096D01*
X52272380Y7120000D01*
X52224761Y7024762D01*
X52177142Y6977143D01*
X51272380Y7881905D02*
X51272380Y8548572D01*
X52272380Y7881905D01*
X52272380Y8548572D01*
X51891428Y8929524D02*
X51891428Y9691429D01*
X52272380Y10691429D02*
X52272380Y10120000D01*
X52272380Y10405715D02*
X51272380Y10405715D01*
X51415238Y10310477D01*
X51510476Y10215239D01*
X51558095Y10120000D01*
X52177142Y11120000D02*
X52224761Y11167620D01*
X52272380Y11120000D01*
X52224761Y11072381D01*
X52177142Y11120000D01*
X52272380Y11120000D01*
X51367619Y11548572D02*
X51320000Y11596191D01*
X51272380Y11691429D01*
X51272380Y11929524D01*
X51320000Y12024762D01*
X51367619Y12072381D01*
X51462857Y12120000D01*
X51558095Y12120000D01*
X51700952Y12072381D01*
X52272380Y11500953D01*
X52272380Y12120000D01*
X57622380Y6858096D02*
X58431904Y6858096D01*
X58527142Y6905715D01*
X58574761Y6953334D01*
X58622380Y7048572D01*
X58622380Y7239048D01*
X58574761Y7334286D01*
X58527142Y7381905D01*
X58431904Y7429524D01*
X57622380Y7429524D01*
X58622380Y8429524D02*
X58622380Y7858096D01*
X58622380Y8143810D02*
X57622380Y8143810D01*
X57765238Y8048572D01*
X57860476Y7953334D01*
X57908095Y7858096D01*
%TO.C,U2*%
X30210476Y59027620D02*
X30210476Y60027620D01*
X31258095Y59122858D02*
X31210476Y59075239D01*
X31067619Y59027620D01*
X30972380Y59027620D01*
X30829523Y59075239D01*
X30734285Y59170477D01*
X30686666Y59265715D01*
X30639047Y59456191D01*
X30639047Y59599048D01*
X30686666Y59789524D01*
X30734285Y59884762D01*
X30829523Y59980000D01*
X30972380Y60027620D01*
X31067619Y60027620D01*
X31210476Y59980000D01*
X31258095Y59932381D01*
X32162857Y59027620D02*
X31686666Y59027620D01*
X31686666Y60027620D01*
X32400952Y60027620D02*
X33067619Y60027620D01*
X32639047Y59027620D01*
X33972380Y59027620D02*
X33400952Y59027620D01*
X33686666Y59027620D02*
X33686666Y60027620D01*
X33591428Y59884762D01*
X33496190Y59789524D01*
X33400952Y59741905D01*
X34591428Y60027620D02*
X34686666Y60027620D01*
X34781904Y59980000D01*
X34829523Y59932381D01*
X34877142Y59837143D01*
X34924761Y59646667D01*
X34924761Y59408572D01*
X34877142Y59218096D01*
X34829523Y59122858D01*
X34781904Y59075239D01*
X34686666Y59027620D01*
X34591428Y59027620D01*
X34496190Y59075239D01*
X34448571Y59122858D01*
X34400952Y59218096D01*
X34353333Y59408572D01*
X34353333Y59646667D01*
X34400952Y59837143D01*
X34448571Y59932381D01*
X34496190Y59980000D01*
X34591428Y60027620D01*
X35258095Y60027620D02*
X35924761Y60027620D01*
X35496190Y59027620D01*
X32258095Y33567620D02*
X32258095Y32758096D01*
X32305714Y32662858D01*
X32353333Y32615239D01*
X32448571Y32567620D01*
X32639047Y32567620D01*
X32734285Y32615239D01*
X32781904Y32662858D01*
X32829523Y32758096D01*
X32829523Y33567620D01*
X33258095Y33472381D02*
X33305714Y33520000D01*
X33400952Y33567620D01*
X33639047Y33567620D01*
X33734285Y33520000D01*
X33781904Y33472381D01*
X33829523Y33377143D01*
X33829523Y33281905D01*
X33781904Y33139048D01*
X33210476Y32567620D01*
X33829523Y32567620D01*
%TO.C,U3*%
X59892380Y30154762D02*
X59892380Y29678572D01*
X58892380Y29678572D01*
X58892380Y30392858D02*
X58892380Y31059524D01*
X59892380Y30630953D01*
X59320952Y31583334D02*
X59273333Y31488096D01*
X59225714Y31440477D01*
X59130476Y31392858D01*
X59082857Y31392858D01*
X58987619Y31440477D01*
X58940000Y31488096D01*
X58892380Y31583334D01*
X58892380Y31773810D01*
X58940000Y31869048D01*
X58987619Y31916667D01*
X59082857Y31964286D01*
X59130476Y31964286D01*
X59225714Y31916667D01*
X59273333Y31869048D01*
X59320952Y31773810D01*
X59320952Y31583334D01*
X59368571Y31488096D01*
X59416190Y31440477D01*
X59511428Y31392858D01*
X59701904Y31392858D01*
X59797142Y31440477D01*
X59844761Y31488096D01*
X59892380Y31583334D01*
X59892380Y31773810D01*
X59844761Y31869048D01*
X59797142Y31916667D01*
X59701904Y31964286D01*
X59511428Y31964286D01*
X59416190Y31916667D01*
X59368571Y31869048D01*
X59320952Y31773810D01*
X58892380Y32583334D02*
X58892380Y32678572D01*
X58940000Y32773810D01*
X58987619Y32821429D01*
X59082857Y32869048D01*
X59273333Y32916667D01*
X59511428Y32916667D01*
X59701904Y32869048D01*
X59797142Y32821429D01*
X59844761Y32773810D01*
X59892380Y32678572D01*
X59892380Y32583334D01*
X59844761Y32488096D01*
X59797142Y32440477D01*
X59701904Y32392858D01*
X59511428Y32345239D01*
X59273333Y32345239D01*
X59082857Y32392858D01*
X58987619Y32440477D01*
X58940000Y32488096D01*
X58892380Y32583334D01*
X58892380Y33821429D02*
X58892380Y33345239D01*
X59368571Y33297620D01*
X59320952Y33345239D01*
X59273333Y33440477D01*
X59273333Y33678572D01*
X59320952Y33773810D01*
X59368571Y33821429D01*
X59463809Y33869048D01*
X59701904Y33869048D01*
X59797142Y33821429D01*
X59844761Y33773810D01*
X59892380Y33678572D01*
X59892380Y33440477D01*
X59844761Y33345239D01*
X59797142Y33297620D01*
X65242380Y30988096D02*
X66051904Y30988096D01*
X66147142Y31035715D01*
X66194761Y31083334D01*
X66242380Y31178572D01*
X66242380Y31369048D01*
X66194761Y31464286D01*
X66147142Y31511905D01*
X66051904Y31559524D01*
X65242380Y31559524D01*
X65242380Y31940477D02*
X65242380Y32559524D01*
X65623333Y32226191D01*
X65623333Y32369048D01*
X65670952Y32464286D01*
X65718571Y32511905D01*
X65813809Y32559524D01*
X66051904Y32559524D01*
X66147142Y32511905D01*
X66194761Y32464286D01*
X66242380Y32369048D01*
X66242380Y32083334D01*
X66194761Y31988096D01*
X66147142Y31940477D01*
%TO.C,U4*%
X48291904Y39794286D02*
X48291904Y39127620D01*
X48053809Y40175239D02*
X47815714Y39460953D01*
X48434761Y39460953D01*
X49006190Y40127620D02*
X49101428Y40127620D01*
X49196666Y40080000D01*
X49244285Y40032381D01*
X49291904Y39937143D01*
X49339523Y39746667D01*
X49339523Y39508572D01*
X49291904Y39318096D01*
X49244285Y39222858D01*
X49196666Y39175239D01*
X49101428Y39127620D01*
X49006190Y39127620D01*
X48910952Y39175239D01*
X48863333Y39222858D01*
X48815714Y39318096D01*
X48768095Y39508572D01*
X48768095Y39746667D01*
X48815714Y39937143D01*
X48863333Y40032381D01*
X48910952Y40080000D01*
X49006190Y40127620D01*
X50196666Y40127620D02*
X50006190Y40127620D01*
X49910952Y40080000D01*
X49863333Y40032381D01*
X49768095Y39889524D01*
X49720476Y39699048D01*
X49720476Y39318096D01*
X49768095Y39222858D01*
X49815714Y39175239D01*
X49910952Y39127620D01*
X50101428Y39127620D01*
X50196666Y39175239D01*
X50244285Y39222858D01*
X50291904Y39318096D01*
X50291904Y39556191D01*
X50244285Y39651429D01*
X50196666Y39699048D01*
X50101428Y39746667D01*
X49910952Y39746667D01*
X49815714Y39699048D01*
X49768095Y39651429D01*
X49720476Y39556191D01*
X50768095Y39127620D02*
X50958571Y39127620D01*
X51053809Y39175239D01*
X51101428Y39222858D01*
X51196666Y39365715D01*
X51244285Y39556191D01*
X51244285Y39937143D01*
X51196666Y40032381D01*
X51149047Y40080000D01*
X51053809Y40127620D01*
X50863333Y40127620D01*
X50768095Y40080000D01*
X50720476Y40032381D01*
X50672857Y39937143D01*
X50672857Y39699048D01*
X50720476Y39603810D01*
X50768095Y39556191D01*
X50863333Y39508572D01*
X51053809Y39508572D01*
X51149047Y39556191D01*
X51196666Y39603810D01*
X51244285Y39699048D01*
X48768095Y50077620D02*
X48768095Y49268096D01*
X48815714Y49172858D01*
X48863333Y49125239D01*
X48958571Y49077620D01*
X49149047Y49077620D01*
X49244285Y49125239D01*
X49291904Y49172858D01*
X49339523Y49268096D01*
X49339523Y50077620D01*
X50244285Y49744286D02*
X50244285Y49077620D01*
X50006190Y50125239D02*
X49768095Y49410953D01*
X50387142Y49410953D01*
%TD*%
M02*
