%TF.GenerationSoftware,KiCad,Pcbnew,5.1.6-c6e7f7d~86~ubuntu18.04.1*%
%TF.CreationDate,2020-06-30T16:43:30+02:00*%
%TF.ProjectId,ICL7107,49434c37-3130-4372-9e6b-696361645f70,1.0*%
%TF.SameCoordinates,PX525bfc0PY7a53eb0*%
%TF.FileFunction,Copper,L2,Bot*%
%TF.FilePolarity,Positive*%
%FSLAX46Y46*%
G04 Gerber Fmt 4.6, Leading zero omitted, Abs format (unit mm)*
G04 Created by KiCad (PCBNEW 5.1.6-c6e7f7d~86~ubuntu18.04.1) date 2020-06-30 16:43:30*
%MOMM*%
%LPD*%
G01*
G04 APERTURE LIST*
%TA.AperFunction,ComponentPad*%
%ADD10C,1.524000*%
%TD*%
%TA.AperFunction,ComponentPad*%
%ADD11R,1.524000X1.524000*%
%TD*%
%TA.AperFunction,ComponentPad*%
%ADD12O,1.400000X1.400000*%
%TD*%
%TA.AperFunction,ComponentPad*%
%ADD13C,1.400000*%
%TD*%
%TA.AperFunction,ComponentPad*%
%ADD14C,1.600000*%
%TD*%
%TA.AperFunction,ComponentPad*%
%ADD15R,1.600000X1.600000*%
%TD*%
%TA.AperFunction,ComponentPad*%
%ADD16O,2.200000X2.200000*%
%TD*%
%TA.AperFunction,ComponentPad*%
%ADD17R,2.200000X2.200000*%
%TD*%
%TA.AperFunction,ComponentPad*%
%ADD18O,1.600000X1.600000*%
%TD*%
%TA.AperFunction,ComponentPad*%
%ADD19R,3.960000X1.980000*%
%TD*%
%TA.AperFunction,ComponentPad*%
%ADD20O,3.960000X1.980000*%
%TD*%
%TA.AperFunction,ComponentPad*%
%ADD21R,1.700000X1.700000*%
%TD*%
%TA.AperFunction,ComponentPad*%
%ADD22O,1.700000X1.700000*%
%TD*%
%TA.AperFunction,ComponentPad*%
%ADD23C,4.400000*%
%TD*%
%TA.AperFunction,ComponentPad*%
%ADD24C,1.800000*%
%TD*%
%TA.AperFunction,ComponentPad*%
%ADD25C,2.000000*%
%TD*%
%TA.AperFunction,ComponentPad*%
%ADD26O,1.500000X1.050000*%
%TD*%
%TA.AperFunction,ComponentPad*%
%ADD27R,1.500000X1.050000*%
%TD*%
%TA.AperFunction,ViaPad*%
%ADD28C,0.800000*%
%TD*%
%TA.AperFunction,Conductor*%
%ADD29C,0.400000*%
%TD*%
G04 APERTURE END LIST*
D10*
%TO.P,D1,36*%
%TO.N,Net-(D1-Pad36)*%
X3810000Y31750000D03*
%TO.P,D1,35*%
%TO.N,Net-(D1-Pad35)*%
X3810000Y29210000D03*
%TO.P,D1,34*%
%TO.N,Net-(D1-Pad34)*%
X3810000Y26670000D03*
%TO.P,D1,33*%
%TO.N,Net-(D1-Pad33)*%
X3810000Y24130000D03*
%TO.P,D1,32*%
%TO.N,Net-(D1-Pad13)*%
X3810000Y21590000D03*
%TO.P,D1,31*%
X3810000Y19050000D03*
%TO.P,D1,30*%
%TO.N,Net-(D1-Pad30)*%
X3810000Y16510000D03*
%TO.P,D1,29*%
%TO.N,Net-(D1-Pad29)*%
X3810000Y13970000D03*
%TO.P,D1,28*%
%TO.N,Net-(D1-Pad28)*%
X3810000Y11430000D03*
%TO.P,D1,27*%
%TO.N,/DP1*%
X6350000Y11430000D03*
%TO.P,D1,26*%
%TO.N,Net-(D1-Pad26)*%
X6350000Y13970000D03*
%TO.P,D1,25*%
%TO.N,Net-(D1-Pad25)*%
X6350000Y16510000D03*
%TO.P,D1,24*%
%TO.N,Net-(D1-Pad24)*%
X6350000Y19050000D03*
%TO.P,D1,23*%
%TO.N,Net-(D1-Pad23)*%
X6350000Y21590000D03*
%TO.P,D1,22*%
%TO.N,/DP2*%
X6350000Y24130000D03*
%TO.P,D1,21*%
%TO.N,Net-(D1-Pad21)*%
X6350000Y26670000D03*
%TO.P,D1,20*%
%TO.N,Net-(D1-Pad20)*%
X6350000Y29210000D03*
D11*
%TO.P,D1,19*%
%TO.N,Net-(D1-Pad19)*%
X6350000Y31750000D03*
D10*
%TO.P,D1,18*%
%TO.N,Net-(D1-Pad18)*%
X3810000Y57150000D03*
%TO.P,D1,17*%
%TO.N,Net-(D1-Pad17)*%
X3810000Y54610000D03*
%TO.P,D1,16*%
%TO.N,Net-(D1-Pad16)*%
X3810000Y52070000D03*
%TO.P,D1,15*%
%TO.N,Net-(D1-Pad15)*%
X3810000Y49530000D03*
%TO.P,D1,14*%
%TO.N,Net-(D1-Pad13)*%
X3810000Y46990000D03*
%TO.P,D1,13*%
X3810000Y44450000D03*
%TO.P,D1,12*%
%TO.N,Net-(D1-Pad12)*%
X3810000Y41910000D03*
%TO.P,D1,11*%
%TO.N,Net-(D1-Pad11)*%
X3810000Y39370000D03*
%TO.P,D1,10*%
%TO.N,Net-(D1-Pad10)*%
X3810000Y36830000D03*
%TO.P,D1,9*%
%TO.N,/DP3*%
X6350000Y36830000D03*
%TO.P,D1,8*%
%TO.N,Net-(D1-Pad8)*%
X6350000Y39370000D03*
%TO.P,D1,7*%
%TO.N,Net-(D1-Pad7)*%
X6350000Y41910000D03*
%TO.P,D1,6*%
%TO.N,Net-(D1-Pad6)*%
X6350000Y44450000D03*
%TO.P,D1,5*%
%TO.N,Net-(D1-Pad5)*%
X6350000Y46990000D03*
%TO.P,D1,4*%
%TO.N,/DP4*%
X6350000Y49530000D03*
%TO.P,D1,3*%
%TO.N,Net-(D1-Pad15)*%
X6350000Y52070000D03*
%TO.P,D1,2*%
%TO.N,Net-(D1-Pad2)*%
X6350000Y54610000D03*
D11*
%TO.P,D1,1*%
%TO.N,Net-(D1-Pad1)*%
X6350000Y57150000D03*
%TD*%
D12*
%TO.P,R5,2*%
%TO.N,Net-(J2-Pad2)*%
X26670000Y2540000D03*
D13*
%TO.P,R5,1*%
%TO.N,GND*%
X26670000Y5080000D03*
%TD*%
D14*
%TO.P,C1,1*%
%TO.N,/OSC3*%
X38100000Y30480000D03*
%TO.P,C1,2*%
%TO.N,Net-(C1-Pad2)*%
X38100000Y25480000D03*
%TD*%
%TO.P,C2,2*%
%TO.N,Net-(C2-Pad2)*%
X38100000Y43260000D03*
%TO.P,C2,1*%
%TO.N,Net-(C2-Pad1)*%
X38100000Y48260000D03*
%TD*%
%TO.P,C3,1*%
%TO.N,Net-(C3-Pad1)*%
X68580000Y17780000D03*
%TO.P,C3,2*%
%TO.N,/IN-*%
X68580000Y22780000D03*
%TD*%
%TO.P,C4,1*%
%TO.N,Net-(C4-Pad1)*%
X38100000Y57150000D03*
%TO.P,C4,2*%
%TO.N,Net-(C2-Pad2)*%
X38100000Y52150000D03*
%TD*%
%TO.P,C5,1*%
%TO.N,Net-(C5-Pad1)*%
X38100000Y34290000D03*
%TO.P,C5,2*%
%TO.N,Net-(C5-Pad2)*%
X38100000Y39290000D03*
%TD*%
D15*
%TO.P,C6,1*%
%TO.N,Net-(C6-Pad1)*%
X82550000Y54610000D03*
D14*
%TO.P,C6,2*%
%TO.N,GND*%
X82550000Y52110000D03*
%TD*%
%TO.P,C7,1*%
%TO.N,Net-(C6-Pad1)*%
X72390000Y57150000D03*
%TO.P,C7,2*%
%TO.N,GND*%
X72390000Y52150000D03*
%TD*%
D15*
%TO.P,C8,1*%
%TO.N,/V+*%
X53340000Y30480000D03*
D14*
%TO.P,C8,2*%
%TO.N,GND*%
X53340000Y32980000D03*
%TD*%
%TO.P,C9,2*%
%TO.N,GND*%
X45720000Y35480000D03*
%TO.P,C9,1*%
%TO.N,/V+*%
X45720000Y30480000D03*
%TD*%
%TO.P,C10,2*%
%TO.N,Net-(C10-Pad2)*%
X66040000Y52150000D03*
%TO.P,C10,1*%
%TO.N,Net-(C10-Pad1)*%
X66040000Y57150000D03*
%TD*%
%TO.P,C11,2*%
%TO.N,/negative voltage converter/V-*%
X60920000Y43180000D03*
D15*
%TO.P,C11,1*%
%TO.N,GND*%
X58420000Y43180000D03*
%TD*%
D16*
%TO.P,D2,2*%
%TO.N,Net-(D2-Pad2)*%
X66040000Y38100000D03*
D17*
%TO.P,D2,1*%
%TO.N,Net-(C6-Pad1)*%
X66040000Y48260000D03*
%TD*%
D16*
%TO.P,D3,2*%
%TO.N,Net-(D3-Pad2)*%
X21590000Y64770000D03*
D17*
%TO.P,D3,1*%
%TO.N,Net-(D1-Pad13)*%
X11430000Y64770000D03*
%TD*%
%TO.P,D4,1*%
%TO.N,Net-(D3-Pad2)*%
X25400000Y64770000D03*
D16*
%TO.P,D4,2*%
%TO.N,Net-(D4-Pad2)*%
X35560000Y64770000D03*
%TD*%
D17*
%TO.P,D5,1*%
%TO.N,Net-(D4-Pad2)*%
X39370000Y64770000D03*
D16*
%TO.P,D5,2*%
%TO.N,Net-(D5-Pad2)*%
X49530000Y64770000D03*
%TD*%
D17*
%TO.P,D6,1*%
%TO.N,Net-(D5-Pad2)*%
X53340000Y64770000D03*
D16*
%TO.P,D6,2*%
%TO.N,/V+*%
X63500000Y64770000D03*
%TD*%
D18*
%TO.P,D7,2*%
%TO.N,Net-(C10-Pad1)*%
X58420000Y57150000D03*
D15*
%TO.P,D7,1*%
%TO.N,GND*%
X58420000Y49530000D03*
%TD*%
%TO.P,D8,1*%
%TO.N,Net-(C10-Pad1)*%
X62230000Y57150000D03*
D18*
%TO.P,D8,2*%
%TO.N,/negative voltage converter/V-*%
X62230000Y49530000D03*
%TD*%
D19*
%TO.P,J1,1*%
%TO.N,Net-(D2-Pad2)*%
X81280000Y38100000D03*
D20*
%TO.P,J1,2*%
%TO.N,GND*%
X81280000Y43100000D03*
%TD*%
D21*
%TO.P,J2,1*%
%TO.N,/DP4*%
X20320000Y5080000D03*
D22*
%TO.P,J2,2*%
%TO.N,Net-(J2-Pad2)*%
X20320000Y2540000D03*
%TO.P,J2,3*%
%TO.N,/DP3*%
X17780000Y5080000D03*
%TO.P,J2,4*%
%TO.N,Net-(J2-Pad2)*%
X17780000Y2540000D03*
%TO.P,J2,5*%
%TO.N,/DP2*%
X15240000Y5080000D03*
%TO.P,J2,6*%
%TO.N,Net-(J2-Pad2)*%
X15240000Y2540000D03*
%TO.P,J2,7*%
%TO.N,/DP1*%
X12700000Y5080000D03*
%TO.P,J2,8*%
%TO.N,Net-(J2-Pad2)*%
X12700000Y2540000D03*
%TD*%
D20*
%TO.P,J3,2*%
%TO.N,/IN-*%
X81280000Y27860000D03*
D19*
%TO.P,J3,1*%
%TO.N,/IN+*%
X81280000Y22860000D03*
%TD*%
D23*
%TO.P,M1,1*%
%TO.N,Net-(M1-Pad1)*%
X5080000Y64770000D03*
%TD*%
%TO.P,M2,1*%
%TO.N,Net-(M2-Pad1)*%
X85090000Y64770000D03*
%TD*%
%TO.P,M3,1*%
%TO.N,Net-(M3-Pad1)*%
X85090000Y3810000D03*
%TD*%
%TO.P,M4,1*%
%TO.N,Net-(M4-Pad1)*%
X5080000Y3810000D03*
%TD*%
D13*
%TO.P,R1,1*%
%TO.N,Net-(R1-Pad1)*%
X54610000Y12700000D03*
D12*
%TO.P,R1,2*%
%TO.N,/V+*%
X46990000Y12700000D03*
%TD*%
D13*
%TO.P,R2,1*%
%TO.N,Net-(C3-Pad1)*%
X73660000Y17780000D03*
D12*
%TO.P,R2,2*%
%TO.N,/IN+*%
X81280000Y17780000D03*
%TD*%
D13*
%TO.P,R3,1*%
%TO.N,Net-(R3-Pad1)*%
X38100000Y21590000D03*
D12*
%TO.P,R3,2*%
%TO.N,Net-(C1-Pad2)*%
X38100000Y13970000D03*
%TD*%
%TO.P,R4,2*%
%TO.N,Net-(C2-Pad2)*%
X41910000Y43180000D03*
D13*
%TO.P,R4,1*%
%TO.N,Net-(R4-Pad1)*%
X41910000Y35560000D03*
%TD*%
D24*
%TO.P,RV1,1*%
%TO.N,Net-(R1-Pad1)*%
X63500000Y17780000D03*
%TO.P,RV1,2*%
%TO.N,/IN-*%
X60960000Y10160000D03*
%TO.P,RV1,3*%
%TO.N,Net-(RV1-Pad3)*%
X63500000Y5080000D03*
%TD*%
D25*
%TO.P,TP1,1*%
%TO.N,Net-(RV1-Pad3)*%
X48260000Y6350000D03*
%TD*%
%TO.P,TP2,1*%
%TO.N,/IN-*%
X68580000Y27940000D03*
%TD*%
D26*
%TO.P,U1,2*%
%TO.N,Net-(R1-Pad1)*%
X54610000Y7620000D03*
%TO.P,U1,3*%
%TO.N,Net-(RV1-Pad3)*%
X54610000Y6350000D03*
D27*
%TO.P,U1,1*%
%TO.N,N/C*%
X54610000Y8890000D03*
%TD*%
D15*
%TO.P,U2,1*%
%TO.N,/V+*%
X33020000Y10160000D03*
D18*
%TO.P,U2,21*%
%TO.N,GND*%
X17780000Y58420000D03*
%TO.P,U2,2*%
%TO.N,Net-(D1-Pad24)*%
X33020000Y12700000D03*
%TO.P,U2,22*%
%TO.N,Net-(D1-Pad7)*%
X17780000Y55880000D03*
%TO.P,U2,3*%
%TO.N,Net-(D1-Pad26)*%
X33020000Y15240000D03*
%TO.P,U2,23*%
%TO.N,Net-(D1-Pad11)*%
X17780000Y53340000D03*
%TO.P,U2,4*%
%TO.N,Net-(D1-Pad28)*%
X33020000Y17780000D03*
%TO.P,U2,24*%
%TO.N,Net-(D1-Pad8)*%
X17780000Y50800000D03*
%TO.P,U2,5*%
%TO.N,Net-(D1-Pad29)*%
X33020000Y20320000D03*
%TO.P,U2,25*%
%TO.N,Net-(D1-Pad35)*%
X17780000Y48260000D03*
%TO.P,U2,6*%
%TO.N,Net-(D1-Pad30)*%
X33020000Y22860000D03*
%TO.P,U2,26*%
%TO.N,/V-*%
X17780000Y45720000D03*
%TO.P,U2,7*%
%TO.N,Net-(D1-Pad25)*%
X33020000Y25400000D03*
%TO.P,U2,27*%
%TO.N,Net-(C4-Pad1)*%
X17780000Y43180000D03*
%TO.P,U2,8*%
%TO.N,Net-(D1-Pad23)*%
X33020000Y27940000D03*
%TO.P,U2,28*%
%TO.N,Net-(R4-Pad1)*%
X17780000Y40640000D03*
%TO.P,U2,9*%
%TO.N,Net-(D1-Pad20)*%
X33020000Y30480000D03*
%TO.P,U2,29*%
%TO.N,Net-(C2-Pad1)*%
X17780000Y38100000D03*
%TO.P,U2,10*%
%TO.N,Net-(D1-Pad21)*%
X33020000Y33020000D03*
%TO.P,U2,30*%
%TO.N,/IN-*%
X17780000Y35560000D03*
%TO.P,U2,11*%
%TO.N,Net-(D1-Pad33)*%
X33020000Y35560000D03*
%TO.P,U2,31*%
%TO.N,Net-(C3-Pad1)*%
X17780000Y33020000D03*
%TO.P,U2,12*%
%TO.N,Net-(D1-Pad34)*%
X33020000Y38100000D03*
%TO.P,U2,32*%
%TO.N,/IN-*%
X17780000Y30480000D03*
%TO.P,U2,13*%
%TO.N,Net-(D1-Pad36)*%
X33020000Y40640000D03*
%TO.P,U2,33*%
%TO.N,Net-(C5-Pad2)*%
X17780000Y27940000D03*
%TO.P,U2,14*%
%TO.N,Net-(D1-Pad19)*%
X33020000Y43180000D03*
%TO.P,U2,34*%
%TO.N,Net-(C5-Pad1)*%
X17780000Y25400000D03*
%TO.P,U2,15*%
%TO.N,Net-(D1-Pad6)*%
X33020000Y45720000D03*
%TO.P,U2,35*%
%TO.N,/IN-*%
X17780000Y22860000D03*
%TO.P,U2,16*%
%TO.N,Net-(D1-Pad10)*%
X33020000Y48260000D03*
%TO.P,U2,36*%
%TO.N,Net-(RV1-Pad3)*%
X17780000Y20320000D03*
%TO.P,U2,17*%
%TO.N,Net-(D1-Pad12)*%
X33020000Y50800000D03*
%TO.P,U2,37*%
%TO.N,Net-(U2-Pad37)*%
X17780000Y17780000D03*
%TO.P,U2,18*%
%TO.N,Net-(D1-Pad5)*%
X33020000Y53340000D03*
%TO.P,U2,38*%
%TO.N,/OSC3*%
X17780000Y15240000D03*
%TO.P,U2,19*%
%TO.N,Net-(D1-Pad15)*%
X33020000Y55880000D03*
%TO.P,U2,39*%
%TO.N,Net-(R3-Pad1)*%
X17780000Y12700000D03*
%TO.P,U2,20*%
%TO.N,Net-(D1-Pad17)*%
X33020000Y58420000D03*
%TO.P,U2,40*%
%TO.N,Net-(C1-Pad2)*%
X17780000Y10160000D03*
%TD*%
D27*
%TO.P,U3,1*%
%TO.N,Net-(C6-Pad1)*%
X62230000Y33020000D03*
D26*
%TO.P,U3,3*%
%TO.N,/V+*%
X62230000Y30480000D03*
%TO.P,U3,2*%
%TO.N,GND*%
X62230000Y31750000D03*
%TD*%
D15*
%TO.P,U4,1*%
%TO.N,Net-(U4-Pad1)*%
X45720000Y57150000D03*
D18*
%TO.P,U4,8*%
%TO.N,Net-(C10-Pad2)*%
X53340000Y41910000D03*
%TO.P,U4,2*%
X45720000Y54610000D03*
%TO.P,U4,9*%
%TO.N,Net-(U4-Pad1)*%
X53340000Y44450000D03*
%TO.P,U4,3*%
X45720000Y52070000D03*
%TO.P,U4,10*%
%TO.N,Net-(C10-Pad2)*%
X53340000Y46990000D03*
%TO.P,U4,4*%
X45720000Y49530000D03*
%TO.P,U4,11*%
%TO.N,Net-(U4-Pad1)*%
X53340000Y49530000D03*
%TO.P,U4,5*%
X45720000Y46990000D03*
%TO.P,U4,12*%
X53340000Y52070000D03*
%TO.P,U4,6*%
%TO.N,Net-(C10-Pad2)*%
X45720000Y44450000D03*
%TO.P,U4,13*%
%TO.N,/negative voltage converter/OSC3*%
X53340000Y54610000D03*
%TO.P,U4,7*%
%TO.N,GND*%
X45720000Y41910000D03*
%TO.P,U4,14*%
%TO.N,/negative voltage converter/V+*%
X53340000Y57150000D03*
%TD*%
D28*
%TO.N,Net-(C3-Pad1)*%
X25273200Y29210000D03*
%TO.N,Net-(D1-Pad26)*%
X9330800Y11449700D03*
%TD*%
D29*
%TO.N,/OSC3*%
X17780000Y15240000D02*
X19030300Y15240000D01*
X19030300Y15240000D02*
X30460300Y26670000D01*
X30460300Y26670000D02*
X34290000Y26670000D01*
X34290000Y26670000D02*
X38100000Y30480000D01*
%TO.N,Net-(C1-Pad2)*%
X38100000Y13970000D02*
X38100000Y15120300D01*
X38100000Y15120300D02*
X39298600Y16318900D01*
X39298600Y16318900D02*
X39298600Y24281400D01*
X39298600Y24281400D02*
X38100000Y25480000D01*
%TO.N,Net-(C3-Pad1)*%
X17780000Y33020000D02*
X21463200Y33020000D01*
X21463200Y33020000D02*
X25273200Y29210000D01*
%TO.N,/IN-*%
X17780000Y30480000D02*
X17780000Y29229700D01*
X17780000Y22860000D02*
X17780000Y24110300D01*
X17780000Y24110300D02*
X17233000Y24110300D01*
X17233000Y24110300D02*
X16490400Y24852900D01*
X16490400Y24852900D02*
X16490400Y28458200D01*
X16490400Y28458200D02*
X17261900Y29229700D01*
X17261900Y29229700D02*
X17780000Y29229700D01*
X60960000Y10160000D02*
X66110800Y15310800D01*
X66110800Y15310800D02*
X66110800Y20310800D01*
X66110800Y20310800D02*
X68580000Y22780000D01*
X68580000Y27940000D02*
X68580000Y22780000D01*
X17780000Y30480000D02*
X17780000Y31730300D01*
X17780000Y35560000D02*
X17780000Y34309700D01*
X17780000Y34309700D02*
X17233000Y34309700D01*
X17233000Y34309700D02*
X16490400Y33567100D01*
X16490400Y33567100D02*
X16490400Y32501800D01*
X16490400Y32501800D02*
X17261900Y31730300D01*
X17261900Y31730300D02*
X17780000Y31730300D01*
%TO.N,Net-(C6-Pad1)*%
X72390000Y55484800D02*
X80424900Y55484800D01*
X80424900Y55484800D02*
X81299700Y54610000D01*
X66040000Y49810300D02*
X71714500Y55484800D01*
X71714500Y55484800D02*
X72390000Y55484800D01*
X72390000Y55484800D02*
X72390000Y57150000D01*
X82550000Y54610000D02*
X81299700Y54610000D01*
X66040000Y48260000D02*
X66040000Y49810300D01*
%TO.N,GND*%
X45720000Y35480000D02*
X34448500Y24208500D01*
X34448500Y24208500D02*
X34448500Y22452600D01*
X34448500Y22452600D02*
X33585900Y21590000D01*
X33585900Y21590000D02*
X32521600Y21590000D01*
X32521600Y21590000D02*
X26670000Y15738400D01*
X26670000Y15738400D02*
X26670000Y5080000D01*
X45720000Y41910000D02*
X45720000Y35480000D01*
X81280000Y43100000D02*
X81280000Y44540300D01*
X81280000Y44540300D02*
X82550000Y45810300D01*
X82550000Y45810300D02*
X82550000Y52110000D01*
X45720000Y41910000D02*
X44469700Y41910000D01*
X17780000Y58420000D02*
X19030300Y58420000D01*
X19030300Y58420000D02*
X27920300Y49530000D01*
X27920300Y49530000D02*
X33960100Y49530000D01*
X33960100Y49530000D02*
X37480400Y46009700D01*
X37480400Y46009700D02*
X40758600Y46009700D01*
X40758600Y46009700D02*
X44469700Y42298600D01*
X44469700Y42298600D02*
X44469700Y41910000D01*
%TO.N,/V+*%
X62230000Y30480000D02*
X63430300Y30480000D01*
X63430300Y30480000D02*
X63500000Y30549700D01*
X63500000Y30549700D02*
X63500000Y64770000D01*
X46990000Y12700000D02*
X46990000Y13850300D01*
X46990000Y13850300D02*
X45720000Y15120300D01*
X45720000Y15120300D02*
X45720000Y30480000D01*
%TO.N,Net-(C10-Pad2)*%
X52089700Y46990000D02*
X52089700Y43892500D01*
X52089700Y43892500D02*
X52821900Y43160300D01*
X52821900Y43160300D02*
X53340000Y43160300D01*
X53340000Y41910000D02*
X53340000Y43160300D01*
X46983100Y46990000D02*
X52089700Y46990000D01*
X46983100Y46990000D02*
X46983100Y47534700D01*
X46983100Y47534700D02*
X46238100Y48279700D01*
X46238100Y48279700D02*
X45720000Y48279700D01*
X45720000Y45065900D02*
X46983100Y46329000D01*
X46983100Y46329000D02*
X46983100Y46990000D01*
X53340000Y46990000D02*
X52089700Y46990000D01*
X45720000Y49530000D02*
X45720000Y48279700D01*
X45720000Y54610000D02*
X45720000Y53359700D01*
X45720000Y49530000D02*
X45720000Y50780300D01*
X45720000Y50780300D02*
X45173000Y50780300D01*
X45173000Y50780300D02*
X44430400Y51522900D01*
X44430400Y51522900D02*
X44430400Y52588200D01*
X44430400Y52588200D02*
X45201900Y53359700D01*
X45201900Y53359700D02*
X45720000Y53359700D01*
X45720000Y44450000D02*
X45720000Y45065900D01*
%TO.N,/negative voltage converter/V-*%
X62230000Y49530000D02*
X62230000Y48279700D01*
X62230000Y48279700D02*
X60920000Y46969700D01*
X60920000Y46969700D02*
X60920000Y43180000D01*
%TO.N,/DP4*%
X20320000Y5080000D02*
X21630100Y3769900D01*
X21630100Y3769900D02*
X21630100Y2009600D01*
X21630100Y2009600D02*
X20859100Y1238600D01*
X20859100Y1238600D02*
X12123100Y1238600D01*
X12123100Y1238600D02*
X1247500Y12114200D01*
X1247500Y12114200D02*
X1247500Y48699200D01*
X1247500Y48699200D02*
X3348300Y50800000D01*
X3348300Y50800000D02*
X5080000Y50800000D01*
X5080000Y50800000D02*
X6350000Y49530000D01*
%TO.N,Net-(D1-Pad13)*%
X3810000Y46990000D02*
X3810000Y44450000D01*
X11430000Y64770000D02*
X11430000Y52887900D01*
X11430000Y52887900D02*
X6802100Y48260000D01*
X6802100Y48260000D02*
X5080000Y48260000D01*
X5080000Y48260000D02*
X3810000Y46990000D01*
X3810000Y44450000D02*
X1906300Y42546300D01*
X1906300Y42546300D02*
X1906300Y23493700D01*
X1906300Y23493700D02*
X3810000Y21590000D01*
X3810000Y19050000D02*
X3810000Y21590000D01*
%TO.N,Net-(D1-Pad6)*%
X33020000Y45720000D02*
X29790200Y45720000D01*
X29790200Y45720000D02*
X18360200Y57150000D01*
X18360200Y57150000D02*
X17216700Y57150000D01*
X17216700Y57150000D02*
X7677600Y47610900D01*
X7677600Y47610900D02*
X7677600Y45777600D01*
X7677600Y45777600D02*
X6350000Y44450000D01*
%TO.N,Net-(D1-Pad7)*%
X17780000Y54629700D02*
X17261900Y54629700D01*
X17261900Y54629700D02*
X16221100Y53588900D01*
X16221100Y53588900D02*
X16221100Y51781100D01*
X16221100Y51781100D02*
X6350000Y41910000D01*
X17780000Y55880000D02*
X17780000Y54629700D01*
%TO.N,Net-(D1-Pad8)*%
X17780000Y50800000D02*
X16529700Y50800000D01*
X16529700Y50800000D02*
X16529700Y49549700D01*
X16529700Y49549700D02*
X6350000Y39370000D01*
%TO.N,/DP3*%
X17780000Y5080000D02*
X17780000Y6380300D01*
X6350000Y36830000D02*
X2563600Y33043600D01*
X2563600Y33043600D02*
X2563600Y26184200D01*
X2563600Y26184200D02*
X3347800Y25400000D01*
X3347800Y25400000D02*
X6872600Y25400000D01*
X6872600Y25400000D02*
X16529600Y15743000D01*
X16529600Y15743000D02*
X16529600Y7630700D01*
X16529600Y7630700D02*
X17780000Y6380300D01*
%TO.N,/DP1*%
X12700000Y5080000D02*
X12700000Y6380300D01*
X12700000Y6380300D02*
X11399700Y6380300D01*
X11399700Y6380300D02*
X6350000Y11430000D01*
%TO.N,/DP2*%
X15240000Y5080000D02*
X15240000Y15240000D01*
X15240000Y15240000D02*
X6350000Y24130000D01*
%TO.N,/IN+*%
X81280000Y17780000D02*
X81280000Y22860000D01*
%TO.N,Net-(R1-Pad1)*%
X55810300Y11499700D02*
X62090600Y17780000D01*
X62090600Y17780000D02*
X63500000Y17780000D01*
X55810300Y11499700D02*
X54610000Y12700000D01*
X55810300Y7620000D02*
X55810300Y11499700D01*
X54610000Y7620000D02*
X55810300Y7620000D01*
%TO.N,Net-(R4-Pad1)*%
X17780000Y40640000D02*
X19030300Y40640000D01*
X19030300Y40640000D02*
X20319900Y41929600D01*
X20319900Y41929600D02*
X33569600Y41929600D01*
X33569600Y41929600D02*
X39939200Y35560000D01*
X39939200Y35560000D02*
X41910000Y35560000D01*
%TO.N,Net-(U4-Pad1)*%
X53340000Y52070000D02*
X53340000Y49530000D01*
%TO.N,Net-(D1-Pad35)*%
X17780000Y48260000D02*
X17780000Y47009700D01*
X3810000Y29210000D02*
X5137600Y30537600D01*
X5137600Y30537600D02*
X5137600Y32706300D01*
X5137600Y32706300D02*
X16490400Y44059100D01*
X16490400Y44059100D02*
X16490400Y46238200D01*
X16490400Y46238200D02*
X17261900Y47009700D01*
X17261900Y47009700D02*
X17780000Y47009700D01*
%TO.N,Net-(D1-Pad34)*%
X33020000Y38100000D02*
X31769700Y38100000D01*
X31769700Y38100000D02*
X30519400Y36849700D01*
X30519400Y36849700D02*
X17263500Y36849700D01*
X17263500Y36849700D02*
X8353800Y27940000D01*
X8353800Y27940000D02*
X5080000Y27940000D01*
X5080000Y27940000D02*
X3810000Y26670000D01*
%TO.N,Net-(D1-Pad26)*%
X6350000Y13970000D02*
X6810500Y13970000D01*
X6810500Y13970000D02*
X9330800Y11449700D01*
%TO.N,Net-(D1-Pad21)*%
X33020000Y33020000D02*
X31769700Y33020000D01*
X31769700Y33020000D02*
X20339700Y21590000D01*
X20339700Y21590000D02*
X14628800Y21590000D01*
X14628800Y21590000D02*
X9548800Y26670000D01*
X9548800Y26670000D02*
X6350000Y26670000D01*
%TO.N,Net-(D1-Pad20)*%
X33020000Y30480000D02*
X33020000Y31730300D01*
X33020000Y31730300D02*
X33567000Y31730300D01*
X33567000Y31730300D02*
X34319500Y32482800D01*
X34319500Y32482800D02*
X34319500Y38584800D01*
X34319500Y38584800D02*
X33534300Y39370000D01*
X33534300Y39370000D02*
X16510000Y39370000D01*
X16510000Y39370000D02*
X6350000Y29210000D01*
%TD*%
M02*
