%TF.GenerationSoftware,KiCad,Pcbnew,5.1.6-c6e7f7d~87~ubuntu18.04.1*%
%TF.CreationDate,2020-07-31T15:45:01+02:00*%
%TF.ProjectId,ICL7107,49434c37-3130-4372-9e6b-696361645f70,2.0*%
%TF.SameCoordinates,PX525bfc0PY7a53eb0*%
%TF.FileFunction,Legend,Bot*%
%TF.FilePolarity,Positive*%
%FSLAX46Y46*%
G04 Gerber Fmt 4.6, Leading zero omitted, Abs format (unit mm)*
G04 Created by KiCad (PCBNEW 5.1.6-c6e7f7d~87~ubuntu18.04.1) date 2020-07-31 15:45:01*
%MOMM*%
%LPD*%
G01*
G04 APERTURE LIST*
%ADD10O,1.800000X1.800000*%
%ADD11R,1.800000X1.800000*%
%ADD12C,2.700000*%
%ADD13O,1.700000X1.700000*%
%ADD14R,1.700000X1.700000*%
%ADD15C,1.624000*%
%ADD16R,1.624000X1.624000*%
%ADD17O,1.500000X1.500000*%
%ADD18C,1.500000*%
%ADD19C,1.700000*%
%ADD20O,2.300000X2.300000*%
%ADD21R,2.300000X2.300000*%
%ADD22C,4.500000*%
%ADD23C,1.900000*%
%ADD24O,1.600000X1.150000*%
%ADD25R,1.600000X1.150000*%
G04 APERTURE END LIST*
%LPC*%
D10*
%TO.C,J3*%
X85090000Y22860000D03*
D11*
X85090000Y25400000D03*
%TD*%
D10*
%TO.C,J1*%
X85090000Y43180000D03*
D11*
X85090000Y45720000D03*
%TD*%
D12*
%TO.C,TP2*%
X62230000Y25400000D03*
%TD*%
%TO.C,TP1*%
X48260000Y6350000D03*
%TD*%
D13*
%TO.C,D2*%
X71120000Y6350000D03*
D14*
X71120000Y13970000D03*
%TD*%
D13*
%TO.C,D1*%
X77470000Y13970000D03*
D14*
X77470000Y6350000D03*
%TD*%
D15*
%TO.C,D3*%
X3810000Y31750000D03*
X3810000Y29210000D03*
X3810000Y26670000D03*
X3810000Y24130000D03*
X3810000Y21590000D03*
X3810000Y19050000D03*
X3810000Y16510000D03*
X3810000Y13970000D03*
X3810000Y11430000D03*
X6350000Y11430000D03*
X6350000Y13970000D03*
X6350000Y16510000D03*
X6350000Y19050000D03*
X6350000Y21590000D03*
X6350000Y24130000D03*
X6350000Y26670000D03*
X6350000Y29210000D03*
D16*
X6350000Y31750000D03*
D15*
X3810000Y57150000D03*
X3810000Y54610000D03*
X3810000Y52070000D03*
X3810000Y49530000D03*
X3810000Y46990000D03*
X3810000Y44450000D03*
X3810000Y41910000D03*
X3810000Y39370000D03*
X3810000Y36830000D03*
X6350000Y36830000D03*
X6350000Y39370000D03*
X6350000Y41910000D03*
X6350000Y44450000D03*
X6350000Y46990000D03*
X6350000Y49530000D03*
X6350000Y52070000D03*
X6350000Y54610000D03*
D16*
X6350000Y57150000D03*
%TD*%
D17*
%TO.C,R5*%
X26035000Y2540000D03*
D18*
X26035000Y5080000D03*
%TD*%
D19*
%TO.C,C1*%
X17780000Y26670000D03*
X17780000Y21670000D03*
%TD*%
%TO.C,C2*%
X17780000Y39450000D03*
X17780000Y44450000D03*
%TD*%
%TO.C,C3*%
X68580000Y17780000D03*
X68580000Y22780000D03*
%TD*%
%TO.C,C4*%
X17780000Y53340000D03*
X17780000Y48340000D03*
%TD*%
%TO.C,C5*%
X17780000Y30480000D03*
X17780000Y35480000D03*
%TD*%
D14*
%TO.C,C6*%
X79375000Y31750000D03*
D19*
X79375000Y29250000D03*
%TD*%
%TO.C,C7*%
X73660000Y33655000D03*
X73660000Y28655000D03*
%TD*%
D14*
%TO.C,C8*%
X55880000Y30480000D03*
D19*
X55880000Y32980000D03*
%TD*%
%TO.C,C9*%
X50165000Y35480000D03*
X50165000Y30480000D03*
%TD*%
%TO.C,C10*%
X66040000Y52150000D03*
X66040000Y57150000D03*
%TD*%
%TO.C,C11*%
X60920000Y43180000D03*
D14*
X58420000Y43180000D03*
%TD*%
D20*
%TO.C,D4*%
X66040000Y48895000D03*
D21*
X66040000Y38735000D03*
%TD*%
D20*
%TO.C,D5*%
X21590000Y64770000D03*
D21*
X11430000Y64770000D03*
%TD*%
%TO.C,D6*%
X25400000Y64770000D03*
D20*
X35560000Y64770000D03*
%TD*%
D21*
%TO.C,D7*%
X39370000Y64770000D03*
D20*
X49530000Y64770000D03*
%TD*%
D21*
%TO.C,D8*%
X53340000Y64770000D03*
D20*
X63500000Y64770000D03*
%TD*%
D13*
%TO.C,D9*%
X58420000Y57150000D03*
D14*
X58420000Y49530000D03*
%TD*%
%TO.C,D10*%
X62230000Y57150000D03*
D13*
X62230000Y49530000D03*
%TD*%
D11*
%TO.C,J2*%
X20320000Y5080000D03*
D10*
X20320000Y2540000D03*
X17780000Y5080000D03*
X17780000Y2540000D03*
X15240000Y5080000D03*
X15240000Y2540000D03*
X12700000Y5080000D03*
X12700000Y2540000D03*
%TD*%
D22*
%TO.C,M1*%
X5080000Y64770000D03*
%TD*%
%TO.C,M2*%
X85090000Y64770000D03*
%TD*%
%TO.C,M3*%
X85090000Y3810000D03*
%TD*%
%TO.C,M4*%
X5080000Y3810000D03*
%TD*%
D18*
%TO.C,R2*%
X54610000Y12700000D03*
D17*
X46990000Y12700000D03*
%TD*%
D18*
%TO.C,R1*%
X73660000Y17780000D03*
D17*
X81280000Y17780000D03*
%TD*%
D18*
%TO.C,R3*%
X17780000Y17780000D03*
D17*
X17780000Y10160000D03*
%TD*%
%TO.C,R4*%
X13335000Y39370000D03*
D18*
X13335000Y31750000D03*
%TD*%
D23*
%TO.C,RV1*%
X63500000Y17780000D03*
X60960000Y10160000D03*
X63500000Y5080000D03*
%TD*%
D24*
%TO.C,U1*%
X54610000Y6350000D03*
X54610000Y7620000D03*
D25*
X54610000Y5080000D03*
%TD*%
D14*
%TO.C,U2*%
X38735000Y10160000D03*
D13*
X23495000Y58420000D03*
X38735000Y12700000D03*
X23495000Y55880000D03*
X38735000Y15240000D03*
X23495000Y53340000D03*
X38735000Y17780000D03*
X23495000Y50800000D03*
X38735000Y20320000D03*
X23495000Y48260000D03*
X38735000Y22860000D03*
X23495000Y45720000D03*
X38735000Y25400000D03*
X23495000Y43180000D03*
X38735000Y27940000D03*
X23495000Y40640000D03*
X38735000Y30480000D03*
X23495000Y38100000D03*
X38735000Y33020000D03*
X23495000Y35560000D03*
X38735000Y35560000D03*
X23495000Y33020000D03*
X38735000Y38100000D03*
X23495000Y30480000D03*
X38735000Y40640000D03*
X23495000Y27940000D03*
X38735000Y43180000D03*
X23495000Y25400000D03*
X38735000Y45720000D03*
X23495000Y22860000D03*
X38735000Y48260000D03*
X23495000Y20320000D03*
X38735000Y50800000D03*
X23495000Y17780000D03*
X38735000Y53340000D03*
X23495000Y15240000D03*
X38735000Y55880000D03*
X23495000Y12700000D03*
X38735000Y58420000D03*
X23495000Y10160000D03*
%TD*%
D25*
%TO.C,U3*%
X66040000Y33020000D03*
D24*
X66040000Y30480000D03*
X66040000Y31750000D03*
%TD*%
D14*
%TO.C,U4*%
X45720000Y57150000D03*
D13*
X53340000Y41910000D03*
X45720000Y54610000D03*
X53340000Y44450000D03*
X45720000Y52070000D03*
X53340000Y46990000D03*
X45720000Y49530000D03*
X53340000Y49530000D03*
X45720000Y46990000D03*
X53340000Y52070000D03*
X45720000Y44450000D03*
X53340000Y54610000D03*
X45720000Y41910000D03*
X53340000Y57150000D03*
%TD*%
M02*
