%TF.GenerationSoftware,KiCad,Pcbnew,5.1.6-c6e7f7d~86~ubuntu18.04.1*%
%TF.CreationDate,2020-06-30T16:43:30+02:00*%
%TF.ProjectId,ICL7107,49434c37-3130-4372-9e6b-696361645f70,1.0*%
%TF.SameCoordinates,PX525bfc0PY7a53eb0*%
%TF.FileFunction,Legend,Bot*%
%TF.FilePolarity,Positive*%
%FSLAX46Y46*%
G04 Gerber Fmt 4.6, Leading zero omitted, Abs format (unit mm)*
G04 Created by KiCad (PCBNEW 5.1.6-c6e7f7d~86~ubuntu18.04.1) date 2020-06-30 16:43:30*
%MOMM*%
%LPD*%
G01*
G04 APERTURE LIST*
%ADD10C,1.624000*%
%ADD11R,1.624000X1.624000*%
%ADD12O,1.500000X1.500000*%
%ADD13C,1.500000*%
%ADD14C,1.700000*%
%ADD15R,1.700000X1.700000*%
%ADD16O,2.300000X2.300000*%
%ADD17R,2.300000X2.300000*%
%ADD18O,1.700000X1.700000*%
%ADD19R,4.060000X2.080000*%
%ADD20O,4.060000X2.080000*%
%ADD21R,1.800000X1.800000*%
%ADD22O,1.800000X1.800000*%
%ADD23C,4.500000*%
%ADD24C,1.900000*%
%ADD25C,2.100000*%
%ADD26O,1.600000X1.150000*%
%ADD27R,1.600000X1.150000*%
G04 APERTURE END LIST*
%LPC*%
D10*
%TO.C,D1*%
X3810000Y31750000D03*
X3810000Y29210000D03*
X3810000Y26670000D03*
X3810000Y24130000D03*
X3810000Y21590000D03*
X3810000Y19050000D03*
X3810000Y16510000D03*
X3810000Y13970000D03*
X3810000Y11430000D03*
X6350000Y11430000D03*
X6350000Y13970000D03*
X6350000Y16510000D03*
X6350000Y19050000D03*
X6350000Y21590000D03*
X6350000Y24130000D03*
X6350000Y26670000D03*
X6350000Y29210000D03*
D11*
X6350000Y31750000D03*
D10*
X3810000Y57150000D03*
X3810000Y54610000D03*
X3810000Y52070000D03*
X3810000Y49530000D03*
X3810000Y46990000D03*
X3810000Y44450000D03*
X3810000Y41910000D03*
X3810000Y39370000D03*
X3810000Y36830000D03*
X6350000Y36830000D03*
X6350000Y39370000D03*
X6350000Y41910000D03*
X6350000Y44450000D03*
X6350000Y46990000D03*
X6350000Y49530000D03*
X6350000Y52070000D03*
X6350000Y54610000D03*
D11*
X6350000Y57150000D03*
%TD*%
D12*
%TO.C,R5*%
X26670000Y2540000D03*
D13*
X26670000Y5080000D03*
%TD*%
D14*
%TO.C,C1*%
X38100000Y30480000D03*
X38100000Y25480000D03*
%TD*%
%TO.C,C2*%
X38100000Y43260000D03*
X38100000Y48260000D03*
%TD*%
%TO.C,C3*%
X68580000Y17780000D03*
X68580000Y22780000D03*
%TD*%
%TO.C,C4*%
X38100000Y57150000D03*
X38100000Y52150000D03*
%TD*%
%TO.C,C5*%
X38100000Y34290000D03*
X38100000Y39290000D03*
%TD*%
D15*
%TO.C,C6*%
X82550000Y54610000D03*
D14*
X82550000Y52110000D03*
%TD*%
%TO.C,C7*%
X72390000Y57150000D03*
X72390000Y52150000D03*
%TD*%
D15*
%TO.C,C8*%
X53340000Y30480000D03*
D14*
X53340000Y32980000D03*
%TD*%
%TO.C,C9*%
X45720000Y35480000D03*
X45720000Y30480000D03*
%TD*%
%TO.C,C10*%
X66040000Y52150000D03*
X66040000Y57150000D03*
%TD*%
%TO.C,C11*%
X60920000Y43180000D03*
D15*
X58420000Y43180000D03*
%TD*%
D16*
%TO.C,D2*%
X66040000Y38100000D03*
D17*
X66040000Y48260000D03*
%TD*%
D16*
%TO.C,D3*%
X21590000Y64770000D03*
D17*
X11430000Y64770000D03*
%TD*%
%TO.C,D4*%
X25400000Y64770000D03*
D16*
X35560000Y64770000D03*
%TD*%
D17*
%TO.C,D5*%
X39370000Y64770000D03*
D16*
X49530000Y64770000D03*
%TD*%
D17*
%TO.C,D6*%
X53340000Y64770000D03*
D16*
X63500000Y64770000D03*
%TD*%
D18*
%TO.C,D7*%
X58420000Y57150000D03*
D15*
X58420000Y49530000D03*
%TD*%
%TO.C,D8*%
X62230000Y57150000D03*
D18*
X62230000Y49530000D03*
%TD*%
D19*
%TO.C,J1*%
X81280000Y38100000D03*
D20*
X81280000Y43100000D03*
%TD*%
D21*
%TO.C,J2*%
X20320000Y5080000D03*
D22*
X20320000Y2540000D03*
X17780000Y5080000D03*
X17780000Y2540000D03*
X15240000Y5080000D03*
X15240000Y2540000D03*
X12700000Y5080000D03*
X12700000Y2540000D03*
%TD*%
D20*
%TO.C,J3*%
X81280000Y27860000D03*
D19*
X81280000Y22860000D03*
%TD*%
D23*
%TO.C,M1*%
X5080000Y64770000D03*
%TD*%
%TO.C,M2*%
X85090000Y64770000D03*
%TD*%
%TO.C,M3*%
X85090000Y3810000D03*
%TD*%
%TO.C,M4*%
X5080000Y3810000D03*
%TD*%
D13*
%TO.C,R1*%
X54610000Y12700000D03*
D12*
X46990000Y12700000D03*
%TD*%
D13*
%TO.C,R2*%
X73660000Y17780000D03*
D12*
X81280000Y17780000D03*
%TD*%
D13*
%TO.C,R3*%
X38100000Y21590000D03*
D12*
X38100000Y13970000D03*
%TD*%
%TO.C,R4*%
X41910000Y43180000D03*
D13*
X41910000Y35560000D03*
%TD*%
D24*
%TO.C,RV1*%
X63500000Y17780000D03*
X60960000Y10160000D03*
X63500000Y5080000D03*
%TD*%
D25*
%TO.C,TP1*%
X48260000Y6350000D03*
%TD*%
%TO.C,TP2*%
X68580000Y27940000D03*
%TD*%
D26*
%TO.C,U1*%
X54610000Y7620000D03*
X54610000Y6350000D03*
D27*
X54610000Y8890000D03*
%TD*%
D15*
%TO.C,U2*%
X33020000Y10160000D03*
D18*
X17780000Y58420000D03*
X33020000Y12700000D03*
X17780000Y55880000D03*
X33020000Y15240000D03*
X17780000Y53340000D03*
X33020000Y17780000D03*
X17780000Y50800000D03*
X33020000Y20320000D03*
X17780000Y48260000D03*
X33020000Y22860000D03*
X17780000Y45720000D03*
X33020000Y25400000D03*
X17780000Y43180000D03*
X33020000Y27940000D03*
X17780000Y40640000D03*
X33020000Y30480000D03*
X17780000Y38100000D03*
X33020000Y33020000D03*
X17780000Y35560000D03*
X33020000Y35560000D03*
X17780000Y33020000D03*
X33020000Y38100000D03*
X17780000Y30480000D03*
X33020000Y40640000D03*
X17780000Y27940000D03*
X33020000Y43180000D03*
X17780000Y25400000D03*
X33020000Y45720000D03*
X17780000Y22860000D03*
X33020000Y48260000D03*
X17780000Y20320000D03*
X33020000Y50800000D03*
X17780000Y17780000D03*
X33020000Y53340000D03*
X17780000Y15240000D03*
X33020000Y55880000D03*
X17780000Y12700000D03*
X33020000Y58420000D03*
X17780000Y10160000D03*
%TD*%
D27*
%TO.C,U3*%
X62230000Y33020000D03*
D26*
X62230000Y30480000D03*
X62230000Y31750000D03*
%TD*%
D15*
%TO.C,U4*%
X45720000Y57150000D03*
D18*
X53340000Y41910000D03*
X45720000Y54610000D03*
X53340000Y44450000D03*
X45720000Y52070000D03*
X53340000Y46990000D03*
X45720000Y49530000D03*
X53340000Y49530000D03*
X45720000Y46990000D03*
X53340000Y52070000D03*
X45720000Y44450000D03*
X53340000Y54610000D03*
X45720000Y41910000D03*
X53340000Y57150000D03*
%TD*%
M02*
