%TF.GenerationSoftware,KiCad,Pcbnew,5.1.6-c6e7f7d~86~ubuntu18.04.1*%
%TF.CreationDate,2020-05-28T04:20:42+02:00*%
%TF.ProjectId,ICL7107,49434c37-3130-4372-9e6b-696361645f70,1.0*%
%TF.SameCoordinates,PX525bfc0PY7a53eb0*%
%TF.FileFunction,Copper,L2,Bot*%
%TF.FilePolarity,Positive*%
%FSLAX46Y46*%
G04 Gerber Fmt 4.6, Leading zero omitted, Abs format (unit mm)*
G04 Created by KiCad (PCBNEW 5.1.6-c6e7f7d~86~ubuntu18.04.1) date 2020-05-28 04:20:42*
%MOMM*%
%LPD*%
G01*
G04 APERTURE LIST*
%TA.AperFunction,ComponentPad*%
%ADD10C,1.524000*%
%TD*%
%TA.AperFunction,ComponentPad*%
%ADD11R,1.524000X1.524000*%
%TD*%
%TA.AperFunction,ComponentPad*%
%ADD12O,1.400000X1.400000*%
%TD*%
%TA.AperFunction,ComponentPad*%
%ADD13C,1.400000*%
%TD*%
%TA.AperFunction,ComponentPad*%
%ADD14C,1.600000*%
%TD*%
%TA.AperFunction,ComponentPad*%
%ADD15R,1.600000X1.600000*%
%TD*%
%TA.AperFunction,ComponentPad*%
%ADD16O,2.200000X2.200000*%
%TD*%
%TA.AperFunction,ComponentPad*%
%ADD17R,2.200000X2.200000*%
%TD*%
%TA.AperFunction,ComponentPad*%
%ADD18O,1.600000X1.600000*%
%TD*%
%TA.AperFunction,ComponentPad*%
%ADD19R,3.960000X1.980000*%
%TD*%
%TA.AperFunction,ComponentPad*%
%ADD20O,3.960000X1.980000*%
%TD*%
%TA.AperFunction,ComponentPad*%
%ADD21R,1.700000X1.700000*%
%TD*%
%TA.AperFunction,ComponentPad*%
%ADD22O,1.700000X1.700000*%
%TD*%
%TA.AperFunction,ComponentPad*%
%ADD23C,4.400000*%
%TD*%
%TA.AperFunction,ComponentPad*%
%ADD24C,1.800000*%
%TD*%
%TA.AperFunction,ComponentPad*%
%ADD25C,2.000000*%
%TD*%
%TA.AperFunction,ComponentPad*%
%ADD26O,1.500000X1.050000*%
%TD*%
%TA.AperFunction,ComponentPad*%
%ADD27R,1.500000X1.050000*%
%TD*%
%TA.AperFunction,ViaPad*%
%ADD28C,0.800000*%
%TD*%
%TA.AperFunction,Conductor*%
%ADD29C,0.400000*%
%TD*%
G04 APERTURE END LIST*
D10*
%TO.P,D1,36*%
%TO.N,Net-(D1-Pad36)*%
X3810000Y31750000D03*
%TO.P,D1,35*%
%TO.N,Net-(D1-Pad35)*%
X3810000Y29210000D03*
%TO.P,D1,34*%
%TO.N,Net-(D1-Pad34)*%
X3810000Y26670000D03*
%TO.P,D1,33*%
%TO.N,Net-(D1-Pad33)*%
X3810000Y24130000D03*
%TO.P,D1,32*%
%TO.N,Net-(D1-Pad13)*%
X3810000Y21590000D03*
%TO.P,D1,31*%
X3810000Y19050000D03*
%TO.P,D1,30*%
%TO.N,Net-(D1-Pad30)*%
X3810000Y16510000D03*
%TO.P,D1,29*%
%TO.N,Net-(D1-Pad29)*%
X3810000Y13970000D03*
%TO.P,D1,28*%
%TO.N,Net-(D1-Pad28)*%
X3810000Y11430000D03*
%TO.P,D1,27*%
%TO.N,/DP1*%
X6350000Y11430000D03*
%TO.P,D1,26*%
%TO.N,Net-(D1-Pad26)*%
X6350000Y13970000D03*
%TO.P,D1,25*%
%TO.N,Net-(D1-Pad25)*%
X6350000Y16510000D03*
%TO.P,D1,24*%
%TO.N,Net-(D1-Pad24)*%
X6350000Y19050000D03*
%TO.P,D1,23*%
%TO.N,Net-(D1-Pad23)*%
X6350000Y21590000D03*
%TO.P,D1,22*%
%TO.N,/DP2*%
X6350000Y24130000D03*
%TO.P,D1,21*%
%TO.N,Net-(D1-Pad21)*%
X6350000Y26670000D03*
%TO.P,D1,20*%
%TO.N,Net-(D1-Pad20)*%
X6350000Y29210000D03*
D11*
%TO.P,D1,19*%
%TO.N,Net-(D1-Pad19)*%
X6350000Y31750000D03*
D10*
%TO.P,D1,18*%
%TO.N,Net-(D1-Pad18)*%
X3810000Y57150000D03*
%TO.P,D1,17*%
%TO.N,Net-(D1-Pad17)*%
X3810000Y54610000D03*
%TO.P,D1,16*%
%TO.N,Net-(D1-Pad16)*%
X3810000Y52070000D03*
%TO.P,D1,15*%
%TO.N,Net-(D1-Pad15)*%
X3810000Y49530000D03*
%TO.P,D1,14*%
%TO.N,Net-(D1-Pad13)*%
X3810000Y46990000D03*
%TO.P,D1,13*%
X3810000Y44450000D03*
%TO.P,D1,12*%
%TO.N,Net-(D1-Pad12)*%
X3810000Y41910000D03*
%TO.P,D1,11*%
%TO.N,Net-(D1-Pad11)*%
X3810000Y39370000D03*
%TO.P,D1,10*%
%TO.N,Net-(D1-Pad10)*%
X3810000Y36830000D03*
%TO.P,D1,9*%
%TO.N,/DP3*%
X6350000Y36830000D03*
%TO.P,D1,8*%
%TO.N,Net-(D1-Pad8)*%
X6350000Y39370000D03*
%TO.P,D1,7*%
%TO.N,Net-(D1-Pad7)*%
X6350000Y41910000D03*
%TO.P,D1,6*%
%TO.N,Net-(D1-Pad6)*%
X6350000Y44450000D03*
%TO.P,D1,5*%
%TO.N,Net-(D1-Pad5)*%
X6350000Y46990000D03*
%TO.P,D1,4*%
%TO.N,/DP4*%
X6350000Y49530000D03*
%TO.P,D1,3*%
%TO.N,Net-(D1-Pad15)*%
X6350000Y52070000D03*
%TO.P,D1,2*%
%TO.N,Net-(D1-Pad2)*%
X6350000Y54610000D03*
D11*
%TO.P,D1,1*%
%TO.N,Net-(D1-Pad1)*%
X6350000Y57150000D03*
%TD*%
D12*
%TO.P,R8,2*%
%TO.N,/DP4*%
X20320000Y11430000D03*
D13*
%TO.P,R8,1*%
%TO.N,Net-(J2-Pad1)*%
X20320000Y8890000D03*
%TD*%
D12*
%TO.P,R7,2*%
%TO.N,/DP3*%
X17780000Y11430000D03*
D13*
%TO.P,R7,1*%
%TO.N,Net-(J2-Pad3)*%
X17780000Y8890000D03*
%TD*%
D12*
%TO.P,R6,2*%
%TO.N,/DP2*%
X15240000Y11430000D03*
D13*
%TO.P,R6,1*%
%TO.N,Net-(J2-Pad5)*%
X15240000Y8890000D03*
%TD*%
D12*
%TO.P,R5,2*%
%TO.N,/DP1*%
X12700000Y11430000D03*
D13*
%TO.P,R5,1*%
%TO.N,Net-(J2-Pad7)*%
X12700000Y8890000D03*
%TD*%
D14*
%TO.P,C1,1*%
%TO.N,/OSC3*%
X20320000Y33020000D03*
%TO.P,C1,2*%
%TO.N,Net-(C1-Pad2)*%
X20320000Y28020000D03*
%TD*%
%TO.P,C2,2*%
%TO.N,Net-(C2-Pad2)*%
X20320000Y45800000D03*
%TO.P,C2,1*%
%TO.N,Net-(C2-Pad1)*%
X20320000Y50800000D03*
%TD*%
%TO.P,C3,1*%
%TO.N,Net-(C3-Pad1)*%
X68580000Y17780000D03*
%TO.P,C3,2*%
%TO.N,/IN-*%
X68580000Y22780000D03*
%TD*%
%TO.P,C4,1*%
%TO.N,Net-(C4-Pad1)*%
X20320000Y59690000D03*
%TO.P,C4,2*%
%TO.N,Net-(C2-Pad2)*%
X20320000Y54690000D03*
%TD*%
%TO.P,C5,1*%
%TO.N,Net-(C5-Pad1)*%
X20320000Y36830000D03*
%TO.P,C5,2*%
%TO.N,Net-(C5-Pad2)*%
X20320000Y41830000D03*
%TD*%
D15*
%TO.P,C6,1*%
%TO.N,Net-(C6-Pad1)*%
X82550000Y54610000D03*
D14*
%TO.P,C6,2*%
%TO.N,GND*%
X82550000Y52110000D03*
%TD*%
%TO.P,C7,1*%
%TO.N,Net-(C6-Pad1)*%
X72390000Y57150000D03*
%TO.P,C7,2*%
%TO.N,GND*%
X72390000Y52150000D03*
%TD*%
D15*
%TO.P,C8,1*%
%TO.N,/V+*%
X53340000Y30480000D03*
D14*
%TO.P,C8,2*%
%TO.N,GND*%
X53340000Y32980000D03*
%TD*%
%TO.P,C9,2*%
%TO.N,GND*%
X45720000Y35480000D03*
%TO.P,C9,1*%
%TO.N,/V+*%
X45720000Y30480000D03*
%TD*%
%TO.P,C10,2*%
%TO.N,Net-(C10-Pad2)*%
X66040000Y52150000D03*
%TO.P,C10,1*%
%TO.N,Net-(C10-Pad1)*%
X66040000Y57150000D03*
%TD*%
%TO.P,C11,2*%
%TO.N,/negative voltage converter/V-*%
X60920000Y43180000D03*
D15*
%TO.P,C11,1*%
%TO.N,GND*%
X58420000Y43180000D03*
%TD*%
D16*
%TO.P,D3,2*%
%TO.N,Net-(D3-Pad2)*%
X66040000Y38100000D03*
D17*
%TO.P,D3,1*%
%TO.N,Net-(C6-Pad1)*%
X66040000Y48260000D03*
%TD*%
D16*
%TO.P,D4,2*%
%TO.N,Net-(D4-Pad2)*%
X21590000Y64770000D03*
D17*
%TO.P,D4,1*%
%TO.N,Net-(D1-Pad13)*%
X11430000Y64770000D03*
%TD*%
%TO.P,D5,1*%
%TO.N,Net-(D4-Pad2)*%
X25400000Y64770000D03*
D16*
%TO.P,D5,2*%
%TO.N,Net-(D5-Pad2)*%
X35560000Y64770000D03*
%TD*%
D17*
%TO.P,D6,1*%
%TO.N,Net-(D5-Pad2)*%
X39370000Y64770000D03*
D16*
%TO.P,D6,2*%
%TO.N,Net-(D6-Pad2)*%
X49530000Y64770000D03*
%TD*%
D17*
%TO.P,D7,1*%
%TO.N,Net-(D6-Pad2)*%
X53340000Y64770000D03*
D16*
%TO.P,D7,2*%
%TO.N,/V+*%
X63500000Y64770000D03*
%TD*%
D18*
%TO.P,D8,2*%
%TO.N,Net-(C10-Pad1)*%
X58420000Y57150000D03*
D15*
%TO.P,D8,1*%
%TO.N,GND*%
X58420000Y49530000D03*
%TD*%
%TO.P,D9,1*%
%TO.N,Net-(C10-Pad1)*%
X62230000Y57150000D03*
D18*
%TO.P,D9,2*%
%TO.N,/negative voltage converter/V-*%
X62230000Y49530000D03*
%TD*%
D19*
%TO.P,J1,1*%
%TO.N,Net-(D3-Pad2)*%
X81280000Y38100000D03*
D20*
%TO.P,J1,2*%
%TO.N,GND*%
X81280000Y43100000D03*
%TD*%
D21*
%TO.P,J2,1*%
%TO.N,Net-(J2-Pad1)*%
X20320000Y5080000D03*
D22*
%TO.P,J2,2*%
%TO.N,/V+*%
X20320000Y2540000D03*
%TO.P,J2,3*%
%TO.N,Net-(J2-Pad3)*%
X17780000Y5080000D03*
%TO.P,J2,4*%
%TO.N,/V+*%
X17780000Y2540000D03*
%TO.P,J2,5*%
%TO.N,Net-(J2-Pad5)*%
X15240000Y5080000D03*
%TO.P,J2,6*%
%TO.N,/V+*%
X15240000Y2540000D03*
%TO.P,J2,7*%
%TO.N,Net-(J2-Pad7)*%
X12700000Y5080000D03*
%TO.P,J2,8*%
%TO.N,/V+*%
X12700000Y2540000D03*
%TD*%
D20*
%TO.P,J3,2*%
%TO.N,/IN-*%
X81280000Y27860000D03*
D19*
%TO.P,J3,1*%
%TO.N,/IN+*%
X81280000Y22860000D03*
%TD*%
D23*
%TO.P,M1,1*%
%TO.N,Net-(M1-Pad1)*%
X5080000Y64770000D03*
%TD*%
%TO.P,M2,1*%
%TO.N,Net-(M2-Pad1)*%
X85090000Y64770000D03*
%TD*%
%TO.P,M3,1*%
%TO.N,Net-(M3-Pad1)*%
X85090000Y3810000D03*
%TD*%
%TO.P,M4,1*%
%TO.N,Net-(M4-Pad1)*%
X5080000Y3810000D03*
%TD*%
D13*
%TO.P,R1,1*%
%TO.N,Net-(R1-Pad1)*%
X54610000Y12700000D03*
D12*
%TO.P,R1,2*%
%TO.N,/V+*%
X46990000Y12700000D03*
%TD*%
D13*
%TO.P,R2,1*%
%TO.N,Net-(C3-Pad1)*%
X73660000Y17780000D03*
D12*
%TO.P,R2,2*%
%TO.N,/IN+*%
X81280000Y17780000D03*
%TD*%
D13*
%TO.P,R3,1*%
%TO.N,Net-(R3-Pad1)*%
X20320000Y24130000D03*
D12*
%TO.P,R3,2*%
%TO.N,Net-(C1-Pad2)*%
X20320000Y16510000D03*
%TD*%
%TO.P,R4,2*%
%TO.N,Net-(C2-Pad2)*%
X15240000Y45720000D03*
D13*
%TO.P,R4,1*%
%TO.N,Net-(R4-Pad1)*%
X15240000Y53340000D03*
%TD*%
D24*
%TO.P,RV1,1*%
%TO.N,Net-(R1-Pad1)*%
X63500000Y17780000D03*
%TO.P,RV1,2*%
%TO.N,/IN-*%
X60960000Y10160000D03*
%TO.P,RV1,3*%
%TO.N,Net-(RV1-Pad3)*%
X63500000Y5080000D03*
%TD*%
D25*
%TO.P,TP1,1*%
%TO.N,Net-(RV1-Pad3)*%
X48260000Y6350000D03*
%TD*%
%TO.P,TP2,1*%
%TO.N,/IN-*%
X68580000Y27940000D03*
%TD*%
D26*
%TO.P,U1,2*%
%TO.N,Net-(R1-Pad1)*%
X54610000Y7620000D03*
%TO.P,U1,3*%
%TO.N,Net-(RV1-Pad3)*%
X54610000Y6350000D03*
D27*
%TO.P,U1,1*%
%TO.N,N/C*%
X54610000Y8890000D03*
%TD*%
D15*
%TO.P,U2,1*%
%TO.N,/V+*%
X40640000Y8890000D03*
D18*
%TO.P,U2,21*%
%TO.N,GND*%
X25400000Y57150000D03*
%TO.P,U2,2*%
%TO.N,Net-(D1-Pad24)*%
X40640000Y11430000D03*
%TO.P,U2,22*%
%TO.N,Net-(D1-Pad7)*%
X25400000Y54610000D03*
%TO.P,U2,3*%
%TO.N,Net-(D1-Pad26)*%
X40640000Y13970000D03*
%TO.P,U2,23*%
%TO.N,Net-(D1-Pad11)*%
X25400000Y52070000D03*
%TO.P,U2,4*%
%TO.N,Net-(D1-Pad28)*%
X40640000Y16510000D03*
%TO.P,U2,24*%
%TO.N,Net-(D1-Pad8)*%
X25400000Y49530000D03*
%TO.P,U2,5*%
%TO.N,Net-(D1-Pad29)*%
X40640000Y19050000D03*
%TO.P,U2,25*%
%TO.N,Net-(D1-Pad35)*%
X25400000Y46990000D03*
%TO.P,U2,6*%
%TO.N,Net-(D1-Pad30)*%
X40640000Y21590000D03*
%TO.P,U2,26*%
%TO.N,/V-*%
X25400000Y44450000D03*
%TO.P,U2,7*%
%TO.N,Net-(D1-Pad25)*%
X40640000Y24130000D03*
%TO.P,U2,27*%
%TO.N,Net-(C4-Pad1)*%
X25400000Y41910000D03*
%TO.P,U2,8*%
%TO.N,Net-(D1-Pad23)*%
X40640000Y26670000D03*
%TO.P,U2,28*%
%TO.N,Net-(R4-Pad1)*%
X25400000Y39370000D03*
%TO.P,U2,9*%
%TO.N,Net-(D1-Pad20)*%
X40640000Y29210000D03*
%TO.P,U2,29*%
%TO.N,Net-(C2-Pad1)*%
X25400000Y36830000D03*
%TO.P,U2,10*%
%TO.N,Net-(D1-Pad21)*%
X40640000Y31750000D03*
%TO.P,U2,30*%
%TO.N,/IN-*%
X25400000Y34290000D03*
%TO.P,U2,11*%
%TO.N,Net-(D1-Pad33)*%
X40640000Y34290000D03*
%TO.P,U2,31*%
%TO.N,Net-(C3-Pad1)*%
X25400000Y31750000D03*
%TO.P,U2,12*%
%TO.N,Net-(D1-Pad34)*%
X40640000Y36830000D03*
%TO.P,U2,32*%
%TO.N,/IN-*%
X25400000Y29210000D03*
%TO.P,U2,13*%
%TO.N,Net-(D1-Pad36)*%
X40640000Y39370000D03*
%TO.P,U2,33*%
%TO.N,Net-(C5-Pad2)*%
X25400000Y26670000D03*
%TO.P,U2,14*%
%TO.N,Net-(D1-Pad19)*%
X40640000Y41910000D03*
%TO.P,U2,34*%
%TO.N,Net-(C5-Pad1)*%
X25400000Y24130000D03*
%TO.P,U2,15*%
%TO.N,Net-(D1-Pad6)*%
X40640000Y44450000D03*
%TO.P,U2,35*%
%TO.N,/IN-*%
X25400000Y21590000D03*
%TO.P,U2,16*%
%TO.N,Net-(D1-Pad10)*%
X40640000Y46990000D03*
%TO.P,U2,36*%
%TO.N,Net-(RV1-Pad3)*%
X25400000Y19050000D03*
%TO.P,U2,17*%
%TO.N,Net-(D1-Pad12)*%
X40640000Y49530000D03*
%TO.P,U2,37*%
%TO.N,Net-(U2-Pad37)*%
X25400000Y16510000D03*
%TO.P,U2,18*%
%TO.N,Net-(D1-Pad5)*%
X40640000Y52070000D03*
%TO.P,U2,38*%
%TO.N,/OSC3*%
X25400000Y13970000D03*
%TO.P,U2,19*%
%TO.N,Net-(D1-Pad15)*%
X40640000Y54610000D03*
%TO.P,U2,39*%
%TO.N,Net-(R3-Pad1)*%
X25400000Y11430000D03*
%TO.P,U2,20*%
%TO.N,Net-(D1-Pad17)*%
X40640000Y57150000D03*
%TO.P,U2,40*%
%TO.N,Net-(C1-Pad2)*%
X25400000Y8890000D03*
%TD*%
D27*
%TO.P,U3,1*%
%TO.N,Net-(C6-Pad1)*%
X62230000Y33020000D03*
D26*
%TO.P,U3,3*%
%TO.N,/V+*%
X62230000Y30480000D03*
%TO.P,U3,2*%
%TO.N,GND*%
X62230000Y31750000D03*
%TD*%
D15*
%TO.P,U4,1*%
%TO.N,Net-(U4-Pad1)*%
X45720000Y57150000D03*
D18*
%TO.P,U4,8*%
%TO.N,Net-(C10-Pad2)*%
X53340000Y41910000D03*
%TO.P,U4,2*%
X45720000Y54610000D03*
%TO.P,U4,9*%
%TO.N,Net-(U4-Pad1)*%
X53340000Y44450000D03*
%TO.P,U4,3*%
X45720000Y52070000D03*
%TO.P,U4,10*%
%TO.N,Net-(C10-Pad2)*%
X53340000Y46990000D03*
%TO.P,U4,4*%
X45720000Y49530000D03*
%TO.P,U4,11*%
%TO.N,Net-(U4-Pad1)*%
X53340000Y49530000D03*
%TO.P,U4,5*%
X45720000Y46990000D03*
%TO.P,U4,12*%
X53340000Y52070000D03*
%TO.P,U4,6*%
%TO.N,Net-(C10-Pad2)*%
X45720000Y44450000D03*
%TO.P,U4,13*%
%TO.N,/negative voltage converter/OSC3*%
X53340000Y54610000D03*
%TO.P,U4,7*%
%TO.N,GND*%
X45720000Y41910000D03*
%TO.P,U4,14*%
%TO.N,/negative voltage converter/V+*%
X53340000Y57150000D03*
%TD*%
D28*
%TO.N,/DP4*%
X15354800Y49399200D03*
%TO.N,Net-(D1-Pad11)*%
X15733000Y47878400D03*
%TO.N,/DP3*%
X9319200Y36086300D03*
%TO.N,Net-(D1-Pad35)*%
X16016700Y44206100D03*
%TO.N,Net-(D1-Pad33)*%
X26257600Y17780000D03*
%TO.N,Net-(D1-Pad24)*%
X14000300Y12700000D03*
X32393700Y12559300D03*
%TD*%
D29*
%TO.N,/OSC3*%
X20320000Y33020000D02*
X21798700Y31541300D01*
X21798700Y31541300D02*
X21798700Y21778600D01*
X21798700Y21778600D02*
X23824500Y19752800D01*
X23824500Y19752800D02*
X23824500Y16298700D01*
X23824500Y16298700D02*
X24902900Y15220300D01*
X24902900Y15220300D02*
X25400000Y15220300D01*
X25400000Y13970000D02*
X25400000Y15220300D01*
%TO.N,Net-(C1-Pad2)*%
X20320000Y16510000D02*
X20320000Y17660300D01*
X20320000Y17660300D02*
X19164900Y18815400D01*
X19164900Y18815400D02*
X19164900Y26864900D01*
X19164900Y26864900D02*
X20320000Y28020000D01*
X25400000Y10140300D02*
X24853000Y10140300D01*
X24853000Y10140300D02*
X20320000Y14673300D01*
X20320000Y14673300D02*
X20320000Y16510000D01*
X25400000Y8890000D02*
X25400000Y10140300D01*
%TO.N,Net-(C2-Pad2)*%
X20320000Y45800000D02*
X19065500Y47054500D01*
X19065500Y47054500D02*
X19065500Y53435500D01*
X19065500Y53435500D02*
X20320000Y54690000D01*
%TO.N,Net-(C2-Pad1)*%
X25400000Y36830000D02*
X25400000Y38080300D01*
X25400000Y38080300D02*
X24853000Y38080300D01*
X24853000Y38080300D02*
X22198700Y40734600D01*
X22198700Y40734600D02*
X22198700Y48921300D01*
X22198700Y48921300D02*
X20320000Y50800000D01*
%TO.N,/IN-*%
X26650300Y29210000D02*
X26650300Y32307500D01*
X26650300Y32307500D02*
X25918100Y33039700D01*
X25918100Y33039700D02*
X25400000Y33039700D01*
X25400000Y22840300D02*
X25947000Y22840300D01*
X25947000Y22840300D02*
X26650300Y23543600D01*
X26650300Y23543600D02*
X26650300Y29210000D01*
X25400000Y29210000D02*
X26650300Y29210000D01*
X25400000Y34290000D02*
X25400000Y33039700D01*
X25400000Y21590000D02*
X25400000Y22840300D01*
X68580000Y22780000D02*
X68580000Y27940000D01*
X60960000Y10160000D02*
X66110800Y15310800D01*
X66110800Y15310800D02*
X66110800Y20310800D01*
X66110800Y20310800D02*
X68580000Y22780000D01*
%TO.N,Net-(C4-Pad1)*%
X25400000Y43160300D02*
X24852900Y43160300D01*
X24852900Y43160300D02*
X24149700Y43863500D01*
X24149700Y43863500D02*
X24149700Y50429500D01*
X24149700Y50429500D02*
X22439700Y52139500D01*
X22439700Y52139500D02*
X22439700Y57570300D01*
X22439700Y57570300D02*
X20320000Y59690000D01*
X25400000Y41910000D02*
X25400000Y43160300D01*
%TO.N,Net-(C5-Pad1)*%
X20320000Y36830000D02*
X22849100Y34300900D01*
X22849100Y34300900D02*
X22849100Y27413100D01*
X22849100Y27413100D02*
X24881900Y25380300D01*
X24881900Y25380300D02*
X25400000Y25380300D01*
X25400000Y24130000D02*
X25400000Y25380300D01*
%TO.N,Net-(C5-Pad2)*%
X20320000Y41830000D02*
X20320000Y39308700D01*
X20320000Y39308700D02*
X23499400Y36129300D01*
X23499400Y36129300D02*
X23499400Y29273800D01*
X23499400Y29273800D02*
X24852900Y27920300D01*
X24852900Y27920300D02*
X25400000Y27920300D01*
X25400000Y26670000D02*
X25400000Y27920300D01*
%TO.N,Net-(C6-Pad1)*%
X72390000Y55484800D02*
X80424900Y55484800D01*
X80424900Y55484800D02*
X81299700Y54610000D01*
X66040000Y49810300D02*
X71714500Y55484800D01*
X71714500Y55484800D02*
X72390000Y55484800D01*
X72390000Y55484800D02*
X72390000Y57150000D01*
X82550000Y54610000D02*
X81299700Y54610000D01*
X66040000Y48260000D02*
X66040000Y49810300D01*
%TO.N,GND*%
X25400000Y57150000D02*
X26650300Y57150000D01*
X45720000Y41910000D02*
X44469700Y41910000D01*
X44469700Y41910000D02*
X43219400Y43160300D01*
X43219400Y43160300D02*
X40121900Y43160300D01*
X40121900Y43160300D02*
X26650300Y56631900D01*
X26650300Y56631900D02*
X26650300Y57150000D01*
X45720000Y35480000D02*
X45720000Y41910000D01*
X81280000Y43100000D02*
X81280000Y44540300D01*
X81280000Y44540300D02*
X82550000Y45810300D01*
X82550000Y45810300D02*
X82550000Y52110000D01*
%TO.N,/V+*%
X40640000Y8890000D02*
X39389700Y8890000D01*
X39389700Y8890000D02*
X33039700Y2540000D01*
X33039700Y2540000D02*
X20320000Y2540000D01*
X61029700Y30480000D02*
X53340000Y30480000D01*
X61192300Y30480000D02*
X61029700Y30480000D01*
X62230000Y30480000D02*
X61192300Y30480000D01*
X46990000Y29210000D02*
X45720000Y30480000D01*
X46990000Y12700000D02*
X46990000Y29210000D01*
X53340000Y30480000D02*
X48260000Y30480000D01*
X48260000Y30480000D02*
X46990000Y29210000D01*
X63500000Y64770000D02*
X63500000Y43850000D01*
X63500000Y43850000D02*
X61029700Y41379700D01*
X61029700Y41379700D02*
X61029700Y30480000D01*
%TO.N,Net-(C10-Pad2)*%
X46970300Y49530000D02*
X46970300Y52627500D01*
X46970300Y52627500D02*
X46238100Y53359700D01*
X46238100Y53359700D02*
X45720000Y53359700D01*
X47010800Y46990000D02*
X47010800Y49489500D01*
X47010800Y49489500D02*
X46970300Y49530000D01*
X45720000Y49530000D02*
X46970300Y49530000D01*
X45720000Y54610000D02*
X45720000Y53359700D01*
X52089700Y46990000D02*
X52089700Y43892500D01*
X52089700Y43892500D02*
X52821900Y43160300D01*
X52821900Y43160300D02*
X53340000Y43160300D01*
X53340000Y41910000D02*
X53340000Y43160300D01*
X47010800Y46990000D02*
X52089700Y46990000D01*
X45720000Y45700300D02*
X46267000Y45700300D01*
X46267000Y45700300D02*
X47010800Y46444100D01*
X47010800Y46444100D02*
X47010800Y46990000D01*
X53340000Y46990000D02*
X52089700Y46990000D01*
X45720000Y44450000D02*
X45720000Y45700300D01*
%TO.N,/negative voltage converter/V-*%
X62230000Y49530000D02*
X62230000Y48279700D01*
X62230000Y48279700D02*
X60920000Y46969700D01*
X60920000Y46969700D02*
X60920000Y43180000D01*
%TO.N,Net-(D1-Pad15)*%
X3810000Y49530000D02*
X6350000Y52070000D01*
%TO.N,/DP4*%
X20320000Y12580300D02*
X16867000Y16033300D01*
X16867000Y16033300D02*
X16867000Y47946900D01*
X16867000Y47946900D02*
X15414700Y49399200D01*
X15414700Y49399200D02*
X15354800Y49399200D01*
X20320000Y11430000D02*
X20320000Y12580300D01*
%TO.N,Net-(D1-Pad13)*%
X3810000Y44450000D02*
X3810000Y46990000D01*
X3810000Y21590000D02*
X1812400Y23587600D01*
X1812400Y23587600D02*
X1812400Y42452400D01*
X1812400Y42452400D02*
X3810000Y44450000D01*
X3810000Y19050000D02*
X3810000Y21590000D01*
X11430000Y64770000D02*
X9481800Y64770000D01*
X9481800Y64770000D02*
X2470300Y57758500D01*
X2470300Y57758500D02*
X2470300Y48329700D01*
X2470300Y48329700D02*
X3810000Y46990000D01*
%TO.N,Net-(D1-Pad7)*%
X25400000Y54610000D02*
X25400000Y55860300D01*
X25400000Y55860300D02*
X24852900Y55860300D01*
X24852900Y55860300D02*
X24149700Y56563500D01*
X24149700Y56563500D02*
X24149700Y58618500D01*
X24149700Y58618500D02*
X21136900Y61631300D01*
X21136900Y61631300D02*
X19536400Y61631300D01*
X19536400Y61631300D02*
X7784200Y49879100D01*
X7784200Y49879100D02*
X7784200Y43344200D01*
X7784200Y43344200D02*
X6350000Y41910000D01*
%TO.N,Net-(D1-Pad8)*%
X25400000Y50780300D02*
X24921500Y50780300D01*
X24921500Y50780300D02*
X23499300Y52202500D01*
X23499300Y52202500D02*
X23499300Y58349100D01*
X23499300Y58349100D02*
X20867500Y60980900D01*
X20867500Y60980900D02*
X19805800Y60980900D01*
X19805800Y60980900D02*
X9294000Y50469100D01*
X9294000Y50469100D02*
X9294000Y42314000D01*
X9294000Y42314000D02*
X6350000Y39370000D01*
X25400000Y49530000D02*
X25400000Y50780300D01*
%TO.N,Net-(D1-Pad11)*%
X15733000Y47878400D02*
X12787200Y44932600D01*
X12787200Y44932600D02*
X12787200Y41720200D01*
X12787200Y41720200D02*
X7818500Y36751500D01*
X7818500Y36751500D02*
X7818500Y36387300D01*
X7818500Y36387300D02*
X6955000Y35523800D01*
X6955000Y35523800D02*
X3252300Y35523800D01*
X3252300Y35523800D02*
X2462800Y36313300D01*
X2462800Y36313300D02*
X2462800Y38022800D01*
X2462800Y38022800D02*
X3810000Y39370000D01*
%TO.N,/DP3*%
X17780000Y11430000D02*
X17780000Y12580300D01*
X9319200Y36086300D02*
X16184300Y29221200D01*
X16184300Y29221200D02*
X16184300Y14176000D01*
X16184300Y14176000D02*
X17780000Y12580300D01*
%TO.N,/DP1*%
X6350000Y11430000D02*
X12700000Y11430000D01*
%TO.N,/DP2*%
X15240000Y11430000D02*
X15240000Y12580300D01*
X6350000Y24130000D02*
X15240000Y15240000D01*
X15240000Y15240000D02*
X15240000Y12580300D01*
%TO.N,Net-(J2-Pad3)*%
X17780000Y5080000D02*
X17780000Y8890000D01*
%TO.N,Net-(J2-Pad5)*%
X15240000Y5080000D02*
X15240000Y8890000D01*
%TO.N,Net-(J2-Pad7)*%
X12700000Y5080000D02*
X12700000Y8890000D01*
%TO.N,/IN+*%
X81280000Y17780000D02*
X81280000Y22860000D01*
%TO.N,Net-(R1-Pad1)*%
X55810300Y11499700D02*
X62090600Y17780000D01*
X62090600Y17780000D02*
X63500000Y17780000D01*
X55810300Y11499700D02*
X54610000Y12700000D01*
X55810300Y7620000D02*
X55810300Y11499700D01*
X54610000Y7620000D02*
X55810300Y7620000D01*
%TO.N,Net-(R3-Pad1)*%
X20320000Y24130000D02*
X20320000Y22310500D01*
X20320000Y22310500D02*
X22849100Y19781400D01*
X22849100Y19781400D02*
X22849100Y14684100D01*
X22849100Y14684100D02*
X24852900Y12680300D01*
X24852900Y12680300D02*
X25400000Y12680300D01*
X25400000Y11430000D02*
X25400000Y12680300D01*
%TO.N,Net-(R4-Pad1)*%
X25400000Y39370000D02*
X25400000Y40620300D01*
X25400000Y40620300D02*
X24853000Y40620300D01*
X24853000Y40620300D02*
X23404200Y42069100D01*
X23404200Y42069100D02*
X23404200Y48635600D01*
X23404200Y48635600D02*
X21789300Y50250500D01*
X21789300Y50250500D02*
X21789300Y55064900D01*
X21789300Y55064900D02*
X20884200Y55970000D01*
X20884200Y55970000D02*
X17870000Y55970000D01*
X17870000Y55970000D02*
X15240000Y53340000D01*
%TO.N,Net-(U4-Pad1)*%
X53340000Y44450000D02*
X53340000Y45700300D01*
X53340000Y49530000D02*
X53340000Y48279700D01*
X53340000Y48279700D02*
X53887000Y48279700D01*
X53887000Y48279700D02*
X54629600Y47537100D01*
X54629600Y47537100D02*
X54629600Y46471800D01*
X54629600Y46471800D02*
X53858100Y45700300D01*
X53858100Y45700300D02*
X53340000Y45700300D01*
X45720000Y52070000D02*
X45720000Y50819700D01*
X45720000Y46990000D02*
X45720000Y48240300D01*
X45720000Y48240300D02*
X45173000Y48240300D01*
X45173000Y48240300D02*
X44430400Y48982900D01*
X44430400Y48982900D02*
X44430400Y50048200D01*
X44430400Y50048200D02*
X45201900Y50819700D01*
X45201900Y50819700D02*
X45720000Y50819700D01*
%TO.N,Net-(D1-Pad35)*%
X16016700Y44206100D02*
X16016700Y43986200D01*
X16016700Y43986200D02*
X8468900Y36438400D01*
X8468900Y36438400D02*
X8468900Y36117900D01*
X8468900Y36117900D02*
X6490600Y34139600D01*
X6490600Y34139600D02*
X4304000Y34139600D01*
X4304000Y34139600D02*
X2462800Y32298400D01*
X2462800Y32298400D02*
X2462800Y30557200D01*
X2462800Y30557200D02*
X3810000Y29210000D01*
%TO.N,Net-(D1-Pad33)*%
X40640000Y33039700D02*
X40092900Y33039700D01*
X40092900Y33039700D02*
X39389700Y32336500D01*
X39389700Y32336500D02*
X39389700Y30912100D01*
X39389700Y30912100D02*
X26257600Y17780000D01*
X40640000Y34290000D02*
X40640000Y33039700D01*
%TO.N,Net-(D1-Pad30)*%
X41187000Y20339700D02*
X40640000Y20339700D01*
X42549200Y18977500D02*
X41187000Y20339700D01*
X11052480Y572500D02*
X35484200Y572500D01*
X40640000Y20339700D02*
X40640000Y21590000D01*
X8890000Y2540000D02*
X10954990Y475010D01*
X1834300Y14534300D02*
X1834300Y10627300D01*
X4841600Y7620000D02*
X6350000Y7620000D01*
X8890000Y5080000D02*
X8890000Y2540000D01*
X35484200Y572500D02*
X42549200Y7637500D01*
X10954990Y475010D02*
X11052480Y572500D01*
X3810000Y16510000D02*
X1834300Y14534300D01*
X1834300Y10627300D02*
X4841600Y7620000D01*
X42549200Y7637500D02*
X42549200Y18977500D01*
X6350000Y7620000D02*
X8890000Y5080000D01*
%TO.N,Net-(D1-Pad29)*%
X40640000Y19050000D02*
X40640000Y17799700D01*
X40640000Y17799700D02*
X41187000Y17799700D01*
X41187000Y17799700D02*
X41890400Y17096300D01*
X41890400Y17096300D02*
X41890400Y7898500D01*
X41890400Y7898500D02*
X35214800Y1222900D01*
X2509600Y10871800D02*
X2509600Y12669600D01*
X2509600Y12669600D02*
X3810000Y13970000D01*
X12093098Y1222900D02*
X12747100Y1222900D01*
X11399999Y1915999D02*
X12093098Y1222900D01*
X11399999Y3489253D02*
X11399999Y1915999D01*
X6619242Y8270010D02*
X11399999Y3489253D01*
X5111390Y8270010D02*
X6619242Y8270010D01*
X2509600Y10871800D02*
X5111390Y8270010D01*
X12747100Y1222900D02*
X12158500Y1222900D01*
X35214800Y1222900D02*
X12747100Y1222900D01*
%TO.N,Net-(D1-Pad28)*%
X40640000Y16510000D02*
X35123400Y16510000D01*
X35123400Y16510000D02*
X26214600Y7601200D01*
X26214600Y7601200D02*
X19961500Y7601200D01*
X19961500Y7601200D02*
X18930400Y8632300D01*
X18930400Y8632300D02*
X18930400Y9396200D01*
X18930400Y9396200D02*
X18197000Y10129600D01*
X18197000Y10129600D02*
X5110400Y10129600D01*
X5110400Y10129600D02*
X3810000Y11430000D01*
%TO.N,Net-(D1-Pad24)*%
X40640000Y11430000D02*
X33523000Y11430000D01*
X33523000Y11430000D02*
X32393700Y12559300D01*
X7650300Y19050000D02*
X14000300Y12700000D01*
X6350000Y19050000D02*
X7650300Y19050000D01*
%TD*%
M02*
